G04 #@! TF.GenerationSoftware,KiCad,Pcbnew,9.0.2*
G04 #@! TF.CreationDate,2025-07-21T23:06:58-07:00*
G04 #@! TF.ProjectId,servo-drive,73657276-6f2d-4647-9269-76652e6b6963,rev?*
G04 #@! TF.SameCoordinates,Original*
G04 #@! TF.FileFunction,Legend,Top*
G04 #@! TF.FilePolarity,Positive*
%FSLAX46Y46*%
G04 Gerber Fmt 4.6, Leading zero omitted, Abs format (unit mm)*
G04 Created by KiCad (PCBNEW 9.0.2) date 2025-07-21 23:06:58*
%MOMM*%
%LPD*%
G01*
G04 APERTURE LIST*
%ADD10C,0.150000*%
%ADD11C,0.153000*%
%ADD12C,0.120000*%
%ADD13C,0.000000*%
G04 APERTURE END LIST*
D10*
X127780000Y-90750000D02*
X128000000Y-91000000D01*
X127780000Y-89775000D02*
X127780000Y-90750000D01*
D11*
X141359424Y-89166666D02*
X141407044Y-89214285D01*
X141407044Y-89214285D02*
X141454663Y-89357142D01*
X141454663Y-89357142D02*
X141454663Y-89452380D01*
X141454663Y-89452380D02*
X141407044Y-89595237D01*
X141407044Y-89595237D02*
X141311805Y-89690475D01*
X141311805Y-89690475D02*
X141216567Y-89738094D01*
X141216567Y-89738094D02*
X141026091Y-89785713D01*
X141026091Y-89785713D02*
X140883234Y-89785713D01*
X140883234Y-89785713D02*
X140692758Y-89738094D01*
X140692758Y-89738094D02*
X140597520Y-89690475D01*
X140597520Y-89690475D02*
X140502282Y-89595237D01*
X140502282Y-89595237D02*
X140454663Y-89452380D01*
X140454663Y-89452380D02*
X140454663Y-89357142D01*
X140454663Y-89357142D02*
X140502282Y-89214285D01*
X140502282Y-89214285D02*
X140549901Y-89166666D01*
X140454663Y-88833332D02*
X140454663Y-88166666D01*
X140454663Y-88166666D02*
X141454663Y-88595237D01*
X152159424Y-93742857D02*
X152207044Y-93790476D01*
X152207044Y-93790476D02*
X152254663Y-93933333D01*
X152254663Y-93933333D02*
X152254663Y-94028571D01*
X152254663Y-94028571D02*
X152207044Y-94171428D01*
X152207044Y-94171428D02*
X152111805Y-94266666D01*
X152111805Y-94266666D02*
X152016567Y-94314285D01*
X152016567Y-94314285D02*
X151826091Y-94361904D01*
X151826091Y-94361904D02*
X151683234Y-94361904D01*
X151683234Y-94361904D02*
X151492758Y-94314285D01*
X151492758Y-94314285D02*
X151397520Y-94266666D01*
X151397520Y-94266666D02*
X151302282Y-94171428D01*
X151302282Y-94171428D02*
X151254663Y-94028571D01*
X151254663Y-94028571D02*
X151254663Y-93933333D01*
X151254663Y-93933333D02*
X151302282Y-93790476D01*
X151302282Y-93790476D02*
X151349901Y-93742857D01*
X151349901Y-93361904D02*
X151302282Y-93314285D01*
X151302282Y-93314285D02*
X151254663Y-93219047D01*
X151254663Y-93219047D02*
X151254663Y-92980952D01*
X151254663Y-92980952D02*
X151302282Y-92885714D01*
X151302282Y-92885714D02*
X151349901Y-92838095D01*
X151349901Y-92838095D02*
X151445139Y-92790476D01*
X151445139Y-92790476D02*
X151540377Y-92790476D01*
X151540377Y-92790476D02*
X151683234Y-92838095D01*
X151683234Y-92838095D02*
X152254663Y-93409523D01*
X152254663Y-93409523D02*
X152254663Y-92790476D01*
X151254663Y-92457142D02*
X151254663Y-91790476D01*
X151254663Y-91790476D02*
X152254663Y-92219047D01*
X140659424Y-106342857D02*
X140707044Y-106390476D01*
X140707044Y-106390476D02*
X140754663Y-106533333D01*
X140754663Y-106533333D02*
X140754663Y-106628571D01*
X140754663Y-106628571D02*
X140707044Y-106771428D01*
X140707044Y-106771428D02*
X140611805Y-106866666D01*
X140611805Y-106866666D02*
X140516567Y-106914285D01*
X140516567Y-106914285D02*
X140326091Y-106961904D01*
X140326091Y-106961904D02*
X140183234Y-106961904D01*
X140183234Y-106961904D02*
X139992758Y-106914285D01*
X139992758Y-106914285D02*
X139897520Y-106866666D01*
X139897520Y-106866666D02*
X139802282Y-106771428D01*
X139802282Y-106771428D02*
X139754663Y-106628571D01*
X139754663Y-106628571D02*
X139754663Y-106533333D01*
X139754663Y-106533333D02*
X139802282Y-106390476D01*
X139802282Y-106390476D02*
X139849901Y-106342857D01*
X139849901Y-105961904D02*
X139802282Y-105914285D01*
X139802282Y-105914285D02*
X139754663Y-105819047D01*
X139754663Y-105819047D02*
X139754663Y-105580952D01*
X139754663Y-105580952D02*
X139802282Y-105485714D01*
X139802282Y-105485714D02*
X139849901Y-105438095D01*
X139849901Y-105438095D02*
X139945139Y-105390476D01*
X139945139Y-105390476D02*
X140040377Y-105390476D01*
X140040377Y-105390476D02*
X140183234Y-105438095D01*
X140183234Y-105438095D02*
X140754663Y-106009523D01*
X140754663Y-106009523D02*
X140754663Y-105390476D01*
X139754663Y-104533333D02*
X139754663Y-104723809D01*
X139754663Y-104723809D02*
X139802282Y-104819047D01*
X139802282Y-104819047D02*
X139849901Y-104866666D01*
X139849901Y-104866666D02*
X139992758Y-104961904D01*
X139992758Y-104961904D02*
X140183234Y-105009523D01*
X140183234Y-105009523D02*
X140564186Y-105009523D01*
X140564186Y-105009523D02*
X140659424Y-104961904D01*
X140659424Y-104961904D02*
X140707044Y-104914285D01*
X140707044Y-104914285D02*
X140754663Y-104819047D01*
X140754663Y-104819047D02*
X140754663Y-104628571D01*
X140754663Y-104628571D02*
X140707044Y-104533333D01*
X140707044Y-104533333D02*
X140659424Y-104485714D01*
X140659424Y-104485714D02*
X140564186Y-104438095D01*
X140564186Y-104438095D02*
X140326091Y-104438095D01*
X140326091Y-104438095D02*
X140230853Y-104485714D01*
X140230853Y-104485714D02*
X140183234Y-104533333D01*
X140183234Y-104533333D02*
X140135615Y-104628571D01*
X140135615Y-104628571D02*
X140135615Y-104819047D01*
X140135615Y-104819047D02*
X140183234Y-104914285D01*
X140183234Y-104914285D02*
X140230853Y-104961904D01*
X140230853Y-104961904D02*
X140326091Y-105009523D01*
X134733333Y-122654663D02*
X134400000Y-122178472D01*
X134161905Y-122654663D02*
X134161905Y-121654663D01*
X134161905Y-121654663D02*
X134542857Y-121654663D01*
X134542857Y-121654663D02*
X134638095Y-121702282D01*
X134638095Y-121702282D02*
X134685714Y-121749901D01*
X134685714Y-121749901D02*
X134733333Y-121845139D01*
X134733333Y-121845139D02*
X134733333Y-121987996D01*
X134733333Y-121987996D02*
X134685714Y-122083234D01*
X134685714Y-122083234D02*
X134638095Y-122130853D01*
X134638095Y-122130853D02*
X134542857Y-122178472D01*
X134542857Y-122178472D02*
X134161905Y-122178472D01*
X135590476Y-121654663D02*
X135400000Y-121654663D01*
X135400000Y-121654663D02*
X135304762Y-121702282D01*
X135304762Y-121702282D02*
X135257143Y-121749901D01*
X135257143Y-121749901D02*
X135161905Y-121892758D01*
X135161905Y-121892758D02*
X135114286Y-122083234D01*
X135114286Y-122083234D02*
X135114286Y-122464186D01*
X135114286Y-122464186D02*
X135161905Y-122559424D01*
X135161905Y-122559424D02*
X135209524Y-122607044D01*
X135209524Y-122607044D02*
X135304762Y-122654663D01*
X135304762Y-122654663D02*
X135495238Y-122654663D01*
X135495238Y-122654663D02*
X135590476Y-122607044D01*
X135590476Y-122607044D02*
X135638095Y-122559424D01*
X135638095Y-122559424D02*
X135685714Y-122464186D01*
X135685714Y-122464186D02*
X135685714Y-122226091D01*
X135685714Y-122226091D02*
X135638095Y-122130853D01*
X135638095Y-122130853D02*
X135590476Y-122083234D01*
X135590476Y-122083234D02*
X135495238Y-122035615D01*
X135495238Y-122035615D02*
X135304762Y-122035615D01*
X135304762Y-122035615D02*
X135209524Y-122083234D01*
X135209524Y-122083234D02*
X135161905Y-122130853D01*
X135161905Y-122130853D02*
X135114286Y-122226091D01*
X136684663Y-107166666D02*
X136208472Y-107499999D01*
X136684663Y-107738094D02*
X135684663Y-107738094D01*
X135684663Y-107738094D02*
X135684663Y-107357142D01*
X135684663Y-107357142D02*
X135732282Y-107261904D01*
X135732282Y-107261904D02*
X135779901Y-107214285D01*
X135779901Y-107214285D02*
X135875139Y-107166666D01*
X135875139Y-107166666D02*
X136017996Y-107166666D01*
X136017996Y-107166666D02*
X136113234Y-107214285D01*
X136113234Y-107214285D02*
X136160853Y-107261904D01*
X136160853Y-107261904D02*
X136208472Y-107357142D01*
X136208472Y-107357142D02*
X136208472Y-107738094D01*
X136113234Y-106595237D02*
X136065615Y-106690475D01*
X136065615Y-106690475D02*
X136017996Y-106738094D01*
X136017996Y-106738094D02*
X135922758Y-106785713D01*
X135922758Y-106785713D02*
X135875139Y-106785713D01*
X135875139Y-106785713D02*
X135779901Y-106738094D01*
X135779901Y-106738094D02*
X135732282Y-106690475D01*
X135732282Y-106690475D02*
X135684663Y-106595237D01*
X135684663Y-106595237D02*
X135684663Y-106404761D01*
X135684663Y-106404761D02*
X135732282Y-106309523D01*
X135732282Y-106309523D02*
X135779901Y-106261904D01*
X135779901Y-106261904D02*
X135875139Y-106214285D01*
X135875139Y-106214285D02*
X135922758Y-106214285D01*
X135922758Y-106214285D02*
X136017996Y-106261904D01*
X136017996Y-106261904D02*
X136065615Y-106309523D01*
X136065615Y-106309523D02*
X136113234Y-106404761D01*
X136113234Y-106404761D02*
X136113234Y-106595237D01*
X136113234Y-106595237D02*
X136160853Y-106690475D01*
X136160853Y-106690475D02*
X136208472Y-106738094D01*
X136208472Y-106738094D02*
X136303710Y-106785713D01*
X136303710Y-106785713D02*
X136494186Y-106785713D01*
X136494186Y-106785713D02*
X136589424Y-106738094D01*
X136589424Y-106738094D02*
X136637044Y-106690475D01*
X136637044Y-106690475D02*
X136684663Y-106595237D01*
X136684663Y-106595237D02*
X136684663Y-106404761D01*
X136684663Y-106404761D02*
X136637044Y-106309523D01*
X136637044Y-106309523D02*
X136589424Y-106261904D01*
X136589424Y-106261904D02*
X136494186Y-106214285D01*
X136494186Y-106214285D02*
X136303710Y-106214285D01*
X136303710Y-106214285D02*
X136208472Y-106261904D01*
X136208472Y-106261904D02*
X136160853Y-106309523D01*
X136160853Y-106309523D02*
X136113234Y-106404761D01*
X135354663Y-90761904D02*
X136164186Y-90761904D01*
X136164186Y-90761904D02*
X136259424Y-90714285D01*
X136259424Y-90714285D02*
X136307044Y-90666666D01*
X136307044Y-90666666D02*
X136354663Y-90571428D01*
X136354663Y-90571428D02*
X136354663Y-90380952D01*
X136354663Y-90380952D02*
X136307044Y-90285714D01*
X136307044Y-90285714D02*
X136259424Y-90238095D01*
X136259424Y-90238095D02*
X136164186Y-90190476D01*
X136164186Y-90190476D02*
X135354663Y-90190476D01*
X136354663Y-89190476D02*
X136354663Y-89761904D01*
X136354663Y-89476190D02*
X135354663Y-89476190D01*
X135354663Y-89476190D02*
X135497520Y-89571428D01*
X135497520Y-89571428D02*
X135592758Y-89666666D01*
X135592758Y-89666666D02*
X135640377Y-89761904D01*
X141754663Y-104461904D02*
X142564186Y-104461904D01*
X142564186Y-104461904D02*
X142659424Y-104414285D01*
X142659424Y-104414285D02*
X142707044Y-104366666D01*
X142707044Y-104366666D02*
X142754663Y-104271428D01*
X142754663Y-104271428D02*
X142754663Y-104080952D01*
X142754663Y-104080952D02*
X142707044Y-103985714D01*
X142707044Y-103985714D02*
X142659424Y-103938095D01*
X142659424Y-103938095D02*
X142564186Y-103890476D01*
X142564186Y-103890476D02*
X141754663Y-103890476D01*
X141849901Y-103461904D02*
X141802282Y-103414285D01*
X141802282Y-103414285D02*
X141754663Y-103319047D01*
X141754663Y-103319047D02*
X141754663Y-103080952D01*
X141754663Y-103080952D02*
X141802282Y-102985714D01*
X141802282Y-102985714D02*
X141849901Y-102938095D01*
X141849901Y-102938095D02*
X141945139Y-102890476D01*
X141945139Y-102890476D02*
X142040377Y-102890476D01*
X142040377Y-102890476D02*
X142183234Y-102938095D01*
X142183234Y-102938095D02*
X142754663Y-103509523D01*
X142754663Y-103509523D02*
X142754663Y-102890476D01*
X147157142Y-121559424D02*
X147109523Y-121607044D01*
X147109523Y-121607044D02*
X146966666Y-121654663D01*
X146966666Y-121654663D02*
X146871428Y-121654663D01*
X146871428Y-121654663D02*
X146728571Y-121607044D01*
X146728571Y-121607044D02*
X146633333Y-121511805D01*
X146633333Y-121511805D02*
X146585714Y-121416567D01*
X146585714Y-121416567D02*
X146538095Y-121226091D01*
X146538095Y-121226091D02*
X146538095Y-121083234D01*
X146538095Y-121083234D02*
X146585714Y-120892758D01*
X146585714Y-120892758D02*
X146633333Y-120797520D01*
X146633333Y-120797520D02*
X146728571Y-120702282D01*
X146728571Y-120702282D02*
X146871428Y-120654663D01*
X146871428Y-120654663D02*
X146966666Y-120654663D01*
X146966666Y-120654663D02*
X147109523Y-120702282D01*
X147109523Y-120702282D02*
X147157142Y-120749901D01*
X147538095Y-120749901D02*
X147585714Y-120702282D01*
X147585714Y-120702282D02*
X147680952Y-120654663D01*
X147680952Y-120654663D02*
X147919047Y-120654663D01*
X147919047Y-120654663D02*
X148014285Y-120702282D01*
X148014285Y-120702282D02*
X148061904Y-120749901D01*
X148061904Y-120749901D02*
X148109523Y-120845139D01*
X148109523Y-120845139D02*
X148109523Y-120940377D01*
X148109523Y-120940377D02*
X148061904Y-121083234D01*
X148061904Y-121083234D02*
X147490476Y-121654663D01*
X147490476Y-121654663D02*
X148109523Y-121654663D01*
X148966666Y-120987996D02*
X148966666Y-121654663D01*
X148728571Y-120607044D02*
X148490476Y-121321329D01*
X148490476Y-121321329D02*
X149109523Y-121321329D01*
X151859424Y-101666666D02*
X151907044Y-101714285D01*
X151907044Y-101714285D02*
X151954663Y-101857142D01*
X151954663Y-101857142D02*
X151954663Y-101952380D01*
X151954663Y-101952380D02*
X151907044Y-102095237D01*
X151907044Y-102095237D02*
X151811805Y-102190475D01*
X151811805Y-102190475D02*
X151716567Y-102238094D01*
X151716567Y-102238094D02*
X151526091Y-102285713D01*
X151526091Y-102285713D02*
X151383234Y-102285713D01*
X151383234Y-102285713D02*
X151192758Y-102238094D01*
X151192758Y-102238094D02*
X151097520Y-102190475D01*
X151097520Y-102190475D02*
X151002282Y-102095237D01*
X151002282Y-102095237D02*
X150954663Y-101952380D01*
X150954663Y-101952380D02*
X150954663Y-101857142D01*
X150954663Y-101857142D02*
X151002282Y-101714285D01*
X151002282Y-101714285D02*
X151049901Y-101666666D01*
X150954663Y-100809523D02*
X150954663Y-100999999D01*
X150954663Y-100999999D02*
X151002282Y-101095237D01*
X151002282Y-101095237D02*
X151049901Y-101142856D01*
X151049901Y-101142856D02*
X151192758Y-101238094D01*
X151192758Y-101238094D02*
X151383234Y-101285713D01*
X151383234Y-101285713D02*
X151764186Y-101285713D01*
X151764186Y-101285713D02*
X151859424Y-101238094D01*
X151859424Y-101238094D02*
X151907044Y-101190475D01*
X151907044Y-101190475D02*
X151954663Y-101095237D01*
X151954663Y-101095237D02*
X151954663Y-100904761D01*
X151954663Y-100904761D02*
X151907044Y-100809523D01*
X151907044Y-100809523D02*
X151859424Y-100761904D01*
X151859424Y-100761904D02*
X151764186Y-100714285D01*
X151764186Y-100714285D02*
X151526091Y-100714285D01*
X151526091Y-100714285D02*
X151430853Y-100761904D01*
X151430853Y-100761904D02*
X151383234Y-100809523D01*
X151383234Y-100809523D02*
X151335615Y-100904761D01*
X151335615Y-100904761D02*
X151335615Y-101095237D01*
X151335615Y-101095237D02*
X151383234Y-101190475D01*
X151383234Y-101190475D02*
X151430853Y-101238094D01*
X151430853Y-101238094D02*
X151526091Y-101285713D01*
X147853333Y-115469424D02*
X147805714Y-115517044D01*
X147805714Y-115517044D02*
X147662857Y-115564663D01*
X147662857Y-115564663D02*
X147567619Y-115564663D01*
X147567619Y-115564663D02*
X147424762Y-115517044D01*
X147424762Y-115517044D02*
X147329524Y-115421805D01*
X147329524Y-115421805D02*
X147281905Y-115326567D01*
X147281905Y-115326567D02*
X147234286Y-115136091D01*
X147234286Y-115136091D02*
X147234286Y-114993234D01*
X147234286Y-114993234D02*
X147281905Y-114802758D01*
X147281905Y-114802758D02*
X147329524Y-114707520D01*
X147329524Y-114707520D02*
X147424762Y-114612282D01*
X147424762Y-114612282D02*
X147567619Y-114564663D01*
X147567619Y-114564663D02*
X147662857Y-114564663D01*
X147662857Y-114564663D02*
X147805714Y-114612282D01*
X147805714Y-114612282D02*
X147853333Y-114659901D01*
X148710476Y-114897996D02*
X148710476Y-115564663D01*
X148472381Y-114517044D02*
X148234286Y-115231329D01*
X148234286Y-115231329D02*
X148853333Y-115231329D01*
X134238095Y-113454663D02*
X134238095Y-114264186D01*
X134238095Y-114264186D02*
X134285714Y-114359424D01*
X134285714Y-114359424D02*
X134333333Y-114407044D01*
X134333333Y-114407044D02*
X134428571Y-114454663D01*
X134428571Y-114454663D02*
X134619047Y-114454663D01*
X134619047Y-114454663D02*
X134714285Y-114407044D01*
X134714285Y-114407044D02*
X134761904Y-114359424D01*
X134761904Y-114359424D02*
X134809523Y-114264186D01*
X134809523Y-114264186D02*
X134809523Y-113454663D01*
X135190476Y-113454663D02*
X135809523Y-113454663D01*
X135809523Y-113454663D02*
X135476190Y-113835615D01*
X135476190Y-113835615D02*
X135619047Y-113835615D01*
X135619047Y-113835615D02*
X135714285Y-113883234D01*
X135714285Y-113883234D02*
X135761904Y-113930853D01*
X135761904Y-113930853D02*
X135809523Y-114026091D01*
X135809523Y-114026091D02*
X135809523Y-114264186D01*
X135809523Y-114264186D02*
X135761904Y-114359424D01*
X135761904Y-114359424D02*
X135714285Y-114407044D01*
X135714285Y-114407044D02*
X135619047Y-114454663D01*
X135619047Y-114454663D02*
X135333333Y-114454663D01*
X135333333Y-114454663D02*
X135238095Y-114407044D01*
X135238095Y-114407044D02*
X135190476Y-114359424D01*
X133357142Y-99959424D02*
X133309523Y-100007044D01*
X133309523Y-100007044D02*
X133166666Y-100054663D01*
X133166666Y-100054663D02*
X133071428Y-100054663D01*
X133071428Y-100054663D02*
X132928571Y-100007044D01*
X132928571Y-100007044D02*
X132833333Y-99911805D01*
X132833333Y-99911805D02*
X132785714Y-99816567D01*
X132785714Y-99816567D02*
X132738095Y-99626091D01*
X132738095Y-99626091D02*
X132738095Y-99483234D01*
X132738095Y-99483234D02*
X132785714Y-99292758D01*
X132785714Y-99292758D02*
X132833333Y-99197520D01*
X132833333Y-99197520D02*
X132928571Y-99102282D01*
X132928571Y-99102282D02*
X133071428Y-99054663D01*
X133071428Y-99054663D02*
X133166666Y-99054663D01*
X133166666Y-99054663D02*
X133309523Y-99102282D01*
X133309523Y-99102282D02*
X133357142Y-99149901D01*
X133738095Y-99149901D02*
X133785714Y-99102282D01*
X133785714Y-99102282D02*
X133880952Y-99054663D01*
X133880952Y-99054663D02*
X134119047Y-99054663D01*
X134119047Y-99054663D02*
X134214285Y-99102282D01*
X134214285Y-99102282D02*
X134261904Y-99149901D01*
X134261904Y-99149901D02*
X134309523Y-99245139D01*
X134309523Y-99245139D02*
X134309523Y-99340377D01*
X134309523Y-99340377D02*
X134261904Y-99483234D01*
X134261904Y-99483234D02*
X133690476Y-100054663D01*
X133690476Y-100054663D02*
X134309523Y-100054663D01*
X134928571Y-99054663D02*
X135023809Y-99054663D01*
X135023809Y-99054663D02*
X135119047Y-99102282D01*
X135119047Y-99102282D02*
X135166666Y-99149901D01*
X135166666Y-99149901D02*
X135214285Y-99245139D01*
X135214285Y-99245139D02*
X135261904Y-99435615D01*
X135261904Y-99435615D02*
X135261904Y-99673710D01*
X135261904Y-99673710D02*
X135214285Y-99864186D01*
X135214285Y-99864186D02*
X135166666Y-99959424D01*
X135166666Y-99959424D02*
X135119047Y-100007044D01*
X135119047Y-100007044D02*
X135023809Y-100054663D01*
X135023809Y-100054663D02*
X134928571Y-100054663D01*
X134928571Y-100054663D02*
X134833333Y-100007044D01*
X134833333Y-100007044D02*
X134785714Y-99959424D01*
X134785714Y-99959424D02*
X134738095Y-99864186D01*
X134738095Y-99864186D02*
X134690476Y-99673710D01*
X134690476Y-99673710D02*
X134690476Y-99435615D01*
X134690476Y-99435615D02*
X134738095Y-99245139D01*
X134738095Y-99245139D02*
X134785714Y-99149901D01*
X134785714Y-99149901D02*
X134833333Y-99102282D01*
X134833333Y-99102282D02*
X134928571Y-99054663D01*
X136654663Y-105076666D02*
X136178472Y-105409999D01*
X136654663Y-105648094D02*
X135654663Y-105648094D01*
X135654663Y-105648094D02*
X135654663Y-105267142D01*
X135654663Y-105267142D02*
X135702282Y-105171904D01*
X135702282Y-105171904D02*
X135749901Y-105124285D01*
X135749901Y-105124285D02*
X135845139Y-105076666D01*
X135845139Y-105076666D02*
X135987996Y-105076666D01*
X135987996Y-105076666D02*
X136083234Y-105124285D01*
X136083234Y-105124285D02*
X136130853Y-105171904D01*
X136130853Y-105171904D02*
X136178472Y-105267142D01*
X136178472Y-105267142D02*
X136178472Y-105648094D01*
X136654663Y-104600475D02*
X136654663Y-104409999D01*
X136654663Y-104409999D02*
X136607044Y-104314761D01*
X136607044Y-104314761D02*
X136559424Y-104267142D01*
X136559424Y-104267142D02*
X136416567Y-104171904D01*
X136416567Y-104171904D02*
X136226091Y-104124285D01*
X136226091Y-104124285D02*
X135845139Y-104124285D01*
X135845139Y-104124285D02*
X135749901Y-104171904D01*
X135749901Y-104171904D02*
X135702282Y-104219523D01*
X135702282Y-104219523D02*
X135654663Y-104314761D01*
X135654663Y-104314761D02*
X135654663Y-104505237D01*
X135654663Y-104505237D02*
X135702282Y-104600475D01*
X135702282Y-104600475D02*
X135749901Y-104648094D01*
X135749901Y-104648094D02*
X135845139Y-104695713D01*
X135845139Y-104695713D02*
X136083234Y-104695713D01*
X136083234Y-104695713D02*
X136178472Y-104648094D01*
X136178472Y-104648094D02*
X136226091Y-104600475D01*
X136226091Y-104600475D02*
X136273710Y-104505237D01*
X136273710Y-104505237D02*
X136273710Y-104314761D01*
X136273710Y-104314761D02*
X136226091Y-104219523D01*
X136226091Y-104219523D02*
X136178472Y-104171904D01*
X136178472Y-104171904D02*
X136083234Y-104124285D01*
X141423809Y-117878472D02*
X141423809Y-118354663D01*
X141090476Y-117354663D02*
X141423809Y-117878472D01*
X141423809Y-117878472D02*
X141757142Y-117354663D01*
X142614285Y-118354663D02*
X142042857Y-118354663D01*
X142328571Y-118354663D02*
X142328571Y-117354663D01*
X142328571Y-117354663D02*
X142233333Y-117497520D01*
X142233333Y-117497520D02*
X142138095Y-117592758D01*
X142138095Y-117592758D02*
X142042857Y-117640377D01*
X138638095Y-88154663D02*
X138638095Y-88964186D01*
X138638095Y-88964186D02*
X138685714Y-89059424D01*
X138685714Y-89059424D02*
X138733333Y-89107044D01*
X138733333Y-89107044D02*
X138828571Y-89154663D01*
X138828571Y-89154663D02*
X139019047Y-89154663D01*
X139019047Y-89154663D02*
X139114285Y-89107044D01*
X139114285Y-89107044D02*
X139161904Y-89059424D01*
X139161904Y-89059424D02*
X139209523Y-88964186D01*
X139209523Y-88964186D02*
X139209523Y-88154663D01*
X140114285Y-88487996D02*
X140114285Y-89154663D01*
X139876190Y-88107044D02*
X139638095Y-88821329D01*
X139638095Y-88821329D02*
X140257142Y-88821329D01*
X133557142Y-95759424D02*
X133509523Y-95807044D01*
X133509523Y-95807044D02*
X133366666Y-95854663D01*
X133366666Y-95854663D02*
X133271428Y-95854663D01*
X133271428Y-95854663D02*
X133128571Y-95807044D01*
X133128571Y-95807044D02*
X133033333Y-95711805D01*
X133033333Y-95711805D02*
X132985714Y-95616567D01*
X132985714Y-95616567D02*
X132938095Y-95426091D01*
X132938095Y-95426091D02*
X132938095Y-95283234D01*
X132938095Y-95283234D02*
X132985714Y-95092758D01*
X132985714Y-95092758D02*
X133033333Y-94997520D01*
X133033333Y-94997520D02*
X133128571Y-94902282D01*
X133128571Y-94902282D02*
X133271428Y-94854663D01*
X133271428Y-94854663D02*
X133366666Y-94854663D01*
X133366666Y-94854663D02*
X133509523Y-94902282D01*
X133509523Y-94902282D02*
X133557142Y-94949901D01*
X134509523Y-95854663D02*
X133938095Y-95854663D01*
X134223809Y-95854663D02*
X134223809Y-94854663D01*
X134223809Y-94854663D02*
X134128571Y-94997520D01*
X134128571Y-94997520D02*
X134033333Y-95092758D01*
X134033333Y-95092758D02*
X133938095Y-95140377D01*
X135080952Y-95283234D02*
X134985714Y-95235615D01*
X134985714Y-95235615D02*
X134938095Y-95187996D01*
X134938095Y-95187996D02*
X134890476Y-95092758D01*
X134890476Y-95092758D02*
X134890476Y-95045139D01*
X134890476Y-95045139D02*
X134938095Y-94949901D01*
X134938095Y-94949901D02*
X134985714Y-94902282D01*
X134985714Y-94902282D02*
X135080952Y-94854663D01*
X135080952Y-94854663D02*
X135271428Y-94854663D01*
X135271428Y-94854663D02*
X135366666Y-94902282D01*
X135366666Y-94902282D02*
X135414285Y-94949901D01*
X135414285Y-94949901D02*
X135461904Y-95045139D01*
X135461904Y-95045139D02*
X135461904Y-95092758D01*
X135461904Y-95092758D02*
X135414285Y-95187996D01*
X135414285Y-95187996D02*
X135366666Y-95235615D01*
X135366666Y-95235615D02*
X135271428Y-95283234D01*
X135271428Y-95283234D02*
X135080952Y-95283234D01*
X135080952Y-95283234D02*
X134985714Y-95330853D01*
X134985714Y-95330853D02*
X134938095Y-95378472D01*
X134938095Y-95378472D02*
X134890476Y-95473710D01*
X134890476Y-95473710D02*
X134890476Y-95664186D01*
X134890476Y-95664186D02*
X134938095Y-95759424D01*
X134938095Y-95759424D02*
X134985714Y-95807044D01*
X134985714Y-95807044D02*
X135080952Y-95854663D01*
X135080952Y-95854663D02*
X135271428Y-95854663D01*
X135271428Y-95854663D02*
X135366666Y-95807044D01*
X135366666Y-95807044D02*
X135414285Y-95759424D01*
X135414285Y-95759424D02*
X135461904Y-95664186D01*
X135461904Y-95664186D02*
X135461904Y-95473710D01*
X135461904Y-95473710D02*
X135414285Y-95378472D01*
X135414285Y-95378472D02*
X135366666Y-95330853D01*
X135366666Y-95330853D02*
X135271428Y-95283234D01*
X138359424Y-89966666D02*
X138407044Y-90014285D01*
X138407044Y-90014285D02*
X138454663Y-90157142D01*
X138454663Y-90157142D02*
X138454663Y-90252380D01*
X138454663Y-90252380D02*
X138407044Y-90395237D01*
X138407044Y-90395237D02*
X138311805Y-90490475D01*
X138311805Y-90490475D02*
X138216567Y-90538094D01*
X138216567Y-90538094D02*
X138026091Y-90585713D01*
X138026091Y-90585713D02*
X137883234Y-90585713D01*
X137883234Y-90585713D02*
X137692758Y-90538094D01*
X137692758Y-90538094D02*
X137597520Y-90490475D01*
X137597520Y-90490475D02*
X137502282Y-90395237D01*
X137502282Y-90395237D02*
X137454663Y-90252380D01*
X137454663Y-90252380D02*
X137454663Y-90157142D01*
X137454663Y-90157142D02*
X137502282Y-90014285D01*
X137502282Y-90014285D02*
X137549901Y-89966666D01*
X137549901Y-89585713D02*
X137502282Y-89538094D01*
X137502282Y-89538094D02*
X137454663Y-89442856D01*
X137454663Y-89442856D02*
X137454663Y-89204761D01*
X137454663Y-89204761D02*
X137502282Y-89109523D01*
X137502282Y-89109523D02*
X137549901Y-89061904D01*
X137549901Y-89061904D02*
X137645139Y-89014285D01*
X137645139Y-89014285D02*
X137740377Y-89014285D01*
X137740377Y-89014285D02*
X137883234Y-89061904D01*
X137883234Y-89061904D02*
X138454663Y-89633332D01*
X138454663Y-89633332D02*
X138454663Y-89014285D01*
X131454663Y-112233333D02*
X132168948Y-112233333D01*
X132168948Y-112233333D02*
X132311805Y-112280952D01*
X132311805Y-112280952D02*
X132407044Y-112376190D01*
X132407044Y-112376190D02*
X132454663Y-112519047D01*
X132454663Y-112519047D02*
X132454663Y-112614285D01*
X131454663Y-111852380D02*
X131454663Y-111233333D01*
X131454663Y-111233333D02*
X131835615Y-111566666D01*
X131835615Y-111566666D02*
X131835615Y-111423809D01*
X131835615Y-111423809D02*
X131883234Y-111328571D01*
X131883234Y-111328571D02*
X131930853Y-111280952D01*
X131930853Y-111280952D02*
X132026091Y-111233333D01*
X132026091Y-111233333D02*
X132264186Y-111233333D01*
X132264186Y-111233333D02*
X132359424Y-111280952D01*
X132359424Y-111280952D02*
X132407044Y-111328571D01*
X132407044Y-111328571D02*
X132454663Y-111423809D01*
X132454663Y-111423809D02*
X132454663Y-111709523D01*
X132454663Y-111709523D02*
X132407044Y-111804761D01*
X132407044Y-111804761D02*
X132359424Y-111852380D01*
X133457142Y-94154663D02*
X133123809Y-93678472D01*
X132885714Y-94154663D02*
X132885714Y-93154663D01*
X132885714Y-93154663D02*
X133266666Y-93154663D01*
X133266666Y-93154663D02*
X133361904Y-93202282D01*
X133361904Y-93202282D02*
X133409523Y-93249901D01*
X133409523Y-93249901D02*
X133457142Y-93345139D01*
X133457142Y-93345139D02*
X133457142Y-93487996D01*
X133457142Y-93487996D02*
X133409523Y-93583234D01*
X133409523Y-93583234D02*
X133361904Y-93630853D01*
X133361904Y-93630853D02*
X133266666Y-93678472D01*
X133266666Y-93678472D02*
X132885714Y-93678472D01*
X134409523Y-94154663D02*
X133838095Y-94154663D01*
X134123809Y-94154663D02*
X134123809Y-93154663D01*
X134123809Y-93154663D02*
X134028571Y-93297520D01*
X134028571Y-93297520D02*
X133933333Y-93392758D01*
X133933333Y-93392758D02*
X133838095Y-93440377D01*
X135361904Y-94154663D02*
X134790476Y-94154663D01*
X135076190Y-94154663D02*
X135076190Y-93154663D01*
X135076190Y-93154663D02*
X134980952Y-93297520D01*
X134980952Y-93297520D02*
X134885714Y-93392758D01*
X134885714Y-93392758D02*
X134790476Y-93440377D01*
X138259424Y-91866666D02*
X138307044Y-91914285D01*
X138307044Y-91914285D02*
X138354663Y-92057142D01*
X138354663Y-92057142D02*
X138354663Y-92152380D01*
X138354663Y-92152380D02*
X138307044Y-92295237D01*
X138307044Y-92295237D02*
X138211805Y-92390475D01*
X138211805Y-92390475D02*
X138116567Y-92438094D01*
X138116567Y-92438094D02*
X137926091Y-92485713D01*
X137926091Y-92485713D02*
X137783234Y-92485713D01*
X137783234Y-92485713D02*
X137592758Y-92438094D01*
X137592758Y-92438094D02*
X137497520Y-92390475D01*
X137497520Y-92390475D02*
X137402282Y-92295237D01*
X137402282Y-92295237D02*
X137354663Y-92152380D01*
X137354663Y-92152380D02*
X137354663Y-92057142D01*
X137354663Y-92057142D02*
X137402282Y-91914285D01*
X137402282Y-91914285D02*
X137449901Y-91866666D01*
X138354663Y-90914285D02*
X138354663Y-91485713D01*
X138354663Y-91199999D02*
X137354663Y-91199999D01*
X137354663Y-91199999D02*
X137497520Y-91295237D01*
X137497520Y-91295237D02*
X137592758Y-91390475D01*
X137592758Y-91390475D02*
X137640377Y-91485713D01*
X133357142Y-97959424D02*
X133309523Y-98007044D01*
X133309523Y-98007044D02*
X133166666Y-98054663D01*
X133166666Y-98054663D02*
X133071428Y-98054663D01*
X133071428Y-98054663D02*
X132928571Y-98007044D01*
X132928571Y-98007044D02*
X132833333Y-97911805D01*
X132833333Y-97911805D02*
X132785714Y-97816567D01*
X132785714Y-97816567D02*
X132738095Y-97626091D01*
X132738095Y-97626091D02*
X132738095Y-97483234D01*
X132738095Y-97483234D02*
X132785714Y-97292758D01*
X132785714Y-97292758D02*
X132833333Y-97197520D01*
X132833333Y-97197520D02*
X132928571Y-97102282D01*
X132928571Y-97102282D02*
X133071428Y-97054663D01*
X133071428Y-97054663D02*
X133166666Y-97054663D01*
X133166666Y-97054663D02*
X133309523Y-97102282D01*
X133309523Y-97102282D02*
X133357142Y-97149901D01*
X134309523Y-98054663D02*
X133738095Y-98054663D01*
X134023809Y-98054663D02*
X134023809Y-97054663D01*
X134023809Y-97054663D02*
X133928571Y-97197520D01*
X133928571Y-97197520D02*
X133833333Y-97292758D01*
X133833333Y-97292758D02*
X133738095Y-97340377D01*
X134785714Y-98054663D02*
X134976190Y-98054663D01*
X134976190Y-98054663D02*
X135071428Y-98007044D01*
X135071428Y-98007044D02*
X135119047Y-97959424D01*
X135119047Y-97959424D02*
X135214285Y-97816567D01*
X135214285Y-97816567D02*
X135261904Y-97626091D01*
X135261904Y-97626091D02*
X135261904Y-97245139D01*
X135261904Y-97245139D02*
X135214285Y-97149901D01*
X135214285Y-97149901D02*
X135166666Y-97102282D01*
X135166666Y-97102282D02*
X135071428Y-97054663D01*
X135071428Y-97054663D02*
X134880952Y-97054663D01*
X134880952Y-97054663D02*
X134785714Y-97102282D01*
X134785714Y-97102282D02*
X134738095Y-97149901D01*
X134738095Y-97149901D02*
X134690476Y-97245139D01*
X134690476Y-97245139D02*
X134690476Y-97483234D01*
X134690476Y-97483234D02*
X134738095Y-97578472D01*
X134738095Y-97578472D02*
X134785714Y-97626091D01*
X134785714Y-97626091D02*
X134880952Y-97673710D01*
X134880952Y-97673710D02*
X135071428Y-97673710D01*
X135071428Y-97673710D02*
X135166666Y-97626091D01*
X135166666Y-97626091D02*
X135214285Y-97578472D01*
X135214285Y-97578472D02*
X135261904Y-97483234D01*
X134733333Y-124154663D02*
X134400000Y-123678472D01*
X134161905Y-124154663D02*
X134161905Y-123154663D01*
X134161905Y-123154663D02*
X134542857Y-123154663D01*
X134542857Y-123154663D02*
X134638095Y-123202282D01*
X134638095Y-123202282D02*
X134685714Y-123249901D01*
X134685714Y-123249901D02*
X134733333Y-123345139D01*
X134733333Y-123345139D02*
X134733333Y-123487996D01*
X134733333Y-123487996D02*
X134685714Y-123583234D01*
X134685714Y-123583234D02*
X134638095Y-123630853D01*
X134638095Y-123630853D02*
X134542857Y-123678472D01*
X134542857Y-123678472D02*
X134161905Y-123678472D01*
X135066667Y-123154663D02*
X135733333Y-123154663D01*
X135733333Y-123154663D02*
X135304762Y-124154663D01*
X136259424Y-103242857D02*
X136307044Y-103290476D01*
X136307044Y-103290476D02*
X136354663Y-103433333D01*
X136354663Y-103433333D02*
X136354663Y-103528571D01*
X136354663Y-103528571D02*
X136307044Y-103671428D01*
X136307044Y-103671428D02*
X136211805Y-103766666D01*
X136211805Y-103766666D02*
X136116567Y-103814285D01*
X136116567Y-103814285D02*
X135926091Y-103861904D01*
X135926091Y-103861904D02*
X135783234Y-103861904D01*
X135783234Y-103861904D02*
X135592758Y-103814285D01*
X135592758Y-103814285D02*
X135497520Y-103766666D01*
X135497520Y-103766666D02*
X135402282Y-103671428D01*
X135402282Y-103671428D02*
X135354663Y-103528571D01*
X135354663Y-103528571D02*
X135354663Y-103433333D01*
X135354663Y-103433333D02*
X135402282Y-103290476D01*
X135402282Y-103290476D02*
X135449901Y-103242857D01*
X136354663Y-102290476D02*
X136354663Y-102861904D01*
X136354663Y-102576190D02*
X135354663Y-102576190D01*
X135354663Y-102576190D02*
X135497520Y-102671428D01*
X135497520Y-102671428D02*
X135592758Y-102766666D01*
X135592758Y-102766666D02*
X135640377Y-102861904D01*
X135354663Y-101957142D02*
X135354663Y-101290476D01*
X135354663Y-101290476D02*
X136354663Y-101719047D01*
X133357142Y-102259424D02*
X133309523Y-102307044D01*
X133309523Y-102307044D02*
X133166666Y-102354663D01*
X133166666Y-102354663D02*
X133071428Y-102354663D01*
X133071428Y-102354663D02*
X132928571Y-102307044D01*
X132928571Y-102307044D02*
X132833333Y-102211805D01*
X132833333Y-102211805D02*
X132785714Y-102116567D01*
X132785714Y-102116567D02*
X132738095Y-101926091D01*
X132738095Y-101926091D02*
X132738095Y-101783234D01*
X132738095Y-101783234D02*
X132785714Y-101592758D01*
X132785714Y-101592758D02*
X132833333Y-101497520D01*
X132833333Y-101497520D02*
X132928571Y-101402282D01*
X132928571Y-101402282D02*
X133071428Y-101354663D01*
X133071428Y-101354663D02*
X133166666Y-101354663D01*
X133166666Y-101354663D02*
X133309523Y-101402282D01*
X133309523Y-101402282D02*
X133357142Y-101449901D01*
X133738095Y-101449901D02*
X133785714Y-101402282D01*
X133785714Y-101402282D02*
X133880952Y-101354663D01*
X133880952Y-101354663D02*
X134119047Y-101354663D01*
X134119047Y-101354663D02*
X134214285Y-101402282D01*
X134214285Y-101402282D02*
X134261904Y-101449901D01*
X134261904Y-101449901D02*
X134309523Y-101545139D01*
X134309523Y-101545139D02*
X134309523Y-101640377D01*
X134309523Y-101640377D02*
X134261904Y-101783234D01*
X134261904Y-101783234D02*
X133690476Y-102354663D01*
X133690476Y-102354663D02*
X134309523Y-102354663D01*
X135261904Y-102354663D02*
X134690476Y-102354663D01*
X134976190Y-102354663D02*
X134976190Y-101354663D01*
X134976190Y-101354663D02*
X134880952Y-101497520D01*
X134880952Y-101497520D02*
X134785714Y-101592758D01*
X134785714Y-101592758D02*
X134690476Y-101640377D01*
X139354663Y-97638094D02*
X140164186Y-97638094D01*
X140164186Y-97638094D02*
X140259424Y-97590475D01*
X140259424Y-97590475D02*
X140307044Y-97542856D01*
X140307044Y-97542856D02*
X140354663Y-97447618D01*
X140354663Y-97447618D02*
X140354663Y-97257142D01*
X140354663Y-97257142D02*
X140307044Y-97161904D01*
X140307044Y-97161904D02*
X140259424Y-97114285D01*
X140259424Y-97114285D02*
X140164186Y-97066666D01*
X140164186Y-97066666D02*
X139354663Y-97066666D01*
X140354663Y-96066666D02*
X140354663Y-96638094D01*
X140354663Y-96352380D02*
X139354663Y-96352380D01*
X139354663Y-96352380D02*
X139497520Y-96447618D01*
X139497520Y-96447618D02*
X139592758Y-96542856D01*
X139592758Y-96542856D02*
X139640377Y-96638094D01*
X139354663Y-95733332D02*
X139354663Y-95114285D01*
X139354663Y-95114285D02*
X139735615Y-95447618D01*
X139735615Y-95447618D02*
X139735615Y-95304761D01*
X139735615Y-95304761D02*
X139783234Y-95209523D01*
X139783234Y-95209523D02*
X139830853Y-95161904D01*
X139830853Y-95161904D02*
X139926091Y-95114285D01*
X139926091Y-95114285D02*
X140164186Y-95114285D01*
X140164186Y-95114285D02*
X140259424Y-95161904D01*
X140259424Y-95161904D02*
X140307044Y-95209523D01*
X140307044Y-95209523D02*
X140354663Y-95304761D01*
X140354663Y-95304761D02*
X140354663Y-95590475D01*
X140354663Y-95590475D02*
X140307044Y-95685713D01*
X140307044Y-95685713D02*
X140259424Y-95733332D01*
X142754663Y-90042857D02*
X142278472Y-90376190D01*
X142754663Y-90614285D02*
X141754663Y-90614285D01*
X141754663Y-90614285D02*
X141754663Y-90233333D01*
X141754663Y-90233333D02*
X141802282Y-90138095D01*
X141802282Y-90138095D02*
X141849901Y-90090476D01*
X141849901Y-90090476D02*
X141945139Y-90042857D01*
X141945139Y-90042857D02*
X142087996Y-90042857D01*
X142087996Y-90042857D02*
X142183234Y-90090476D01*
X142183234Y-90090476D02*
X142230853Y-90138095D01*
X142230853Y-90138095D02*
X142278472Y-90233333D01*
X142278472Y-90233333D02*
X142278472Y-90614285D01*
X142754663Y-89090476D02*
X142754663Y-89661904D01*
X142754663Y-89376190D02*
X141754663Y-89376190D01*
X141754663Y-89376190D02*
X141897520Y-89471428D01*
X141897520Y-89471428D02*
X141992758Y-89566666D01*
X141992758Y-89566666D02*
X142040377Y-89661904D01*
X141849901Y-88709523D02*
X141802282Y-88661904D01*
X141802282Y-88661904D02*
X141754663Y-88566666D01*
X141754663Y-88566666D02*
X141754663Y-88328571D01*
X141754663Y-88328571D02*
X141802282Y-88233333D01*
X141802282Y-88233333D02*
X141849901Y-88185714D01*
X141849901Y-88185714D02*
X141945139Y-88138095D01*
X141945139Y-88138095D02*
X142040377Y-88138095D01*
X142040377Y-88138095D02*
X142183234Y-88185714D01*
X142183234Y-88185714D02*
X142754663Y-88757142D01*
X142754663Y-88757142D02*
X142754663Y-88138095D01*
X139259424Y-114942857D02*
X139307044Y-114990476D01*
X139307044Y-114990476D02*
X139354663Y-115133333D01*
X139354663Y-115133333D02*
X139354663Y-115228571D01*
X139354663Y-115228571D02*
X139307044Y-115371428D01*
X139307044Y-115371428D02*
X139211805Y-115466666D01*
X139211805Y-115466666D02*
X139116567Y-115514285D01*
X139116567Y-115514285D02*
X138926091Y-115561904D01*
X138926091Y-115561904D02*
X138783234Y-115561904D01*
X138783234Y-115561904D02*
X138592758Y-115514285D01*
X138592758Y-115514285D02*
X138497520Y-115466666D01*
X138497520Y-115466666D02*
X138402282Y-115371428D01*
X138402282Y-115371428D02*
X138354663Y-115228571D01*
X138354663Y-115228571D02*
X138354663Y-115133333D01*
X138354663Y-115133333D02*
X138402282Y-114990476D01*
X138402282Y-114990476D02*
X138449901Y-114942857D01*
X138449901Y-114561904D02*
X138402282Y-114514285D01*
X138402282Y-114514285D02*
X138354663Y-114419047D01*
X138354663Y-114419047D02*
X138354663Y-114180952D01*
X138354663Y-114180952D02*
X138402282Y-114085714D01*
X138402282Y-114085714D02*
X138449901Y-114038095D01*
X138449901Y-114038095D02*
X138545139Y-113990476D01*
X138545139Y-113990476D02*
X138640377Y-113990476D01*
X138640377Y-113990476D02*
X138783234Y-114038095D01*
X138783234Y-114038095D02*
X139354663Y-114609523D01*
X139354663Y-114609523D02*
X139354663Y-113990476D01*
X138354663Y-113657142D02*
X138354663Y-113038095D01*
X138354663Y-113038095D02*
X138735615Y-113371428D01*
X138735615Y-113371428D02*
X138735615Y-113228571D01*
X138735615Y-113228571D02*
X138783234Y-113133333D01*
X138783234Y-113133333D02*
X138830853Y-113085714D01*
X138830853Y-113085714D02*
X138926091Y-113038095D01*
X138926091Y-113038095D02*
X139164186Y-113038095D01*
X139164186Y-113038095D02*
X139259424Y-113085714D01*
X139259424Y-113085714D02*
X139307044Y-113133333D01*
X139307044Y-113133333D02*
X139354663Y-113228571D01*
X139354663Y-113228571D02*
X139354663Y-113514285D01*
X139354663Y-113514285D02*
X139307044Y-113609523D01*
X139307044Y-113609523D02*
X139259424Y-113657142D01*
X124254663Y-107861904D02*
X125064186Y-107861904D01*
X125064186Y-107861904D02*
X125159424Y-107814285D01*
X125159424Y-107814285D02*
X125207044Y-107766666D01*
X125207044Y-107766666D02*
X125254663Y-107671428D01*
X125254663Y-107671428D02*
X125254663Y-107480952D01*
X125254663Y-107480952D02*
X125207044Y-107385714D01*
X125207044Y-107385714D02*
X125159424Y-107338095D01*
X125159424Y-107338095D02*
X125064186Y-107290476D01*
X125064186Y-107290476D02*
X124254663Y-107290476D01*
X124254663Y-106338095D02*
X124254663Y-106814285D01*
X124254663Y-106814285D02*
X124730853Y-106861904D01*
X124730853Y-106861904D02*
X124683234Y-106814285D01*
X124683234Y-106814285D02*
X124635615Y-106719047D01*
X124635615Y-106719047D02*
X124635615Y-106480952D01*
X124635615Y-106480952D02*
X124683234Y-106385714D01*
X124683234Y-106385714D02*
X124730853Y-106338095D01*
X124730853Y-106338095D02*
X124826091Y-106290476D01*
X124826091Y-106290476D02*
X125064186Y-106290476D01*
X125064186Y-106290476D02*
X125159424Y-106338095D01*
X125159424Y-106338095D02*
X125207044Y-106385714D01*
X125207044Y-106385714D02*
X125254663Y-106480952D01*
X125254663Y-106480952D02*
X125254663Y-106719047D01*
X125254663Y-106719047D02*
X125207044Y-106814285D01*
X125207044Y-106814285D02*
X125159424Y-106861904D01*
X132454663Y-92542857D02*
X131978472Y-92876190D01*
X132454663Y-93114285D02*
X131454663Y-93114285D01*
X131454663Y-93114285D02*
X131454663Y-92733333D01*
X131454663Y-92733333D02*
X131502282Y-92638095D01*
X131502282Y-92638095D02*
X131549901Y-92590476D01*
X131549901Y-92590476D02*
X131645139Y-92542857D01*
X131645139Y-92542857D02*
X131787996Y-92542857D01*
X131787996Y-92542857D02*
X131883234Y-92590476D01*
X131883234Y-92590476D02*
X131930853Y-92638095D01*
X131930853Y-92638095D02*
X131978472Y-92733333D01*
X131978472Y-92733333D02*
X131978472Y-93114285D01*
X132454663Y-91590476D02*
X132454663Y-92161904D01*
X132454663Y-91876190D02*
X131454663Y-91876190D01*
X131454663Y-91876190D02*
X131597520Y-91971428D01*
X131597520Y-91971428D02*
X131692758Y-92066666D01*
X131692758Y-92066666D02*
X131740377Y-92161904D01*
X131454663Y-90971428D02*
X131454663Y-90876190D01*
X131454663Y-90876190D02*
X131502282Y-90780952D01*
X131502282Y-90780952D02*
X131549901Y-90733333D01*
X131549901Y-90733333D02*
X131645139Y-90685714D01*
X131645139Y-90685714D02*
X131835615Y-90638095D01*
X131835615Y-90638095D02*
X132073710Y-90638095D01*
X132073710Y-90638095D02*
X132264186Y-90685714D01*
X132264186Y-90685714D02*
X132359424Y-90733333D01*
X132359424Y-90733333D02*
X132407044Y-90780952D01*
X132407044Y-90780952D02*
X132454663Y-90876190D01*
X132454663Y-90876190D02*
X132454663Y-90971428D01*
X132454663Y-90971428D02*
X132407044Y-91066666D01*
X132407044Y-91066666D02*
X132359424Y-91114285D01*
X132359424Y-91114285D02*
X132264186Y-91161904D01*
X132264186Y-91161904D02*
X132073710Y-91209523D01*
X132073710Y-91209523D02*
X131835615Y-91209523D01*
X131835615Y-91209523D02*
X131645139Y-91161904D01*
X131645139Y-91161904D02*
X131549901Y-91114285D01*
X131549901Y-91114285D02*
X131502282Y-91066666D01*
X131502282Y-91066666D02*
X131454663Y-90971428D01*
X124454663Y-112033333D02*
X125168948Y-112033333D01*
X125168948Y-112033333D02*
X125311805Y-112080952D01*
X125311805Y-112080952D02*
X125407044Y-112176190D01*
X125407044Y-112176190D02*
X125454663Y-112319047D01*
X125454663Y-112319047D02*
X125454663Y-112414285D01*
X124787996Y-111128571D02*
X125454663Y-111128571D01*
X124407044Y-111366666D02*
X125121329Y-111604761D01*
X125121329Y-111604761D02*
X125121329Y-110985714D01*
X131304663Y-89938094D02*
X132114186Y-89938094D01*
X132114186Y-89938094D02*
X132209424Y-89890475D01*
X132209424Y-89890475D02*
X132257044Y-89842856D01*
X132257044Y-89842856D02*
X132304663Y-89747618D01*
X132304663Y-89747618D02*
X132304663Y-89557142D01*
X132304663Y-89557142D02*
X132257044Y-89461904D01*
X132257044Y-89461904D02*
X132209424Y-89414285D01*
X132209424Y-89414285D02*
X132114186Y-89366666D01*
X132114186Y-89366666D02*
X131304663Y-89366666D01*
X132304663Y-88366666D02*
X132304663Y-88938094D01*
X132304663Y-88652380D02*
X131304663Y-88652380D01*
X131304663Y-88652380D02*
X131447520Y-88747618D01*
X131447520Y-88747618D02*
X131542758Y-88842856D01*
X131542758Y-88842856D02*
X131590377Y-88938094D01*
X131399901Y-87985713D02*
X131352282Y-87938094D01*
X131352282Y-87938094D02*
X131304663Y-87842856D01*
X131304663Y-87842856D02*
X131304663Y-87604761D01*
X131304663Y-87604761D02*
X131352282Y-87509523D01*
X131352282Y-87509523D02*
X131399901Y-87461904D01*
X131399901Y-87461904D02*
X131495139Y-87414285D01*
X131495139Y-87414285D02*
X131590377Y-87414285D01*
X131590377Y-87414285D02*
X131733234Y-87461904D01*
X131733234Y-87461904D02*
X132304663Y-88033332D01*
X132304663Y-88033332D02*
X132304663Y-87414285D01*
X134354663Y-81666666D02*
X133878472Y-81999999D01*
X134354663Y-82238094D02*
X133354663Y-82238094D01*
X133354663Y-82238094D02*
X133354663Y-81857142D01*
X133354663Y-81857142D02*
X133402282Y-81761904D01*
X133402282Y-81761904D02*
X133449901Y-81714285D01*
X133449901Y-81714285D02*
X133545139Y-81666666D01*
X133545139Y-81666666D02*
X133687996Y-81666666D01*
X133687996Y-81666666D02*
X133783234Y-81714285D01*
X133783234Y-81714285D02*
X133830853Y-81761904D01*
X133830853Y-81761904D02*
X133878472Y-81857142D01*
X133878472Y-81857142D02*
X133878472Y-82238094D01*
X134354663Y-80714285D02*
X134354663Y-81285713D01*
X134354663Y-80999999D02*
X133354663Y-80999999D01*
X133354663Y-80999999D02*
X133497520Y-81095237D01*
X133497520Y-81095237D02*
X133592758Y-81190475D01*
X133592758Y-81190475D02*
X133640377Y-81285713D01*
X141859424Y-113266666D02*
X141907044Y-113314285D01*
X141907044Y-113314285D02*
X141954663Y-113457142D01*
X141954663Y-113457142D02*
X141954663Y-113552380D01*
X141954663Y-113552380D02*
X141907044Y-113695237D01*
X141907044Y-113695237D02*
X141811805Y-113790475D01*
X141811805Y-113790475D02*
X141716567Y-113838094D01*
X141716567Y-113838094D02*
X141526091Y-113885713D01*
X141526091Y-113885713D02*
X141383234Y-113885713D01*
X141383234Y-113885713D02*
X141192758Y-113838094D01*
X141192758Y-113838094D02*
X141097520Y-113790475D01*
X141097520Y-113790475D02*
X141002282Y-113695237D01*
X141002282Y-113695237D02*
X140954663Y-113552380D01*
X140954663Y-113552380D02*
X140954663Y-113457142D01*
X140954663Y-113457142D02*
X141002282Y-113314285D01*
X141002282Y-113314285D02*
X141049901Y-113266666D01*
X140954663Y-112933332D02*
X140954663Y-112314285D01*
X140954663Y-112314285D02*
X141335615Y-112647618D01*
X141335615Y-112647618D02*
X141335615Y-112504761D01*
X141335615Y-112504761D02*
X141383234Y-112409523D01*
X141383234Y-112409523D02*
X141430853Y-112361904D01*
X141430853Y-112361904D02*
X141526091Y-112314285D01*
X141526091Y-112314285D02*
X141764186Y-112314285D01*
X141764186Y-112314285D02*
X141859424Y-112361904D01*
X141859424Y-112361904D02*
X141907044Y-112409523D01*
X141907044Y-112409523D02*
X141954663Y-112504761D01*
X141954663Y-112504761D02*
X141954663Y-112790475D01*
X141954663Y-112790475D02*
X141907044Y-112885713D01*
X141907044Y-112885713D02*
X141859424Y-112933332D01*
X128507142Y-86249424D02*
X128459523Y-86297044D01*
X128459523Y-86297044D02*
X128316666Y-86344663D01*
X128316666Y-86344663D02*
X128221428Y-86344663D01*
X128221428Y-86344663D02*
X128078571Y-86297044D01*
X128078571Y-86297044D02*
X127983333Y-86201805D01*
X127983333Y-86201805D02*
X127935714Y-86106567D01*
X127935714Y-86106567D02*
X127888095Y-85916091D01*
X127888095Y-85916091D02*
X127888095Y-85773234D01*
X127888095Y-85773234D02*
X127935714Y-85582758D01*
X127935714Y-85582758D02*
X127983333Y-85487520D01*
X127983333Y-85487520D02*
X128078571Y-85392282D01*
X128078571Y-85392282D02*
X128221428Y-85344663D01*
X128221428Y-85344663D02*
X128316666Y-85344663D01*
X128316666Y-85344663D02*
X128459523Y-85392282D01*
X128459523Y-85392282D02*
X128507142Y-85439901D01*
X128888095Y-85439901D02*
X128935714Y-85392282D01*
X128935714Y-85392282D02*
X129030952Y-85344663D01*
X129030952Y-85344663D02*
X129269047Y-85344663D01*
X129269047Y-85344663D02*
X129364285Y-85392282D01*
X129364285Y-85392282D02*
X129411904Y-85439901D01*
X129411904Y-85439901D02*
X129459523Y-85535139D01*
X129459523Y-85535139D02*
X129459523Y-85630377D01*
X129459523Y-85630377D02*
X129411904Y-85773234D01*
X129411904Y-85773234D02*
X128840476Y-86344663D01*
X128840476Y-86344663D02*
X129459523Y-86344663D01*
X129840476Y-85439901D02*
X129888095Y-85392282D01*
X129888095Y-85392282D02*
X129983333Y-85344663D01*
X129983333Y-85344663D02*
X130221428Y-85344663D01*
X130221428Y-85344663D02*
X130316666Y-85392282D01*
X130316666Y-85392282D02*
X130364285Y-85439901D01*
X130364285Y-85439901D02*
X130411904Y-85535139D01*
X130411904Y-85535139D02*
X130411904Y-85630377D01*
X130411904Y-85630377D02*
X130364285Y-85773234D01*
X130364285Y-85773234D02*
X129792857Y-86344663D01*
X129792857Y-86344663D02*
X130411904Y-86344663D01*
X134857142Y-92159424D02*
X134809523Y-92207044D01*
X134809523Y-92207044D02*
X134666666Y-92254663D01*
X134666666Y-92254663D02*
X134571428Y-92254663D01*
X134571428Y-92254663D02*
X134428571Y-92207044D01*
X134428571Y-92207044D02*
X134333333Y-92111805D01*
X134333333Y-92111805D02*
X134285714Y-92016567D01*
X134285714Y-92016567D02*
X134238095Y-91826091D01*
X134238095Y-91826091D02*
X134238095Y-91683234D01*
X134238095Y-91683234D02*
X134285714Y-91492758D01*
X134285714Y-91492758D02*
X134333333Y-91397520D01*
X134333333Y-91397520D02*
X134428571Y-91302282D01*
X134428571Y-91302282D02*
X134571428Y-91254663D01*
X134571428Y-91254663D02*
X134666666Y-91254663D01*
X134666666Y-91254663D02*
X134809523Y-91302282D01*
X134809523Y-91302282D02*
X134857142Y-91349901D01*
X135238095Y-91349901D02*
X135285714Y-91302282D01*
X135285714Y-91302282D02*
X135380952Y-91254663D01*
X135380952Y-91254663D02*
X135619047Y-91254663D01*
X135619047Y-91254663D02*
X135714285Y-91302282D01*
X135714285Y-91302282D02*
X135761904Y-91349901D01*
X135761904Y-91349901D02*
X135809523Y-91445139D01*
X135809523Y-91445139D02*
X135809523Y-91540377D01*
X135809523Y-91540377D02*
X135761904Y-91683234D01*
X135761904Y-91683234D02*
X135190476Y-92254663D01*
X135190476Y-92254663D02*
X135809523Y-92254663D01*
X136285714Y-92254663D02*
X136476190Y-92254663D01*
X136476190Y-92254663D02*
X136571428Y-92207044D01*
X136571428Y-92207044D02*
X136619047Y-92159424D01*
X136619047Y-92159424D02*
X136714285Y-92016567D01*
X136714285Y-92016567D02*
X136761904Y-91826091D01*
X136761904Y-91826091D02*
X136761904Y-91445139D01*
X136761904Y-91445139D02*
X136714285Y-91349901D01*
X136714285Y-91349901D02*
X136666666Y-91302282D01*
X136666666Y-91302282D02*
X136571428Y-91254663D01*
X136571428Y-91254663D02*
X136380952Y-91254663D01*
X136380952Y-91254663D02*
X136285714Y-91302282D01*
X136285714Y-91302282D02*
X136238095Y-91349901D01*
X136238095Y-91349901D02*
X136190476Y-91445139D01*
X136190476Y-91445139D02*
X136190476Y-91683234D01*
X136190476Y-91683234D02*
X136238095Y-91778472D01*
X136238095Y-91778472D02*
X136285714Y-91826091D01*
X136285714Y-91826091D02*
X136380952Y-91873710D01*
X136380952Y-91873710D02*
X136571428Y-91873710D01*
X136571428Y-91873710D02*
X136666666Y-91826091D01*
X136666666Y-91826091D02*
X136714285Y-91778472D01*
X136714285Y-91778472D02*
X136761904Y-91683234D01*
X143857142Y-121559424D02*
X143809523Y-121607044D01*
X143809523Y-121607044D02*
X143666666Y-121654663D01*
X143666666Y-121654663D02*
X143571428Y-121654663D01*
X143571428Y-121654663D02*
X143428571Y-121607044D01*
X143428571Y-121607044D02*
X143333333Y-121511805D01*
X143333333Y-121511805D02*
X143285714Y-121416567D01*
X143285714Y-121416567D02*
X143238095Y-121226091D01*
X143238095Y-121226091D02*
X143238095Y-121083234D01*
X143238095Y-121083234D02*
X143285714Y-120892758D01*
X143285714Y-120892758D02*
X143333333Y-120797520D01*
X143333333Y-120797520D02*
X143428571Y-120702282D01*
X143428571Y-120702282D02*
X143571428Y-120654663D01*
X143571428Y-120654663D02*
X143666666Y-120654663D01*
X143666666Y-120654663D02*
X143809523Y-120702282D01*
X143809523Y-120702282D02*
X143857142Y-120749901D01*
X144238095Y-120749901D02*
X144285714Y-120702282D01*
X144285714Y-120702282D02*
X144380952Y-120654663D01*
X144380952Y-120654663D02*
X144619047Y-120654663D01*
X144619047Y-120654663D02*
X144714285Y-120702282D01*
X144714285Y-120702282D02*
X144761904Y-120749901D01*
X144761904Y-120749901D02*
X144809523Y-120845139D01*
X144809523Y-120845139D02*
X144809523Y-120940377D01*
X144809523Y-120940377D02*
X144761904Y-121083234D01*
X144761904Y-121083234D02*
X144190476Y-121654663D01*
X144190476Y-121654663D02*
X144809523Y-121654663D01*
X145714285Y-120654663D02*
X145238095Y-120654663D01*
X145238095Y-120654663D02*
X145190476Y-121130853D01*
X145190476Y-121130853D02*
X145238095Y-121083234D01*
X145238095Y-121083234D02*
X145333333Y-121035615D01*
X145333333Y-121035615D02*
X145571428Y-121035615D01*
X145571428Y-121035615D02*
X145666666Y-121083234D01*
X145666666Y-121083234D02*
X145714285Y-121130853D01*
X145714285Y-121130853D02*
X145761904Y-121226091D01*
X145761904Y-121226091D02*
X145761904Y-121464186D01*
X145761904Y-121464186D02*
X145714285Y-121559424D01*
X145714285Y-121559424D02*
X145666666Y-121607044D01*
X145666666Y-121607044D02*
X145571428Y-121654663D01*
X145571428Y-121654663D02*
X145333333Y-121654663D01*
X145333333Y-121654663D02*
X145238095Y-121607044D01*
X145238095Y-121607044D02*
X145190476Y-121559424D01*
X150954663Y-114109523D02*
X151668948Y-114109523D01*
X151668948Y-114109523D02*
X151811805Y-114157142D01*
X151811805Y-114157142D02*
X151907044Y-114252380D01*
X151907044Y-114252380D02*
X151954663Y-114395237D01*
X151954663Y-114395237D02*
X151954663Y-114490475D01*
X151954663Y-113109523D02*
X151954663Y-113680951D01*
X151954663Y-113395237D02*
X150954663Y-113395237D01*
X150954663Y-113395237D02*
X151097520Y-113490475D01*
X151097520Y-113490475D02*
X151192758Y-113585713D01*
X151192758Y-113585713D02*
X151240377Y-113680951D01*
X150954663Y-112490475D02*
X150954663Y-112395237D01*
X150954663Y-112395237D02*
X151002282Y-112299999D01*
X151002282Y-112299999D02*
X151049901Y-112252380D01*
X151049901Y-112252380D02*
X151145139Y-112204761D01*
X151145139Y-112204761D02*
X151335615Y-112157142D01*
X151335615Y-112157142D02*
X151573710Y-112157142D01*
X151573710Y-112157142D02*
X151764186Y-112204761D01*
X151764186Y-112204761D02*
X151859424Y-112252380D01*
X151859424Y-112252380D02*
X151907044Y-112299999D01*
X151907044Y-112299999D02*
X151954663Y-112395237D01*
X151954663Y-112395237D02*
X151954663Y-112490475D01*
X151954663Y-112490475D02*
X151907044Y-112585713D01*
X151907044Y-112585713D02*
X151859424Y-112633332D01*
X151859424Y-112633332D02*
X151764186Y-112680951D01*
X151764186Y-112680951D02*
X151573710Y-112728570D01*
X151573710Y-112728570D02*
X151335615Y-112728570D01*
X151335615Y-112728570D02*
X151145139Y-112680951D01*
X151145139Y-112680951D02*
X151049901Y-112633332D01*
X151049901Y-112633332D02*
X151002282Y-112585713D01*
X151002282Y-112585713D02*
X150954663Y-112490475D01*
X140054663Y-92109523D02*
X140768948Y-92109523D01*
X140768948Y-92109523D02*
X140911805Y-92157142D01*
X140911805Y-92157142D02*
X141007044Y-92252380D01*
X141007044Y-92252380D02*
X141054663Y-92395237D01*
X141054663Y-92395237D02*
X141054663Y-92490475D01*
X141054663Y-91109523D02*
X141054663Y-91680951D01*
X141054663Y-91395237D02*
X140054663Y-91395237D01*
X140054663Y-91395237D02*
X140197520Y-91490475D01*
X140197520Y-91490475D02*
X140292758Y-91585713D01*
X140292758Y-91585713D02*
X140340377Y-91680951D01*
X141054663Y-90157142D02*
X141054663Y-90728570D01*
X141054663Y-90442856D02*
X140054663Y-90442856D01*
X140054663Y-90442856D02*
X140197520Y-90538094D01*
X140197520Y-90538094D02*
X140292758Y-90633332D01*
X140292758Y-90633332D02*
X140340377Y-90728570D01*
X144333333Y-101749424D02*
X144285714Y-101797044D01*
X144285714Y-101797044D02*
X144142857Y-101844663D01*
X144142857Y-101844663D02*
X144047619Y-101844663D01*
X144047619Y-101844663D02*
X143904762Y-101797044D01*
X143904762Y-101797044D02*
X143809524Y-101701805D01*
X143809524Y-101701805D02*
X143761905Y-101606567D01*
X143761905Y-101606567D02*
X143714286Y-101416091D01*
X143714286Y-101416091D02*
X143714286Y-101273234D01*
X143714286Y-101273234D02*
X143761905Y-101082758D01*
X143761905Y-101082758D02*
X143809524Y-100987520D01*
X143809524Y-100987520D02*
X143904762Y-100892282D01*
X143904762Y-100892282D02*
X144047619Y-100844663D01*
X144047619Y-100844663D02*
X144142857Y-100844663D01*
X144142857Y-100844663D02*
X144285714Y-100892282D01*
X144285714Y-100892282D02*
X144333333Y-100939901D01*
X145238095Y-100844663D02*
X144761905Y-100844663D01*
X144761905Y-100844663D02*
X144714286Y-101320853D01*
X144714286Y-101320853D02*
X144761905Y-101273234D01*
X144761905Y-101273234D02*
X144857143Y-101225615D01*
X144857143Y-101225615D02*
X145095238Y-101225615D01*
X145095238Y-101225615D02*
X145190476Y-101273234D01*
X145190476Y-101273234D02*
X145238095Y-101320853D01*
X145238095Y-101320853D02*
X145285714Y-101416091D01*
X145285714Y-101416091D02*
X145285714Y-101654186D01*
X145285714Y-101654186D02*
X145238095Y-101749424D01*
X145238095Y-101749424D02*
X145190476Y-101797044D01*
X145190476Y-101797044D02*
X145095238Y-101844663D01*
X145095238Y-101844663D02*
X144857143Y-101844663D01*
X144857143Y-101844663D02*
X144761905Y-101797044D01*
X144761905Y-101797044D02*
X144714286Y-101749424D01*
X128204663Y-88916666D02*
X127728472Y-89249999D01*
X128204663Y-89488094D02*
X127204663Y-89488094D01*
X127204663Y-89488094D02*
X127204663Y-89107142D01*
X127204663Y-89107142D02*
X127252282Y-89011904D01*
X127252282Y-89011904D02*
X127299901Y-88964285D01*
X127299901Y-88964285D02*
X127395139Y-88916666D01*
X127395139Y-88916666D02*
X127537996Y-88916666D01*
X127537996Y-88916666D02*
X127633234Y-88964285D01*
X127633234Y-88964285D02*
X127680853Y-89011904D01*
X127680853Y-89011904D02*
X127728472Y-89107142D01*
X127728472Y-89107142D02*
X127728472Y-89488094D01*
X127204663Y-88011904D02*
X127204663Y-88488094D01*
X127204663Y-88488094D02*
X127680853Y-88535713D01*
X127680853Y-88535713D02*
X127633234Y-88488094D01*
X127633234Y-88488094D02*
X127585615Y-88392856D01*
X127585615Y-88392856D02*
X127585615Y-88154761D01*
X127585615Y-88154761D02*
X127633234Y-88059523D01*
X127633234Y-88059523D02*
X127680853Y-88011904D01*
X127680853Y-88011904D02*
X127776091Y-87964285D01*
X127776091Y-87964285D02*
X128014186Y-87964285D01*
X128014186Y-87964285D02*
X128109424Y-88011904D01*
X128109424Y-88011904D02*
X128157044Y-88059523D01*
X128157044Y-88059523D02*
X128204663Y-88154761D01*
X128204663Y-88154761D02*
X128204663Y-88392856D01*
X128204663Y-88392856D02*
X128157044Y-88488094D01*
X128157044Y-88488094D02*
X128109424Y-88535713D01*
D12*
X139840000Y-80792164D02*
X139840000Y-81007836D01*
X140560000Y-80792164D02*
X140560000Y-81007836D01*
X151120000Y-80846359D02*
X151120000Y-81153641D01*
X151880000Y-80846359D02*
X151880000Y-81153641D01*
X132690000Y-74890000D02*
X132690000Y-75690000D01*
X132890000Y-75090000D02*
X132890000Y-78810000D01*
X132890000Y-76000000D02*
X133290000Y-76000000D01*
X132890000Y-77000000D02*
X133290000Y-77000000D01*
X132890000Y-78810000D02*
X142110000Y-78810000D01*
X133290000Y-75490000D02*
X133290000Y-78410000D01*
X133290000Y-78410000D02*
X141710000Y-78410000D01*
X133490000Y-74890000D02*
X132690000Y-74890000D01*
X133900000Y-74890000D02*
X133900000Y-75090000D01*
X134200000Y-74890000D02*
X133900000Y-74890000D01*
X134200000Y-74990000D02*
X133900000Y-74990000D01*
X134200000Y-75090000D02*
X134200000Y-74890000D01*
X135150000Y-78010000D02*
X135350000Y-78010000D01*
X135150000Y-78410000D02*
X135150000Y-78010000D01*
X135250000Y-78410000D02*
X135250000Y-78010000D01*
X135350000Y-78010000D02*
X135350000Y-78410000D01*
X136650000Y-78010000D02*
X136850000Y-78010000D01*
X136650000Y-78410000D02*
X136650000Y-78010000D01*
X136750000Y-78410000D02*
X136750000Y-78010000D01*
X136850000Y-78010000D02*
X136850000Y-78410000D01*
X138150000Y-78010000D02*
X138350000Y-78010000D01*
X138150000Y-78410000D02*
X138150000Y-78010000D01*
X138250000Y-78410000D02*
X138250000Y-78010000D01*
X138350000Y-78010000D02*
X138350000Y-78410000D01*
X139650000Y-78010000D02*
X139850000Y-78010000D01*
X139650000Y-78410000D02*
X139650000Y-78010000D01*
X139750000Y-78410000D02*
X139750000Y-78010000D01*
X139850000Y-78010000D02*
X139850000Y-78410000D01*
X141710000Y-75490000D02*
X133290000Y-75490000D01*
X141710000Y-78410000D02*
X141710000Y-75490000D01*
X142110000Y-75090000D02*
X132890000Y-75090000D01*
X142110000Y-76000000D02*
X141710000Y-76000000D01*
X142110000Y-77000000D02*
X141710000Y-77000000D01*
X142110000Y-78810000D02*
X142110000Y-75090000D01*
X151390000Y-96107836D02*
X151390000Y-95892164D01*
X152110000Y-96107836D02*
X152110000Y-95892164D01*
X124620000Y-88471359D02*
X124620000Y-88778641D01*
X125380000Y-88471359D02*
X125380000Y-88778641D01*
X138190000Y-105840580D02*
X138190000Y-105559420D01*
X139210000Y-105840580D02*
X139210000Y-105559420D01*
X142690000Y-74890000D02*
X142690000Y-75690000D01*
X142890000Y-75090000D02*
X142890000Y-78810000D01*
X142890000Y-76000000D02*
X143290000Y-76000000D01*
X142890000Y-77000000D02*
X143290000Y-77000000D01*
X142890000Y-78810000D02*
X152110000Y-78810000D01*
X143290000Y-75490000D02*
X143290000Y-78410000D01*
X143290000Y-78410000D02*
X151710000Y-78410000D01*
X143490000Y-74890000D02*
X142690000Y-74890000D01*
X143900000Y-74890000D02*
X143900000Y-75090000D01*
X144200000Y-74890000D02*
X143900000Y-74890000D01*
X144200000Y-74990000D02*
X143900000Y-74990000D01*
X144200000Y-75090000D02*
X144200000Y-74890000D01*
X145150000Y-78010000D02*
X145350000Y-78010000D01*
X145150000Y-78410000D02*
X145150000Y-78010000D01*
X145250000Y-78410000D02*
X145250000Y-78010000D01*
X145350000Y-78010000D02*
X145350000Y-78410000D01*
X146650000Y-78010000D02*
X146850000Y-78010000D01*
X146650000Y-78410000D02*
X146650000Y-78010000D01*
X146750000Y-78410000D02*
X146750000Y-78010000D01*
X146850000Y-78010000D02*
X146850000Y-78410000D01*
X148150000Y-78010000D02*
X148350000Y-78010000D01*
X148150000Y-78410000D02*
X148150000Y-78010000D01*
X148250000Y-78410000D02*
X148250000Y-78010000D01*
X148350000Y-78010000D02*
X148350000Y-78410000D01*
X149650000Y-78010000D02*
X149850000Y-78010000D01*
X149650000Y-78410000D02*
X149650000Y-78010000D01*
X149750000Y-78410000D02*
X149750000Y-78010000D01*
X149850000Y-78010000D02*
X149850000Y-78410000D01*
X151710000Y-75490000D02*
X143290000Y-75490000D01*
X151710000Y-78410000D02*
X151710000Y-75490000D01*
X152110000Y-75090000D02*
X142890000Y-75090000D01*
X152110000Y-76000000D02*
X151710000Y-76000000D01*
X152110000Y-77000000D02*
X151710000Y-77000000D01*
X152110000Y-78810000D02*
X152110000Y-75090000D01*
X134440000Y-132207836D02*
X134440000Y-131992164D01*
X135160000Y-132207836D02*
X135160000Y-131992164D01*
X132846359Y-122120000D02*
X133153641Y-122120000D01*
X132846359Y-122880000D02*
X133153641Y-122880000D01*
X132390000Y-128600000D02*
X132390000Y-128900000D01*
X132390000Y-128900000D02*
X132590000Y-128900000D01*
X132390000Y-129310000D02*
X132390000Y-130110000D01*
X132390000Y-130110000D02*
X133190000Y-130110000D01*
X132490000Y-128600000D02*
X132490000Y-128900000D01*
X132590000Y-125190000D02*
X132590000Y-129910000D01*
X132590000Y-128600000D02*
X132390000Y-128600000D01*
X132590000Y-129910000D02*
X136310000Y-129910000D01*
X132990000Y-125590000D02*
X132990000Y-129510000D01*
X132990000Y-129510000D02*
X135910000Y-129510000D01*
X133500000Y-125190000D02*
X133500000Y-125590000D01*
X133500000Y-129910000D02*
X133500000Y-129510000D01*
X134500000Y-125190000D02*
X134500000Y-125590000D01*
X134500000Y-129910000D02*
X134500000Y-129510000D01*
X135510000Y-127450000D02*
X135910000Y-127450000D01*
X135510000Y-127650000D02*
X135510000Y-127450000D01*
X135910000Y-125590000D02*
X132990000Y-125590000D01*
X135910000Y-127550000D02*
X135510000Y-127550000D01*
X135910000Y-127650000D02*
X135510000Y-127650000D01*
X135910000Y-129510000D02*
X135910000Y-125590000D01*
X136310000Y-125190000D02*
X132590000Y-125190000D01*
X136310000Y-129910000D02*
X136310000Y-125190000D01*
X137020000Y-107153641D02*
X137020000Y-106846359D01*
X137780000Y-107153641D02*
X137780000Y-106846359D01*
X134660000Y-83800000D02*
X134660000Y-85800000D01*
X136940000Y-83790000D02*
X136940000Y-85790000D01*
X137150000Y-83430000D02*
X136870000Y-83430000D01*
X136870000Y-83150000D01*
X137150000Y-83430000D01*
G36*
X137150000Y-83430000D02*
G01*
X136870000Y-83430000D01*
X136870000Y-83150000D01*
X137150000Y-83430000D01*
G37*
X147240000Y-85607836D02*
X147240000Y-85392164D01*
X147960000Y-85607836D02*
X147960000Y-85392164D01*
X148640000Y-83140000D02*
X148640000Y-87860000D01*
X148640000Y-87860000D02*
X152360000Y-87860000D01*
X149040000Y-83540000D02*
X149040000Y-87460000D01*
X149040000Y-85400000D02*
X149440000Y-85400000D01*
X149040000Y-85500000D02*
X149440000Y-85500000D01*
X149040000Y-87460000D02*
X151960000Y-87460000D01*
X149440000Y-85400000D02*
X149440000Y-85600000D01*
X149440000Y-85600000D02*
X149040000Y-85600000D01*
X150450000Y-83140000D02*
X150450000Y-83540000D01*
X150450000Y-87860000D02*
X150450000Y-87460000D01*
X151450000Y-83140000D02*
X151450000Y-83540000D01*
X151450000Y-87860000D02*
X151450000Y-87460000D01*
X151960000Y-83540000D02*
X149040000Y-83540000D01*
X151960000Y-87460000D02*
X151960000Y-83540000D01*
X152360000Y-83140000D02*
X148640000Y-83140000D01*
X152360000Y-84450000D02*
X152560000Y-84450000D01*
X152360000Y-87860000D02*
X152360000Y-83140000D01*
X152460000Y-84450000D02*
X152460000Y-84150000D01*
X152560000Y-82940000D02*
X151760000Y-82940000D01*
X152560000Y-83740000D02*
X152560000Y-82940000D01*
X152560000Y-84150000D02*
X152360000Y-84150000D01*
X152560000Y-84450000D02*
X152560000Y-84150000D01*
X143390000Y-104640000D02*
X143840000Y-104640000D01*
X143390000Y-105090000D02*
X143390000Y-104640000D01*
X143390000Y-111410000D02*
X143390000Y-111860000D01*
X143390000Y-111860000D02*
X143840000Y-111860000D01*
X150610000Y-104640000D02*
X150160000Y-104640000D01*
X150610000Y-105090000D02*
X150610000Y-104640000D01*
X150610000Y-111410000D02*
X150610000Y-111860000D01*
X150610000Y-111860000D02*
X150160000Y-111860000D01*
X143840000Y-112450000D02*
X143370000Y-112790000D01*
X143370000Y-112110000D01*
X143840000Y-112450000D01*
G36*
X143840000Y-112450000D02*
G01*
X143370000Y-112790000D01*
X143370000Y-112110000D01*
X143840000Y-112450000D01*
G37*
X146190000Y-130640000D02*
X147600000Y-130640000D01*
X146200000Y-132960000D02*
X147600000Y-132960000D01*
X145820000Y-130690000D02*
X145580000Y-130360000D01*
X146060000Y-130360000D01*
X145820000Y-130690000D01*
G36*
X145820000Y-130690000D02*
G01*
X145580000Y-130360000D01*
X146060000Y-130360000D01*
X145820000Y-130690000D01*
G37*
X147377836Y-119390000D02*
X147162164Y-119390000D01*
X147377836Y-120110000D02*
X147162164Y-120110000D01*
X151140000Y-103642164D02*
X151140000Y-103857836D01*
X151860000Y-103642164D02*
X151860000Y-103857836D01*
X148127836Y-113590000D02*
X147912164Y-113590000D01*
X148127836Y-114310000D02*
X147912164Y-114310000D01*
X133640000Y-108140000D02*
X136360000Y-108140000D01*
X133640000Y-109120000D02*
X133640000Y-108140000D01*
X133640000Y-111880000D02*
X133640000Y-112860000D01*
X136220000Y-112860000D02*
X133640000Y-112860000D01*
X137010000Y-113040000D02*
X136530000Y-113040000D01*
X136770000Y-112710000D01*
X137010000Y-113040000D01*
G36*
X137010000Y-113040000D02*
G01*
X136530000Y-113040000D01*
X136770000Y-112710000D01*
X137010000Y-113040000D01*
G37*
X127980000Y-98845000D02*
X127980000Y-100755000D01*
X127980000Y-100755000D02*
X131900000Y-100755000D01*
X131900000Y-98845000D02*
X127980000Y-98845000D01*
X148765000Y-131727064D02*
X148765000Y-131272936D01*
X150235000Y-131727064D02*
X150235000Y-131272936D01*
X137020000Y-105163641D02*
X137020000Y-104856359D01*
X137780000Y-105163641D02*
X137780000Y-104856359D01*
X143240000Y-118860000D02*
X149110000Y-118860000D01*
X149110000Y-115140000D02*
X143240000Y-115140000D01*
X149110000Y-118860000D02*
X149110000Y-115140000D01*
X132890000Y-134190000D02*
X132890000Y-137910000D01*
X132890000Y-136000000D02*
X133290000Y-136000000D01*
X132890000Y-137000000D02*
X133290000Y-137000000D01*
X132890000Y-137910000D02*
X142110000Y-137910000D01*
X133290000Y-134590000D02*
X133290000Y-137510000D01*
X133290000Y-137510000D02*
X141710000Y-137510000D01*
X135150000Y-134990000D02*
X135150000Y-134590000D01*
X135250000Y-134590000D02*
X135250000Y-134990000D01*
X135350000Y-134590000D02*
X135350000Y-134990000D01*
X135350000Y-134990000D02*
X135150000Y-134990000D01*
X136650000Y-134990000D02*
X136650000Y-134590000D01*
X136750000Y-134590000D02*
X136750000Y-134990000D01*
X136850000Y-134590000D02*
X136850000Y-134990000D01*
X136850000Y-134990000D02*
X136650000Y-134990000D01*
X138150000Y-134990000D02*
X138150000Y-134590000D01*
X138250000Y-134590000D02*
X138250000Y-134990000D01*
X138350000Y-134590000D02*
X138350000Y-134990000D01*
X138350000Y-134990000D02*
X138150000Y-134990000D01*
X139650000Y-134990000D02*
X139650000Y-134590000D01*
X139750000Y-134590000D02*
X139750000Y-134990000D01*
X139850000Y-134590000D02*
X139850000Y-134990000D01*
X139850000Y-134990000D02*
X139650000Y-134990000D01*
X140800000Y-137910000D02*
X140800000Y-138110000D01*
X140800000Y-138010000D02*
X141100000Y-138010000D01*
X140800000Y-138110000D02*
X141100000Y-138110000D01*
X141100000Y-138110000D02*
X141100000Y-137910000D01*
X141510000Y-138110000D02*
X142310000Y-138110000D01*
X141710000Y-134590000D02*
X133290000Y-134590000D01*
X141710000Y-137510000D02*
X141710000Y-134590000D01*
X142110000Y-134190000D02*
X132890000Y-134190000D01*
X142110000Y-136000000D02*
X141710000Y-136000000D01*
X142110000Y-137000000D02*
X141710000Y-137000000D01*
X142110000Y-137910000D02*
X142110000Y-134190000D01*
X142310000Y-138110000D02*
X142310000Y-137310000D01*
X147040000Y-129507836D02*
X147040000Y-129292164D01*
X147760000Y-129507836D02*
X147760000Y-129292164D01*
X137040000Y-127392164D02*
X137040000Y-127607836D01*
X137760000Y-127392164D02*
X137760000Y-127607836D01*
X138800000Y-80040000D02*
X137400000Y-80040000D01*
X138810000Y-82360000D02*
X137400000Y-82360000D01*
X139420000Y-82640000D02*
X138940000Y-82640000D01*
X139180000Y-82310000D01*
X139420000Y-82640000D01*
G36*
X139420000Y-82640000D02*
G01*
X138940000Y-82640000D01*
X139180000Y-82310000D01*
X139420000Y-82640000D01*
G37*
X127980000Y-94445000D02*
X127980000Y-96355000D01*
X127980000Y-96355000D02*
X131900000Y-96355000D01*
X131900000Y-94445000D02*
X127980000Y-94445000D01*
X138765000Y-131727064D02*
X138765000Y-131272936D01*
X140235000Y-131727064D02*
X140235000Y-131272936D01*
X137240000Y-83492164D02*
X137240000Y-83707836D01*
X137960000Y-83492164D02*
X137960000Y-83707836D01*
X127690000Y-112890000D02*
X127690000Y-120610000D01*
X127690000Y-120610000D02*
X131410000Y-120610000D01*
X128090000Y-113290000D02*
X128090000Y-120210000D01*
X128090000Y-115150000D02*
X128490000Y-115150000D01*
X128090000Y-115250000D02*
X128490000Y-115250000D01*
X128090000Y-116650000D02*
X128490000Y-116650000D01*
X128090000Y-116750000D02*
X128490000Y-116750000D01*
X128090000Y-118150000D02*
X128490000Y-118150000D01*
X128090000Y-118250000D02*
X128490000Y-118250000D01*
X128090000Y-120210000D02*
X131010000Y-120210000D01*
X128490000Y-115150000D02*
X128490000Y-115350000D01*
X128490000Y-115350000D02*
X128090000Y-115350000D01*
X128490000Y-116650000D02*
X128490000Y-116850000D01*
X128490000Y-116850000D02*
X128090000Y-116850000D01*
X128490000Y-118150000D02*
X128490000Y-118350000D01*
X128490000Y-118350000D02*
X128090000Y-118350000D01*
X129500000Y-112890000D02*
X129500000Y-113290000D01*
X129500000Y-120610000D02*
X129500000Y-120210000D01*
X130500000Y-112890000D02*
X130500000Y-113290000D01*
X130500000Y-120610000D02*
X130500000Y-120210000D01*
X131010000Y-113290000D02*
X128090000Y-113290000D01*
X131010000Y-120210000D02*
X131010000Y-113290000D01*
X131410000Y-112890000D02*
X127690000Y-112890000D01*
X131410000Y-114200000D02*
X131610000Y-114200000D01*
X131410000Y-120610000D02*
X131410000Y-112890000D01*
X131510000Y-114200000D02*
X131510000Y-113900000D01*
X131610000Y-112690000D02*
X130810000Y-112690000D01*
X131610000Y-113490000D02*
X131610000Y-112690000D01*
X131610000Y-113900000D02*
X131410000Y-113900000D01*
X131610000Y-114200000D02*
X131610000Y-113900000D01*
X144660000Y-83800000D02*
X144660000Y-85800000D01*
X146940000Y-83790000D02*
X146940000Y-85790000D01*
X147150000Y-83430000D02*
X146870000Y-83430000D01*
X146870000Y-83150000D01*
X147150000Y-83430000D01*
G36*
X147150000Y-83430000D02*
G01*
X146870000Y-83430000D01*
X146870000Y-83150000D01*
X147150000Y-83430000D01*
G37*
X126120000Y-88471359D02*
X126120000Y-88778641D01*
X126880000Y-88471359D02*
X126880000Y-88778641D01*
X136190000Y-130640000D02*
X137600000Y-130640000D01*
X136200000Y-132960000D02*
X137600000Y-132960000D01*
X135820000Y-130690000D02*
X135580000Y-130360000D01*
X136060000Y-130360000D01*
X135820000Y-130690000D01*
G36*
X135820000Y-130690000D02*
G01*
X135580000Y-130360000D01*
X136060000Y-130360000D01*
X135820000Y-130690000D01*
G37*
X130946359Y-93420000D02*
X131253641Y-93420000D01*
X130946359Y-94180000D02*
X131253641Y-94180000D01*
X137240000Y-85607836D02*
X137240000Y-85392164D01*
X137960000Y-85607836D02*
X137960000Y-85392164D01*
X149840000Y-80792164D02*
X149840000Y-81007836D01*
X150560000Y-80792164D02*
X150560000Y-81007836D01*
X137180000Y-124545000D02*
X137180000Y-126455000D01*
X137180000Y-126455000D02*
X141100000Y-126455000D01*
X141100000Y-124545000D02*
X137180000Y-124545000D01*
X127980000Y-96645000D02*
X127980000Y-98555000D01*
X127980000Y-98555000D02*
X131900000Y-98555000D01*
X131900000Y-96645000D02*
X127980000Y-96645000D01*
X132846359Y-123120000D02*
X133153641Y-123120000D01*
X132846359Y-123880000D02*
X133153641Y-123880000D01*
X133045000Y-103900000D02*
X133045000Y-107820000D01*
X133045000Y-107820000D02*
X134955000Y-107820000D01*
X134955000Y-107820000D02*
X134955000Y-103900000D01*
X133120000Y-132153641D02*
X133120000Y-131846359D01*
X133880000Y-132153641D02*
X133880000Y-131846359D01*
X127980000Y-101045000D02*
X127980000Y-102955000D01*
X127980000Y-102955000D02*
X131900000Y-102955000D01*
X131900000Y-101045000D02*
X127980000Y-101045000D01*
X140690000Y-96500000D02*
X140690000Y-94550000D01*
X140690000Y-96500000D02*
X140690000Y-98450000D01*
X150810000Y-96500000D02*
X150810000Y-94550000D01*
X150810000Y-96500000D02*
X150810000Y-98450000D01*
X151085000Y-94040000D02*
X150755000Y-93800000D01*
X151085000Y-93560000D01*
X151085000Y-94040000D01*
G36*
X151085000Y-94040000D02*
G01*
X150755000Y-93800000D01*
X151085000Y-93560000D01*
X151085000Y-94040000D01*
G37*
X141120000Y-80846359D02*
X141120000Y-81153641D01*
X141880000Y-80846359D02*
X141880000Y-81153641D01*
X138045000Y-108180000D02*
X138045000Y-112100000D01*
X139955000Y-108180000D02*
X138045000Y-108180000D01*
X139955000Y-112100000D02*
X139955000Y-108180000D01*
X127690000Y-121390000D02*
X127690000Y-129110000D01*
X127690000Y-129110000D02*
X131410000Y-129110000D01*
X128090000Y-121790000D02*
X128090000Y-128710000D01*
X128090000Y-123650000D02*
X128490000Y-123650000D01*
X128090000Y-123750000D02*
X128490000Y-123750000D01*
X128090000Y-125150000D02*
X128490000Y-125150000D01*
X128090000Y-125250000D02*
X128490000Y-125250000D01*
X128090000Y-126650000D02*
X128490000Y-126650000D01*
X128090000Y-126750000D02*
X128490000Y-126750000D01*
X128090000Y-128710000D02*
X131010000Y-128710000D01*
X128490000Y-123650000D02*
X128490000Y-123850000D01*
X128490000Y-123850000D02*
X128090000Y-123850000D01*
X128490000Y-125150000D02*
X128490000Y-125350000D01*
X128490000Y-125350000D02*
X128090000Y-125350000D01*
X128490000Y-126650000D02*
X128490000Y-126850000D01*
X128490000Y-126850000D02*
X128090000Y-126850000D01*
X129500000Y-121390000D02*
X129500000Y-121790000D01*
X129500000Y-129110000D02*
X129500000Y-128710000D01*
X130500000Y-121390000D02*
X130500000Y-121790000D01*
X130500000Y-129110000D02*
X130500000Y-128710000D01*
X131010000Y-121790000D02*
X128090000Y-121790000D01*
X131010000Y-128710000D02*
X131010000Y-121790000D01*
X131410000Y-121390000D02*
X127690000Y-121390000D01*
X131410000Y-122700000D02*
X131610000Y-122700000D01*
X131410000Y-129110000D02*
X131410000Y-121390000D01*
X131510000Y-122700000D02*
X131510000Y-122400000D01*
X131610000Y-121190000D02*
X130810000Y-121190000D01*
X131610000Y-121990000D02*
X131610000Y-121190000D01*
X131610000Y-122400000D02*
X131410000Y-122400000D01*
X131610000Y-122700000D02*
X131610000Y-122400000D01*
D13*
G36*
X137178636Y-116147835D02*
G01*
X137200939Y-116148875D01*
X137250574Y-116151601D01*
X137294046Y-116153770D01*
X137325344Y-116155093D01*
X137335932Y-116155359D01*
X137373674Y-116158302D01*
X137427548Y-116166181D01*
X137492606Y-116177974D01*
X137563899Y-116192655D01*
X137636479Y-116209203D01*
X137705398Y-116226597D01*
X137765706Y-116243812D01*
X137769599Y-116245021D01*
X137937171Y-116307008D01*
X138088608Y-116383234D01*
X138224864Y-116474237D01*
X138319535Y-116554246D01*
X138375575Y-116610447D01*
X138426545Y-116670685D01*
X138475853Y-116739576D01*
X138526908Y-116821734D01*
X138560201Y-116880043D01*
X138594199Y-116939628D01*
X138621633Y-116981794D01*
X138645914Y-117008621D01*
X138670459Y-117022188D01*
X138698681Y-117024578D01*
X138733993Y-117017869D01*
X138769269Y-117007468D01*
X138932959Y-116965400D01*
X139090185Y-116944069D01*
X139241970Y-116943624D01*
X139389341Y-116964216D01*
X139533324Y-117005992D01*
X139674942Y-117069111D01*
X139815221Y-117153713D01*
X139828263Y-117162698D01*
X139883209Y-117205659D01*
X139946776Y-117263089D01*
X140015526Y-117331167D01*
X140086019Y-117406075D01*
X140154821Y-117483991D01*
X140218488Y-117561096D01*
X140273591Y-117633570D01*
X140316684Y-117697594D01*
X140329744Y-117719898D01*
X140405273Y-117868230D01*
X140477159Y-118032201D01*
X140543213Y-118205590D01*
X140601248Y-118382179D01*
X140649075Y-118555749D01*
X140684507Y-118720079D01*
X140687432Y-118736615D01*
X140709869Y-118909080D01*
X140719443Y-119087939D01*
X140716309Y-119267418D01*
X140700620Y-119441742D01*
X140672528Y-119605136D01*
X140663333Y-119644622D01*
X140639110Y-119727183D01*
X140605585Y-119819416D01*
X140565371Y-119915563D01*
X140521081Y-120009867D01*
X140475327Y-120096573D01*
X140430723Y-120169924D01*
X140414050Y-120193876D01*
X140275901Y-120366549D01*
X140117539Y-120534377D01*
X139940367Y-120696075D01*
X139745785Y-120850355D01*
X139550182Y-120986215D01*
X139477982Y-121033416D01*
X139422071Y-121070510D01*
X139380293Y-121099209D01*
X139350492Y-121121226D01*
X139330509Y-121138272D01*
X139318191Y-121152055D01*
X139311380Y-121164290D01*
X139307921Y-121176690D01*
X139307530Y-121178828D01*
X139307142Y-121201732D01*
X139310184Y-121239969D01*
X139316064Y-121287339D01*
X139320839Y-121318345D01*
X139335114Y-121426688D01*
X139338902Y-121519869D01*
X139332013Y-121602063D01*
X139314255Y-121677443D01*
X139302958Y-121709505D01*
X139284671Y-121754723D01*
X139269274Y-121785647D01*
X139252587Y-121808716D01*
X139230433Y-121830368D01*
X139217202Y-121841671D01*
X139151801Y-121883864D01*
X139082635Y-121904621D01*
X139010671Y-121903896D01*
X138936874Y-121881638D01*
X138891567Y-121857590D01*
X138831333Y-121812298D01*
X138776698Y-121753306D01*
X138725337Y-121677734D01*
X138682921Y-121599129D01*
X138657538Y-121548596D01*
X138636172Y-121512128D01*
X138615012Y-121488450D01*
X138590249Y-121476291D01*
X138558073Y-121474380D01*
X138514677Y-121481438D01*
X138456250Y-121496197D01*
X138411568Y-121508447D01*
X138252581Y-121545001D01*
X138081243Y-121571405D01*
X137904964Y-121586967D01*
X137731153Y-121590998D01*
X137591194Y-121584866D01*
X137461659Y-121573741D01*
X137349772Y-121561805D01*
X137251276Y-121548058D01*
X137161912Y-121531506D01*
X137077421Y-121511150D01*
X136993548Y-121485994D01*
X136906036Y-121455040D01*
X136810625Y-121417290D01*
X136728975Y-121382913D01*
X136643810Y-121346037D01*
X136575173Y-121315383D01*
X136519247Y-121289050D01*
X136472210Y-121265141D01*
X136430248Y-121241763D01*
X136389537Y-121217016D01*
X136370602Y-121204925D01*
X136254006Y-121126235D01*
X136151105Y-121048885D01*
X136058184Y-120969233D01*
X135971527Y-120883622D01*
X135887415Y-120788401D01*
X135802135Y-120679922D01*
X135719418Y-120565227D01*
X135676595Y-120504511D01*
X135642677Y-120460157D01*
X135614043Y-120430564D01*
X135587070Y-120414126D01*
X135558129Y-120409235D01*
X135523602Y-120414288D01*
X135479864Y-120427680D01*
X135440445Y-120441654D01*
X135356006Y-120469717D01*
X135284934Y-120487691D01*
X135221650Y-120496466D01*
X135160564Y-120496937D01*
X135118650Y-120493121D01*
X135031242Y-120472393D01*
X134955108Y-120434936D01*
X134891309Y-120383405D01*
X134840903Y-120320452D01*
X134804951Y-120248727D01*
X134784508Y-120170881D01*
X134782012Y-120118446D01*
X134941619Y-120118446D01*
X134945583Y-120149270D01*
X134945914Y-120151045D01*
X134960181Y-120203785D01*
X134983194Y-120244669D01*
X135020260Y-120282443D01*
X135031044Y-120291379D01*
X135078253Y-120321578D01*
X135134076Y-120341160D01*
X135204061Y-120351930D01*
X135221127Y-120353245D01*
X135272401Y-120351659D01*
X135328024Y-120339029D01*
X135372330Y-120323321D01*
X135397603Y-120311930D01*
X135402284Y-120309625D01*
X135775376Y-120309625D01*
X135781455Y-120336335D01*
X135797621Y-120374048D01*
X135812755Y-120404461D01*
X135879215Y-120516869D01*
X135964159Y-120631696D01*
X136064827Y-120746022D01*
X136178460Y-120856926D01*
X136302295Y-120961488D01*
X136422034Y-121049013D01*
X136522277Y-121114876D01*
X136611811Y-121168543D01*
X136695938Y-121212765D01*
X136779960Y-121250294D01*
X136869178Y-121283884D01*
X136884606Y-121289184D01*
X137002786Y-121328085D01*
X137106411Y-121359107D01*
X137200901Y-121383368D01*
X137291679Y-121401980D01*
X137384164Y-121416062D01*
X137483777Y-121426725D01*
X137593053Y-121434904D01*
X137760120Y-121439853D01*
X137927188Y-121434018D01*
X138089609Y-121417910D01*
X138242731Y-121392042D01*
X138381904Y-121356929D01*
X138424838Y-121343107D01*
X138481990Y-121322185D01*
X138520917Y-121303712D01*
X138544695Y-121285029D01*
X138556405Y-121263480D01*
X138559123Y-121236409D01*
X138558700Y-121227594D01*
X138554909Y-121207005D01*
X138545747Y-121169327D01*
X138532325Y-121118395D01*
X138515751Y-121058048D01*
X138497133Y-120992125D01*
X138477577Y-120924459D01*
X138458195Y-120858888D01*
X138440092Y-120799251D01*
X138424379Y-120749383D01*
X138412162Y-120713122D01*
X138404819Y-120694800D01*
X138389670Y-120670786D01*
X138371839Y-120655066D01*
X138348118Y-120647506D01*
X138315298Y-120647979D01*
X138270172Y-120656356D01*
X138209531Y-120672506D01*
X138166640Y-120685187D01*
X138012153Y-120727177D01*
X137868948Y-120755780D01*
X137731410Y-120771556D01*
X137593929Y-120775068D01*
X137450892Y-120766876D01*
X137401227Y-120761667D01*
X137362281Y-120756621D01*
X137328943Y-120750444D01*
X137296239Y-120741529D01*
X137259191Y-120728275D01*
X137212824Y-120709075D01*
X137152165Y-120682327D01*
X137144362Y-120678835D01*
X137076992Y-120648047D01*
X137024841Y-120622453D01*
X136982768Y-120599170D01*
X136945630Y-120575311D01*
X136908288Y-120547991D01*
X136900301Y-120541825D01*
X136782631Y-120439563D01*
X136672278Y-120322644D01*
X136574718Y-120197239D01*
X136520646Y-120113908D01*
X136480954Y-120050868D01*
X136446959Y-120006263D01*
X136415856Y-119978341D01*
X136384836Y-119965349D01*
X136351095Y-119965534D01*
X136311824Y-119977142D01*
X136305615Y-119979625D01*
X136271965Y-119994899D01*
X136225969Y-120017879D01*
X136170862Y-120046746D01*
X136109872Y-120079679D01*
X136046230Y-120114857D01*
X135983165Y-120150461D01*
X135923907Y-120184670D01*
X135871690Y-120215664D01*
X135829740Y-120241621D01*
X135801290Y-120260722D01*
X135790267Y-120270035D01*
X135778582Y-120289124D01*
X135775376Y-120309625D01*
X135402284Y-120309625D01*
X135440094Y-120291007D01*
X135497833Y-120261589D01*
X135568851Y-120224707D01*
X135598669Y-120209021D01*
X135651178Y-120181401D01*
X135742843Y-120132707D01*
X135841878Y-120079658D01*
X135946311Y-120023295D01*
X136052385Y-119965627D01*
X136222327Y-119873077D01*
X136571006Y-119873077D01*
X136577893Y-119898479D01*
X136592384Y-119934158D01*
X136625469Y-119997924D01*
X136672775Y-120070843D01*
X136730997Y-120148925D01*
X136796829Y-120228186D01*
X136866963Y-120304640D01*
X136938092Y-120374299D01*
X137005278Y-120431895D01*
X137037495Y-120455965D01*
X137069959Y-120476790D01*
X137107621Y-120497002D01*
X137155430Y-120519234D01*
X137218329Y-120546117D01*
X137226007Y-120549314D01*
X137313545Y-120583861D01*
X137384967Y-120608064D01*
X137439020Y-120621506D01*
X137445196Y-120622514D01*
X137508802Y-120628334D01*
X137587631Y-120629805D01*
X137675487Y-120627175D01*
X137766176Y-120620690D01*
X137853504Y-120610597D01*
X137891154Y-120604756D01*
X137953095Y-120591963D01*
X138025582Y-120573514D01*
X138098881Y-120552044D01*
X138154135Y-120533542D01*
X138217950Y-120510018D01*
X138263847Y-120489944D01*
X138293540Y-120469581D01*
X138308739Y-120445192D01*
X138311155Y-120413040D01*
X138302498Y-120369386D01*
X138284481Y-120310494D01*
X138272654Y-120274644D01*
X138255014Y-120223595D01*
X138230482Y-120155765D01*
X138200413Y-120074662D01*
X138166166Y-119983796D01*
X138129098Y-119886677D01*
X138090564Y-119786818D01*
X138051922Y-119687725D01*
X138014529Y-119592910D01*
X137979740Y-119505883D01*
X137948914Y-119430157D01*
X137923409Y-119369240D01*
X137916343Y-119352876D01*
X137888469Y-119294207D01*
X137863216Y-119254371D01*
X137837946Y-119230932D01*
X137810016Y-119221460D01*
X137776792Y-119223521D01*
X137776139Y-119223647D01*
X137751514Y-119231638D01*
X137709146Y-119249179D01*
X137650617Y-119275504D01*
X137577513Y-119309852D01*
X137491412Y-119351452D01*
X137393898Y-119399545D01*
X137286559Y-119453366D01*
X137170973Y-119512148D01*
X137052737Y-119573047D01*
X136947004Y-119627927D01*
X136859028Y-119673855D01*
X136787042Y-119711827D01*
X136729289Y-119742841D01*
X136684006Y-119767898D01*
X136649431Y-119787996D01*
X136623806Y-119804130D01*
X136605367Y-119817303D01*
X136592355Y-119828510D01*
X136583007Y-119838751D01*
X136582179Y-119839794D01*
X136572655Y-119855547D01*
X136571006Y-119873077D01*
X136222327Y-119873077D01*
X136267522Y-119848464D01*
X136397965Y-119777771D01*
X136465264Y-119741298D01*
X136647263Y-119643305D01*
X136815170Y-119553663D01*
X136970637Y-119471551D01*
X137115319Y-119396147D01*
X137250866Y-119326627D01*
X137378930Y-119262169D01*
X137501164Y-119201951D01*
X137589715Y-119159346D01*
X137998506Y-119159346D01*
X138001611Y-119180091D01*
X138010105Y-119211387D01*
X138024634Y-119255196D01*
X138045844Y-119313477D01*
X138074384Y-119388197D01*
X138106874Y-119471134D01*
X138205774Y-119726812D01*
X138294782Y-119968197D01*
X138375418Y-120199698D01*
X138449204Y-120425719D01*
X138517659Y-120650669D01*
X138537563Y-120719227D01*
X138563343Y-120809030D01*
X138592693Y-120911316D01*
X138623157Y-121017521D01*
X138652274Y-121119067D01*
X138675287Y-121199361D01*
X138704028Y-121299162D01*
X138727964Y-121380424D01*
X138748161Y-121445711D01*
X138765682Y-121497587D01*
X138781590Y-121538619D01*
X138796948Y-121571370D01*
X138812822Y-121598407D01*
X138830274Y-121622294D01*
X138850369Y-121645597D01*
X138868253Y-121664694D01*
X138923690Y-121711849D01*
X138981797Y-121741145D01*
X139039139Y-121750933D01*
X139047280Y-121750629D01*
X139088758Y-121742729D01*
X139122609Y-121723199D01*
X139151700Y-121689154D01*
X139178894Y-121637701D01*
X139193001Y-121603710D01*
X139204620Y-121573245D01*
X139214084Y-121545187D01*
X139221125Y-121517696D01*
X139225473Y-121488931D01*
X139226862Y-121457055D01*
X139225022Y-121420226D01*
X139219686Y-121376605D01*
X139210584Y-121324353D01*
X139197448Y-121261630D01*
X139180010Y-121186595D01*
X139158002Y-121097409D01*
X139131155Y-120992233D01*
X139099199Y-120869226D01*
X139068984Y-120753721D01*
X139021254Y-120573159D01*
X138973477Y-120395669D01*
X138926047Y-120222555D01*
X138879361Y-120055124D01*
X138833807Y-119894679D01*
X138789785Y-119742524D01*
X138747685Y-119599966D01*
X138707904Y-119468310D01*
X138670832Y-119348859D01*
X138636867Y-119242918D01*
X138606398Y-119151795D01*
X138579823Y-119076792D01*
X138557535Y-119019215D01*
X138539928Y-118980368D01*
X138528315Y-118962405D01*
X138509498Y-118946954D01*
X138488572Y-118938256D01*
X138462442Y-118936785D01*
X138428019Y-118943017D01*
X138382213Y-118957430D01*
X138321930Y-118980497D01*
X138268805Y-119002324D01*
X138188378Y-119036285D01*
X138125981Y-119063680D01*
X138079197Y-119085809D01*
X138045612Y-119103976D01*
X138022813Y-119119483D01*
X138008383Y-119133630D01*
X138000144Y-119147188D01*
X137998506Y-119159346D01*
X137589715Y-119159346D01*
X137619220Y-119145150D01*
X137734750Y-119090944D01*
X137803355Y-119059572D01*
X137849409Y-119038512D01*
X137964844Y-118987028D01*
X138082710Y-118935673D01*
X138183529Y-118892643D01*
X138668606Y-118892643D01*
X138669553Y-118917051D01*
X138675458Y-118952017D01*
X138686820Y-118999709D01*
X138704134Y-119062294D01*
X138727899Y-119141938D01*
X138747473Y-119205266D01*
X138782553Y-119319056D01*
X138820308Y-119443959D01*
X138858673Y-119572993D01*
X138895582Y-119699165D01*
X138928964Y-119815499D01*
X138945703Y-119875017D01*
X138964584Y-119938308D01*
X138983736Y-119994610D01*
X139001754Y-120040348D01*
X139017230Y-120071952D01*
X139028664Y-120085802D01*
X139039645Y-120087030D01*
X139050707Y-120087732D01*
X139072347Y-120081591D01*
X139108095Y-120062953D01*
X139155492Y-120033660D01*
X139212085Y-119995553D01*
X139275423Y-119950477D01*
X139343048Y-119900276D01*
X139412507Y-119846788D01*
X139481345Y-119791863D01*
X139547110Y-119737337D01*
X139607346Y-119685055D01*
X139659598Y-119636862D01*
X139686284Y-119610484D01*
X139731087Y-119562502D01*
X139778966Y-119507758D01*
X139822302Y-119455084D01*
X139839286Y-119433086D01*
X139869444Y-119391973D01*
X139891224Y-119358864D01*
X139908087Y-119326977D01*
X139923501Y-119289531D01*
X139940930Y-119239741D01*
X139946401Y-119223390D01*
X139984277Y-119075847D01*
X140001106Y-118925953D01*
X139997346Y-118775528D01*
X139973453Y-118626395D01*
X139929885Y-118480380D01*
X139867098Y-118339302D01*
X139785552Y-118204986D01*
X139685701Y-118079253D01*
X139649701Y-118040866D01*
X139625865Y-118017198D01*
X139604098Y-117998356D01*
X139580087Y-117981711D01*
X139549508Y-117964632D01*
X139508047Y-117944492D01*
X139451384Y-117918661D01*
X139442181Y-117914526D01*
X139384298Y-117888681D01*
X139341720Y-117870525D01*
X139309774Y-117858756D01*
X139283791Y-117852070D01*
X139259097Y-117849166D01*
X139231021Y-117848745D01*
X139207800Y-117849207D01*
X139134696Y-117852474D01*
X139080923Y-117859944D01*
X139043982Y-117873981D01*
X139021376Y-117896943D01*
X139010607Y-117931196D01*
X139009177Y-117979102D01*
X139013504Y-118032942D01*
X139022725Y-118134326D01*
X139026714Y-118218790D01*
X139025011Y-118290796D01*
X139017157Y-118354806D01*
X139002691Y-118415282D01*
X138981153Y-118476684D01*
X138963404Y-118518620D01*
X138923136Y-118600335D01*
X138880231Y-118667274D01*
X138829419Y-118726410D01*
X138765433Y-118784716D01*
X138757136Y-118791563D01*
X138721992Y-118822060D01*
X138692997Y-118850392D01*
X138674934Y-118871772D01*
X138672122Y-118876631D01*
X138668606Y-118892643D01*
X138183529Y-118892643D01*
X138204661Y-118883624D01*
X138332347Y-118830059D01*
X138341840Y-118826108D01*
X138439884Y-118784866D01*
X138519956Y-118749896D01*
X138584565Y-118719709D01*
X138636218Y-118692806D01*
X138677427Y-118667697D01*
X138710702Y-118642887D01*
X138738554Y-118616880D01*
X138763488Y-118588184D01*
X138781522Y-118564361D01*
X138840712Y-118465052D01*
X138880116Y-118357243D01*
X138899946Y-118240192D01*
X138902064Y-118144735D01*
X138898949Y-118084504D01*
X138893044Y-118041368D01*
X138882161Y-118010523D01*
X138864119Y-117987167D01*
X138836727Y-117966496D01*
X138815006Y-117953447D01*
X138775365Y-117928302D01*
X138753632Y-117906935D01*
X138747305Y-117885158D01*
X138753887Y-117858773D01*
X138755829Y-117854168D01*
X138766328Y-117841437D01*
X138788793Y-117826916D01*
X138825211Y-117809605D01*
X138825731Y-117809357D01*
X138879647Y-117787513D01*
X138921192Y-117771831D01*
X139024223Y-117737198D01*
X139114496Y-117715663D01*
X139196863Y-117707282D01*
X139276171Y-117712117D01*
X139357266Y-117730227D01*
X139444998Y-117761668D01*
X139484662Y-117778718D01*
X139548586Y-117809011D01*
X139601349Y-117838924D01*
X139647876Y-117872338D01*
X139693099Y-117913131D01*
X139741943Y-117965183D01*
X139784865Y-118015069D01*
X139880589Y-118145042D01*
X139960863Y-118287495D01*
X140024973Y-118439483D01*
X140072191Y-118598059D01*
X140101800Y-118760272D01*
X140113079Y-118923177D01*
X140105310Y-119083823D01*
X140080870Y-119226436D01*
X140044100Y-119343028D01*
X139988847Y-119457430D01*
X139914109Y-119571361D01*
X139818883Y-119686541D01*
X139800584Y-119706374D01*
X139756659Y-119750197D01*
X139698793Y-119803381D01*
X139630939Y-119862662D01*
X139557052Y-119924777D01*
X139481088Y-119986453D01*
X139407004Y-120044430D01*
X139338753Y-120095439D01*
X139280294Y-120136215D01*
X139278782Y-120137214D01*
X139231133Y-120168855D01*
X139186782Y-120198717D01*
X139150826Y-120223343D01*
X139129068Y-120238753D01*
X139109111Y-120255380D01*
X139094761Y-120273442D01*
X139086088Y-120295614D01*
X139083168Y-120324566D01*
X139086072Y-120362971D01*
X139094872Y-120413502D01*
X139109642Y-120478828D01*
X139130455Y-120561625D01*
X139138712Y-120593426D01*
X139157846Y-120666279D01*
X139175933Y-120734207D01*
X139191990Y-120793603D01*
X139205040Y-120840849D01*
X139214096Y-120872341D01*
X139216865Y-120881182D01*
X139237085Y-120923750D01*
X139262563Y-120951148D01*
X139285745Y-120959771D01*
X139303436Y-120954100D01*
X139335937Y-120937361D01*
X139380383Y-120911421D01*
X139433915Y-120878150D01*
X139493666Y-120839420D01*
X139556772Y-120797101D01*
X139620371Y-120753063D01*
X139681596Y-120709176D01*
X139737587Y-120667313D01*
X139758924Y-120650726D01*
X139935902Y-120502119D01*
X140093842Y-120349843D01*
X140235601Y-120190986D01*
X140334791Y-120063351D01*
X140371862Y-120005846D01*
X140411593Y-119932547D01*
X140451597Y-119848978D01*
X140489488Y-119760664D01*
X140522877Y-119673126D01*
X140549380Y-119591889D01*
X140564979Y-119530628D01*
X140598024Y-119318100D01*
X140609759Y-119100666D01*
X140600188Y-118878472D01*
X140569314Y-118651677D01*
X140544540Y-118530657D01*
X140528914Y-118472172D01*
X140505823Y-118398884D01*
X140477167Y-118315797D01*
X140444841Y-118227908D01*
X140410747Y-118140224D01*
X140376784Y-118057743D01*
X140344850Y-117985470D01*
X140316840Y-117928403D01*
X140313775Y-117922708D01*
X140243871Y-117804302D01*
X140163668Y-117684941D01*
X140080472Y-117575461D01*
X140075454Y-117569332D01*
X140036168Y-117522378D01*
X140001586Y-117483447D01*
X139967504Y-117448506D01*
X139929722Y-117413523D01*
X139884039Y-117374471D01*
X139826256Y-117327317D01*
X139807736Y-117312434D01*
X139761174Y-117275795D01*
X139722707Y-117247911D01*
X139686031Y-117225020D01*
X139644850Y-117203363D01*
X139592862Y-117179178D01*
X139560219Y-117164687D01*
X139499480Y-117138511D01*
X139452348Y-117120005D01*
X139412717Y-117107277D01*
X139374485Y-117098445D01*
X139331543Y-117091624D01*
X139317796Y-117089812D01*
X139215925Y-117080826D01*
X139114463Y-117079316D01*
X139021407Y-117085250D01*
X138978474Y-117091356D01*
X138931699Y-117102731D01*
X138868466Y-117122681D01*
X138791857Y-117149878D01*
X138704954Y-117182997D01*
X138610839Y-117220713D01*
X138512592Y-117261698D01*
X138413299Y-117304627D01*
X138316041Y-117348173D01*
X138223901Y-117391009D01*
X138139958Y-117431810D01*
X138067298Y-117469251D01*
X138009002Y-117502004D01*
X137977473Y-117522061D01*
X137884055Y-117597358D01*
X137803287Y-117684521D01*
X137737424Y-117780231D01*
X137688718Y-117881177D01*
X137659425Y-117984038D01*
X137658005Y-117992147D01*
X137652442Y-118041534D01*
X137650154Y-118098036D01*
X137651053Y-118154222D01*
X137655042Y-118202660D01*
X137661034Y-118232978D01*
X137679701Y-118259117D01*
X137712035Y-118273616D01*
X137751786Y-118273958D01*
X137758935Y-118272401D01*
X137783503Y-118263816D01*
X137821792Y-118247716D01*
X137868048Y-118226613D01*
X137905232Y-118208649D01*
X137982783Y-118170837D01*
X138060071Y-118134280D01*
X138134326Y-118100188D01*
X138202773Y-118069770D01*
X138262644Y-118044232D01*
X138311166Y-118024785D01*
X138345568Y-118012638D01*
X138363005Y-118008991D01*
X138390758Y-118022042D01*
X138410894Y-118049829D01*
X138417557Y-118076314D01*
X138417515Y-118087219D01*
X138414203Y-118097202D01*
X138405407Y-118107589D01*
X138388916Y-118119707D01*
X138362520Y-118134882D01*
X138324007Y-118154445D01*
X138271167Y-118179721D01*
X138201787Y-118212039D01*
X138157013Y-118232725D01*
X138092283Y-118262964D01*
X138017203Y-118298648D01*
X137934876Y-118338252D01*
X137848407Y-118380242D01*
X137760900Y-118423088D01*
X137675459Y-118465261D01*
X137595189Y-118505226D01*
X137523192Y-118541462D01*
X137462575Y-118572429D01*
X137416442Y-118596604D01*
X137394244Y-118608764D01*
X137369372Y-118622394D01*
X137329092Y-118643893D01*
X137277485Y-118671112D01*
X137218620Y-118701898D01*
X137160312Y-118732173D01*
X137059815Y-118784735D01*
X136941699Y-118847564D01*
X136805700Y-118920804D01*
X136651554Y-119004597D01*
X136478997Y-119099086D01*
X136287765Y-119204414D01*
X136278985Y-119209264D01*
X136202592Y-119251158D01*
X136113754Y-119299404D01*
X136019456Y-119350231D01*
X135926687Y-119399880D01*
X135842431Y-119444583D01*
X135833540Y-119449272D01*
X135759086Y-119488562D01*
X135683022Y-119528827D01*
X135610139Y-119567524D01*
X135545230Y-119602103D01*
X135493084Y-119630023D01*
X135477467Y-119638434D01*
X135414956Y-119671794D01*
X135343990Y-119709049D01*
X135275034Y-119744733D01*
X135236642Y-119764293D01*
X135182997Y-119793190D01*
X135130306Y-119824680D01*
X135085304Y-119854574D01*
X135059064Y-119874783D01*
X135029276Y-119901788D01*
X135008734Y-119925263D01*
X134992680Y-119952326D01*
X134976361Y-119990093D01*
X134968433Y-120010468D01*
X134951858Y-120056454D01*
X134943316Y-120089976D01*
X134941619Y-120118446D01*
X134782012Y-120118446D01*
X134780637Y-120089566D01*
X134794398Y-120007435D01*
X134826844Y-119927138D01*
X134851615Y-119889519D01*
X134867764Y-119864999D01*
X134930183Y-119798171D01*
X135007397Y-119737804D01*
X135102841Y-119681236D01*
X135109549Y-119677735D01*
X135168701Y-119645770D01*
X135210278Y-119619803D01*
X135237035Y-119597676D01*
X135251725Y-119577227D01*
X135256318Y-119562673D01*
X135255639Y-119540942D01*
X135250030Y-119504381D01*
X135240550Y-119459233D01*
X135234722Y-119435506D01*
X135162151Y-119125580D01*
X135107549Y-118827504D01*
X135070859Y-118540691D01*
X135052023Y-118264549D01*
X135051490Y-118128708D01*
X135206771Y-118128708D01*
X135210174Y-118272496D01*
X135217698Y-118416668D01*
X135229287Y-118555954D01*
X135230686Y-118569591D01*
X135240629Y-118652529D01*
X135253744Y-118743378D01*
X135269418Y-118839264D01*
X135287043Y-118937307D01*
X135306003Y-119034631D01*
X135325693Y-119128360D01*
X135345497Y-119215615D01*
X135364807Y-119293520D01*
X135383013Y-119359198D01*
X135399501Y-119409773D01*
X135413661Y-119442365D01*
X135417208Y-119447989D01*
X135429699Y-119463487D01*
X135442998Y-119470652D01*
X135466362Y-119473639D01*
X135475794Y-119474281D01*
X135487504Y-119473683D01*
X135503095Y-119469940D01*
X135524362Y-119462165D01*
X135553091Y-119449472D01*
X135591075Y-119430973D01*
X135640106Y-119405783D01*
X135701972Y-119373013D01*
X135778466Y-119331778D01*
X135871378Y-119281190D01*
X135925585Y-119251546D01*
X135979341Y-119221682D01*
X136016785Y-119199435D01*
X136041085Y-119182406D01*
X136055408Y-119168193D01*
X136062929Y-119154397D01*
X136065424Y-119145613D01*
X136065401Y-119124387D01*
X136060694Y-119085901D01*
X136051975Y-119034141D01*
X136039908Y-118973092D01*
X136026195Y-118911157D01*
X135989562Y-118742538D01*
X135958707Y-118577194D01*
X135934132Y-118418674D01*
X135916343Y-118270532D01*
X135905839Y-118136321D01*
X135903024Y-118041648D01*
X135903787Y-118000960D01*
X135906032Y-117945390D01*
X135907337Y-117920958D01*
X136061858Y-117920958D01*
X136063271Y-118019933D01*
X136067933Y-118134813D01*
X136076752Y-118257053D01*
X136091175Y-118387898D01*
X136110300Y-118522052D01*
X136133230Y-118654217D01*
X136159064Y-118779096D01*
X136186906Y-118891393D01*
X136208836Y-118965002D01*
X136229563Y-119008333D01*
X136258040Y-119032162D01*
X136296287Y-119038135D01*
X136298514Y-119037992D01*
X136316139Y-119032312D01*
X136350288Y-119017402D01*
X136398303Y-118994606D01*
X136457524Y-118965277D01*
X136525292Y-118930762D01*
X136598950Y-118892408D01*
X136675839Y-118851563D01*
X136753301Y-118809575D01*
X136801999Y-118782698D01*
X136856753Y-118752611D01*
X136924042Y-118716194D01*
X136996935Y-118677166D01*
X137068502Y-118639246D01*
X137101118Y-118622131D01*
X137211978Y-118563646D01*
X137307083Y-118512359D01*
X137385673Y-118468700D01*
X137446992Y-118433105D01*
X137490281Y-118406003D01*
X137514782Y-118387826D01*
X137518089Y-118384492D01*
X137525373Y-118370187D01*
X137527630Y-118347210D01*
X137524761Y-118311573D01*
X137516676Y-118259289D01*
X137514954Y-118249459D01*
X137501211Y-118140922D01*
X137501535Y-118042478D01*
X137516834Y-117948130D01*
X137548014Y-117851883D01*
X137588501Y-117762454D01*
X137616720Y-117709465D01*
X137645492Y-117663852D01*
X137679875Y-117618364D01*
X137724929Y-117565752D01*
X137728574Y-117561657D01*
X137769297Y-117515430D01*
X137796363Y-117480668D01*
X137810611Y-117452413D01*
X137812875Y-117425700D01*
X137803993Y-117395570D01*
X137784802Y-117357062D01*
X137768167Y-117326934D01*
X137711833Y-117243179D01*
X137642741Y-117173189D01*
X137558661Y-117115254D01*
X137457364Y-117067666D01*
X137405914Y-117049285D01*
X137308859Y-117023192D01*
X137201085Y-117004006D01*
X137093152Y-116993434D01*
X137051454Y-116991987D01*
X136970691Y-116996138D01*
X136878799Y-117009407D01*
X136783136Y-117030083D01*
X136691070Y-117056455D01*
X136609957Y-117086810D01*
X136577019Y-117102321D01*
X136450156Y-117177563D01*
X136341681Y-117263726D01*
X136250334Y-117362045D01*
X136174858Y-117473749D01*
X136149743Y-117520631D01*
X136121341Y-117581441D01*
X136099051Y-117640050D01*
X136082413Y-117699879D01*
X136070973Y-117764358D01*
X136064273Y-117836909D01*
X136061858Y-117920958D01*
X135907337Y-117920958D01*
X135909424Y-117881886D01*
X135913629Y-117817400D01*
X135914186Y-117809744D01*
X135925569Y-117655129D01*
X135985721Y-117521059D01*
X135990581Y-117510227D01*
X136018231Y-117449701D01*
X136040630Y-117404201D01*
X136060884Y-117368501D01*
X136082091Y-117337379D01*
X136107357Y-117305605D01*
X136122883Y-117287377D01*
X136213076Y-117192742D01*
X136309399Y-117112094D01*
X136416562Y-117042078D01*
X136539276Y-116979333D01*
X136580955Y-116960944D01*
X136730519Y-116908769D01*
X136889032Y-116875839D01*
X137054367Y-116862487D01*
X137178545Y-116865326D01*
X137288892Y-116877392D01*
X137391136Y-116899661D01*
X137494219Y-116934393D01*
X137557607Y-116960998D01*
X137642263Y-117002724D01*
X137711909Y-117047317D01*
X137771981Y-117099426D01*
X137827916Y-117163699D01*
X137879392Y-117236055D01*
X137907904Y-117277759D01*
X137933158Y-117312426D01*
X137952142Y-117336053D01*
X137961058Y-117344448D01*
X137978921Y-117343620D01*
X138012884Y-117334421D01*
X138059490Y-117318349D01*
X138115281Y-117296901D01*
X138176798Y-117271574D01*
X138240587Y-117243866D01*
X138303187Y-117215274D01*
X138361143Y-117187296D01*
X138410996Y-117161426D01*
X138449289Y-117139165D01*
X138470652Y-117123771D01*
X138490336Y-117099227D01*
X138496362Y-117069893D01*
X138488519Y-117032032D01*
X138466590Y-116981910D01*
X138462001Y-116972967D01*
X138378421Y-116834537D01*
X138280239Y-116712407D01*
X138167290Y-116606429D01*
X138039412Y-116516460D01*
X137896443Y-116442352D01*
X137842607Y-116420057D01*
X137640719Y-116353101D01*
X137434147Y-116307485D01*
X137223775Y-116283364D01*
X137036862Y-116280020D01*
X136820517Y-116294826D01*
X136613196Y-116327156D01*
X136415920Y-116376551D01*
X136229708Y-116442547D01*
X136055581Y-116524685D01*
X135894554Y-116622504D01*
X135747654Y-116735539D01*
X135615895Y-116863329D01*
X135533940Y-116960389D01*
X135503103Y-117000584D01*
X135478485Y-117034473D01*
X135457642Y-117066375D01*
X135438133Y-117100606D01*
X135417518Y-117141484D01*
X135393356Y-117193329D01*
X135363203Y-117260455D01*
X135359223Y-117269391D01*
X135320859Y-117357800D01*
X135291184Y-117432545D01*
X135268583Y-117499296D01*
X135251446Y-117563722D01*
X135238160Y-117631491D01*
X135227113Y-117708274D01*
X135221862Y-117752365D01*
X135212556Y-117863371D01*
X135207546Y-117990577D01*
X135206771Y-118128708D01*
X135051490Y-118128708D01*
X135050980Y-117998488D01*
X135066893Y-117749716D01*
X135079721Y-117637958D01*
X135095291Y-117541677D01*
X135115380Y-117454466D01*
X135141764Y-117369916D01*
X135176220Y-117281619D01*
X135211352Y-117203553D01*
X135220526Y-117183167D01*
X135228864Y-117165589D01*
X135263529Y-117093873D01*
X135291916Y-117037819D01*
X135316563Y-116993037D01*
X135340008Y-116955133D01*
X135364788Y-116919718D01*
X135390322Y-116886356D01*
X135508573Y-116750533D01*
X135640678Y-116624426D01*
X135683734Y-116588136D01*
X135790123Y-116510976D01*
X135914834Y-116437390D01*
X136054375Y-116368864D01*
X136205261Y-116306884D01*
X136364004Y-116252938D01*
X136527117Y-116208511D01*
X136623588Y-116187448D01*
X136700832Y-116174857D01*
X136793186Y-116164059D01*
X136893898Y-116155507D01*
X136996212Y-116149652D01*
X137093376Y-116146943D01*
X137178636Y-116147835D01*
G37*
D12*
X125590000Y-105650000D02*
X125590000Y-109410000D01*
X125590000Y-109410000D02*
X126850000Y-109410000D01*
X132410000Y-105650000D02*
X132410000Y-109410000D01*
X132410000Y-109410000D02*
X131150000Y-109410000D01*
X132640000Y-104610000D02*
X132310000Y-104370000D01*
X132640000Y-104130000D01*
X132640000Y-104610000D01*
G36*
X132640000Y-104610000D02*
G01*
X132310000Y-104370000D01*
X132640000Y-104130000D01*
X132640000Y-104610000D01*
G37*
X130220000Y-92146359D02*
X130220000Y-92453641D01*
X130980000Y-92146359D02*
X130980000Y-92453641D01*
X147240000Y-83492164D02*
X147240000Y-83707836D01*
X147960000Y-83492164D02*
X147960000Y-83707836D01*
X142440000Y-128550000D02*
X142440000Y-128850000D01*
X142440000Y-128850000D02*
X142640000Y-128850000D01*
X142440000Y-129260000D02*
X142440000Y-130060000D01*
X142440000Y-130060000D02*
X143240000Y-130060000D01*
X142540000Y-128550000D02*
X142540000Y-128850000D01*
X142640000Y-125140000D02*
X142640000Y-129860000D01*
X142640000Y-128550000D02*
X142440000Y-128550000D01*
X142640000Y-129860000D02*
X146360000Y-129860000D01*
X143040000Y-125540000D02*
X143040000Y-129460000D01*
X143040000Y-129460000D02*
X145960000Y-129460000D01*
X143550000Y-125140000D02*
X143550000Y-125540000D01*
X143550000Y-129860000D02*
X143550000Y-129460000D01*
X144550000Y-125140000D02*
X144550000Y-125540000D01*
X144550000Y-129860000D02*
X144550000Y-129460000D01*
X145560000Y-127400000D02*
X145960000Y-127400000D01*
X145560000Y-127600000D02*
X145560000Y-127400000D01*
X145960000Y-125540000D02*
X143040000Y-125540000D01*
X145960000Y-127500000D02*
X145560000Y-127500000D01*
X145960000Y-127600000D02*
X145560000Y-127600000D01*
X145960000Y-129460000D02*
X145960000Y-125540000D01*
X146360000Y-125140000D02*
X142640000Y-125140000D01*
X146360000Y-129860000D02*
X146360000Y-125140000D01*
X123190000Y-112890000D02*
X123190000Y-120610000D01*
X123190000Y-120610000D02*
X126910000Y-120610000D01*
X123590000Y-113290000D02*
X123590000Y-120210000D01*
X123590000Y-115150000D02*
X123990000Y-115150000D01*
X123590000Y-115250000D02*
X123990000Y-115250000D01*
X123590000Y-116650000D02*
X123990000Y-116650000D01*
X123590000Y-116750000D02*
X123990000Y-116750000D01*
X123590000Y-118150000D02*
X123990000Y-118150000D01*
X123590000Y-118250000D02*
X123990000Y-118250000D01*
X123590000Y-120210000D02*
X126510000Y-120210000D01*
X123990000Y-115150000D02*
X123990000Y-115350000D01*
X123990000Y-115350000D02*
X123590000Y-115350000D01*
X123990000Y-116650000D02*
X123990000Y-116850000D01*
X123990000Y-116850000D02*
X123590000Y-116850000D01*
X123990000Y-118150000D02*
X123990000Y-118350000D01*
X123990000Y-118350000D02*
X123590000Y-118350000D01*
X125000000Y-112890000D02*
X125000000Y-113290000D01*
X125000000Y-120610000D02*
X125000000Y-120210000D01*
X126000000Y-112890000D02*
X126000000Y-113290000D01*
X126000000Y-120610000D02*
X126000000Y-120210000D01*
X126510000Y-113290000D02*
X123590000Y-113290000D01*
X126510000Y-120210000D02*
X126510000Y-113290000D01*
X126910000Y-112890000D02*
X123190000Y-112890000D01*
X126910000Y-114200000D02*
X127110000Y-114200000D01*
X126910000Y-120610000D02*
X126910000Y-112890000D01*
X127010000Y-114200000D02*
X127010000Y-113900000D01*
X127110000Y-112690000D02*
X126310000Y-112690000D01*
X127110000Y-113490000D02*
X127110000Y-112690000D01*
X127110000Y-113900000D02*
X126910000Y-113900000D01*
X127110000Y-114200000D02*
X127110000Y-113900000D01*
X148800000Y-80040000D02*
X147400000Y-80040000D01*
X148810000Y-82360000D02*
X147400000Y-82360000D01*
X149420000Y-82640000D02*
X148940000Y-82640000D01*
X149180000Y-82310000D01*
X149420000Y-82640000D01*
G36*
X149420000Y-82640000D02*
G01*
X148940000Y-82640000D01*
X149180000Y-82310000D01*
X149420000Y-82640000D01*
G37*
X128440000Y-88500000D02*
X128440000Y-89900000D01*
X130760000Y-88490000D02*
X130760000Y-89900000D01*
X131040000Y-88360000D02*
X130710000Y-88120000D01*
X131040000Y-87880000D01*
X131040000Y-88360000D01*
G36*
X131040000Y-88360000D02*
G01*
X130710000Y-88120000D01*
X131040000Y-87880000D01*
X131040000Y-88360000D01*
G37*
X147180000Y-124545000D02*
X147180000Y-126455000D01*
X147180000Y-126455000D02*
X151100000Y-126455000D01*
X151100000Y-124545000D02*
X147180000Y-124545000D01*
X124265000Y-85200000D02*
X124265000Y-87660000D01*
X124265000Y-87660000D02*
X125735000Y-87660000D01*
X125735000Y-87660000D02*
X125735000Y-85200000D01*
X143120000Y-132153641D02*
X143120000Y-131846359D01*
X143880000Y-132153641D02*
X143880000Y-131846359D01*
X122765000Y-85200000D02*
X122765000Y-87660000D01*
X122765000Y-87660000D02*
X124235000Y-87660000D01*
X124235000Y-87660000D02*
X124235000Y-85200000D01*
X134765000Y-81272936D02*
X134765000Y-81727064D01*
X136235000Y-81272936D02*
X136235000Y-81727064D01*
X140940000Y-110857836D02*
X140940000Y-110642164D01*
X141660000Y-110857836D02*
X141660000Y-110642164D01*
X142890000Y-134190000D02*
X142890000Y-137910000D01*
X142890000Y-136000000D02*
X143290000Y-136000000D01*
X142890000Y-137000000D02*
X143290000Y-137000000D01*
X142890000Y-137910000D02*
X152110000Y-137910000D01*
X143290000Y-134590000D02*
X143290000Y-137510000D01*
X143290000Y-137510000D02*
X151710000Y-137510000D01*
X145150000Y-134990000D02*
X145150000Y-134590000D01*
X145250000Y-134590000D02*
X145250000Y-134990000D01*
X145350000Y-134590000D02*
X145350000Y-134990000D01*
X145350000Y-134990000D02*
X145150000Y-134990000D01*
X146650000Y-134990000D02*
X146650000Y-134590000D01*
X146750000Y-134590000D02*
X146750000Y-134990000D01*
X146850000Y-134590000D02*
X146850000Y-134990000D01*
X146850000Y-134990000D02*
X146650000Y-134990000D01*
X148150000Y-134990000D02*
X148150000Y-134590000D01*
X148250000Y-134590000D02*
X148250000Y-134990000D01*
X148350000Y-134590000D02*
X148350000Y-134990000D01*
X148350000Y-134990000D02*
X148150000Y-134990000D01*
X149650000Y-134990000D02*
X149650000Y-134590000D01*
X149750000Y-134590000D02*
X149750000Y-134990000D01*
X149850000Y-134590000D02*
X149850000Y-134990000D01*
X149850000Y-134990000D02*
X149650000Y-134990000D01*
X150800000Y-137910000D02*
X150800000Y-138110000D01*
X150800000Y-138010000D02*
X151100000Y-138010000D01*
X150800000Y-138110000D02*
X151100000Y-138110000D01*
X151100000Y-138110000D02*
X151100000Y-137910000D01*
X151510000Y-138110000D02*
X152310000Y-138110000D01*
X151710000Y-134590000D02*
X143290000Y-134590000D01*
X151710000Y-137510000D02*
X151710000Y-134590000D01*
X152110000Y-134190000D02*
X142890000Y-134190000D01*
X152110000Y-136000000D02*
X151710000Y-136000000D01*
X152110000Y-137000000D02*
X151710000Y-137000000D01*
X152110000Y-137910000D02*
X152110000Y-134190000D01*
X152310000Y-138110000D02*
X152310000Y-137310000D01*
X144440000Y-132207836D02*
X144440000Y-131992164D01*
X145160000Y-132207836D02*
X145160000Y-131992164D01*
D13*
G36*
X147482362Y-108284030D02*
G01*
X147490822Y-108299086D01*
X147499205Y-108314897D01*
X147506281Y-108322483D01*
X147511425Y-108333853D01*
X147510167Y-108352803D01*
X147511258Y-108385163D01*
X147516949Y-108400010D01*
X147522438Y-108415467D01*
X147525898Y-108438111D01*
X147527589Y-108470590D01*
X147527818Y-108510118D01*
X147527258Y-108548981D01*
X147525797Y-108576768D01*
X147522814Y-108597301D01*
X147517694Y-108614403D01*
X147509816Y-108631896D01*
X147507328Y-108636809D01*
X147491381Y-108664161D01*
X147477804Y-108678078D01*
X147465087Y-108679511D01*
X147453186Y-108670972D01*
X147436122Y-108651116D01*
X147424008Y-108630446D01*
X147416057Y-108605923D01*
X147411481Y-108574509D01*
X147409491Y-108533164D01*
X147409210Y-108501387D01*
X147409749Y-108461105D01*
X147411257Y-108428744D01*
X147413571Y-108406598D01*
X147416526Y-108396958D01*
X147416661Y-108396862D01*
X147420374Y-108387619D01*
X147423043Y-108367719D01*
X147424110Y-108341398D01*
X147424112Y-108340356D01*
X147424475Y-108312944D01*
X147426406Y-108296669D01*
X147431164Y-108287766D01*
X147440009Y-108282474D01*
X147444024Y-108280885D01*
X147466867Y-108276334D01*
X147482362Y-108284030D01*
G37*
G36*
X147622257Y-106272606D02*
G01*
X147634330Y-106279456D01*
X147649467Y-106292939D01*
X147670861Y-106315001D01*
X147676492Y-106320953D01*
X147729880Y-106378448D01*
X147778237Y-106432495D01*
X147820702Y-106482020D01*
X147856418Y-106525950D01*
X147884525Y-106563210D01*
X147904164Y-106592725D01*
X147914477Y-106613423D01*
X147915869Y-106620295D01*
X147910771Y-106633136D01*
X147898352Y-106648556D01*
X147896887Y-106649968D01*
X147887317Y-106658173D01*
X147877196Y-106663869D01*
X147863674Y-106667546D01*
X147843904Y-106669694D01*
X147815035Y-106670804D01*
X147774219Y-106671365D01*
X147772440Y-106671381D01*
X147737095Y-106672605D01*
X147715701Y-106676102D01*
X147707368Y-106682803D01*
X147711206Y-106693634D01*
X147726325Y-106709525D01*
X147731460Y-106714131D01*
X147763358Y-106745835D01*
X147781643Y-106772683D01*
X147786165Y-106794454D01*
X147785957Y-106795814D01*
X147777798Y-106813076D01*
X147762156Y-106831115D01*
X147743965Y-106845192D01*
X147728980Y-106850572D01*
X147719648Y-106845522D01*
X147702565Y-106831679D01*
X147679996Y-106811288D01*
X147654204Y-106786593D01*
X147627451Y-106759838D01*
X147602002Y-106733266D01*
X147580119Y-106709121D01*
X147564066Y-106689648D01*
X147558300Y-106681348D01*
X147546848Y-106664710D01*
X147537233Y-106654253D01*
X147536479Y-106653733D01*
X147529153Y-106641470D01*
X147528639Y-106622032D01*
X147534214Y-106601102D01*
X147545154Y-106584359D01*
X147545325Y-106584198D01*
X147557999Y-106575199D01*
X147574919Y-106570070D01*
X147600497Y-106567731D01*
X147614246Y-106567333D01*
X147666175Y-106565436D01*
X147704114Y-106562002D01*
X147727792Y-106557071D01*
X147736940Y-106550680D01*
X147737048Y-106549810D01*
X147732023Y-106539786D01*
X147719223Y-106524321D01*
X147710133Y-106515117D01*
X147693892Y-106498420D01*
X147671639Y-106473948D01*
X147646769Y-106445487D01*
X147630360Y-106426108D01*
X147608582Y-106400219D01*
X147590181Y-106378730D01*
X147577319Y-106364139D01*
X147572389Y-106359050D01*
X147569117Y-106350123D01*
X147566112Y-106331084D01*
X147564614Y-106314345D01*
X147561953Y-106273365D01*
X147594532Y-106271030D01*
X147610055Y-106270446D01*
X147622257Y-106272606D01*
G37*
G36*
X147697487Y-109822506D02*
G01*
X147699683Y-109823644D01*
X147711501Y-109832276D01*
X147714696Y-109837671D01*
X147720703Y-109844806D01*
X147733323Y-109852151D01*
X147747921Y-109864090D01*
X147751950Y-109875636D01*
X147757815Y-109891204D01*
X147766852Y-109899941D01*
X147778576Y-109911247D01*
X147781753Y-109919606D01*
X147784880Y-109930152D01*
X147793364Y-109950877D01*
X147805858Y-109978653D01*
X147819008Y-110006249D01*
X147833829Y-110037064D01*
X147845854Y-110062955D01*
X147853761Y-110081014D01*
X147856262Y-110088157D01*
X147859398Y-110096928D01*
X147867786Y-110115617D01*
X147879894Y-110140876D01*
X147886065Y-110153328D01*
X147899481Y-110181596D01*
X147909763Y-110206050D01*
X147915323Y-110222792D01*
X147915869Y-110226473D01*
X147919497Y-110240375D01*
X147923320Y-110244677D01*
X147928485Y-110254648D01*
X147930765Y-110272464D01*
X147930771Y-110273408D01*
X147927096Y-110293080D01*
X147914360Y-110312653D01*
X147902516Y-110325124D01*
X147874879Y-110345695D01*
X147848500Y-110353054D01*
X147825051Y-110346844D01*
X147819594Y-110342924D01*
X147805160Y-110335543D01*
X147782601Y-110328647D01*
X147756590Y-110323096D01*
X147731798Y-110319749D01*
X147712898Y-110319466D01*
X147705282Y-110321893D01*
X147704406Y-110333233D01*
X147712975Y-110355958D01*
X147723390Y-110376409D01*
X147747041Y-110424044D01*
X147760849Y-110461907D01*
X147765143Y-110491112D01*
X147762437Y-110507680D01*
X147755168Y-110521184D01*
X147742479Y-110527731D01*
X147724800Y-110530055D01*
X147705005Y-110530171D01*
X147691322Y-110524859D01*
X147677652Y-110511111D01*
X147671920Y-110503977D01*
X147658721Y-110484550D01*
X147642093Y-110456319D01*
X147624776Y-110424048D01*
X147617060Y-110408596D01*
X147601380Y-110375023D01*
X147591427Y-110349057D01*
X147585715Y-110325265D01*
X147582756Y-110298215D01*
X147581744Y-110279523D01*
X147580759Y-110248300D01*
X147581628Y-110227974D01*
X147585055Y-110214587D01*
X147591746Y-110204178D01*
X147595994Y-110199427D01*
X147610261Y-110187857D01*
X147628201Y-110182530D01*
X147650799Y-110181457D01*
X147679378Y-110183696D01*
X147708787Y-110189391D01*
X147733807Y-110197237D01*
X147749218Y-110205933D01*
X147749327Y-110206041D01*
X147761587Y-110210737D01*
X147776757Y-110209626D01*
X147784942Y-110204565D01*
X147783559Y-110195516D01*
X147776586Y-110176349D01*
X147765254Y-110150196D01*
X147755579Y-110129800D01*
X147741602Y-110100947D01*
X147730494Y-110077354D01*
X147723651Y-110062026D01*
X147722146Y-110057838D01*
X147719277Y-110049720D01*
X147711849Y-110032062D01*
X147701631Y-110008817D01*
X147690392Y-109983939D01*
X147679901Y-109961378D01*
X147671927Y-109945088D01*
X147670374Y-109942166D01*
X147665012Y-109924962D01*
X147662161Y-109901152D01*
X147662024Y-109876773D01*
X147664801Y-109857860D01*
X147667375Y-109852302D01*
X147676735Y-109836439D01*
X147679899Y-109828970D01*
X147686134Y-109819973D01*
X147697487Y-109822506D01*
G37*
G36*
X147918379Y-107536051D02*
G01*
X147953575Y-107556795D01*
X147969159Y-107571392D01*
X147989698Y-107595847D01*
X148010184Y-107624302D01*
X148028429Y-107653204D01*
X148042243Y-107679000D01*
X148049436Y-107698138D01*
X148049985Y-107702533D01*
X148052600Y-107718686D01*
X148057435Y-107726284D01*
X148062778Y-107736344D01*
X148064886Y-107753064D01*
X148069012Y-107776147D01*
X148076730Y-107793315D01*
X148080836Y-107801594D01*
X148083788Y-107813420D01*
X148085703Y-107830897D01*
X148086697Y-107856131D01*
X148086889Y-107891226D01*
X148086396Y-107938288D01*
X148086044Y-107960334D01*
X148084744Y-108017405D01*
X148082974Y-108060680D01*
X148080653Y-108091261D01*
X148077698Y-108110249D01*
X148074200Y-108118581D01*
X148067918Y-108131919D01*
X148064927Y-108152161D01*
X148064886Y-108154709D01*
X148063144Y-108174502D01*
X148058879Y-108187698D01*
X148058158Y-108188610D01*
X148053329Y-108200178D01*
X148048543Y-108222246D01*
X148044505Y-108250430D01*
X148041921Y-108280344D01*
X148041435Y-108292550D01*
X148046823Y-108336481D01*
X148065710Y-108379347D01*
X148071639Y-108388737D01*
X148086604Y-108411276D01*
X148100467Y-108432125D01*
X148103824Y-108437168D01*
X148117955Y-108460547D01*
X148135305Y-108492343D01*
X148153515Y-108527878D01*
X148170226Y-108562478D01*
X148183079Y-108591463D01*
X148187653Y-108603330D01*
X148192264Y-108623352D01*
X148195740Y-108651459D01*
X148198009Y-108684101D01*
X148198997Y-108717726D01*
X148198630Y-108748783D01*
X148196835Y-108773722D01*
X148193539Y-108788991D01*
X148191551Y-108791758D01*
X148185176Y-108802322D01*
X148184100Y-108810053D01*
X148180140Y-108831391D01*
X148169768Y-108860151D01*
X148155242Y-108891638D01*
X148138823Y-108921156D01*
X148122770Y-108944009D01*
X148116391Y-108950756D01*
X148091528Y-108968603D01*
X148069368Y-108972943D01*
X148047024Y-108964081D01*
X148039813Y-108958862D01*
X148024341Y-108938682D01*
X148020475Y-108911143D01*
X148028230Y-108875551D01*
X148042534Y-108841390D01*
X148053920Y-108815871D01*
X148061971Y-108793982D01*
X148064886Y-108780903D01*
X148068335Y-108766689D01*
X148072337Y-108761954D01*
X148077096Y-108751650D01*
X148079342Y-108731251D01*
X148079122Y-108705339D01*
X148076486Y-108678501D01*
X148071481Y-108655319D01*
X148071204Y-108654446D01*
X148050654Y-108601092D01*
X148023040Y-108544252D01*
X147997172Y-108499494D01*
X147982974Y-108476072D01*
X147972601Y-108457387D01*
X147968079Y-108447109D01*
X147968025Y-108446630D01*
X147963046Y-108437209D01*
X147953805Y-108427282D01*
X147943127Y-108412680D01*
X147932196Y-108390255D01*
X147927727Y-108378160D01*
X147922275Y-108354867D01*
X147918450Y-108325658D01*
X147916363Y-108294416D01*
X147916127Y-108265022D01*
X147917854Y-108241362D01*
X147921655Y-108227316D01*
X147923320Y-108225492D01*
X147928146Y-108215691D01*
X147930665Y-108197264D01*
X147930771Y-108192436D01*
X147933663Y-108170557D01*
X147940953Y-108155635D01*
X147941947Y-108154709D01*
X147949912Y-108139588D01*
X147953094Y-108112850D01*
X147953123Y-108109531D01*
X147954549Y-108087591D01*
X147958172Y-108072435D01*
X147960574Y-108069024D01*
X147963410Y-108059975D01*
X147965663Y-108037882D01*
X147967222Y-108004594D01*
X147967973Y-107961959D01*
X147968025Y-107946085D01*
X147967566Y-107900761D01*
X147966262Y-107864170D01*
X147964227Y-107838162D01*
X147961572Y-107824585D01*
X147960574Y-107823145D01*
X147955309Y-107813154D01*
X147952895Y-107795389D01*
X147952886Y-107794765D01*
X147949301Y-107773036D01*
X147941710Y-107756526D01*
X147932910Y-107738348D01*
X147930771Y-107726015D01*
X147925461Y-107708953D01*
X147915869Y-107696481D01*
X147904727Y-107683762D01*
X147900967Y-107675191D01*
X147896192Y-107665358D01*
X147884244Y-107650188D01*
X147879161Y-107644679D01*
X147864744Y-107626222D01*
X147857941Y-107605899D01*
X147856146Y-107584718D01*
X147855453Y-107556306D01*
X147856602Y-107539651D01*
X147861002Y-107531613D01*
X147870060Y-107529051D01*
X147881195Y-107528836D01*
X147918379Y-107536051D01*
G37*
G36*
X146560862Y-108827945D02*
G01*
X146613437Y-108829035D01*
X146666470Y-108830794D01*
X146717557Y-108833188D01*
X146764296Y-108836182D01*
X146801965Y-108839499D01*
X146843718Y-108843745D01*
X146889301Y-108848202D01*
X146930640Y-108852085D01*
X146941315Y-108853048D01*
X146971730Y-108856682D01*
X146996885Y-108861395D01*
X147012732Y-108866365D01*
X147015451Y-108868129D01*
X147028491Y-108873480D01*
X147052871Y-108876721D01*
X147074972Y-108877443D01*
X147101007Y-108878473D01*
X147120736Y-108881170D01*
X147129803Y-108884894D01*
X147139415Y-108889344D01*
X147158416Y-108892008D01*
X147168830Y-108892345D01*
X147191405Y-108893376D01*
X147213994Y-108897111D01*
X147240077Y-108904512D01*
X147273133Y-108916541D01*
X147309852Y-108931347D01*
X147335606Y-108943019D01*
X147357701Y-108956033D01*
X147379756Y-108973087D01*
X147405389Y-108996876D01*
X147427203Y-109018779D01*
X147451940Y-109045133D01*
X147472268Y-109068835D01*
X147486114Y-109087321D01*
X147491402Y-109098025D01*
X147491407Y-109098147D01*
X147496044Y-109115893D01*
X147500943Y-109124365D01*
X147506288Y-109140453D01*
X147508611Y-109170078D01*
X147508431Y-109196680D01*
X147502697Y-109248227D01*
X147487791Y-109293749D01*
X147462124Y-109336518D01*
X147424109Y-109379801D01*
X147415395Y-109388320D01*
X147378950Y-109421264D01*
X147342419Y-109450749D01*
X147308157Y-109475154D01*
X147278514Y-109492858D01*
X147255845Y-109502240D01*
X147248489Y-109503316D01*
X147232702Y-109506583D01*
X147224700Y-109509897D01*
X147201155Y-109521015D01*
X147178472Y-109529300D01*
X147152858Y-109535663D01*
X147120520Y-109541020D01*
X147077666Y-109546283D01*
X147070196Y-109547110D01*
X147041418Y-109551242D01*
X147016691Y-109556509D01*
X147001765Y-109561602D01*
X146990779Y-109564409D01*
X146968814Y-109566640D01*
X146935083Y-109568323D01*
X146888799Y-109569488D01*
X146829175Y-109570162D01*
X146757379Y-109570373D01*
X146690961Y-109570270D01*
X146637804Y-109569908D01*
X146596270Y-109569213D01*
X146564719Y-109568108D01*
X146541512Y-109566519D01*
X146525011Y-109564369D01*
X146513577Y-109561583D01*
X146506913Y-109558813D01*
X146487179Y-109552082D01*
X146470349Y-109551771D01*
X146469914Y-109551901D01*
X146465636Y-109553791D01*
X146462307Y-109557530D01*
X146459827Y-109564772D01*
X146458100Y-109577173D01*
X146457027Y-109596389D01*
X146456510Y-109624077D01*
X146456453Y-109661891D01*
X146456756Y-109711487D01*
X146457247Y-109766427D01*
X146459225Y-109976305D01*
X146477852Y-109980101D01*
X146495177Y-109986111D01*
X146518158Y-109997094D01*
X146530008Y-110003705D01*
X146558788Y-110018641D01*
X146590642Y-110032279D01*
X146600609Y-110035853D01*
X146623731Y-110044433D01*
X146641665Y-110052656D01*
X146647356Y-110056223D01*
X146657810Y-110061012D01*
X146661344Y-110059942D01*
X146670604Y-110059269D01*
X146685380Y-110063485D01*
X146731623Y-110078478D01*
X146792069Y-110092358D01*
X146866048Y-110104975D01*
X146870110Y-110105572D01*
X146894093Y-110110226D01*
X146912692Y-110115874D01*
X146918541Y-110118878D01*
X146931398Y-110123504D01*
X146953238Y-110126903D01*
X146968281Y-110127908D01*
X146993631Y-110130033D01*
X147014455Y-110133986D01*
X147021810Y-110136663D01*
X147038681Y-110141114D01*
X147066005Y-110143602D01*
X147099475Y-110144221D01*
X147134784Y-110143066D01*
X147167626Y-110140231D01*
X147193695Y-110135810D01*
X147203729Y-110132677D01*
X147222497Y-110126273D01*
X147235344Y-110124481D01*
X147237081Y-110124994D01*
X147246203Y-110123939D01*
X147265489Y-110117958D01*
X147291491Y-110108185D01*
X147304401Y-110102878D01*
X147332431Y-110091348D01*
X147355331Y-110082468D01*
X147369592Y-110077576D01*
X147372215Y-110077032D01*
X147381895Y-110073160D01*
X147398573Y-110063413D01*
X147406194Y-110058405D01*
X147441035Y-110042923D01*
X147477766Y-110040981D01*
X147512782Y-110052766D01*
X147512871Y-110052817D01*
X147528070Y-110062432D01*
X147535640Y-110069110D01*
X147535828Y-110069697D01*
X147532630Y-110077936D01*
X147524420Y-110094707D01*
X147518299Y-110106398D01*
X147505028Y-110126818D01*
X147491278Y-110141378D01*
X147485532Y-110144877D01*
X147471040Y-110152802D01*
X147465539Y-110158268D01*
X147456611Y-110165179D01*
X147437695Y-110176031D01*
X147412553Y-110189012D01*
X147384946Y-110202314D01*
X147358632Y-110214127D01*
X147337374Y-110222641D01*
X147324931Y-110226045D01*
X147324698Y-110226050D01*
X147312015Y-110229839D01*
X147309110Y-110232713D01*
X147300496Y-110238286D01*
X147281510Y-110242911D01*
X147251156Y-110246694D01*
X147208441Y-110249741D01*
X147152371Y-110252156D01*
X147115623Y-110253251D01*
X147061867Y-110254166D01*
X147021386Y-110253766D01*
X146994689Y-110252067D01*
X146982284Y-110249088D01*
X146981880Y-110248751D01*
X146970739Y-110244640D01*
X146949638Y-110241814D01*
X146927579Y-110240951D01*
X146902552Y-110239841D01*
X146883934Y-110236953D01*
X146876473Y-110233500D01*
X146866913Y-110229155D01*
X146847768Y-110226470D01*
X146835493Y-110226050D01*
X146813407Y-110224641D01*
X146798086Y-110221060D01*
X146794514Y-110218599D01*
X146784521Y-110213326D01*
X146766756Y-110210893D01*
X146766133Y-110210884D01*
X146742553Y-110207222D01*
X146723730Y-110199971D01*
X146701962Y-110191692D01*
X146684512Y-110189059D01*
X146664096Y-110186443D01*
X146650983Y-110182071D01*
X146636053Y-110175956D01*
X146613801Y-110168529D01*
X146604517Y-110165770D01*
X146576861Y-110156730D01*
X146547645Y-110145374D01*
X146520732Y-110133426D01*
X146499986Y-110122607D01*
X146489271Y-110114641D01*
X146489013Y-110114263D01*
X146478067Y-110106911D01*
X146464681Y-110112170D01*
X146451967Y-110128815D01*
X146451965Y-110128818D01*
X146444838Y-110152285D01*
X146441178Y-110188862D01*
X146440598Y-110217074D01*
X146440142Y-110250034D01*
X146438338Y-110271604D01*
X146434532Y-110285277D01*
X146428070Y-110294550D01*
X146425665Y-110296860D01*
X146414470Y-110304980D01*
X146402549Y-110306349D01*
X146383758Y-110301462D01*
X146380704Y-110300463D01*
X146359313Y-110290192D01*
X146344108Y-110274201D01*
X146334034Y-110250137D01*
X146328033Y-110215645D01*
X146325378Y-110177163D01*
X146324714Y-110140230D01*
X146326549Y-110115299D01*
X146331148Y-110099642D01*
X146333185Y-110096231D01*
X146335139Y-110091567D01*
X146336844Y-110082905D01*
X146338316Y-110069323D01*
X146339571Y-110049895D01*
X146340626Y-110023698D01*
X146341495Y-109989807D01*
X146342195Y-109947298D01*
X146342742Y-109895247D01*
X146343152Y-109832729D01*
X146343440Y-109758820D01*
X146343622Y-109672595D01*
X146343716Y-109573131D01*
X146343736Y-109483634D01*
X146343726Y-109372234D01*
X146343738Y-109274775D01*
X146343841Y-109190295D01*
X146344100Y-109117833D01*
X146344583Y-109056429D01*
X146345357Y-109005121D01*
X146346488Y-108962949D01*
X146348044Y-108928951D01*
X146350091Y-108902165D01*
X146352696Y-108881632D01*
X146355926Y-108866390D01*
X146359848Y-108855478D01*
X146364529Y-108847935D01*
X146370035Y-108842800D01*
X146376434Y-108839111D01*
X146383792Y-108835908D01*
X146388958Y-108833703D01*
X146403199Y-108830945D01*
X146429913Y-108829023D01*
X146466697Y-108827906D01*
X146511147Y-108827557D01*
X146560862Y-108827945D01*
G37*
G36*
X146252527Y-106251663D02*
G01*
X146269610Y-106265625D01*
X146276527Y-106290475D01*
X146276679Y-106295811D01*
X146278693Y-106314181D01*
X146283597Y-106325128D01*
X146284129Y-106325522D01*
X146287376Y-106334548D01*
X146289900Y-106354992D01*
X146291358Y-106383373D01*
X146291580Y-106400704D01*
X146292051Y-106435081D01*
X146293732Y-106457224D01*
X146297027Y-106469776D01*
X146302340Y-106475382D01*
X146303034Y-106475676D01*
X146316956Y-106474574D01*
X146327836Y-106467992D01*
X146340817Y-106458591D01*
X146348048Y-106455952D01*
X146357775Y-106453399D01*
X146377426Y-106446680D01*
X146403131Y-106437264D01*
X146431018Y-106426620D01*
X146457218Y-106416218D01*
X146477859Y-106407528D01*
X146487064Y-106403177D01*
X146505196Y-106397197D01*
X146513515Y-106396305D01*
X146528895Y-106392715D01*
X146534106Y-106389267D01*
X146545862Y-106383233D01*
X146564853Y-106378091D01*
X146566426Y-106377804D01*
X146588011Y-106372626D01*
X146604868Y-106366312D01*
X146605053Y-106366214D01*
X146621653Y-106361252D01*
X146643497Y-106359056D01*
X146644567Y-106359050D01*
X146663298Y-106357112D01*
X146674686Y-106352368D01*
X146675300Y-106351600D01*
X146684570Y-106347832D01*
X146704412Y-106345152D01*
X146730131Y-106344149D01*
X146756757Y-106343076D01*
X146777650Y-106340271D01*
X146788013Y-106336492D01*
X146797038Y-106334760D01*
X146818842Y-106333409D01*
X146851309Y-106332426D01*
X146892321Y-106331796D01*
X146939762Y-106331501D01*
X146991515Y-106331528D01*
X147045464Y-106331862D01*
X147099490Y-106332486D01*
X147151478Y-106333386D01*
X147199310Y-106334546D01*
X147240870Y-106335951D01*
X147274041Y-106337586D01*
X147296705Y-106339435D01*
X147302189Y-106340203D01*
X147325000Y-106347575D01*
X147348857Y-106360498D01*
X147369717Y-106376084D01*
X147383537Y-106391443D01*
X147386857Y-106400678D01*
X147381735Y-106411995D01*
X147368867Y-106427671D01*
X147362642Y-106433782D01*
X147349522Y-106445145D01*
X147337909Y-106451492D01*
X147323241Y-106453859D01*
X147300959Y-106453285D01*
X147282545Y-106451997D01*
X147246295Y-106449783D01*
X147202536Y-106447871D01*
X147153427Y-106446282D01*
X147101130Y-106445032D01*
X147047804Y-106444142D01*
X146995610Y-106443628D01*
X146946706Y-106443509D01*
X146903254Y-106443805D01*
X146867414Y-106444533D01*
X146841344Y-106445711D01*
X146827206Y-106447359D01*
X146825429Y-106448094D01*
X146814370Y-106452117D01*
X146793175Y-106454939D01*
X146768603Y-106455912D01*
X146737202Y-106457604D01*
X146713571Y-106462212D01*
X146704898Y-106466116D01*
X146687263Y-106474454D01*
X146664914Y-106480529D01*
X146664124Y-106480664D01*
X146627559Y-106487006D01*
X146601553Y-106492342D01*
X146581905Y-106497743D01*
X146564417Y-106504281D01*
X146554304Y-106508702D01*
X146534083Y-106517237D01*
X146519444Y-106522335D01*
X146516088Y-106522969D01*
X146504621Y-106526194D01*
X146481369Y-106535420D01*
X146447870Y-106549977D01*
X146405663Y-106569192D01*
X146356287Y-106592395D01*
X146348726Y-106596001D01*
X146275482Y-106631001D01*
X146280746Y-106657082D01*
X146282491Y-106672359D01*
X146284302Y-106699831D01*
X146286053Y-106736792D01*
X146287622Y-106780536D01*
X146288882Y-106828359D01*
X146289085Y-106838114D01*
X146290307Y-106891428D01*
X146291677Y-106931614D01*
X146293351Y-106960443D01*
X146295487Y-106979689D01*
X146298241Y-106991122D01*
X146301769Y-106996517D01*
X146303141Y-106997278D01*
X146317822Y-106996665D01*
X146324307Y-106993040D01*
X146331983Y-106990766D01*
X146349446Y-106989009D01*
X146377515Y-106987756D01*
X146417012Y-106986992D01*
X146468760Y-106986703D01*
X146533580Y-106986874D01*
X146612293Y-106987491D01*
X146631560Y-106987685D01*
X146717423Y-106988681D01*
X146789660Y-106989772D01*
X146849547Y-106991020D01*
X146898362Y-106992488D01*
X146937379Y-106994238D01*
X146967876Y-106996334D01*
X146991128Y-106998839D01*
X147008411Y-107001815D01*
X147021002Y-107005326D01*
X147025491Y-107007103D01*
X147040310Y-107012866D01*
X147063763Y-107021218D01*
X147086123Y-107028796D01*
X147139438Y-107048236D01*
X147183059Y-107068988D01*
X147222063Y-107094123D01*
X147261523Y-107126712D01*
X147286271Y-107149902D01*
X147313646Y-107177580D01*
X147338113Y-107204537D01*
X147356941Y-107227622D01*
X147367194Y-107243253D01*
X147377578Y-107264460D01*
X147386147Y-107281692D01*
X147387684Y-107284719D01*
X147391064Y-107298512D01*
X147393199Y-107321456D01*
X147394110Y-107349410D01*
X147393822Y-107378229D01*
X147392359Y-107403770D01*
X147389744Y-107421891D01*
X147386857Y-107428250D01*
X147380386Y-107438859D01*
X147379407Y-107445917D01*
X147373657Y-107470225D01*
X147357754Y-107499922D01*
X147333710Y-107531797D01*
X147309711Y-107556952D01*
X147289180Y-107575607D01*
X147272477Y-107589387D01*
X147262735Y-107595737D01*
X147261981Y-107595894D01*
X147252744Y-107600447D01*
X147237655Y-107611820D01*
X147232350Y-107616384D01*
X147205998Y-107635511D01*
X147167747Y-107657294D01*
X147120076Y-107680482D01*
X147065467Y-107703826D01*
X147036667Y-107715041D01*
X147012625Y-107721592D01*
X146983720Y-107726188D01*
X146974161Y-107726989D01*
X146951207Y-107729755D01*
X146934247Y-107734380D01*
X146929828Y-107737006D01*
X146920243Y-107739342D01*
X146898125Y-107741285D01*
X146865835Y-107742835D01*
X146825736Y-107743989D01*
X146780190Y-107744745D01*
X146731560Y-107745103D01*
X146682207Y-107745060D01*
X146634493Y-107744615D01*
X146590782Y-107743766D01*
X146553434Y-107742511D01*
X146524812Y-107740849D01*
X146507279Y-107738778D01*
X146503032Y-107737308D01*
X146491600Y-107732381D01*
X146471031Y-107728367D01*
X146458202Y-107727047D01*
X146433306Y-107723974D01*
X146412805Y-107719227D01*
X146406572Y-107716750D01*
X146390613Y-107710059D01*
X146367667Y-107702345D01*
X146358638Y-107699688D01*
X146328358Y-107688555D01*
X146298818Y-107673253D01*
X146273250Y-107655997D01*
X146254890Y-107639006D01*
X146246970Y-107624496D01*
X146246875Y-107623064D01*
X146242933Y-107605477D01*
X146237562Y-107597031D01*
X146232713Y-107585724D01*
X146227822Y-107563588D01*
X146223707Y-107534673D01*
X146222531Y-107522895D01*
X146218748Y-107482534D01*
X146214114Y-107436679D01*
X146209571Y-107394628D01*
X146209158Y-107390995D01*
X146205158Y-107351287D01*
X146201297Y-107305054D01*
X146198256Y-107260666D01*
X146197630Y-107249429D01*
X146195328Y-107217181D01*
X146192252Y-107190432D01*
X146188875Y-107172746D01*
X146186787Y-107167842D01*
X146184881Y-107158644D01*
X146183199Y-107136252D01*
X146181797Y-107102375D01*
X146180730Y-107058720D01*
X146180052Y-107006995D01*
X146179817Y-106949534D01*
X146179698Y-106885573D01*
X146179282Y-106834810D01*
X146178488Y-106795541D01*
X146177231Y-106766065D01*
X146175428Y-106744679D01*
X146172995Y-106729680D01*
X146169848Y-106719365D01*
X146168347Y-106716123D01*
X146162982Y-106697663D01*
X146159418Y-106669181D01*
X146157631Y-106634636D01*
X146157601Y-106597990D01*
X146159304Y-106563202D01*
X146162719Y-106534232D01*
X146167823Y-106515040D01*
X146169490Y-106512046D01*
X146174766Y-106498231D01*
X146178093Y-106473694D01*
X146179648Y-106436774D01*
X146179817Y-106414764D01*
X146180416Y-106380805D01*
X146182039Y-106352267D01*
X146184424Y-106332499D01*
X146186798Y-106325149D01*
X146191532Y-106313867D01*
X146195228Y-106293806D01*
X146196111Y-106284542D01*
X146198255Y-106263867D01*
X146203240Y-106253749D01*
X146214615Y-106249858D01*
X146225458Y-106248756D01*
X146252527Y-106251663D01*
G37*
G36*
X143922736Y-106513678D02*
G01*
X143936212Y-106526394D01*
X143944157Y-106540044D01*
X143944558Y-106542891D01*
X143949586Y-106553049D01*
X143959809Y-106564266D01*
X143971621Y-106577337D01*
X143987988Y-106598396D01*
X144005388Y-106622910D01*
X144005561Y-106623165D01*
X144027263Y-106653244D01*
X144052256Y-106684989D01*
X144070406Y-106706196D01*
X144092206Y-106730358D01*
X144113715Y-106754332D01*
X144127259Y-106769529D01*
X144175314Y-106818359D01*
X144234161Y-106869456D01*
X144300460Y-106920364D01*
X144370867Y-106968630D01*
X144442042Y-107011798D01*
X144496016Y-107040389D01*
X144530268Y-107057261D01*
X144561171Y-107072537D01*
X144585443Y-107084588D01*
X144599801Y-107091789D01*
X144600234Y-107092011D01*
X144619160Y-107100014D01*
X144644026Y-107108533D01*
X144652390Y-107111016D01*
X144675591Y-107118216D01*
X144694275Y-107125115D01*
X144698857Y-107127216D01*
X144716376Y-107132473D01*
X144731371Y-107133940D01*
X144750093Y-107137347D01*
X144773592Y-107145888D01*
X144781766Y-107149779D01*
X144803722Y-107161060D01*
X144822092Y-107170495D01*
X144826626Y-107172821D01*
X144834571Y-107174506D01*
X144844646Y-107170741D01*
X144859037Y-107160003D01*
X144879929Y-107140774D01*
X144897574Y-107123454D01*
X144921501Y-107100339D01*
X144941990Y-107081785D01*
X144956539Y-107069987D01*
X144962167Y-107066883D01*
X144971600Y-107061932D01*
X144986445Y-107049440D01*
X144993429Y-107042559D01*
X145009650Y-107028659D01*
X145032043Y-107013013D01*
X145057239Y-106997526D01*
X145081866Y-106984101D01*
X145102553Y-106974642D01*
X145115931Y-106971055D01*
X145118630Y-106971824D01*
X145119090Y-106981052D01*
X145114321Y-106996629D01*
X145106944Y-107012235D01*
X145099577Y-107021553D01*
X145097760Y-107022177D01*
X145092403Y-107028435D01*
X145082193Y-107045363D01*
X145068719Y-107070193D01*
X145057019Y-107093157D01*
X145044516Y-107117563D01*
X145032468Y-107138611D01*
X145019115Y-107158512D01*
X145002695Y-107179471D01*
X144981445Y-107203698D01*
X144953606Y-107233401D01*
X144917416Y-107270786D01*
X144906002Y-107282466D01*
X144869482Y-107320157D01*
X144834065Y-107357373D01*
X144801961Y-107391742D01*
X144775379Y-107420893D01*
X144756525Y-107442457D01*
X144753196Y-107446487D01*
X144731617Y-107472064D01*
X144709875Y-107496137D01*
X144692489Y-107513713D01*
X144691726Y-107514414D01*
X144676854Y-107529454D01*
X144668193Y-107541129D01*
X144667292Y-107543897D01*
X144662731Y-107553295D01*
X144651111Y-107569163D01*
X144642771Y-107579108D01*
X144625838Y-107599108D01*
X144611546Y-107617149D01*
X144607379Y-107622884D01*
X144596335Y-107638361D01*
X144580870Y-107659321D01*
X144563574Y-107682349D01*
X144547034Y-107704028D01*
X144533838Y-107720942D01*
X144526574Y-107729675D01*
X144526225Y-107730010D01*
X144519962Y-107738025D01*
X144508954Y-107754097D01*
X144502788Y-107763539D01*
X144488638Y-107785319D01*
X144470286Y-107813280D01*
X144452516Y-107840144D01*
X144437577Y-107863226D01*
X144426560Y-107881397D01*
X144421526Y-107891234D01*
X144421413Y-107891820D01*
X144416934Y-107900368D01*
X144407549Y-107912076D01*
X144402062Y-107919188D01*
X144394712Y-107930779D01*
X144384799Y-107948173D01*
X144371620Y-107972694D01*
X144354473Y-108005667D01*
X144332656Y-108048415D01*
X144305468Y-108102264D01*
X144282325Y-108148348D01*
X144270130Y-108174508D01*
X144261271Y-108197022D01*
X144257521Y-108211343D01*
X144257494Y-108212053D01*
X144254363Y-108227657D01*
X144251061Y-108233316D01*
X144245481Y-108244172D01*
X144236207Y-108267974D01*
X144223726Y-108303364D01*
X144208523Y-108348983D01*
X144197726Y-108382489D01*
X144192449Y-108403977D01*
X144190436Y-108421167D01*
X144187292Y-108435981D01*
X144182985Y-108441567D01*
X144177574Y-108451661D01*
X144175535Y-108467645D01*
X144173193Y-108484688D01*
X144168084Y-108493723D01*
X144163291Y-108503508D01*
X144160754Y-108521989D01*
X144160633Y-108527252D01*
X144158875Y-108546944D01*
X144154518Y-108559486D01*
X144153182Y-108560781D01*
X144148683Y-108570418D01*
X144146032Y-108589350D01*
X144145731Y-108598965D01*
X144143921Y-108623272D01*
X144139392Y-108643469D01*
X144137477Y-108647967D01*
X144133281Y-108663284D01*
X144130575Y-108687820D01*
X144129951Y-108712672D01*
X144128294Y-108748453D01*
X144122639Y-108775958D01*
X144119577Y-108783296D01*
X144111451Y-108806828D01*
X144108477Y-108829318D01*
X144110696Y-108846246D01*
X144119072Y-108855272D01*
X144136179Y-108857422D01*
X144164593Y-108853723D01*
X144168084Y-108853084D01*
X144197127Y-108847769D01*
X144229268Y-108842007D01*
X144238867Y-108840313D01*
X144269458Y-108834387D01*
X144300889Y-108827474D01*
X144309650Y-108825348D01*
X144335183Y-108819161D01*
X144358251Y-108813942D01*
X144363760Y-108812793D01*
X144380212Y-108807624D01*
X144388415Y-108802075D01*
X144398573Y-108796213D01*
X144404504Y-108795483D01*
X144418784Y-108792435D01*
X144445359Y-108783590D01*
X144482991Y-108769398D01*
X144530446Y-108750309D01*
X144544352Y-108744553D01*
X144584428Y-108726950D01*
X144629438Y-108705675D01*
X144675660Y-108682631D01*
X144719370Y-108659721D01*
X144756843Y-108638848D01*
X144784355Y-108621916D01*
X144784465Y-108621841D01*
X144808109Y-108605504D01*
X144821955Y-108593663D01*
X144828641Y-108582602D01*
X144830804Y-108568605D01*
X144831033Y-108556233D01*
X144836344Y-108521167D01*
X144850783Y-108492900D01*
X144870265Y-108466771D01*
X144884364Y-108454327D01*
X144893417Y-108455493D01*
X144897759Y-108470195D01*
X144898268Y-108482285D01*
X144902552Y-108506812D01*
X144914289Y-108520790D01*
X144931815Y-108522434D01*
X144934873Y-108521495D01*
X144948518Y-108522807D01*
X144958324Y-108535555D01*
X144963570Y-108556599D01*
X144963533Y-108582803D01*
X144957493Y-108611030D01*
X144956270Y-108614571D01*
X144951034Y-108634988D01*
X144953810Y-108649690D01*
X144956270Y-108654115D01*
X144963052Y-108672437D01*
X144965326Y-108690630D01*
X144967613Y-108707875D01*
X144972777Y-108717249D01*
X144979070Y-108727774D01*
X144980228Y-108736090D01*
X144983771Y-108751585D01*
X144992545Y-108772038D01*
X144995130Y-108776856D01*
X145004755Y-108797445D01*
X145009809Y-108814989D01*
X145010031Y-108817882D01*
X145015269Y-108831335D01*
X145028504Y-108848553D01*
X145036109Y-108856107D01*
X145053991Y-108875740D01*
X145061439Y-108894516D01*
X145062187Y-108904884D01*
X145066121Y-108924139D01*
X145076855Y-108952668D01*
X145092786Y-108987434D01*
X145112314Y-109025404D01*
X145133837Y-109063541D01*
X145155753Y-109098812D01*
X145176461Y-109128181D01*
X145186476Y-109140403D01*
X145201489Y-109159422D01*
X145213726Y-109177340D01*
X145224559Y-109191510D01*
X145233397Y-109197810D01*
X145233729Y-109197830D01*
X145237740Y-109191222D01*
X145240115Y-109174593D01*
X145240847Y-109152733D01*
X145239928Y-109130435D01*
X145237348Y-109112489D01*
X145233896Y-109104288D01*
X145231189Y-109094332D01*
X145228662Y-109071183D01*
X145226340Y-109036548D01*
X145224243Y-108992137D01*
X145222396Y-108939655D01*
X145220822Y-108880813D01*
X145219542Y-108817316D01*
X145218580Y-108750873D01*
X145217959Y-108683192D01*
X145217702Y-108615981D01*
X145217830Y-108550947D01*
X145218368Y-108489799D01*
X145219338Y-108434244D01*
X145220762Y-108385990D01*
X145222664Y-108346745D01*
X145223597Y-108333530D01*
X145229703Y-108282031D01*
X145239100Y-108243451D01*
X145252410Y-108216050D01*
X145270251Y-108198089D01*
X145272238Y-108196789D01*
X145287491Y-108195211D01*
X145304882Y-108206995D01*
X145323056Y-108231018D01*
X145331211Y-108245685D01*
X145338315Y-108268040D01*
X145343117Y-108299936D01*
X145345554Y-108337010D01*
X145345561Y-108374903D01*
X145343075Y-108409253D01*
X145338031Y-108435699D01*
X145334144Y-108445293D01*
X145330359Y-108459486D01*
X145327294Y-108485682D01*
X145324965Y-108521035D01*
X145323388Y-108562699D01*
X145322577Y-108607826D01*
X145322549Y-108653572D01*
X145323318Y-108697089D01*
X145324899Y-108735532D01*
X145327309Y-108766054D01*
X145330563Y-108785810D01*
X145332281Y-108790385D01*
X145336096Y-108803924D01*
X145339736Y-108831027D01*
X145343213Y-108871902D01*
X145346538Y-108926756D01*
X145349724Y-108995798D01*
X145352782Y-109079235D01*
X145355724Y-109177274D01*
X145356985Y-109225123D01*
X145360801Y-109375355D01*
X145336296Y-109398321D01*
X145313123Y-109415657D01*
X145291410Y-109420988D01*
X145268478Y-109414014D01*
X145241650Y-109394436D01*
X145233238Y-109386808D01*
X145214558Y-109368080D01*
X145201276Y-109352370D01*
X145196303Y-109343184D01*
X145191430Y-109333442D01*
X145178734Y-109317096D01*
X145163243Y-109300093D01*
X145141707Y-109276442D01*
X145121403Y-109251713D01*
X145111050Y-109237542D01*
X145094827Y-109214307D01*
X145075329Y-109187664D01*
X145066092Y-109175478D01*
X145048667Y-109150996D01*
X145028842Y-109120415D01*
X145012749Y-109093518D01*
X144995426Y-109063265D01*
X144983523Y-109043984D01*
X144975096Y-109033696D01*
X144968200Y-109030419D01*
X144960889Y-109032172D01*
X144955230Y-109034949D01*
X144939943Y-109044981D01*
X144920477Y-109060499D01*
X144913170Y-109066956D01*
X144893757Y-109083897D01*
X144876120Y-109098006D01*
X144871299Y-109101467D01*
X144857338Y-109111575D01*
X144836493Y-109127415D01*
X144815418Y-109143873D01*
X144794070Y-109160709D01*
X144776917Y-109174130D01*
X144767809Y-109181127D01*
X144753171Y-109192532D01*
X144729668Y-109211584D01*
X144699751Y-109236238D01*
X144665875Y-109264448D01*
X144630492Y-109294168D01*
X144596055Y-109323353D01*
X144565016Y-109349956D01*
X144555704Y-109358024D01*
X144527162Y-109382824D01*
X144492735Y-109412724D01*
X144457796Y-109443060D01*
X144439879Y-109458610D01*
X144405485Y-109488746D01*
X144366245Y-109523571D01*
X144328256Y-109557661D01*
X144310137Y-109574099D01*
X144252137Y-109626729D01*
X144204220Y-109669595D01*
X144165733Y-109703265D01*
X144136023Y-109728307D01*
X144114436Y-109745290D01*
X144108477Y-109749576D01*
X144091201Y-109762740D01*
X144067102Y-109782607D01*
X144040287Y-109805753D01*
X144028593Y-109816178D01*
X143999738Y-109842071D01*
X143969858Y-109868693D01*
X143944119Y-109891444D01*
X143937320Y-109897402D01*
X143914117Y-109917665D01*
X143899853Y-109930121D01*
X143899853Y-108232943D01*
X143907303Y-108232943D01*
X143907336Y-108405157D01*
X143907433Y-108569350D01*
X143907592Y-108725051D01*
X143907812Y-108871794D01*
X143908089Y-109009110D01*
X143908422Y-109136529D01*
X143908809Y-109253583D01*
X143909247Y-109359804D01*
X143909736Y-109454723D01*
X143910272Y-109537872D01*
X143910853Y-109608781D01*
X143911477Y-109666983D01*
X143912143Y-109712008D01*
X143912849Y-109743388D01*
X143913591Y-109760655D01*
X143914117Y-109764096D01*
X143923450Y-109759166D01*
X143942537Y-109744998D01*
X143970243Y-109722525D01*
X144005431Y-109692682D01*
X144046965Y-109656400D01*
X144068308Y-109637431D01*
X144097439Y-109611517D01*
X144132599Y-109580400D01*
X144168592Y-109548674D01*
X144190550Y-109529394D01*
X144226247Y-109497937D01*
X144266523Y-109462169D01*
X144305240Y-109427550D01*
X144324531Y-109410180D01*
X144375254Y-109364505D01*
X144416650Y-109327630D01*
X144450290Y-109298195D01*
X144477747Y-109274836D01*
X144500591Y-109256194D01*
X144516731Y-109243663D01*
X144537075Y-109227626D01*
X144552948Y-109213968D01*
X144559254Y-109207571D01*
X144568494Y-109198609D01*
X144586105Y-109183641D01*
X144608566Y-109165645D01*
X144612559Y-109162539D01*
X144640762Y-109140310D01*
X144674001Y-109113522D01*
X144705962Y-109087276D01*
X144711882Y-109082342D01*
X144760566Y-109042164D01*
X144800472Y-109010459D01*
X144833738Y-108985559D01*
X144854181Y-108971308D01*
X144879849Y-108951219D01*
X144900433Y-108929844D01*
X144913584Y-108910137D01*
X144916953Y-108895048D01*
X144916388Y-108893164D01*
X144910852Y-108879595D01*
X144902220Y-108858078D01*
X144896583Y-108843914D01*
X144885516Y-108815535D01*
X144874703Y-108787063D01*
X144870926Y-108776856D01*
X144861515Y-108755343D01*
X144851602Y-108738802D01*
X144849274Y-108736062D01*
X144840131Y-108729491D01*
X144829675Y-108731482D01*
X144818091Y-108738379D01*
X144801139Y-108748126D01*
X144773505Y-108762560D01*
X144738112Y-108780281D01*
X144697880Y-108799887D01*
X144655730Y-108819978D01*
X144614583Y-108839152D01*
X144577360Y-108856009D01*
X144546980Y-108869148D01*
X144536901Y-108873246D01*
X144509671Y-108884201D01*
X144486673Y-108893823D01*
X144472521Y-108900177D01*
X144471808Y-108900539D01*
X144454972Y-108906332D01*
X144447491Y-108907246D01*
X144431129Y-108910489D01*
X144423175Y-108913698D01*
X144392121Y-108926521D01*
X144353638Y-108938580D01*
X144324552Y-108945642D01*
X144279730Y-108954854D01*
X144245256Y-108961521D01*
X144216933Y-108966347D01*
X144190566Y-108970038D01*
X144161960Y-108973299D01*
X144156907Y-108973827D01*
X144104980Y-108976807D01*
X144065085Y-108973350D01*
X144035617Y-108963020D01*
X144014968Y-108945379D01*
X144007185Y-108933178D01*
X144002888Y-108917768D01*
X143999628Y-108892530D01*
X143997478Y-108861239D01*
X143996510Y-108827674D01*
X143996798Y-108795611D01*
X143998412Y-108768827D01*
X144001427Y-108751100D01*
X144003605Y-108746680D01*
X144007405Y-108736227D01*
X144011079Y-108715161D01*
X144013907Y-108687763D01*
X144014191Y-108683720D01*
X144017863Y-108639626D01*
X144022605Y-108599630D01*
X144027960Y-108566724D01*
X144033471Y-108543901D01*
X144036699Y-108536234D01*
X144041755Y-108522282D01*
X144045362Y-108502705D01*
X144046862Y-108491035D01*
X144049101Y-108478994D01*
X144052852Y-108463562D01*
X144058884Y-108441724D01*
X144067971Y-108410460D01*
X144075280Y-108385686D01*
X144093781Y-108321590D01*
X144107827Y-108270197D01*
X144114634Y-108249522D01*
X144124707Y-108223946D01*
X144128903Y-108214316D01*
X144140184Y-108188107D01*
X144153093Y-108156430D01*
X144161027Y-108136082D01*
X144184333Y-108081006D01*
X144214646Y-108018881D01*
X144249660Y-107954292D01*
X144269895Y-107919697D01*
X144287239Y-107890476D01*
X144302821Y-107863549D01*
X144314159Y-107843232D01*
X144317044Y-107837738D01*
X144328297Y-107818313D01*
X144346517Y-107790145D01*
X144369616Y-107756323D01*
X144395505Y-107719940D01*
X144409991Y-107700206D01*
X144424862Y-107679464D01*
X144443178Y-107652942D01*
X144456474Y-107633148D01*
X144477260Y-107602742D01*
X144499085Y-107573202D01*
X144524749Y-107540913D01*
X144557056Y-107502260D01*
X144566705Y-107490937D01*
X144589750Y-107463841D01*
X144617135Y-107431447D01*
X144643662Y-107399908D01*
X144648664Y-107393936D01*
X144674002Y-107364086D01*
X144701075Y-107332861D01*
X144724874Y-107306025D01*
X144729454Y-107300974D01*
X144746489Y-107280606D01*
X144757700Y-107263844D01*
X144760886Y-107254031D01*
X144760681Y-107253564D01*
X144750905Y-107248866D01*
X144731792Y-107246056D01*
X144721400Y-107245703D01*
X144675885Y-107240791D01*
X144631912Y-107227524D01*
X144620825Y-107222436D01*
X144605600Y-107216849D01*
X144599254Y-107215900D01*
X144588221Y-107212719D01*
X144566758Y-107204039D01*
X144537702Y-107191153D01*
X144503887Y-107175355D01*
X144468146Y-107157940D01*
X144433316Y-107140202D01*
X144432589Y-107139822D01*
X144349494Y-107092429D01*
X144263394Y-107035997D01*
X144235141Y-107015897D01*
X144207648Y-106994231D01*
X144173184Y-106964488D01*
X144134219Y-106929057D01*
X144093221Y-106890330D01*
X144052661Y-106850694D01*
X144015008Y-106812539D01*
X143982731Y-106778256D01*
X143958299Y-106750234D01*
X143950972Y-106740907D01*
X143934983Y-106720885D01*
X143921765Y-106706781D01*
X143914519Y-106701790D01*
X143913612Y-106709206D01*
X143912762Y-106731314D01*
X143911970Y-106767905D01*
X143911235Y-106818768D01*
X143910561Y-106883695D01*
X143909947Y-106962476D01*
X143909394Y-107054902D01*
X143908904Y-107160762D01*
X143908477Y-107279848D01*
X143908115Y-107411950D01*
X143907818Y-107556858D01*
X143907587Y-107714362D01*
X143907424Y-107884254D01*
X143907329Y-108066324D01*
X143907303Y-108232943D01*
X143899853Y-108232943D01*
X143899853Y-108219094D01*
X143899864Y-108026945D01*
X143899900Y-107849176D01*
X143899963Y-107685262D01*
X143900057Y-107534683D01*
X143900186Y-107396915D01*
X143900350Y-107271435D01*
X143900555Y-107157721D01*
X143900803Y-107055251D01*
X143901097Y-106963502D01*
X143901440Y-106881950D01*
X143901835Y-106810075D01*
X143902285Y-106747352D01*
X143902793Y-106693259D01*
X143903363Y-106647274D01*
X143903997Y-106608875D01*
X143904699Y-106577537D01*
X143905471Y-106552740D01*
X143906317Y-106533960D01*
X143907239Y-106520674D01*
X143908242Y-106512360D01*
X143909326Y-106508496D01*
X143909874Y-106508068D01*
X143922736Y-106513678D01*
G37*
G36*
X145034420Y-105114597D02*
G01*
X145101607Y-105114856D01*
X145165686Y-105115301D01*
X145225021Y-105115932D01*
X145277975Y-105116748D01*
X145322910Y-105117749D01*
X145358189Y-105118936D01*
X145382175Y-105120309D01*
X145393231Y-105121867D01*
X145393751Y-105122207D01*
X145402820Y-105125187D01*
X145424485Y-105127532D01*
X145456447Y-105129077D01*
X145496409Y-105129657D01*
X145498063Y-105129658D01*
X145538285Y-105130198D01*
X145570595Y-105131708D01*
X145592695Y-105134025D01*
X145602288Y-105136985D01*
X145602375Y-105137108D01*
X145611425Y-105140294D01*
X145632220Y-105142774D01*
X145661609Y-105144261D01*
X145683862Y-105144559D01*
X145723167Y-105145247D01*
X145749478Y-105147457D01*
X145764644Y-105151408D01*
X145769112Y-105154642D01*
X145782475Y-105161159D01*
X145807758Y-105161748D01*
X145813495Y-105161263D01*
X145851156Y-105162424D01*
X145872728Y-105169808D01*
X145896516Y-105178369D01*
X145920001Y-105181814D01*
X145951067Y-105185537D01*
X145991642Y-105197025D01*
X146012173Y-105204349D01*
X146028414Y-105209808D01*
X146051504Y-105216904D01*
X146060603Y-105219564D01*
X146098385Y-105232217D01*
X146144192Y-105250385D01*
X146195509Y-105272797D01*
X146249815Y-105298185D01*
X146304591Y-105325281D01*
X146357321Y-105352815D01*
X146405484Y-105379518D01*
X146446563Y-105404122D01*
X146478038Y-105425356D01*
X146492754Y-105437301D01*
X146511988Y-105452923D01*
X146534750Y-105468682D01*
X146537885Y-105470625D01*
X146552405Y-105481695D01*
X146574496Y-105501292D01*
X146601590Y-105527020D01*
X146631121Y-105556482D01*
X146643808Y-105569573D01*
X146671625Y-105597801D01*
X146696207Y-105621271D01*
X146715612Y-105638245D01*
X146727902Y-105646984D01*
X146730930Y-105647648D01*
X146733613Y-105638477D01*
X146735749Y-105615000D01*
X146737313Y-105577803D01*
X146738282Y-105527471D01*
X146738631Y-105464592D01*
X146738632Y-105461221D01*
X146738936Y-105401040D01*
X146739819Y-105351344D01*
X146741239Y-105313180D01*
X146743155Y-105287595D01*
X146745524Y-105275636D01*
X146746083Y-105274949D01*
X146751158Y-105265024D01*
X146753513Y-105247034D01*
X146753534Y-105245146D01*
X146755541Y-105226743D01*
X146760430Y-105215755D01*
X146760985Y-105215343D01*
X146767596Y-105204669D01*
X146768436Y-105198546D01*
X146773305Y-105185517D01*
X146785329Y-105168872D01*
X146788457Y-105165457D01*
X146802483Y-105153071D01*
X146817596Y-105146794D01*
X146839593Y-105144678D01*
X146850634Y-105144559D01*
X146877732Y-105145879D01*
X146894954Y-105150745D01*
X146906985Y-105160316D01*
X146923119Y-105174745D01*
X146936080Y-105182828D01*
X146943258Y-105186419D01*
X146951931Y-105191705D01*
X146963959Y-105200046D01*
X146981203Y-105212802D01*
X147005521Y-105231334D01*
X147038775Y-105257001D01*
X147059597Y-105273140D01*
X147115318Y-105316985D01*
X147163207Y-105356214D01*
X147207742Y-105394610D01*
X147253400Y-105435955D01*
X147264574Y-105446319D01*
X147306579Y-105485854D01*
X147349066Y-105526613D01*
X147390301Y-105566861D01*
X147428548Y-105604867D01*
X147462073Y-105638896D01*
X147489141Y-105667215D01*
X147508017Y-105688091D01*
X147514401Y-105695935D01*
X147533907Y-105722001D01*
X147566557Y-105687148D01*
X147596563Y-105658612D01*
X147637234Y-105625104D01*
X147686004Y-105588504D01*
X147740304Y-105550691D01*
X147797568Y-105513547D01*
X147833909Y-105491395D01*
X147894823Y-105454865D01*
X147946258Y-105423249D01*
X147987333Y-105397108D01*
X148017168Y-105377004D01*
X148034881Y-105363498D01*
X148035490Y-105362953D01*
X148050731Y-105351237D01*
X148062340Y-105345783D01*
X148063047Y-105345733D01*
X148073751Y-105341040D01*
X148089007Y-105329506D01*
X148091668Y-105327106D01*
X148107311Y-105314758D01*
X148119627Y-105308627D01*
X148120943Y-105308478D01*
X148132896Y-105303262D01*
X148139847Y-105296758D01*
X148156660Y-105282177D01*
X148178626Y-105270049D01*
X148200559Y-105262575D01*
X148217275Y-105261957D01*
X148219598Y-105262884D01*
X148245294Y-105283675D01*
X148266173Y-105313207D01*
X148278788Y-105345811D01*
X148280961Y-105363819D01*
X148282928Y-105382413D01*
X148287732Y-105393636D01*
X148288412Y-105394163D01*
X148293733Y-105404212D01*
X148295863Y-105421171D01*
X148298866Y-105443470D01*
X148304717Y-105459848D01*
X148310443Y-105478943D01*
X148311565Y-105500711D01*
X148312899Y-105521274D01*
X148318910Y-105536564D01*
X148319033Y-105536715D01*
X148324936Y-105551468D01*
X148326994Y-105572676D01*
X148326870Y-105575892D01*
X148328630Y-105602822D01*
X148335156Y-105628991D01*
X148335276Y-105629298D01*
X148341906Y-105653388D01*
X148344155Y-105676451D01*
X148344117Y-105677296D01*
X148346699Y-105701255D01*
X148352918Y-105719769D01*
X148358405Y-105739931D01*
X148361794Y-105773281D01*
X148362921Y-105817002D01*
X148363668Y-105852021D01*
X148365720Y-105879928D01*
X148368795Y-105897681D01*
X148370840Y-105902036D01*
X148373850Y-105912790D01*
X148375360Y-105935552D01*
X148375538Y-105967523D01*
X148374551Y-106005904D01*
X148372567Y-106047894D01*
X148369754Y-106090694D01*
X148366281Y-106131504D01*
X148362314Y-106167526D01*
X148358023Y-106195958D01*
X148353574Y-106214002D01*
X148351922Y-106217484D01*
X148343503Y-106243125D01*
X148345650Y-106274903D01*
X148358004Y-106308821D01*
X148360547Y-106313547D01*
X148379250Y-106347765D01*
X148400507Y-106388148D01*
X148423309Y-106432620D01*
X148446646Y-106479103D01*
X148469509Y-106525521D01*
X148490888Y-106569797D01*
X148509772Y-106609853D01*
X148525152Y-106643613D01*
X148536019Y-106669000D01*
X148541362Y-106683937D01*
X148541742Y-106686242D01*
X148544816Y-106696246D01*
X148552708Y-106714696D01*
X148559526Y-106729043D01*
X148571733Y-106756298D01*
X148584889Y-106789429D01*
X148593506Y-106813553D01*
X148602679Y-106840562D01*
X148610751Y-106863603D01*
X148615669Y-106876886D01*
X148628713Y-106914023D01*
X148636695Y-106946523D01*
X148638603Y-106964790D01*
X148645593Y-106986053D01*
X148656893Y-106996564D01*
X148669596Y-107003539D01*
X148680082Y-107003133D01*
X148694484Y-106994514D01*
X148699736Y-106990746D01*
X148716535Y-106980316D01*
X148743003Y-106965867D01*
X148775209Y-106949477D01*
X148802522Y-106936340D01*
X148842392Y-106917398D01*
X148885462Y-106896474D01*
X148925229Y-106876744D01*
X148944088Y-106867167D01*
X148975211Y-106851167D01*
X149004420Y-106836156D01*
X149027040Y-106824540D01*
X149033499Y-106821226D01*
X149059504Y-106808187D01*
X149096111Y-106790235D01*
X149140593Y-106768673D01*
X149190220Y-106744801D01*
X149242266Y-106719920D01*
X149294001Y-106695333D01*
X149342697Y-106672340D01*
X149385627Y-106652242D01*
X149420061Y-106636340D01*
X149439571Y-106627553D01*
X149458306Y-106619507D01*
X149486851Y-106607493D01*
X149521223Y-106593179D01*
X149555059Y-106579211D01*
X149589366Y-106565110D01*
X149619721Y-106552629D01*
X149642866Y-106543107D01*
X149655540Y-106537886D01*
X149655646Y-106537842D01*
X149670916Y-106532149D01*
X149694266Y-106524087D01*
X149711527Y-106518373D01*
X149735086Y-106510123D01*
X149752962Y-106502775D01*
X149759586Y-106499114D01*
X149771811Y-106494660D01*
X149787087Y-106493166D01*
X149803731Y-106490708D01*
X149812114Y-106485715D01*
X149822475Y-106479763D01*
X149833416Y-106478264D01*
X149850494Y-106474764D01*
X149858455Y-106469923D01*
X149871041Y-106463227D01*
X149892765Y-106456353D01*
X149917950Y-106450743D01*
X149940921Y-106447839D01*
X149945886Y-106447705D01*
X149962508Y-106444302D01*
X149969033Y-106440636D01*
X149976460Y-106436374D01*
X149989990Y-106431773D01*
X150012089Y-106426169D01*
X150045222Y-106418898D01*
X150065444Y-106414688D01*
X150087005Y-106409130D01*
X150102698Y-106403656D01*
X150120485Y-106398108D01*
X150142905Y-106393569D01*
X150143678Y-106393455D01*
X150191553Y-106385447D01*
X150228165Y-106377014D01*
X150251769Y-106368564D01*
X150253088Y-106367874D01*
X150272358Y-106360799D01*
X150284754Y-106359050D01*
X150292455Y-106360201D01*
X150297049Y-106365670D01*
X150299330Y-106378488D01*
X150300089Y-106401682D01*
X150300146Y-106417860D01*
X150299612Y-106448385D01*
X150297580Y-106467209D01*
X150293407Y-106477509D01*
X150287107Y-106482193D01*
X150268797Y-106487939D01*
X150240472Y-106494570D01*
X150206898Y-106501063D01*
X150177365Y-106505769D01*
X150153564Y-106511277D01*
X150133531Y-106519380D01*
X150131162Y-106520807D01*
X150113619Y-106527530D01*
X150100809Y-106527278D01*
X150084417Y-106528041D01*
X150072504Y-106533874D01*
X150054683Y-106541817D01*
X150033676Y-106545085D01*
X150012422Y-106547280D01*
X149996422Y-106552047D01*
X149981430Y-106558013D01*
X149959093Y-106565032D01*
X149949955Y-106567535D01*
X149907206Y-106579166D01*
X149865419Y-106591342D01*
X149828366Y-106602905D01*
X149799815Y-106612696D01*
X149788636Y-106617108D01*
X149769179Y-106624148D01*
X149754195Y-106627272D01*
X149753684Y-106627282D01*
X149740684Y-106631546D01*
X149737606Y-106634732D01*
X149727103Y-106640977D01*
X149718438Y-106642183D01*
X149699230Y-106645878D01*
X149690936Y-106649478D01*
X149675459Y-106657129D01*
X149651188Y-106667939D01*
X149621432Y-106680566D01*
X149589502Y-106693669D01*
X149558706Y-106705905D01*
X149532353Y-106715934D01*
X149513755Y-106722415D01*
X149506735Y-106724143D01*
X149494471Y-106728393D01*
X149492123Y-106730952D01*
X149483571Y-106736713D01*
X149464749Y-106745788D01*
X149439395Y-106756404D01*
X149433939Y-106758529D01*
X149405257Y-106770409D01*
X149380003Y-106782351D01*
X149363227Y-106791949D01*
X149362195Y-106792699D01*
X149346468Y-106802406D01*
X149335272Y-106806102D01*
X149326244Y-106809398D01*
X149305629Y-106818732D01*
X149275062Y-106833275D01*
X149236180Y-106852199D01*
X149190621Y-106874673D01*
X149140020Y-106899870D01*
X149086015Y-106926961D01*
X149030243Y-106955115D01*
X148974339Y-106983505D01*
X148919942Y-107011300D01*
X148868687Y-107037673D01*
X148822212Y-107061794D01*
X148782153Y-107082833D01*
X148750147Y-107099963D01*
X148727831Y-107112354D01*
X148716842Y-107119176D01*
X148716357Y-107119586D01*
X148701162Y-107130256D01*
X148689675Y-107133940D01*
X148677941Y-107140342D01*
X148667017Y-107155744D01*
X148660131Y-107174443D01*
X148659552Y-107187173D01*
X148657234Y-107203414D01*
X148650239Y-107217505D01*
X148641845Y-107237038D01*
X148638603Y-107258538D01*
X148637521Y-107274396D01*
X148631362Y-107281286D01*
X148615759Y-107282930D01*
X148609954Y-107282958D01*
X148581739Y-107277525D01*
X148563507Y-107262049D01*
X148556662Y-107237759D01*
X148556643Y-107236243D01*
X148554069Y-107219967D01*
X148549192Y-107212174D01*
X148546115Y-107203106D01*
X148543708Y-107181804D01*
X148542184Y-107150929D01*
X148541742Y-107119039D01*
X148541138Y-107082104D01*
X148539471Y-107052472D01*
X148536952Y-107032804D01*
X148534291Y-107025903D01*
X148528740Y-107015739D01*
X148526840Y-107001187D01*
X148524360Y-106985174D01*
X148517744Y-106959798D01*
X148508230Y-106929593D01*
X148504115Y-106917804D01*
X148492236Y-106884490D01*
X148480814Y-106852051D01*
X148471876Y-106826250D01*
X148470095Y-106821004D01*
X148460099Y-106794062D01*
X148447331Y-106763121D01*
X148440665Y-106748154D01*
X148430870Y-106726177D01*
X148424285Y-106709975D01*
X148422528Y-106704168D01*
X148419306Y-106694968D01*
X148410355Y-106674674D01*
X148396743Y-106645450D01*
X148379539Y-106609465D01*
X148359812Y-106568882D01*
X148338631Y-106525868D01*
X148317064Y-106482589D01*
X148296182Y-106441210D01*
X148277052Y-106403898D01*
X148260744Y-106372818D01*
X148248327Y-106350137D01*
X148244838Y-106344149D01*
X148230279Y-106319229D01*
X148215525Y-106293035D01*
X148214095Y-106290427D01*
X148203247Y-106262576D01*
X148199303Y-106234238D01*
X148201815Y-106208842D01*
X148210336Y-106189820D01*
X148224420Y-106180602D01*
X148228447Y-106180230D01*
X148239933Y-106177549D01*
X148245936Y-106167728D01*
X148247272Y-106148102D01*
X148245603Y-106124294D01*
X148247436Y-106079888D01*
X148254028Y-106058189D01*
X148260790Y-106034645D01*
X148264748Y-106006040D01*
X148265766Y-105977119D01*
X148263706Y-105952624D01*
X148258434Y-105937300D01*
X148257527Y-105936249D01*
X148253547Y-105925311D01*
X148249890Y-105902570D01*
X148246971Y-105871127D01*
X148245653Y-105847211D01*
X148243693Y-105813678D01*
X148240991Y-105785585D01*
X148237938Y-105766330D01*
X148235559Y-105759628D01*
X148231716Y-105748615D01*
X148229270Y-105728179D01*
X148228805Y-105713500D01*
X148227491Y-105690606D01*
X148224123Y-105674368D01*
X148221354Y-105669845D01*
X148217009Y-105660285D01*
X148214324Y-105641140D01*
X148213904Y-105628866D01*
X148212495Y-105606780D01*
X148208914Y-105591458D01*
X148206453Y-105587886D01*
X148201723Y-105578133D01*
X148199155Y-105559550D01*
X148199002Y-105553427D01*
X148196860Y-105529760D01*
X148191587Y-105510003D01*
X148190406Y-105507512D01*
X148184645Y-105488750D01*
X148182768Y-105465977D01*
X148182777Y-105465709D01*
X148180911Y-105440104D01*
X148172400Y-105427551D01*
X148156522Y-105427429D01*
X148144234Y-105432512D01*
X148124036Y-105444133D01*
X148107920Y-105455659D01*
X148107677Y-105455870D01*
X148090525Y-105469066D01*
X148080643Y-105475461D01*
X148068142Y-105483279D01*
X148047219Y-105496899D01*
X148021790Y-105513766D01*
X148014033Y-105518965D01*
X147989514Y-105535057D01*
X147969733Y-105547322D01*
X147957879Y-105553811D01*
X147956154Y-105554357D01*
X147947673Y-105558186D01*
X147930753Y-105568166D01*
X147911652Y-105580435D01*
X147890142Y-105594036D01*
X147873273Y-105603471D01*
X147865468Y-105606513D01*
X147855797Y-105611515D01*
X147845086Y-105621415D01*
X147833438Y-105632471D01*
X147826644Y-105636316D01*
X147818671Y-105640185D01*
X147801330Y-105650574D01*
X147777598Y-105665662D01*
X147762604Y-105675500D01*
X147729556Y-105699351D01*
X147694832Y-105727676D01*
X147661067Y-105757971D01*
X147630899Y-105787732D01*
X147606962Y-105814454D01*
X147591891Y-105835633D01*
X147589886Y-105839615D01*
X147583565Y-105851575D01*
X147575472Y-105857093D01*
X147560983Y-105857703D01*
X147541503Y-105855667D01*
X147521657Y-105852527D01*
X147506272Y-105847089D01*
X147491462Y-105836906D01*
X147473340Y-105819533D01*
X147457641Y-105802900D01*
X147427455Y-105770984D01*
X147391529Y-105733870D01*
X147351747Y-105693421D01*
X147309993Y-105651501D01*
X147268151Y-105609975D01*
X147228106Y-105570706D01*
X147191742Y-105535560D01*
X147160942Y-105506399D01*
X147137592Y-105485088D01*
X147128744Y-105477502D01*
X147101699Y-105455551D01*
X147068938Y-105429363D01*
X147036548Y-105403796D01*
X147029216Y-105398067D01*
X147001981Y-105376529D01*
X146976847Y-105356111D01*
X146957828Y-105340097D01*
X146952612Y-105335457D01*
X146930809Y-105318700D01*
X146906659Y-105304439D01*
X146905822Y-105304038D01*
X146888182Y-105296542D01*
X146877427Y-105296146D01*
X146867268Y-105302994D01*
X146865075Y-105304954D01*
X146860445Y-105309930D01*
X146856904Y-105316667D01*
X146854307Y-105327059D01*
X146852508Y-105342998D01*
X146851363Y-105366376D01*
X146850726Y-105399087D01*
X146850451Y-105443023D01*
X146850395Y-105496395D01*
X146850704Y-105551712D01*
X146851584Y-105600134D01*
X146852963Y-105639831D01*
X146854772Y-105668971D01*
X146856938Y-105685725D01*
X146857822Y-105688428D01*
X146862333Y-105703675D01*
X146865627Y-105727233D01*
X146866551Y-105741957D01*
X146868748Y-105767571D01*
X146872907Y-105788903D01*
X146875699Y-105796510D01*
X146880385Y-105811311D01*
X146885062Y-105835648D01*
X146888642Y-105863568D01*
X146891902Y-105892820D01*
X146895462Y-105918486D01*
X146898408Y-105934351D01*
X146896905Y-105958632D01*
X146888022Y-105977194D01*
X146875254Y-105993655D01*
X146860315Y-106000379D01*
X146843911Y-106001409D01*
X146822108Y-105999019D01*
X146808022Y-105989687D01*
X146801455Y-105980919D01*
X146788932Y-105963324D01*
X146778245Y-105950583D01*
X146772304Y-105937032D01*
X146768901Y-105913404D01*
X146768436Y-105899333D01*
X146767080Y-105872543D01*
X146761351Y-105853265D01*
X146748761Y-105834228D01*
X146744220Y-105828619D01*
X146719178Y-105799367D01*
X146691147Y-105768329D01*
X146662430Y-105737872D01*
X146635333Y-105710362D01*
X146612160Y-105688164D01*
X146595217Y-105673644D01*
X146589615Y-105669905D01*
X146575462Y-105659902D01*
X146555266Y-105642448D01*
X146533067Y-105621064D01*
X146530008Y-105617935D01*
X146503564Y-105592554D01*
X146474242Y-105567255D01*
X146449404Y-105548253D01*
X146394460Y-105510960D01*
X146349433Y-105481976D01*
X146314960Y-105461701D01*
X146299031Y-105453619D01*
X146220797Y-105414988D01*
X146207152Y-105408636D01*
X146183948Y-105398679D01*
X146155500Y-105386956D01*
X146146288Y-105383249D01*
X146117425Y-105371518D01*
X146092787Y-105361165D01*
X146076524Y-105353946D01*
X146073744Y-105352571D01*
X146057175Y-105346685D01*
X146049781Y-105345733D01*
X146035501Y-105342603D01*
X146012603Y-105334392D01*
X145985708Y-105322865D01*
X145969431Y-105315020D01*
X145951316Y-105309638D01*
X145939255Y-105308478D01*
X145922641Y-105305782D01*
X145914939Y-105301750D01*
X145904718Y-105297061D01*
X145883369Y-105292456D01*
X145849732Y-105287749D01*
X145802650Y-105282753D01*
X145788647Y-105281438D01*
X145762687Y-105277615D01*
X145741819Y-105271987D01*
X145732729Y-105267321D01*
X145725001Y-105263483D01*
X145710172Y-105260087D01*
X145687014Y-105257035D01*
X145654298Y-105254227D01*
X145610795Y-105251564D01*
X145555278Y-105248949D01*
X145486517Y-105246282D01*
X145459172Y-105245320D01*
X145422566Y-105243479D01*
X145390406Y-105240789D01*
X145366192Y-105237614D01*
X145353487Y-105234353D01*
X145343016Y-105232615D01*
X145319635Y-105231084D01*
X145285062Y-105229763D01*
X145241020Y-105228651D01*
X145189227Y-105227750D01*
X145131405Y-105227060D01*
X145069273Y-105226582D01*
X145004553Y-105226318D01*
X144938965Y-105226267D01*
X144874229Y-105226431D01*
X144812065Y-105226811D01*
X144754194Y-105227408D01*
X144702337Y-105228222D01*
X144658213Y-105229254D01*
X144623544Y-105230505D01*
X144600048Y-105231976D01*
X144589448Y-105233668D01*
X144589058Y-105233970D01*
X144580006Y-105237150D01*
X144559188Y-105239628D01*
X144529729Y-105241117D01*
X144507098Y-105241421D01*
X144473655Y-105242103D01*
X144446788Y-105243961D01*
X144429627Y-105246710D01*
X144425139Y-105248871D01*
X144416075Y-105252224D01*
X144395819Y-105254794D01*
X144368072Y-105256185D01*
X144355573Y-105256322D01*
X144313597Y-105257806D01*
X144285970Y-105262243D01*
X144275916Y-105266607D01*
X144258198Y-105274040D01*
X144229852Y-105280573D01*
X144194781Y-105285867D01*
X144156889Y-105289581D01*
X144120080Y-105291377D01*
X144088257Y-105290914D01*
X144065325Y-105287852D01*
X144058870Y-105285497D01*
X144039853Y-105280008D01*
X144024654Y-105284405D01*
X144005754Y-105291137D01*
X143982166Y-105296491D01*
X143979949Y-105296840D01*
X143952751Y-105301100D01*
X143926217Y-105305518D01*
X143925931Y-105305568D01*
X143899853Y-105310109D01*
X143901105Y-105203119D01*
X143901787Y-105163240D01*
X143902739Y-105138057D01*
X143903977Y-105127369D01*
X143905522Y-105130973D01*
X143906693Y-105140834D01*
X143910031Y-105166372D01*
X143914357Y-105179551D01*
X143920615Y-105182912D01*
X143922205Y-105182624D01*
X143937922Y-105180823D01*
X143953944Y-105180885D01*
X143975661Y-105177608D01*
X143993300Y-105169748D01*
X144010320Y-105162276D01*
X144033150Y-105160095D01*
X144055131Y-105161337D01*
X144092207Y-105161740D01*
X144116362Y-105155164D01*
X144129825Y-105150794D01*
X144153017Y-105147707D01*
X144187500Y-105145783D01*
X144234836Y-105144901D01*
X144251466Y-105144823D01*
X144296155Y-105144259D01*
X144332358Y-105142866D01*
X144358147Y-105140767D01*
X144371593Y-105138084D01*
X144372982Y-105137108D01*
X144382048Y-105133998D01*
X144403204Y-105131568D01*
X144433649Y-105130054D01*
X144462393Y-105129658D01*
X144498188Y-105129030D01*
X144526908Y-105127303D01*
X144545749Y-105124711D01*
X144551803Y-105122207D01*
X144560024Y-105120611D01*
X144581509Y-105119201D01*
X144614620Y-105117976D01*
X144657720Y-105116937D01*
X144709172Y-105116083D01*
X144767340Y-105115415D01*
X144830586Y-105114932D01*
X144897272Y-105114635D01*
X144965763Y-105114523D01*
X145034420Y-105114597D01*
G37*
G36*
X148789628Y-108865200D02*
G01*
X148797497Y-108880614D01*
X148797666Y-108881168D01*
X148806259Y-108904883D01*
X148814610Y-108923298D01*
X148822409Y-108945911D01*
X148824875Y-108964650D01*
X148827431Y-108983057D01*
X148832780Y-108994131D01*
X148836719Y-109005998D01*
X148838678Y-109029568D01*
X148838878Y-109061806D01*
X148837541Y-109099675D01*
X148834891Y-109140142D01*
X148831148Y-109180171D01*
X148826535Y-109216726D01*
X148821276Y-109246772D01*
X148815591Y-109267274D01*
X148812328Y-109273427D01*
X148806449Y-109286716D01*
X148801434Y-109308109D01*
X148800137Y-109317044D01*
X148796511Y-109342249D01*
X148790890Y-109372267D01*
X148782747Y-109409522D01*
X148771555Y-109456438D01*
X148757971Y-109510766D01*
X148748886Y-109546196D01*
X148742358Y-109570341D01*
X148737409Y-109586393D01*
X148733066Y-109597544D01*
X148728857Y-109606051D01*
X148723778Y-109619243D01*
X148728501Y-109625870D01*
X148731663Y-109627257D01*
X148745185Y-109625617D01*
X148767693Y-109615158D01*
X148797286Y-109597237D01*
X148832061Y-109573210D01*
X148870119Y-109544434D01*
X148909557Y-109512264D01*
X148948475Y-109478057D01*
X148972586Y-109455378D01*
X149014650Y-109412488D01*
X149047796Y-109373013D01*
X149075524Y-109332127D01*
X149101332Y-109285005D01*
X149112072Y-109262969D01*
X149134015Y-109221631D01*
X149154977Y-109193441D01*
X149176628Y-109176885D01*
X149200639Y-109170447D01*
X149213994Y-109170544D01*
X149238644Y-109175752D01*
X149257171Y-109189392D01*
X149263779Y-109197068D01*
X149290979Y-109229223D01*
X149323287Y-109264670D01*
X149357413Y-109300037D01*
X149390068Y-109331952D01*
X149417960Y-109357043D01*
X149427198Y-109364531D01*
X149453900Y-109385210D01*
X149481353Y-109406535D01*
X149497981Y-109419494D01*
X149517830Y-109434337D01*
X149534252Y-109445473D01*
X149540158Y-109448812D01*
X149552655Y-109455463D01*
X149572413Y-109466903D01*
X149585687Y-109474889D01*
X149605652Y-109486583D01*
X149620216Y-109494197D01*
X149624804Y-109495865D01*
X149628831Y-109489610D01*
X149629616Y-109474698D01*
X149627607Y-109456911D01*
X149623256Y-109442029D01*
X149620254Y-109437395D01*
X149614700Y-109424397D01*
X149609432Y-109397176D01*
X149604525Y-109356405D01*
X149600058Y-109302760D01*
X149596108Y-109236918D01*
X149595148Y-109217311D01*
X149591347Y-109136204D01*
X149615196Y-109111598D01*
X149632750Y-109095870D01*
X149648845Y-109089354D01*
X149669698Y-109089031D01*
X149696833Y-109094370D01*
X149724235Y-109104898D01*
X149728519Y-109107196D01*
X149747506Y-109117137D01*
X149761491Y-109122812D01*
X149764270Y-109123321D01*
X149775112Y-109126351D01*
X149793638Y-109133997D01*
X149802697Y-109138223D01*
X149824000Y-109147305D01*
X149841229Y-109152584D01*
X149845552Y-109153125D01*
X149860480Y-109156880D01*
X149864643Y-109159663D01*
X149874559Y-109164781D01*
X149895023Y-109172882D01*
X149922346Y-109182548D01*
X149935053Y-109186756D01*
X149965367Y-109196731D01*
X149991618Y-109205614D01*
X150009548Y-109211956D01*
X150013288Y-109213396D01*
X150029214Y-109219111D01*
X150053245Y-109226869D01*
X150081175Y-109235420D01*
X150108795Y-109243510D01*
X150131900Y-109249888D01*
X150146284Y-109253303D01*
X150148256Y-109253561D01*
X150160883Y-109258204D01*
X150166883Y-109262255D01*
X150181065Y-109269124D01*
X150201593Y-109274586D01*
X150203285Y-109274879D01*
X150227857Y-109279019D01*
X150256245Y-109283912D01*
X150262892Y-109285075D01*
X150296420Y-109290966D01*
X150298573Y-109356161D01*
X150299136Y-109385228D01*
X150298813Y-109407620D01*
X150297689Y-109419971D01*
X150296963Y-109421356D01*
X150288263Y-109418688D01*
X150271792Y-109412135D01*
X150268732Y-109410831D01*
X150247594Y-109403510D01*
X150219253Y-109395876D01*
X150199559Y-109391546D01*
X150173382Y-109385739D01*
X150151824Y-109379762D01*
X150141916Y-109375993D01*
X150124082Y-109370534D01*
X150110690Y-109369200D01*
X150094873Y-109366467D01*
X150087796Y-109361749D01*
X150077532Y-109355994D01*
X150064903Y-109354298D01*
X150044940Y-109351673D01*
X150033676Y-109347846D01*
X150013469Y-109339337D01*
X149980714Y-109327798D01*
X149934495Y-109312906D01*
X149931328Y-109311916D01*
X149903869Y-109302700D01*
X149877767Y-109292927D01*
X149868950Y-109289257D01*
X149845902Y-109279845D01*
X149824849Y-109272306D01*
X149824245Y-109272116D01*
X149806256Y-109266037D01*
X149781118Y-109256998D01*
X149763985Y-109250616D01*
X149737236Y-109242563D01*
X149719283Y-109241379D01*
X149711719Y-109246783D01*
X149716141Y-109258493D01*
X149716510Y-109258984D01*
X149720283Y-109270828D01*
X149723329Y-109292960D01*
X149725032Y-109320767D01*
X149725090Y-109323037D01*
X149726706Y-109351921D01*
X149729770Y-109376291D01*
X149733636Y-109391078D01*
X149733835Y-109391468D01*
X149736628Y-109403900D01*
X149738949Y-109427970D01*
X149740582Y-109460413D01*
X149741312Y-109497967D01*
X149741331Y-109505090D01*
X149741331Y-109604704D01*
X149717116Y-109628161D01*
X149700350Y-109642671D01*
X149686754Y-109648000D01*
X149669916Y-109646385D01*
X149666822Y-109645707D01*
X149640460Y-109636632D01*
X149604507Y-109619649D01*
X149561171Y-109595951D01*
X149512657Y-109566733D01*
X149470513Y-109539462D01*
X149429168Y-109511414D01*
X149395205Y-109486998D01*
X149364547Y-109462961D01*
X149333120Y-109436051D01*
X149296848Y-109403015D01*
X149280998Y-109388227D01*
X149255148Y-109363603D01*
X149236719Y-109347187D01*
X149223051Y-109339577D01*
X149211479Y-109341369D01*
X149199343Y-109353161D01*
X149183980Y-109375550D01*
X149162727Y-109409132D01*
X149158529Y-109415699D01*
X149134685Y-109447958D01*
X149101560Y-109486027D01*
X149062038Y-109527110D01*
X149019003Y-109568409D01*
X148975339Y-109607129D01*
X148933930Y-109640473D01*
X148906825Y-109659784D01*
X148884657Y-109674467D01*
X148857289Y-109692620D01*
X148838730Y-109704943D01*
X148794572Y-109733542D01*
X148757814Y-109755833D01*
X148729812Y-109771046D01*
X148711920Y-109778414D01*
X148708178Y-109778998D01*
X148689272Y-109785064D01*
X148668982Y-109800456D01*
X148652155Y-109820965D01*
X148646164Y-109832823D01*
X148634413Y-109862521D01*
X148620179Y-109896141D01*
X148602135Y-109936920D01*
X148593182Y-109957853D01*
X148587502Y-109972996D01*
X148586447Y-109977283D01*
X148583222Y-109986267D01*
X148574357Y-110006041D01*
X148561064Y-110034165D01*
X148544554Y-110068198D01*
X148526040Y-110105697D01*
X148506734Y-110144221D01*
X148487848Y-110181330D01*
X148470594Y-110214580D01*
X148456184Y-110241532D01*
X148448142Y-110255853D01*
X148430837Y-110283616D01*
X148412780Y-110309551D01*
X148398119Y-110327763D01*
X148387594Y-110339715D01*
X148381938Y-110350064D01*
X148381175Y-110362408D01*
X148385334Y-110380344D01*
X148394439Y-110407471D01*
X148398789Y-110419772D01*
X148403142Y-110434500D01*
X148409919Y-110460295D01*
X148418245Y-110493691D01*
X148427245Y-110531223D01*
X148430795Y-110546437D01*
X148438628Y-110585419D01*
X148444860Y-110628722D01*
X148449687Y-110678648D01*
X148453305Y-110737500D01*
X148455909Y-110807579D01*
X148457047Y-110854992D01*
X148457936Y-110917394D01*
X148457808Y-110966017D01*
X148456673Y-111000562D01*
X148454536Y-111020730D01*
X148452615Y-111025989D01*
X148447812Y-111037784D01*
X148445103Y-111058001D01*
X148444880Y-111065863D01*
X148442428Y-111093347D01*
X148433541Y-111117103D01*
X148415925Y-111142200D01*
X148404302Y-111155545D01*
X148387412Y-111171337D01*
X148370318Y-111178267D01*
X148348420Y-111179638D01*
X148307022Y-111172236D01*
X148284687Y-111161386D01*
X148261418Y-111148023D01*
X148232103Y-111132236D01*
X148210178Y-111121007D01*
X148183898Y-111107659D01*
X148160434Y-111095287D01*
X148146846Y-111087707D01*
X148132464Y-111079941D01*
X148106988Y-111066959D01*
X148072682Y-111049856D01*
X148031806Y-111029725D01*
X147986624Y-111007660D01*
X147939397Y-110984757D01*
X147892388Y-110962109D01*
X147847859Y-110940810D01*
X147808071Y-110921954D01*
X147775287Y-110906636D01*
X147751770Y-110895949D01*
X147741085Y-110891447D01*
X147718032Y-110882207D01*
X147688578Y-110869594D01*
X147664068Y-110858599D01*
X147639815Y-110847804D01*
X147620921Y-110840065D01*
X147611395Y-110837022D01*
X147611317Y-110837020D01*
X147604969Y-110842949D01*
X147592917Y-110858812D01*
X147577057Y-110881726D01*
X147559284Y-110908805D01*
X147541494Y-110937167D01*
X147525581Y-110963927D01*
X147513998Y-110985105D01*
X147503076Y-111004298D01*
X147493563Y-111017375D01*
X147490974Y-111019687D01*
X147482390Y-111028617D01*
X147470201Y-111045249D01*
X147465486Y-111052471D01*
X147453260Y-111068412D01*
X147432339Y-111092153D01*
X147405000Y-111121411D01*
X147373519Y-111153901D01*
X147340172Y-111187338D01*
X147307236Y-111219438D01*
X147276985Y-111247918D01*
X147251698Y-111270492D01*
X147234536Y-111284250D01*
X147164352Y-111333135D01*
X147103560Y-111372632D01*
X147050622Y-111403482D01*
X147004000Y-111426425D01*
X146962156Y-111442201D01*
X146923552Y-111451552D01*
X146886650Y-111455218D01*
X146879220Y-111455334D01*
X146851743Y-111454780D01*
X146834017Y-111451871D01*
X146820910Y-111444961D01*
X146807288Y-111432406D01*
X146807097Y-111432211D01*
X146788884Y-111404716D01*
X146785260Y-111374316D01*
X146795517Y-111342187D01*
X146801956Y-111321846D01*
X146805470Y-111295953D01*
X146805690Y-111288608D01*
X146807217Y-111267432D01*
X146811066Y-111253154D01*
X146813141Y-111250544D01*
X146817934Y-111240759D01*
X146820471Y-111222278D01*
X146820592Y-111217015D01*
X146822349Y-111197323D01*
X146826706Y-111184781D01*
X146828043Y-111183486D01*
X146833823Y-111173209D01*
X146835493Y-111160800D01*
X146837564Y-111140020D01*
X146843095Y-111110013D01*
X146851065Y-111075764D01*
X146858303Y-111049370D01*
X146863884Y-111026031D01*
X146868355Y-111000099D01*
X146868515Y-110998875D01*
X146872315Y-110978019D01*
X146877005Y-110963093D01*
X146877798Y-110961621D01*
X146882520Y-110947591D01*
X146887787Y-110920840D01*
X146893249Y-110883523D01*
X146898560Y-110837793D01*
X146899769Y-110825844D01*
X146903164Y-110800807D01*
X146907453Y-110781715D01*
X146910812Y-110774061D01*
X146915224Y-110762485D01*
X146917464Y-110742660D01*
X146917678Y-110719196D01*
X146916012Y-110696707D01*
X146912613Y-110679805D01*
X146907629Y-110673102D01*
X146907603Y-110673101D01*
X146897229Y-110677064D01*
X146878202Y-110687615D01*
X146854042Y-110702750D01*
X146845418Y-110708493D01*
X146821699Y-110724514D01*
X146803182Y-110736881D01*
X146786771Y-110747535D01*
X146769371Y-110758420D01*
X146747887Y-110771478D01*
X146719225Y-110788652D01*
X146688447Y-110807018D01*
X146646292Y-110831202D01*
X146595445Y-110858890D01*
X146540542Y-110887678D01*
X146486221Y-110915159D01*
X146437117Y-110938932D01*
X146410794Y-110950989D01*
X146391628Y-110959558D01*
X146364097Y-110971946D01*
X146333406Y-110985811D01*
X146325923Y-110989200D01*
X146298318Y-111001284D01*
X146275467Y-111010507D01*
X146261052Y-111015412D01*
X146258577Y-111015841D01*
X146246792Y-111019009D01*
X146228517Y-111026840D01*
X146224235Y-111028961D01*
X146200111Y-111039629D01*
X146172059Y-111049909D01*
X146164916Y-111052163D01*
X146141225Y-111059603D01*
X146121478Y-111066336D01*
X146116485Y-111068225D01*
X146096449Y-111075184D01*
X146086681Y-111077966D01*
X146071553Y-111082485D01*
X146048416Y-111090130D01*
X146030800Y-111096243D01*
X146000744Y-111106339D01*
X145969995Y-111115827D01*
X145956291Y-111119687D01*
X145930011Y-111126876D01*
X145905547Y-111133869D01*
X145899881Y-111135560D01*
X145875461Y-111140726D01*
X145854803Y-111142506D01*
X145835855Y-111145283D01*
X145823843Y-111151270D01*
X145810096Y-111158085D01*
X145783648Y-111164900D01*
X145746692Y-111171262D01*
X145701421Y-111176721D01*
X145699236Y-111176936D01*
X145675229Y-111179960D01*
X145656388Y-111183515D01*
X145650806Y-111185192D01*
X145638206Y-111187563D01*
X145615384Y-111189529D01*
X145587020Y-111190701D01*
X145583748Y-111190765D01*
X145554105Y-111192405D01*
X145528560Y-111195813D01*
X145512313Y-111200278D01*
X145511592Y-111200648D01*
X145500047Y-111203051D01*
X145476275Y-111205107D01*
X145442479Y-111206810D01*
X145400859Y-111208153D01*
X145353616Y-111209129D01*
X145302951Y-111209731D01*
X145251065Y-111209953D01*
X145200160Y-111209788D01*
X145152436Y-111209228D01*
X145110095Y-111208268D01*
X145075337Y-111206899D01*
X145050365Y-111205117D01*
X145037378Y-111202913D01*
X145036109Y-111202113D01*
X145027041Y-111199026D01*
X145005779Y-111196613D01*
X144975022Y-111195091D01*
X144944024Y-111194662D01*
X144909052Y-111194092D01*
X144879456Y-111192543D01*
X144858470Y-111190255D01*
X144849465Y-111187629D01*
X144839097Y-111184160D01*
X144817935Y-111181257D01*
X144790085Y-111179437D01*
X144782780Y-111179217D01*
X144752567Y-111177612D01*
X144726718Y-111174614D01*
X144710037Y-111170816D01*
X144708271Y-111170037D01*
X144693276Y-111165832D01*
X144668937Y-111162597D01*
X144643571Y-111161145D01*
X144616619Y-111159438D01*
X144594999Y-111156049D01*
X144583964Y-111152016D01*
X144571379Y-111146805D01*
X144549625Y-111142073D01*
X144533176Y-111139891D01*
X144493741Y-111135286D01*
X144452175Y-111129304D01*
X144411650Y-111122528D01*
X144375336Y-111115538D01*
X144346401Y-111108917D01*
X144328018Y-111103247D01*
X144324729Y-111101636D01*
X144309951Y-111096466D01*
X144291472Y-111093671D01*
X144266752Y-111089909D01*
X144246318Y-111084436D01*
X144205472Y-111071131D01*
X144175502Y-111063404D01*
X144153756Y-111060587D01*
X144151230Y-111060546D01*
X144134932Y-111057980D01*
X144127104Y-111053096D01*
X144117010Y-111047684D01*
X144101026Y-111045645D01*
X144083984Y-111043303D01*
X144074948Y-111038194D01*
X144064396Y-111031845D01*
X144056485Y-111030743D01*
X144039922Y-111027519D01*
X144021533Y-111020357D01*
X143986868Y-111003989D01*
X143956043Y-110990729D01*
X143932177Y-110981840D01*
X143918392Y-110978587D01*
X143918376Y-110978587D01*
X143915439Y-110980346D01*
X143913029Y-110986534D01*
X143911078Y-110998520D01*
X143909518Y-111017671D01*
X143908282Y-111045354D01*
X143907302Y-111082937D01*
X143906512Y-111131787D01*
X143905843Y-111193273D01*
X143905438Y-111241230D01*
X143903381Y-111503872D01*
X143901617Y-111182623D01*
X143899853Y-110861374D01*
X143927793Y-110867246D01*
X143969145Y-110876760D01*
X143998977Y-110885633D01*
X144007890Y-110888987D01*
X144023608Y-110894669D01*
X144046867Y-110902372D01*
X144060046Y-110906528D01*
X144089673Y-110916212D01*
X144122905Y-110927812D01*
X144138175Y-110933418D01*
X144164356Y-110941969D01*
X144188021Y-110947548D01*
X144199205Y-110948783D01*
X144215552Y-110951000D01*
X144223479Y-110955447D01*
X144232926Y-110960803D01*
X144251039Y-110965573D01*
X144255585Y-110966338D01*
X144294604Y-110972508D01*
X144321865Y-110977642D01*
X144340407Y-110982471D01*
X144353270Y-110987729D01*
X144359549Y-110991410D01*
X144377864Y-110998039D01*
X144390963Y-110997419D01*
X144409220Y-110997037D01*
X144422032Y-111001271D01*
X144438853Y-111007035D01*
X144463320Y-111011910D01*
X144476332Y-111013520D01*
X144499572Y-111016851D01*
X144516692Y-111021333D01*
X144521627Y-111023952D01*
X144532492Y-111027663D01*
X144553120Y-111030129D01*
X144571481Y-111030743D01*
X144595462Y-111031946D01*
X144612919Y-111035056D01*
X144618861Y-111038194D01*
X144628131Y-111041962D01*
X144647973Y-111044641D01*
X144673692Y-111045645D01*
X144700207Y-111046615D01*
X144720877Y-111049153D01*
X144730997Y-111052587D01*
X144741197Y-111056109D01*
X144762482Y-111059647D01*
X144791049Y-111062636D01*
X144805133Y-111063642D01*
X144876551Y-111068128D01*
X144934408Y-111072020D01*
X144980026Y-111075436D01*
X145014727Y-111078492D01*
X145039835Y-111081307D01*
X145056673Y-111083999D01*
X145066562Y-111086685D01*
X145067264Y-111086977D01*
X145079993Y-111089007D01*
X145106331Y-111090285D01*
X145145002Y-111090802D01*
X145194733Y-111090546D01*
X145254248Y-111089507D01*
X145283339Y-111088795D01*
X145369126Y-111086357D01*
X145440876Y-111083929D01*
X145499454Y-111081456D01*
X145545725Y-111078884D01*
X145580554Y-111076158D01*
X145604805Y-111073226D01*
X145619344Y-111070033D01*
X145624355Y-111067473D01*
X145635260Y-111063646D01*
X145655838Y-111061131D01*
X145673158Y-111060546D01*
X145697398Y-111059419D01*
X145715606Y-111056515D01*
X145721962Y-111053818D01*
X145733221Y-111048904D01*
X145753245Y-111044446D01*
X145762569Y-111043123D01*
X145812188Y-111036109D01*
X145847835Y-111028489D01*
X145863156Y-111023304D01*
X145887363Y-111014462D01*
X145917826Y-111005357D01*
X145946152Y-110998473D01*
X145948840Y-110997945D01*
X145964353Y-110994333D01*
X145985003Y-110988117D01*
X146014252Y-110978209D01*
X146034525Y-110971054D01*
X146051271Y-110965492D01*
X146073925Y-110958415D01*
X146079231Y-110956812D01*
X146104012Y-110948852D01*
X146133075Y-110938373D01*
X146170515Y-110923878D01*
X146183543Y-110918702D01*
X146201650Y-110911930D01*
X146220797Y-110905244D01*
X146245142Y-110896076D01*
X146278265Y-110882195D01*
X146318020Y-110864633D01*
X146362262Y-110844424D01*
X146408846Y-110822599D01*
X146455627Y-110800191D01*
X146500460Y-110778232D01*
X146541199Y-110757756D01*
X146575700Y-110739793D01*
X146601817Y-110725377D01*
X146617405Y-110715540D01*
X146620365Y-110712940D01*
X146630606Y-110704241D01*
X146634698Y-110702905D01*
X146643600Y-110699271D01*
X146661409Y-110689705D01*
X146684416Y-110676206D01*
X146686456Y-110674964D01*
X146719512Y-110654717D01*
X146743911Y-110639531D01*
X146763746Y-110626754D01*
X146783109Y-110613731D01*
X146806091Y-110597809D01*
X146814634Y-110591839D01*
X146857654Y-110561835D01*
X146890429Y-110539351D01*
X146914886Y-110523303D01*
X146932948Y-110512611D01*
X146946542Y-110506191D01*
X146957591Y-110502962D01*
X146968022Y-110501842D01*
X146974946Y-110501732D01*
X146992818Y-110502376D01*
X147006319Y-110505510D01*
X147016000Y-110512934D01*
X147022413Y-110526449D01*
X147026109Y-110547858D01*
X147027642Y-110578960D01*
X147027561Y-110621557D01*
X147026586Y-110670314D01*
X147025097Y-110718553D01*
X147022986Y-110765286D01*
X147020460Y-110807033D01*
X147017726Y-110840318D01*
X147015389Y-110859373D01*
X146991230Y-110995693D01*
X146969609Y-111101526D01*
X146963257Y-111131899D01*
X146957129Y-111163178D01*
X146955446Y-111172309D01*
X146949610Y-111198528D01*
X146942513Y-111222459D01*
X146940582Y-111227613D01*
X146935512Y-111246234D01*
X146935800Y-111259952D01*
X146935067Y-111273183D01*
X146927777Y-111290934D01*
X146927090Y-111292122D01*
X146919349Y-111311151D01*
X146923026Y-111321672D01*
X146937252Y-111323608D01*
X146961160Y-111316884D01*
X146993881Y-111301426D01*
X146999412Y-111298396D01*
X147087318Y-111246892D01*
X147162489Y-111197041D01*
X147226764Y-111147390D01*
X147281983Y-111096484D01*
X147329984Y-111042871D01*
X147342152Y-111027473D01*
X147369058Y-110991067D01*
X147396623Y-110951233D01*
X147423465Y-110910252D01*
X147448202Y-110870404D01*
X147469450Y-110833966D01*
X147485828Y-110803220D01*
X147495953Y-110780445D01*
X147498620Y-110769510D01*
X147501667Y-110752368D01*
X147507267Y-110736784D01*
X147513066Y-110726664D01*
X147521451Y-110720965D01*
X147536335Y-110718433D01*
X147561629Y-110717812D01*
X147566435Y-110717807D01*
X147592548Y-110718831D01*
X147612362Y-110721514D01*
X147621560Y-110725258D01*
X147631463Y-110730288D01*
X147649534Y-110732677D01*
X147651904Y-110732708D01*
X147673494Y-110734650D01*
X147690177Y-110739343D01*
X147690581Y-110739550D01*
X147703153Y-110745697D01*
X147724537Y-110755412D01*
X147756336Y-110769410D01*
X147800152Y-110788402D01*
X147804106Y-110790108D01*
X147816617Y-110795898D01*
X147840506Y-110807308D01*
X147873788Y-110823366D01*
X147914475Y-110843101D01*
X147960581Y-110865540D01*
X148010120Y-110889712D01*
X148061107Y-110914646D01*
X148111553Y-110939370D01*
X148159474Y-110962911D01*
X148202883Y-110984298D01*
X148239793Y-111002560D01*
X148268219Y-111016725D01*
X148286173Y-111025821D01*
X148289562Y-111027598D01*
X148310657Y-111036742D01*
X148322183Y-111035818D01*
X148325667Y-111024782D01*
X148329696Y-111009006D01*
X148333430Y-111003607D01*
X148335886Y-110993720D01*
X148337528Y-110971542D01*
X148338405Y-110939661D01*
X148338568Y-110900662D01*
X148338066Y-110857132D01*
X148336950Y-110811658D01*
X148335269Y-110766825D01*
X148333074Y-110725221D01*
X148330415Y-110689431D01*
X148327342Y-110662042D01*
X148326748Y-110658200D01*
X148317790Y-110604563D01*
X148310411Y-110562849D01*
X148304078Y-110530227D01*
X148298260Y-110503867D01*
X148295916Y-110494281D01*
X148285586Y-110446980D01*
X148280025Y-110403272D01*
X148278592Y-110356324D01*
X148279597Y-110320247D01*
X148281208Y-110287158D01*
X148283078Y-110266196D01*
X148286016Y-110254595D01*
X148290830Y-110249592D01*
X148298332Y-110248420D01*
X148300637Y-110248402D01*
X148317694Y-110242396D01*
X148327425Y-110227912D01*
X148337050Y-110208638D01*
X148350397Y-110185155D01*
X148355015Y-110177619D01*
X148375005Y-110144693D01*
X148387136Y-110121937D01*
X148392355Y-110107497D01*
X148392724Y-110103988D01*
X148396643Y-110092963D01*
X148406493Y-110075430D01*
X148411351Y-110067981D01*
X148422736Y-110049507D01*
X148429324Y-110035489D01*
X148429979Y-110032378D01*
X148433109Y-110022586D01*
X148441546Y-110002749D01*
X148453861Y-109976114D01*
X148463508Y-109956207D01*
X148477601Y-109926928D01*
X148488775Y-109902375D01*
X148495603Y-109885759D01*
X148497036Y-109880670D01*
X148499949Y-109869737D01*
X148507279Y-109851148D01*
X148510989Y-109842820D01*
X148521454Y-109818624D01*
X148533641Y-109788369D01*
X148541473Y-109767821D01*
X148557106Y-109725716D01*
X148568578Y-109695288D01*
X148576800Y-109674201D01*
X148582684Y-109660120D01*
X148587139Y-109650711D01*
X148587212Y-109650571D01*
X148592988Y-109633728D01*
X148593898Y-109626255D01*
X148597241Y-109609997D01*
X148600622Y-109601938D01*
X148606614Y-109586956D01*
X148613704Y-109564634D01*
X148616250Y-109555472D01*
X148623117Y-109532222D01*
X148629823Y-109513524D01*
X148631878Y-109509005D01*
X148637705Y-109491695D01*
X148638603Y-109483927D01*
X148640744Y-109470178D01*
X148646223Y-109448277D01*
X148650576Y-109433532D01*
X148661849Y-109397008D01*
X148669230Y-109371429D01*
X148673503Y-109353594D01*
X148675448Y-109340297D01*
X148675857Y-109329994D01*
X148678142Y-109313897D01*
X148682521Y-109306354D01*
X148687893Y-109296909D01*
X148692704Y-109278799D01*
X148693481Y-109274248D01*
X148697073Y-109251561D01*
X148701956Y-109221609D01*
X148705908Y-109197830D01*
X148710123Y-109167986D01*
X148714406Y-109129824D01*
X148718048Y-109089908D01*
X148719169Y-109074891D01*
X148722314Y-109041227D01*
X148726576Y-109011665D01*
X148731279Y-108990383D01*
X148733951Y-108983464D01*
X148739537Y-108967983D01*
X148738702Y-108958614D01*
X148738336Y-108947122D01*
X148743918Y-108929493D01*
X148745012Y-108927102D01*
X148755099Y-108903258D01*
X148762787Y-108881168D01*
X148770463Y-108865560D01*
X148779907Y-108858822D01*
X148780169Y-108858816D01*
X148789628Y-108865200D01*
G37*
D12*
X129042164Y-86690000D02*
X129257836Y-86690000D01*
X129042164Y-87410000D02*
X129257836Y-87410000D01*
X123190000Y-121390000D02*
X123190000Y-129110000D01*
X123190000Y-129110000D02*
X126910000Y-129110000D01*
X123590000Y-121790000D02*
X123590000Y-128710000D01*
X123590000Y-123650000D02*
X123990000Y-123650000D01*
X123590000Y-123750000D02*
X123990000Y-123750000D01*
X123590000Y-125150000D02*
X123990000Y-125150000D01*
X123590000Y-125250000D02*
X123990000Y-125250000D01*
X123590000Y-126650000D02*
X123990000Y-126650000D01*
X123590000Y-126750000D02*
X123990000Y-126750000D01*
X123590000Y-128710000D02*
X126510000Y-128710000D01*
X123990000Y-123650000D02*
X123990000Y-123850000D01*
X123990000Y-123850000D02*
X123590000Y-123850000D01*
X123990000Y-125150000D02*
X123990000Y-125350000D01*
X123990000Y-125350000D02*
X123590000Y-125350000D01*
X123990000Y-126650000D02*
X123990000Y-126850000D01*
X123990000Y-126850000D02*
X123590000Y-126850000D01*
X125000000Y-121390000D02*
X125000000Y-121790000D01*
X125000000Y-129110000D02*
X125000000Y-128710000D01*
X126000000Y-121390000D02*
X126000000Y-121790000D01*
X126000000Y-129110000D02*
X126000000Y-128710000D01*
X126510000Y-121790000D02*
X123590000Y-121790000D01*
X126510000Y-128710000D02*
X126510000Y-121790000D01*
X126910000Y-121390000D02*
X123190000Y-121390000D01*
X126910000Y-122700000D02*
X127110000Y-122700000D01*
X126910000Y-129110000D02*
X126910000Y-121390000D01*
X127010000Y-122700000D02*
X127010000Y-122400000D01*
X127110000Y-121190000D02*
X126310000Y-121190000D01*
X127110000Y-121990000D02*
X127110000Y-121190000D01*
X127110000Y-122400000D02*
X126910000Y-122400000D01*
X127110000Y-122700000D02*
X127110000Y-122400000D01*
X133900000Y-88455000D02*
X137820000Y-88455000D01*
X137820000Y-86545000D02*
X133900000Y-86545000D01*
X137820000Y-88455000D02*
X137820000Y-86545000D01*
X138060000Y-129210000D02*
X138060000Y-127210000D01*
X140340000Y-129200000D02*
X140340000Y-127200000D01*
X138130000Y-129850000D02*
X137850000Y-129570000D01*
X138130000Y-129570000D01*
X138130000Y-129850000D01*
G36*
X138130000Y-129850000D02*
G01*
X137850000Y-129570000D01*
X138130000Y-129570000D01*
X138130000Y-129850000D01*
G37*
X144662164Y-119390000D02*
X144877836Y-119390000D01*
X144662164Y-120110000D02*
X144877836Y-120110000D01*
X137040000Y-129507836D02*
X137040000Y-129292164D01*
X137760000Y-129507836D02*
X137760000Y-129292164D01*
X123120000Y-88471359D02*
X123120000Y-88778641D01*
X123880000Y-88471359D02*
X123880000Y-88778641D01*
X148060000Y-129210000D02*
X148060000Y-127210000D01*
X150340000Y-129200000D02*
X150340000Y-127200000D01*
X148130000Y-129850000D02*
X147850000Y-129570000D01*
X148130000Y-129570000D01*
X148130000Y-129850000D01*
G36*
X148130000Y-129850000D02*
G01*
X147850000Y-129570000D01*
X148130000Y-129570000D01*
X148130000Y-129850000D01*
G37*
X150340000Y-121000000D02*
X150340000Y-114715000D01*
X150833292Y-121000000D02*
X150340000Y-121000000D01*
X151182077Y-114715000D02*
X150340000Y-114715000D01*
X152660000Y-114715000D02*
X151817923Y-114715000D01*
X152660000Y-121000000D02*
X152166708Y-121000000D01*
X152660000Y-121000000D02*
X152660000Y-114715000D01*
X152660000Y-121810000D02*
X152660000Y-122620000D01*
X152660000Y-122620000D02*
X151500000Y-122620000D01*
X147040000Y-127392164D02*
X147040000Y-127607836D01*
X147760000Y-127392164D02*
X147760000Y-127607836D01*
X138640000Y-83140000D02*
X138640000Y-87860000D01*
X138640000Y-87860000D02*
X142360000Y-87860000D01*
X139040000Y-83540000D02*
X139040000Y-87460000D01*
X139040000Y-85400000D02*
X139440000Y-85400000D01*
X139040000Y-85500000D02*
X139440000Y-85500000D01*
X139040000Y-87460000D02*
X141960000Y-87460000D01*
X139440000Y-85400000D02*
X139440000Y-85600000D01*
X139440000Y-85600000D02*
X139040000Y-85600000D01*
X140450000Y-83140000D02*
X140450000Y-83540000D01*
X140450000Y-87860000D02*
X140450000Y-87460000D01*
X141450000Y-83140000D02*
X141450000Y-83540000D01*
X141450000Y-87860000D02*
X141450000Y-87460000D01*
X141960000Y-83540000D02*
X139040000Y-83540000D01*
X141960000Y-87460000D02*
X141960000Y-83540000D01*
X142360000Y-83140000D02*
X138640000Y-83140000D01*
X142360000Y-84450000D02*
X142560000Y-84450000D01*
X142360000Y-87860000D02*
X142360000Y-83140000D01*
X142460000Y-84450000D02*
X142460000Y-84150000D01*
X142560000Y-82940000D02*
X141760000Y-82940000D01*
X142560000Y-83740000D02*
X142560000Y-82940000D01*
X142560000Y-84150000D02*
X142360000Y-84150000D01*
X142560000Y-84450000D02*
X142560000Y-84150000D01*
X144392164Y-102190000D02*
X144607836Y-102190000D01*
X144392164Y-102910000D02*
X144607836Y-102910000D01*
X128265000Y-92827064D02*
X128265000Y-92372936D01*
X129735000Y-92827064D02*
X129735000Y-92372936D01*
X143900000Y-88455000D02*
X147820000Y-88455000D01*
X147820000Y-86545000D02*
X143900000Y-86545000D01*
X147820000Y-88455000D02*
X147820000Y-86545000D01*
X125765000Y-85200000D02*
X125765000Y-87660000D01*
X125765000Y-87660000D02*
X127235000Y-87660000D01*
X127235000Y-87660000D02*
X127235000Y-85200000D01*
X144765000Y-81272936D02*
X144765000Y-81727064D01*
X146235000Y-81272936D02*
X146235000Y-81727064D01*
M02*
