%TF.GenerationSoftware,KiCad,Pcbnew,9.0.2*%
%TF.CreationDate,2025-07-21T23:07:32-07:00*%
%TF.ProjectId,servo-drive,73657276-6f2d-4647-9269-76652e6b6963,rev?*%
%TF.SameCoordinates,Original*%
%TF.FileFunction,Drillmap*%
%TF.FilePolarity,Positive*%
%FSLAX45Y45*%
G04 Gerber Fmt 4.5, Leading zero omitted, Abs format (unit mm)*
G04 Created by KiCad (PCBNEW 9.0.2) date 2025-07-21 23:07:32*
%MOMM*%
%LPD*%
G01*
G04 APERTURE LIST*
%ADD10C,0.100000*%
%ADD11C,0.200000*%
G04 APERTURE END LIST*
D10*
X13200000Y-7550000D02*
X13300000Y-7450000D01*
X15300000Y-13750000D02*
X15200000Y-13850000D01*
X15200000Y-13850000D02*
X13300000Y-13850000D01*
X15200000Y-7450000D02*
X15300000Y-7550000D01*
X13200000Y-8250000D02*
X13200000Y-7550000D01*
X12250000Y-12850000D02*
X12250000Y-8450000D01*
X12250000Y-8450000D02*
X12350000Y-8350000D01*
X13100000Y-12950000D02*
X12350000Y-12950000D01*
X13200000Y-8250000D02*
G75*
G02*
X13100000Y-8350000I-100000J0D01*
G01*
X12350000Y-8350000D02*
X13100000Y-8350000D01*
X13200000Y-13750000D02*
X13200000Y-13050000D01*
X15300000Y-7550000D02*
X15300000Y-13750000D01*
X13300000Y-7450000D02*
X15200000Y-7450000D01*
X13300000Y-13850000D02*
X13200000Y-13750000D01*
X12350000Y-12950000D02*
X12250000Y-12850000D01*
X13100000Y-12950000D02*
G75*
G02*
X13200000Y-13050000I0J-100000D01*
G01*
D11*
X12505777Y-14166484D02*
X12505777Y-13966484D01*
X12505777Y-13966484D02*
X12553396Y-13966484D01*
X12553396Y-13966484D02*
X12581967Y-13976008D01*
X12581967Y-13976008D02*
X12601015Y-13995055D01*
X12601015Y-13995055D02*
X12610539Y-14014103D01*
X12610539Y-14014103D02*
X12620062Y-14052198D01*
X12620062Y-14052198D02*
X12620062Y-14080769D01*
X12620062Y-14080769D02*
X12610539Y-14118865D01*
X12610539Y-14118865D02*
X12601015Y-14137912D01*
X12601015Y-14137912D02*
X12581967Y-14156960D01*
X12581967Y-14156960D02*
X12553396Y-14166484D01*
X12553396Y-14166484D02*
X12505777Y-14166484D01*
X12705777Y-14166484D02*
X12705777Y-14033150D01*
X12705777Y-14071246D02*
X12715301Y-14052198D01*
X12715301Y-14052198D02*
X12724824Y-14042674D01*
X12724824Y-14042674D02*
X12743872Y-14033150D01*
X12743872Y-14033150D02*
X12762920Y-14033150D01*
X12829586Y-14166484D02*
X12829586Y-14033150D01*
X12829586Y-13966484D02*
X12820062Y-13976008D01*
X12820062Y-13976008D02*
X12829586Y-13985531D01*
X12829586Y-13985531D02*
X12839110Y-13976008D01*
X12839110Y-13976008D02*
X12829586Y-13966484D01*
X12829586Y-13966484D02*
X12829586Y-13985531D01*
X12953396Y-14166484D02*
X12934348Y-14156960D01*
X12934348Y-14156960D02*
X12924824Y-14137912D01*
X12924824Y-14137912D02*
X12924824Y-13966484D01*
X13058158Y-14166484D02*
X13039110Y-14156960D01*
X13039110Y-14156960D02*
X13029586Y-14137912D01*
X13029586Y-14137912D02*
X13029586Y-13966484D01*
X13286729Y-14166484D02*
X13286729Y-13966484D01*
X13286729Y-13966484D02*
X13353396Y-14109341D01*
X13353396Y-14109341D02*
X13420062Y-13966484D01*
X13420062Y-13966484D02*
X13420062Y-14166484D01*
X13601015Y-14166484D02*
X13601015Y-14061722D01*
X13601015Y-14061722D02*
X13591491Y-14042674D01*
X13591491Y-14042674D02*
X13572443Y-14033150D01*
X13572443Y-14033150D02*
X13534348Y-14033150D01*
X13534348Y-14033150D02*
X13515301Y-14042674D01*
X13601015Y-14156960D02*
X13581967Y-14166484D01*
X13581967Y-14166484D02*
X13534348Y-14166484D01*
X13534348Y-14166484D02*
X13515301Y-14156960D01*
X13515301Y-14156960D02*
X13505777Y-14137912D01*
X13505777Y-14137912D02*
X13505777Y-14118865D01*
X13505777Y-14118865D02*
X13515301Y-14099817D01*
X13515301Y-14099817D02*
X13534348Y-14090293D01*
X13534348Y-14090293D02*
X13581967Y-14090293D01*
X13581967Y-14090293D02*
X13601015Y-14080769D01*
X13696253Y-14033150D02*
X13696253Y-14233150D01*
X13696253Y-14042674D02*
X13715301Y-14033150D01*
X13715301Y-14033150D02*
X13753396Y-14033150D01*
X13753396Y-14033150D02*
X13772443Y-14042674D01*
X13772443Y-14042674D02*
X13781967Y-14052198D01*
X13781967Y-14052198D02*
X13791491Y-14071246D01*
X13791491Y-14071246D02*
X13791491Y-14128388D01*
X13791491Y-14128388D02*
X13781967Y-14147436D01*
X13781967Y-14147436D02*
X13772443Y-14156960D01*
X13772443Y-14156960D02*
X13753396Y-14166484D01*
X13753396Y-14166484D02*
X13715301Y-14166484D01*
X13715301Y-14166484D02*
X13696253Y-14156960D01*
X13877205Y-14147436D02*
X13886729Y-14156960D01*
X13886729Y-14156960D02*
X13877205Y-14166484D01*
X13877205Y-14166484D02*
X13867682Y-14156960D01*
X13867682Y-14156960D02*
X13877205Y-14147436D01*
X13877205Y-14147436D02*
X13877205Y-14166484D01*
X13877205Y-14042674D02*
X13886729Y-14052198D01*
X13886729Y-14052198D02*
X13877205Y-14061722D01*
X13877205Y-14061722D02*
X13867682Y-14052198D01*
X13867682Y-14052198D02*
X13877205Y-14042674D01*
X13877205Y-14042674D02*
X13877205Y-14061722D01*
M02*
