M48
; DRILL file {KiCad 9.0.2} date 2025-07-21T23:07:32-0700
; FORMAT={-:-/ absolute / metric / decimal}
; #@! TF.CreationDate,2025-07-21T23:07:32-07:00
; #@! TF.GenerationSoftware,Kicad,Pcbnew,9.0.2
; #@! TF.FileFunction,Plated,1,4,PTH
FMAT,2
METRIC
; #@! TA.AperFunction,Plated,PTH,ComponentDrill
T1C0.250
; #@! TA.AperFunction,Plated,PTH,ViaDrill
T2C0.254
; #@! TA.AperFunction,Plated,PTH,ViaDrill
T3C0.300
; #@! TA.AperFunction,Plated,PTH,ComponentDrill
T4C0.650
; #@! TA.AperFunction,Plated,PTH,ComponentDrill
T5C0.730
; #@! TA.AperFunction,Plated,PTH,ComponentDrill
T6C1.750
%
G90
G05
T1
X135.3Y-84.8
X136.3Y-84.8
X138.7Y-128.2
X139.7Y-128.2
X145.3Y-84.8
X146.3Y-84.8
X148.7Y-128.2
X149.7Y-128.2
T2
X124.25Y-89.135
X125.75Y-89.135
X128.25Y-90.25
X128.5Y-94.5
X128.5Y-96.5
X128.5Y-98.75
X128.5Y-101.0
X128.75Y-86.25
X129.5Y-94.5
X129.5Y-96.5
X129.5Y-98.75
X129.5Y-101.0
X129.75Y-86.25
X131.25Y-96.5
X131.25Y-98.75
X131.25Y-101.0
X131.25Y-103.25
X132.0Y-96.5
X132.0Y-98.75
X132.0Y-101.0
X132.0Y-103.25
X132.452Y-91.798
X132.75Y-103.75
X132.75Y-104.5
X133.5Y-84.0
X133.5Y-85.0
X133.5Y-86.0
X133.569Y-91.716
X134.1Y-92.066
X134.25Y-86.0
X134.25Y-101.75
X134.261Y-115.557
X134.5Y-84.0
X134.5Y-85.0
X134.6Y-123.9
X134.692Y-98.5
X134.75Y-116.0
X134.75Y-130.75
X134.75Y-133.5
X134.8Y-123.0
X134.964Y-92.0
X135.227Y-116.523
X135.25Y-101.0
X135.6Y-92.0
X135.75Y-99.0
X135.815Y-116.765
X135.948Y-102.25
X136.227Y-103.198
X136.3Y-92.0
X136.328Y-117.236
X136.5Y-125.0
X136.5Y-126.0
X136.5Y-127.0
X136.5Y-128.0
X136.5Y-129.0
X136.5Y-130.0
X136.599Y-102.682
X136.905Y-116.527
X137.1Y-126.4
X137.9Y-86.6
X138.0Y-108.5
X138.0Y-109.5
X138.0Y-111.5
X138.0Y-112.5
X138.2Y-103.857
X138.2Y-119.0
X138.377Y-116.25
X138.5Y-83.0
X138.5Y-84.0
X138.5Y-85.0
X138.5Y-86.0
X138.5Y-87.0
X138.5Y-88.0
X138.5Y-102.9
X138.6Y-119.5
X138.8Y-121.0
X139.045Y-103.227
X139.1Y-92.7
X139.166Y-105.678
X139.3Y-107.6
X139.436Y-121.0
X139.5Y-118.25
X139.508Y-117.611
X140.0Y-93.2
X140.0Y-108.5
X140.0Y-109.5
X140.0Y-111.5
X140.0Y-112.5
X140.1Y-121.0
X140.25Y-79.5
X140.25Y-82.25
X140.3Y-106.4
X140.5Y-115.1
X140.5Y-116.257
X140.5Y-128.0
X140.5Y-129.0
X140.739Y-110.74
X140.75Y-127.0
X140.788Y-116.824
X140.9Y-95.364
X140.9Y-96.0
X141.1Y-115.8
X141.25Y-92.5
X141.25Y-112.0
X141.373Y-104.695
X141.4Y-100.7
X141.5Y-117.25
X141.5Y-127.0
X141.5Y-128.0
X141.5Y-129.0
X141.7Y-115.1
X142.0Y-104.8
X142.1Y-100.7
X142.3Y-114.6
X142.5Y-92.5
X142.7Y-113.3
X142.9Y-114.1
X143.1Y-104.5
X143.114Y-92.5
X143.2Y-102.5
X143.2Y-103.136
X143.5Y-84.0
X143.5Y-85.0
X143.5Y-86.0
X143.7Y-114.5
X143.75Y-92.5
X143.75Y-96.5
X143.75Y-97.5
X144.0Y-101.75
X144.1Y-105.557
X144.2Y-113.7
X144.25Y-86.0
X144.312Y-114.326
X144.5Y-84.0
X144.5Y-85.0
X144.5Y-110.3
X144.707Y-106.398
X144.75Y-130.75
X144.75Y-133.5
X144.9Y-105.557
X145.0Y-92.5
X145.0Y-96.5
X145.0Y-101.75
X145.015Y-114.269
X145.2Y-110.2
X145.343Y-106.402
X145.4Y-109.5
X145.5Y-114.75
X145.6Y-92.0
X145.709Y-105.207
X145.75Y-97.5
X145.8Y-101.7
X146.0Y-119.75
X146.385Y-102.01
X146.5Y-125.0
X146.5Y-126.0
X146.5Y-127.0
X146.5Y-128.0
X146.5Y-129.0
X146.5Y-130.0
X146.514Y-102.924
X146.8Y-100.3
X146.8Y-109.6
X146.9Y-107.6
X147.1Y-95.8
X147.1Y-126.4
X147.107Y-110.742
X147.2Y-106.5
X147.6Y-111.2
X147.7Y-107.7
X147.9Y-86.6
X147.9Y-100.9
X147.9Y-110.6
X147.999Y-114.501
X148.096Y-102.975
X148.1Y-101.957
X148.5Y-83.0
X148.5Y-84.0
X148.5Y-85.0
X148.5Y-86.0
X148.5Y-87.0
X148.5Y-88.0
X148.5Y-108.8
X148.764Y-123.8
X148.8Y-106.1
X149.0Y-114.5
X149.1Y-106.8
X149.4Y-123.8
X149.553Y-101.942
X149.6Y-102.6
X149.6Y-109.9
X149.6Y-115.3
X149.7Y-100.5
X149.882Y-88.836
X149.9Y-88.2
X149.9Y-111.0
X150.036Y-123.8
X150.2Y-100.9
X150.25Y-79.5
X150.25Y-82.25
X150.25Y-92.5
X150.257Y-89.452
X150.4Y-112.3
X150.5Y-128.0
X150.5Y-129.0
X150.75Y-127.0
X151.5Y-102.5
X151.5Y-127.0
X151.5Y-128.0
X151.5Y-129.0
X151.75Y-94.5
X151.75Y-97.42
X152.2Y-110.0
X152.25Y-104.25
X152.3Y-110.8
T3
X123.7Y-90.9
X123.7Y-92.5
X123.7Y-94.1
X123.7Y-100.3
X124.1Y-99.2
X124.2Y-101.4
X125.3Y-94.1
X125.3Y-98.7
X125.3Y-101.9
X125.4Y-90.9
X126.5Y-99.2
X126.5Y-101.4
X126.9Y-90.9
X126.9Y-92.5
X126.9Y-94.1
X126.9Y-100.3
T4
X151.5Y-115.46
X151.5Y-116.73
X151.5Y-118.0
X151.5Y-119.27
X151.5Y-120.54
X151.5Y-121.81
T5
X125.5Y-114.5
X125.5Y-116.0
X125.5Y-117.5
X125.5Y-119.0
X125.5Y-123.0
X125.5Y-124.5
X125.5Y-126.0
X125.5Y-127.5
X130.0Y-114.5
X130.0Y-116.0
X130.0Y-117.5
X130.0Y-119.0
X130.0Y-123.0
X130.0Y-124.5
X130.0Y-126.0
X130.0Y-127.5
X134.0Y-126.8
X134.0Y-128.3
X134.5Y-76.5
X134.5Y-136.5
X136.0Y-76.5
X136.0Y-136.5
X137.5Y-76.5
X137.5Y-136.5
X139.0Y-76.5
X139.0Y-136.5
X140.5Y-76.5
X140.5Y-136.5
X140.95Y-84.75
X140.95Y-86.25
X144.05Y-126.75
X144.05Y-128.25
X144.5Y-76.5
X144.5Y-136.5
X146.0Y-76.5
X146.0Y-136.5
X147.5Y-76.5
X147.5Y-136.5
X149.0Y-76.5
X149.0Y-136.5
X150.5Y-76.5
X150.5Y-136.5
X150.95Y-84.75
X150.95Y-86.25
T6
X125.33Y-92.475
X125.33Y-100.275
M30
