G04 #@! TF.GenerationSoftware,KiCad,Pcbnew,9.0.2*
G04 #@! TF.CreationDate,2025-07-21T23:06:58-07:00*
G04 #@! TF.ProjectId,servo-drive,73657276-6f2d-4647-9269-76652e6b6963,rev?*
G04 #@! TF.SameCoordinates,Original*
G04 #@! TF.FileFunction,Legend,Bot*
G04 #@! TF.FilePolarity,Positive*
%FSLAX46Y46*%
G04 Gerber Fmt 4.6, Leading zero omitted, Abs format (unit mm)*
G04 Created by KiCad (PCBNEW 9.0.2) date 2025-07-21 23:06:58*
%MOMM*%
%LPD*%
G01*
G04 APERTURE LIST*
%ADD10C,0.150000*%
%ADD11C,0.200000*%
%ADD12C,0.350000*%
%ADD13C,0.250000*%
%ADD14C,0.400000*%
%ADD15C,0.000000*%
%ADD16C,0.120000*%
G04 APERTURE END LIST*
D10*
X127362000Y-119254000D02*
X127362000Y-118746000D01*
X144150000Y-99275401D02*
G75*
G02*
X143950000Y-99275401I-100000J0D01*
G01*
X143950000Y-99275401D02*
G75*
G02*
X144150000Y-99275401I100000J0D01*
G01*
X150622000Y-120523000D02*
X149098000Y-120269000D01*
X127108000Y-119381000D02*
X127108000Y-118619000D01*
X136000000Y-135300000D02*
X135400000Y-134100000D01*
X135862000Y-127054000D02*
X135862000Y-126546000D01*
X140750000Y-99000000D02*
X139850000Y-99000000D01*
X137763476Y-101011066D02*
X137763476Y-100600000D01*
X141550000Y-98600000D02*
X141077209Y-98127209D01*
X145700000Y-98525401D02*
X144950000Y-99275401D01*
X150622000Y-115443000D02*
X149098000Y-113919000D01*
X142350000Y-98600000D02*
G75*
G02*
X142150000Y-98600000I-100000J0D01*
G01*
X142150000Y-98600000D02*
G75*
G02*
X142350000Y-98600000I100000J0D01*
G01*
X150622000Y-116713000D02*
X149098000Y-115443000D01*
X144950000Y-99275401D02*
X144050000Y-99275401D01*
X141300000Y-99300000D02*
X140800000Y-99800000D01*
X142928650Y-101080851D02*
X142928650Y-101350000D01*
X127108000Y-127881000D02*
X127108000Y-127119000D01*
X146855964Y-97311905D02*
X145800000Y-97311905D01*
X142250000Y-98600000D02*
X141550000Y-98600000D01*
X139038000Y-85946000D02*
X139038000Y-86454000D01*
X140246000Y-78362000D02*
X140754000Y-78362000D01*
X138100000Y-78800000D02*
X137500000Y-77600000D01*
X140900000Y-99800000D02*
G75*
G02*
X140700000Y-99800000I-100000J0D01*
G01*
X140700000Y-99800000D02*
G75*
G02*
X140900000Y-99800000I100000J0D01*
G01*
X131100000Y-119000000D02*
X131608000Y-119000000D01*
X126600000Y-127500000D02*
X127108000Y-127500000D01*
X146900000Y-134100000D02*
X147500000Y-135300000D01*
X150373000Y-78616000D02*
X150627000Y-78616000D01*
X143550000Y-100650000D02*
X143550000Y-99500000D01*
X143750000Y-98633070D02*
G75*
G02*
X143550000Y-98633070I-100000J0D01*
G01*
X143550000Y-98633070D02*
G75*
G02*
X143750000Y-98633070I100000J0D01*
G01*
X139950000Y-99000000D02*
G75*
G02*
X139750000Y-99000000I-100000J0D01*
G01*
X139750000Y-99000000D02*
G75*
G02*
X139950000Y-99000000I100000J0D01*
G01*
X140786624Y-101492725D02*
X140443899Y-101150000D01*
X140119000Y-78108000D02*
X140881000Y-78108000D01*
X146715446Y-97983070D02*
X145500000Y-97983070D01*
X144473000Y-135416000D02*
X144473000Y-134908000D01*
X140500000Y-77600000D02*
X140500000Y-78108000D01*
X131100000Y-127500000D02*
X131608000Y-127500000D01*
X143550000Y-99500000D02*
X142900000Y-98850000D01*
X146364882Y-98525401D02*
X145700000Y-98525401D01*
X138900000Y-101571959D02*
X138900000Y-101928040D01*
X150246000Y-78362000D02*
X150754000Y-78362000D01*
X139150000Y-99350000D02*
X139150000Y-98600000D01*
X142900000Y-98850000D02*
X142900000Y-97918657D01*
X142650000Y-101100000D02*
X142650000Y-100250000D01*
X142650000Y-100250000D02*
X142400000Y-100000000D01*
X144850000Y-97611905D02*
X144300000Y-98100000D01*
X144854000Y-134908000D02*
X144092000Y-134908000D01*
X143850000Y-97950000D02*
G75*
G02*
X143650000Y-97950000I-100000J0D01*
G01*
X143650000Y-97950000D02*
G75*
G02*
X143850000Y-97950000I100000J0D01*
G01*
X140543899Y-101150000D02*
G75*
G02*
X140343899Y-101150000I-100000J0D01*
G01*
X140343899Y-101150000D02*
G75*
G02*
X140543899Y-101150000I100000J0D01*
G01*
X127616000Y-119127000D02*
X127616000Y-118873000D01*
X139850000Y-100050000D02*
X139150000Y-99350000D01*
X143900000Y-98100000D02*
X143750000Y-97950000D01*
X131862000Y-119254000D02*
X131862000Y-118746000D01*
X146000000Y-135300000D02*
X145400000Y-134100000D01*
X145800000Y-97311905D02*
X145500000Y-97611905D01*
X141250000Y-100500000D02*
X140300000Y-100500000D01*
X145500000Y-97983070D02*
X144850000Y-98633070D01*
X136900000Y-134100000D02*
X137500000Y-135300000D01*
X138180600Y-99000743D02*
X138180600Y-99750000D01*
X137972207Y-101249884D02*
X137972207Y-101638946D01*
X139500000Y-100850000D02*
X139500000Y-101500000D01*
X135608000Y-127181000D02*
X135608000Y-126419000D01*
X151754000Y-113938000D02*
X151246000Y-113938000D01*
X132116000Y-127627000D02*
X132116000Y-127373000D01*
X138784000Y-86073000D02*
X138784000Y-86327000D01*
X151881000Y-114192000D02*
X151119000Y-114192000D01*
X131608000Y-127881000D02*
X131608000Y-127119000D01*
X151500000Y-114700000D02*
X151500000Y-114192000D01*
X127362000Y-127754000D02*
X127362000Y-127246000D01*
X145500000Y-97611905D02*
X144850000Y-97611905D01*
X137263476Y-100100000D02*
X137263476Y-99446651D01*
X144600000Y-134400000D02*
X144346000Y-134400000D01*
X145962000Y-127054000D02*
X145962000Y-126546000D01*
X131862000Y-127754000D02*
X131862000Y-127246000D01*
X148100000Y-78900000D02*
X147500000Y-77700000D01*
X138180600Y-99750000D02*
X138680600Y-100250000D01*
X139000000Y-77600000D02*
X139600000Y-78800000D01*
X143750000Y-100650000D02*
X143750000Y-100916284D01*
X131608000Y-119381000D02*
X131608000Y-118619000D01*
X149000000Y-77700000D02*
X149600000Y-78900000D01*
X140373000Y-78616000D02*
X140627000Y-78616000D01*
X144298687Y-98100000D02*
X143900000Y-98100000D01*
X150500000Y-77600000D02*
X150500000Y-78108000D01*
X148784000Y-86073000D02*
X148784000Y-86327000D01*
X144850000Y-98633070D02*
X143650000Y-98633070D01*
X150622000Y-117983000D02*
X149098000Y-117094000D01*
X146216000Y-126927000D02*
X146216000Y-126673000D01*
X142400000Y-100000000D02*
X141750000Y-100000000D01*
X150119000Y-78108000D02*
X150881000Y-78108000D01*
X134500000Y-135400000D02*
X134500000Y-134892000D01*
X139600000Y-100850000D02*
G75*
G02*
X139400000Y-100850000I-100000J0D01*
G01*
X139400000Y-100850000D02*
G75*
G02*
X139600000Y-100850000I100000J0D01*
G01*
X135100000Y-126800000D02*
X135608000Y-126800000D01*
X134627000Y-134384000D02*
X134373000Y-134384000D01*
X139292000Y-85819000D02*
X139292000Y-86581000D01*
X149800000Y-86200000D02*
X149292000Y-86200000D01*
X139800000Y-101655204D02*
X139800000Y-102008100D01*
X139800000Y-86200000D02*
X139292000Y-86200000D01*
X140850000Y-99000000D02*
G75*
G02*
X140650000Y-99000000I-100000J0D01*
G01*
X140650000Y-99000000D02*
G75*
G02*
X140850000Y-99000000I100000J0D01*
G01*
X132116000Y-119127000D02*
X132116000Y-118873000D01*
X127616000Y-127627000D02*
X127616000Y-127373000D01*
X145708000Y-127181000D02*
X145708000Y-126419000D01*
X141724196Y-101767963D02*
X141420128Y-101463895D01*
X134754000Y-134638000D02*
X134246000Y-134638000D01*
X151627000Y-113684000D02*
X151373000Y-113684000D01*
X136116000Y-126927000D02*
X136116000Y-126673000D01*
X149038000Y-85946000D02*
X149038000Y-86454000D01*
X142200000Y-99300000D02*
X141300000Y-99300000D01*
X145200000Y-126800000D02*
X145708000Y-126800000D01*
X150622000Y-121793000D02*
X149098000Y-121793000D01*
X149292000Y-85819000D02*
X149292000Y-86581000D01*
X138680600Y-100250000D02*
X138680600Y-101384551D01*
X134881000Y-134892000D02*
X134119000Y-134892000D01*
X141750000Y-100000000D02*
X141250000Y-100500000D01*
X126600000Y-119000000D02*
X127108000Y-119000000D01*
X142300000Y-99300000D02*
G75*
G02*
X142100000Y-99300000I-100000J0D01*
G01*
X142100000Y-99300000D02*
G75*
G02*
X142300000Y-99300000I100000J0D01*
G01*
X140300000Y-100500000D02*
X139850000Y-100050000D01*
X150622000Y-119253000D02*
X149098000Y-118618000D01*
X137763476Y-100600000D02*
X137263476Y-100100000D01*
X144727000Y-134654000D02*
X144219000Y-134654000D01*
D11*
X145732780Y-82930326D02*
X146732780Y-82930326D01*
X146732780Y-82930326D02*
X146018495Y-82596993D01*
X146018495Y-82596993D02*
X146732780Y-82263660D01*
X146732780Y-82263660D02*
X145732780Y-82263660D01*
X146113733Y-81787469D02*
X146113733Y-81025565D01*
X145732780Y-81406517D02*
X146494685Y-81406517D01*
X145399447Y-80311279D02*
X146828019Y-80311279D01*
X146732780Y-79739850D02*
X145732780Y-79406517D01*
X145732780Y-79406517D02*
X146732780Y-79073184D01*
X146113733Y-78739850D02*
X146113733Y-77977946D01*
X145732780Y-78358898D02*
X146494685Y-78358898D01*
X135732780Y-82830326D02*
X136732780Y-82830326D01*
X136732780Y-82830326D02*
X136018495Y-82496993D01*
X136018495Y-82496993D02*
X136732780Y-82163660D01*
X136732780Y-82163660D02*
X135732780Y-82163660D01*
X136113733Y-81687469D02*
X136113733Y-80925565D01*
X135732780Y-81306517D02*
X136494685Y-81306517D01*
X135399447Y-80211279D02*
X136828019Y-80211279D01*
X136732780Y-79639850D02*
X135732780Y-79306517D01*
X135732780Y-79306517D02*
X136732780Y-78973184D01*
X136113733Y-78639850D02*
X136113733Y-77877946D01*
X135732780Y-78258898D02*
X136494685Y-78258898D01*
X136367219Y-131274435D02*
X136367219Y-131893482D01*
X136367219Y-131893482D02*
X136748171Y-131560149D01*
X136748171Y-131560149D02*
X136748171Y-131703006D01*
X136748171Y-131703006D02*
X136795790Y-131798244D01*
X136795790Y-131798244D02*
X136843409Y-131845863D01*
X136843409Y-131845863D02*
X136938647Y-131893482D01*
X136938647Y-131893482D02*
X137176742Y-131893482D01*
X137176742Y-131893482D02*
X137271980Y-131845863D01*
X137271980Y-131845863D02*
X137319600Y-131798244D01*
X137319600Y-131798244D02*
X137367219Y-131703006D01*
X137367219Y-131703006D02*
X137367219Y-131417292D01*
X137367219Y-131417292D02*
X137319600Y-131322054D01*
X137319600Y-131322054D02*
X137271980Y-131274435D01*
X136700552Y-132226816D02*
X137367219Y-132464911D01*
X137367219Y-132464911D02*
X136700552Y-132703006D01*
X136367219Y-132988721D02*
X136367219Y-133607768D01*
X136367219Y-133607768D02*
X136748171Y-133274435D01*
X136748171Y-133274435D02*
X136748171Y-133417292D01*
X136748171Y-133417292D02*
X136795790Y-133512530D01*
X136795790Y-133512530D02*
X136843409Y-133560149D01*
X136843409Y-133560149D02*
X136938647Y-133607768D01*
X136938647Y-133607768D02*
X137176742Y-133607768D01*
X137176742Y-133607768D02*
X137271980Y-133560149D01*
X137271980Y-133560149D02*
X137319600Y-133512530D01*
X137319600Y-133512530D02*
X137367219Y-133417292D01*
X137367219Y-133417292D02*
X137367219Y-133131578D01*
X137367219Y-133131578D02*
X137319600Y-133036340D01*
X137319600Y-133036340D02*
X137271980Y-132988721D01*
X135269673Y-127732780D02*
X135269673Y-128732780D01*
X135269673Y-128732780D02*
X135841101Y-127732780D01*
X135841101Y-127732780D02*
X135841101Y-128732780D01*
X136174435Y-128732780D02*
X136745863Y-128732780D01*
X136460149Y-127732780D02*
X136460149Y-128732780D01*
X137650625Y-127828019D02*
X137603006Y-127780400D01*
X137603006Y-127780400D02*
X137460149Y-127732780D01*
X137460149Y-127732780D02*
X137364911Y-127732780D01*
X137364911Y-127732780D02*
X137222054Y-127780400D01*
X137222054Y-127780400D02*
X137126816Y-127875638D01*
X137126816Y-127875638D02*
X137079197Y-127970876D01*
X137079197Y-127970876D02*
X137031578Y-128161352D01*
X137031578Y-128161352D02*
X137031578Y-128304209D01*
X137031578Y-128304209D02*
X137079197Y-128494685D01*
X137079197Y-128494685D02*
X137126816Y-128589923D01*
X137126816Y-128589923D02*
X137222054Y-128685161D01*
X137222054Y-128685161D02*
X137364911Y-128732780D01*
X137364911Y-128732780D02*
X137460149Y-128732780D01*
X137460149Y-128732780D02*
X137603006Y-128685161D01*
X137603006Y-128685161D02*
X137650625Y-128637542D01*
X141067219Y-130069673D02*
X140067219Y-130069673D01*
X140067219Y-130069673D02*
X140781504Y-130403006D01*
X140781504Y-130403006D02*
X140067219Y-130736339D01*
X140067219Y-130736339D02*
X141067219Y-130736339D01*
X140686266Y-131212530D02*
X140686266Y-131974435D01*
X141400552Y-132688720D02*
X139971980Y-132688720D01*
X141019600Y-133355387D02*
X141067219Y-133498244D01*
X141067219Y-133498244D02*
X141067219Y-133736339D01*
X141067219Y-133736339D02*
X141019600Y-133831577D01*
X141019600Y-133831577D02*
X140971980Y-133879196D01*
X140971980Y-133879196D02*
X140876742Y-133926815D01*
X140876742Y-133926815D02*
X140781504Y-133926815D01*
X140781504Y-133926815D02*
X140686266Y-133879196D01*
X140686266Y-133879196D02*
X140638647Y-133831577D01*
X140638647Y-133831577D02*
X140591028Y-133736339D01*
X140591028Y-133736339D02*
X140543409Y-133545863D01*
X140543409Y-133545863D02*
X140495790Y-133450625D01*
X140495790Y-133450625D02*
X140448171Y-133403006D01*
X140448171Y-133403006D02*
X140352933Y-133355387D01*
X140352933Y-133355387D02*
X140257695Y-133355387D01*
X140257695Y-133355387D02*
X140162457Y-133403006D01*
X140162457Y-133403006D02*
X140114838Y-133450625D01*
X140114838Y-133450625D02*
X140067219Y-133545863D01*
X140067219Y-133545863D02*
X140067219Y-133783958D01*
X140067219Y-133783958D02*
X140114838Y-133926815D01*
X141067219Y-134355387D02*
X140067219Y-134355387D01*
X140114838Y-135355386D02*
X140067219Y-135260148D01*
X140067219Y-135260148D02*
X140067219Y-135117291D01*
X140067219Y-135117291D02*
X140114838Y-134974434D01*
X140114838Y-134974434D02*
X140210076Y-134879196D01*
X140210076Y-134879196D02*
X140305314Y-134831577D01*
X140305314Y-134831577D02*
X140495790Y-134783958D01*
X140495790Y-134783958D02*
X140638647Y-134783958D01*
X140638647Y-134783958D02*
X140829123Y-134831577D01*
X140829123Y-134831577D02*
X140924361Y-134879196D01*
X140924361Y-134879196D02*
X141019600Y-134974434D01*
X141019600Y-134974434D02*
X141067219Y-135117291D01*
X141067219Y-135117291D02*
X141067219Y-135212529D01*
X141067219Y-135212529D02*
X141019600Y-135355386D01*
X141019600Y-135355386D02*
X140971980Y-135403005D01*
X140971980Y-135403005D02*
X140638647Y-135403005D01*
X140638647Y-135403005D02*
X140638647Y-135212529D01*
X149132780Y-81630326D02*
X150132780Y-81630326D01*
X150132780Y-81630326D02*
X150132780Y-81249374D01*
X150132780Y-81249374D02*
X150085161Y-81154136D01*
X150085161Y-81154136D02*
X150037542Y-81106517D01*
X150037542Y-81106517D02*
X149942304Y-81058898D01*
X149942304Y-81058898D02*
X149799447Y-81058898D01*
X149799447Y-81058898D02*
X149704209Y-81106517D01*
X149704209Y-81106517D02*
X149656590Y-81154136D01*
X149656590Y-81154136D02*
X149608971Y-81249374D01*
X149608971Y-81249374D02*
X149608971Y-81630326D01*
X150132780Y-80439850D02*
X150132780Y-80249374D01*
X150132780Y-80249374D02*
X150085161Y-80154136D01*
X150085161Y-80154136D02*
X149989923Y-80058898D01*
X149989923Y-80058898D02*
X149799447Y-80011279D01*
X149799447Y-80011279D02*
X149466114Y-80011279D01*
X149466114Y-80011279D02*
X149275638Y-80058898D01*
X149275638Y-80058898D02*
X149180400Y-80154136D01*
X149180400Y-80154136D02*
X149132780Y-80249374D01*
X149132780Y-80249374D02*
X149132780Y-80439850D01*
X149132780Y-80439850D02*
X149180400Y-80535088D01*
X149180400Y-80535088D02*
X149275638Y-80630326D01*
X149275638Y-80630326D02*
X149466114Y-80677945D01*
X149466114Y-80677945D02*
X149799447Y-80677945D01*
X149799447Y-80677945D02*
X149989923Y-80630326D01*
X149989923Y-80630326D02*
X150085161Y-80535088D01*
X150085161Y-80535088D02*
X150132780Y-80439850D01*
X150132780Y-79725564D02*
X150132780Y-79154136D01*
X149132780Y-79439850D02*
X150132780Y-79439850D01*
D12*
G36*
X139599610Y-105926699D02*
G01*
X139592685Y-105826767D01*
X139578068Y-105752224D01*
X139331101Y-105752224D01*
X139344779Y-105817962D01*
X139350677Y-105891394D01*
X139345651Y-105940663D01*
X139331016Y-105984487D01*
X139303817Y-106020898D01*
X139256558Y-106050140D01*
X139195427Y-106066968D01*
X139099779Y-106073734D01*
X137788525Y-106073734D01*
X137788525Y-106369683D01*
X139097813Y-106369683D01*
X139217367Y-106362603D01*
X139312955Y-106343241D01*
X139388889Y-106313775D01*
X139457265Y-106270648D01*
X139510195Y-106218925D01*
X139549601Y-106157936D01*
X139576829Y-106089653D01*
X139593728Y-106013070D01*
X139599610Y-105926699D01*
G37*
G36*
X139188000Y-106712221D02*
G01*
X137788525Y-106712221D01*
X137788525Y-107012102D01*
X138941033Y-107012102D01*
X138941033Y-107578526D01*
X139188000Y-107578526D01*
X139188000Y-106712221D01*
G37*
G36*
X138784254Y-108204874D02*
G01*
X138541220Y-108204874D01*
X138541220Y-108720349D01*
X138784254Y-108720349D01*
X138784254Y-108204874D01*
G37*
G36*
X139599610Y-109314641D02*
G01*
X139592685Y-109214709D01*
X139578068Y-109140166D01*
X139331101Y-109140166D01*
X139344779Y-109205904D01*
X139350677Y-109279335D01*
X139345651Y-109328605D01*
X139331016Y-109372429D01*
X139303817Y-109408840D01*
X139256558Y-109438081D01*
X139195427Y-109454909D01*
X139099779Y-109461675D01*
X137788525Y-109461675D01*
X137788525Y-109757624D01*
X139097813Y-109757624D01*
X139217367Y-109750544D01*
X139312955Y-109731182D01*
X139388889Y-109701717D01*
X139457265Y-109658590D01*
X139510195Y-109606866D01*
X139549601Y-109545878D01*
X139576829Y-109477594D01*
X139593728Y-109401011D01*
X139599610Y-109314641D01*
G37*
G36*
X138694067Y-111248739D02*
G01*
X138789123Y-111241415D01*
X138875858Y-111220051D01*
X138955737Y-111184967D01*
X139027258Y-111135973D01*
X139088437Y-111072556D01*
X139139957Y-110992882D01*
X139176018Y-110904774D01*
X139199227Y-110797942D01*
X139207576Y-110668552D01*
X139200968Y-110554695D01*
X139182372Y-110457732D01*
X139153195Y-110375161D01*
X139114206Y-110304855D01*
X139065500Y-110245145D01*
X138990152Y-110182636D01*
X138904005Y-110137730D01*
X138804958Y-110109906D01*
X138690135Y-110100162D01*
X137788525Y-110100162D01*
X137788525Y-110396111D01*
X138645084Y-110396111D01*
X138733725Y-110401645D01*
X138800949Y-110416448D01*
X138851210Y-110438465D01*
X138888118Y-110466637D01*
X138925633Y-110518080D01*
X138949765Y-110586292D01*
X138958643Y-110676417D01*
X138953022Y-110749220D01*
X138937625Y-110806663D01*
X138913905Y-110851833D01*
X138882220Y-110887052D01*
X138827226Y-110921193D01*
X138749933Y-110944114D01*
X138643118Y-110952790D01*
X137788525Y-110952790D01*
X137788525Y-111248739D01*
X138694067Y-111248739D01*
G37*
G36*
X139188000Y-111581446D02*
G01*
X137788525Y-111581446D01*
X137788525Y-111881328D01*
X138941033Y-111881328D01*
X138941033Y-112447751D01*
X139188000Y-112447751D01*
X139188000Y-111581446D01*
G37*
G36*
X139188000Y-114075642D02*
G01*
X139188000Y-113097608D01*
X138982237Y-113097608D01*
X138627474Y-113448439D01*
X138444195Y-113618981D01*
X138370717Y-113677229D01*
X138310923Y-113713015D01*
X138249122Y-113735020D01*
X138182525Y-113742422D01*
X138128266Y-113736649D01*
X138087557Y-113720946D01*
X138057118Y-113696345D01*
X138034894Y-113663446D01*
X138020926Y-113622700D01*
X138015915Y-113571965D01*
X138025102Y-113493121D01*
X138053186Y-113415100D01*
X138096532Y-113339309D01*
X138159017Y-113254388D01*
X137968898Y-113093676D01*
X137870932Y-113222074D01*
X137830632Y-113293702D01*
X137797415Y-113378854D01*
X137776620Y-113473051D01*
X137768949Y-113593507D01*
X137774935Y-113683871D01*
X137791931Y-113761970D01*
X137818957Y-113829702D01*
X137856924Y-113891701D01*
X137901885Y-113942223D01*
X137954195Y-113982549D01*
X138013021Y-114012322D01*
X138076935Y-114030329D01*
X138147220Y-114036490D01*
X138223258Y-114031214D01*
X138293526Y-114015774D01*
X138358966Y-113990414D01*
X138452238Y-113935614D01*
X138549085Y-113857057D01*
X138644516Y-113764362D01*
X138756813Y-113646422D01*
X138925390Y-113466134D01*
X138939067Y-113466134D01*
X138939067Y-114075642D01*
X139188000Y-114075642D01*
G37*
G36*
X138660431Y-114218594D02*
G01*
X138802906Y-114242574D01*
X138920279Y-114279442D01*
X139016517Y-114327566D01*
X139085053Y-114379792D01*
X139137498Y-114441365D01*
X139175459Y-114513415D01*
X139199193Y-114598010D01*
X139207576Y-114697973D01*
X139201521Y-114788426D01*
X139184480Y-114865009D01*
X139157627Y-114929964D01*
X139121407Y-114985117D01*
X139057873Y-115048037D01*
X138976667Y-115099729D01*
X138874441Y-115139930D01*
X138766222Y-115165523D01*
X138638474Y-115182060D01*
X138488305Y-115187973D01*
X138313998Y-115179133D01*
X138170466Y-115154695D01*
X138052897Y-115117211D01*
X137957101Y-115068379D01*
X137888816Y-115015471D01*
X137836595Y-114953504D01*
X137798845Y-114881380D01*
X137775287Y-114797109D01*
X137766982Y-114697973D01*
X138006084Y-114697973D01*
X138013549Y-114748279D01*
X138035064Y-114789264D01*
X138071738Y-114823293D01*
X138127644Y-114850820D01*
X138210376Y-114872692D01*
X138327505Y-114888087D01*
X138488305Y-114893990D01*
X138650460Y-114888048D01*
X138767396Y-114872619D01*
X138848966Y-114850820D01*
X138903772Y-114823400D01*
X138939852Y-114789436D01*
X138961090Y-114748420D01*
X138968474Y-114697973D01*
X138960971Y-114646649D01*
X138939490Y-114605417D01*
X138903121Y-114571750D01*
X138847940Y-114545126D01*
X138765879Y-114524327D01*
X138649133Y-114509646D01*
X138488305Y-114504007D01*
X138327445Y-114509635D01*
X138210304Y-114524306D01*
X138127644Y-114545126D01*
X138071913Y-114571804D01*
X138035248Y-114605504D01*
X138013628Y-114646721D01*
X138006084Y-114697973D01*
X137766982Y-114697973D01*
X137773001Y-114608684D01*
X137789995Y-114532575D01*
X137816868Y-114467536D01*
X137853237Y-114411855D01*
X137916862Y-114348441D01*
X137998071Y-114296732D01*
X138100203Y-114256956D01*
X138208321Y-114231956D01*
X138336675Y-114215749D01*
X138488305Y-114209939D01*
X138660431Y-114218594D01*
G37*
G36*
X139188000Y-116316033D02*
G01*
X139188000Y-115337999D01*
X138982237Y-115337999D01*
X138627474Y-115688829D01*
X138444195Y-115859372D01*
X138370717Y-115917619D01*
X138310923Y-115953406D01*
X138249122Y-115975411D01*
X138182525Y-115982812D01*
X138128266Y-115977040D01*
X138087557Y-115961336D01*
X138057118Y-115936736D01*
X138034894Y-115903837D01*
X138020926Y-115863091D01*
X138015915Y-115812355D01*
X138025102Y-115733512D01*
X138053186Y-115655490D01*
X138096532Y-115579700D01*
X138159017Y-115494779D01*
X137968898Y-115334067D01*
X137870932Y-115462465D01*
X137830632Y-115534093D01*
X137797415Y-115619245D01*
X137776620Y-115713441D01*
X137768949Y-115833898D01*
X137774935Y-115924262D01*
X137791931Y-116002361D01*
X137818957Y-116070093D01*
X137856924Y-116132092D01*
X137901885Y-116182614D01*
X137954195Y-116222940D01*
X138013021Y-116252713D01*
X138076935Y-116270720D01*
X138147220Y-116276881D01*
X138223258Y-116271604D01*
X138293526Y-116256165D01*
X138358966Y-116230804D01*
X138452238Y-116176005D01*
X138549085Y-116097448D01*
X138644516Y-116004753D01*
X138756813Y-115886813D01*
X138925390Y-115706525D01*
X138939067Y-115706525D01*
X138939067Y-116316033D01*
X139188000Y-116316033D01*
G37*
G36*
X138294254Y-116967771D02*
G01*
X138299965Y-117051601D01*
X138316472Y-117126970D01*
X138343237Y-117195161D01*
X138381084Y-117257336D01*
X138428522Y-117309595D01*
X138486339Y-117352880D01*
X138551409Y-117384090D01*
X138628301Y-117403770D01*
X138719542Y-117410754D01*
X138831600Y-117401145D01*
X138926611Y-117373895D01*
X139007747Y-117330197D01*
X139077296Y-117269618D01*
X139131213Y-117196029D01*
X139171803Y-117104637D01*
X139198067Y-116991617D01*
X139207576Y-116852195D01*
X139202554Y-116744283D01*
X139188000Y-116645407D01*
X139163293Y-116552398D01*
X139131152Y-116475804D01*
X138876321Y-116475804D01*
X138909824Y-116552784D01*
X138940093Y-116650279D01*
X138960160Y-116751128D01*
X138966508Y-116842364D01*
X138959600Y-116928498D01*
X138940970Y-116993935D01*
X138912652Y-117043254D01*
X138871891Y-117080740D01*
X138817504Y-117104256D01*
X138745016Y-117112839D01*
X138680685Y-117105143D01*
X138630574Y-117083726D01*
X138591254Y-117049065D01*
X138561181Y-116998948D01*
X138540984Y-116928858D01*
X138533355Y-116832533D01*
X138544127Y-116718838D01*
X138564728Y-116620872D01*
X138501982Y-116503245D01*
X137788525Y-116556246D01*
X137788525Y-117314754D01*
X138039423Y-117314754D01*
X138039423Y-116814923D01*
X138313830Y-116789449D01*
X138301093Y-116861000D01*
X138294254Y-116967771D01*
G37*
D13*
X139740142Y-125128571D02*
X138540142Y-125128571D01*
X138540142Y-125128571D02*
X139397285Y-125528571D01*
X139397285Y-125528571D02*
X138540142Y-125928571D01*
X138540142Y-125928571D02*
X139740142Y-125928571D01*
X138654428Y-126442857D02*
X138597285Y-126500000D01*
X138597285Y-126500000D02*
X138540142Y-126614286D01*
X138540142Y-126614286D02*
X138540142Y-126900000D01*
X138540142Y-126900000D02*
X138597285Y-127014286D01*
X138597285Y-127014286D02*
X138654428Y-127071428D01*
X138654428Y-127071428D02*
X138768714Y-127128571D01*
X138768714Y-127128571D02*
X138883000Y-127128571D01*
X138883000Y-127128571D02*
X139054428Y-127071428D01*
X139054428Y-127071428D02*
X139740142Y-126385714D01*
X139740142Y-126385714D02*
X139740142Y-127128571D01*
D11*
X143932780Y-82930326D02*
X144932780Y-82930326D01*
X144932780Y-82930326D02*
X144218495Y-82596993D01*
X144218495Y-82596993D02*
X144932780Y-82263660D01*
X144932780Y-82263660D02*
X143932780Y-82263660D01*
X144313733Y-81787469D02*
X144313733Y-81025565D01*
X143599447Y-80311279D02*
X145028019Y-80311279D01*
X143980400Y-79644612D02*
X143932780Y-79501755D01*
X143932780Y-79501755D02*
X143932780Y-79263660D01*
X143932780Y-79263660D02*
X143980400Y-79168422D01*
X143980400Y-79168422D02*
X144028019Y-79120803D01*
X144028019Y-79120803D02*
X144123257Y-79073184D01*
X144123257Y-79073184D02*
X144218495Y-79073184D01*
X144218495Y-79073184D02*
X144313733Y-79120803D01*
X144313733Y-79120803D02*
X144361352Y-79168422D01*
X144361352Y-79168422D02*
X144408971Y-79263660D01*
X144408971Y-79263660D02*
X144456590Y-79454136D01*
X144456590Y-79454136D02*
X144504209Y-79549374D01*
X144504209Y-79549374D02*
X144551828Y-79596993D01*
X144551828Y-79596993D02*
X144647066Y-79644612D01*
X144647066Y-79644612D02*
X144742304Y-79644612D01*
X144742304Y-79644612D02*
X144837542Y-79596993D01*
X144837542Y-79596993D02*
X144885161Y-79549374D01*
X144885161Y-79549374D02*
X144932780Y-79454136D01*
X144932780Y-79454136D02*
X144932780Y-79216041D01*
X144932780Y-79216041D02*
X144885161Y-79073184D01*
X143932780Y-78644612D02*
X144932780Y-78644612D01*
X144885161Y-77644613D02*
X144932780Y-77739851D01*
X144932780Y-77739851D02*
X144932780Y-77882708D01*
X144932780Y-77882708D02*
X144885161Y-78025565D01*
X144885161Y-78025565D02*
X144789923Y-78120803D01*
X144789923Y-78120803D02*
X144694685Y-78168422D01*
X144694685Y-78168422D02*
X144504209Y-78216041D01*
X144504209Y-78216041D02*
X144361352Y-78216041D01*
X144361352Y-78216041D02*
X144170876Y-78168422D01*
X144170876Y-78168422D02*
X144075638Y-78120803D01*
X144075638Y-78120803D02*
X143980400Y-78025565D01*
X143980400Y-78025565D02*
X143932780Y-77882708D01*
X143932780Y-77882708D02*
X143932780Y-77787470D01*
X143932780Y-77787470D02*
X143980400Y-77644613D01*
X143980400Y-77644613D02*
X144028019Y-77596994D01*
X144028019Y-77596994D02*
X144361352Y-77596994D01*
X144361352Y-77596994D02*
X144361352Y-77787470D01*
X128796993Y-123199712D02*
X128668422Y-123247331D01*
X128668422Y-123247331D02*
X128454136Y-123247331D01*
X128454136Y-123247331D02*
X128368422Y-123199712D01*
X128368422Y-123199712D02*
X128325564Y-123152092D01*
X128325564Y-123152092D02*
X128282707Y-123056854D01*
X128282707Y-123056854D02*
X128282707Y-122961616D01*
X128282707Y-122961616D02*
X128325564Y-122866378D01*
X128325564Y-122866378D02*
X128368422Y-122818759D01*
X128368422Y-122818759D02*
X128454136Y-122771140D01*
X128454136Y-122771140D02*
X128625564Y-122723521D01*
X128625564Y-122723521D02*
X128711279Y-122675902D01*
X128711279Y-122675902D02*
X128754136Y-122628283D01*
X128754136Y-122628283D02*
X128796993Y-122533045D01*
X128796993Y-122533045D02*
X128796993Y-122437807D01*
X128796993Y-122437807D02*
X128754136Y-122342569D01*
X128754136Y-122342569D02*
X128711279Y-122294950D01*
X128711279Y-122294950D02*
X128625564Y-122247331D01*
X128625564Y-122247331D02*
X128411279Y-122247331D01*
X128411279Y-122247331D02*
X128282707Y-122294950D01*
X127382707Y-123152092D02*
X127425564Y-123199712D01*
X127425564Y-123199712D02*
X127554136Y-123247331D01*
X127554136Y-123247331D02*
X127639850Y-123247331D01*
X127639850Y-123247331D02*
X127768421Y-123199712D01*
X127768421Y-123199712D02*
X127854136Y-123104473D01*
X127854136Y-123104473D02*
X127896993Y-123009235D01*
X127896993Y-123009235D02*
X127939850Y-122818759D01*
X127939850Y-122818759D02*
X127939850Y-122675902D01*
X127939850Y-122675902D02*
X127896993Y-122485426D01*
X127896993Y-122485426D02*
X127854136Y-122390188D01*
X127854136Y-122390188D02*
X127768421Y-122294950D01*
X127768421Y-122294950D02*
X127639850Y-122247331D01*
X127639850Y-122247331D02*
X127554136Y-122247331D01*
X127554136Y-122247331D02*
X127425564Y-122294950D01*
X127425564Y-122294950D02*
X127382707Y-122342569D01*
X126568421Y-123247331D02*
X126996993Y-123247331D01*
X126996993Y-123247331D02*
X126996993Y-122247331D01*
X128796993Y-124809656D02*
X128668422Y-124857275D01*
X128668422Y-124857275D02*
X128454136Y-124857275D01*
X128454136Y-124857275D02*
X128368422Y-124809656D01*
X128368422Y-124809656D02*
X128325564Y-124762036D01*
X128325564Y-124762036D02*
X128282707Y-124666798D01*
X128282707Y-124666798D02*
X128282707Y-124571560D01*
X128282707Y-124571560D02*
X128325564Y-124476322D01*
X128325564Y-124476322D02*
X128368422Y-124428703D01*
X128368422Y-124428703D02*
X128454136Y-124381084D01*
X128454136Y-124381084D02*
X128625564Y-124333465D01*
X128625564Y-124333465D02*
X128711279Y-124285846D01*
X128711279Y-124285846D02*
X128754136Y-124238227D01*
X128754136Y-124238227D02*
X128796993Y-124142989D01*
X128796993Y-124142989D02*
X128796993Y-124047751D01*
X128796993Y-124047751D02*
X128754136Y-123952513D01*
X128754136Y-123952513D02*
X128711279Y-123904894D01*
X128711279Y-123904894D02*
X128625564Y-123857275D01*
X128625564Y-123857275D02*
X128411279Y-123857275D01*
X128411279Y-123857275D02*
X128282707Y-123904894D01*
X127896993Y-124857275D02*
X127896993Y-123857275D01*
X127896993Y-123857275D02*
X127682707Y-123857275D01*
X127682707Y-123857275D02*
X127554136Y-123904894D01*
X127554136Y-123904894D02*
X127468421Y-124000132D01*
X127468421Y-124000132D02*
X127425564Y-124095370D01*
X127425564Y-124095370D02*
X127382707Y-124285846D01*
X127382707Y-124285846D02*
X127382707Y-124428703D01*
X127382707Y-124428703D02*
X127425564Y-124619179D01*
X127425564Y-124619179D02*
X127468421Y-124714417D01*
X127468421Y-124714417D02*
X127554136Y-124809656D01*
X127554136Y-124809656D02*
X127682707Y-124857275D01*
X127682707Y-124857275D02*
X127896993Y-124857275D01*
X127039850Y-124571560D02*
X126611279Y-124571560D01*
X127125564Y-124857275D02*
X126825564Y-123857275D01*
X126825564Y-123857275D02*
X126525564Y-124857275D01*
X128882707Y-125467219D02*
X128582707Y-126467219D01*
X128582707Y-126467219D02*
X128282707Y-125467219D01*
X127596993Y-126467219D02*
X127596993Y-125467219D01*
X127596993Y-126419600D02*
X127682707Y-126467219D01*
X127682707Y-126467219D02*
X127854135Y-126467219D01*
X127854135Y-126467219D02*
X127939850Y-126419600D01*
X127939850Y-126419600D02*
X127982707Y-126371980D01*
X127982707Y-126371980D02*
X128025564Y-126276742D01*
X128025564Y-126276742D02*
X128025564Y-125991028D01*
X128025564Y-125991028D02*
X127982707Y-125895790D01*
X127982707Y-125895790D02*
X127939850Y-125848171D01*
X127939850Y-125848171D02*
X127854135Y-125800552D01*
X127854135Y-125800552D02*
X127682707Y-125800552D01*
X127682707Y-125800552D02*
X127596993Y-125848171D01*
X126782707Y-126467219D02*
X126782707Y-125467219D01*
X126782707Y-126419600D02*
X126868421Y-126467219D01*
X126868421Y-126467219D02*
X127039849Y-126467219D01*
X127039849Y-126467219D02*
X127125564Y-126419600D01*
X127125564Y-126419600D02*
X127168421Y-126371980D01*
X127168421Y-126371980D02*
X127211278Y-126276742D01*
X127211278Y-126276742D02*
X127211278Y-125991028D01*
X127211278Y-125991028D02*
X127168421Y-125895790D01*
X127168421Y-125895790D02*
X127125564Y-125848171D01*
X127125564Y-125848171D02*
X127039849Y-125800552D01*
X127039849Y-125800552D02*
X126868421Y-125800552D01*
X126868421Y-125800552D02*
X126782707Y-125848171D01*
X128676189Y-121667219D02*
X128676189Y-120667219D01*
X128247618Y-120762457D02*
X128199999Y-120714838D01*
X128199999Y-120714838D02*
X128104761Y-120667219D01*
X128104761Y-120667219D02*
X127866666Y-120667219D01*
X127866666Y-120667219D02*
X127771428Y-120714838D01*
X127771428Y-120714838D02*
X127723809Y-120762457D01*
X127723809Y-120762457D02*
X127676190Y-120857695D01*
X127676190Y-120857695D02*
X127676190Y-120952933D01*
X127676190Y-120952933D02*
X127723809Y-121095790D01*
X127723809Y-121095790D02*
X128295237Y-121667219D01*
X128295237Y-121667219D02*
X127676190Y-121667219D01*
X126676190Y-121571980D02*
X126723809Y-121619600D01*
X126723809Y-121619600D02*
X126866666Y-121667219D01*
X126866666Y-121667219D02*
X126961904Y-121667219D01*
X126961904Y-121667219D02*
X127104761Y-121619600D01*
X127104761Y-121619600D02*
X127199999Y-121524361D01*
X127199999Y-121524361D02*
X127247618Y-121429123D01*
X127247618Y-121429123D02*
X127295237Y-121238647D01*
X127295237Y-121238647D02*
X127295237Y-121095790D01*
X127295237Y-121095790D02*
X127247618Y-120905314D01*
X127247618Y-120905314D02*
X127199999Y-120810076D01*
X127199999Y-120810076D02*
X127104761Y-120714838D01*
X127104761Y-120714838D02*
X126961904Y-120667219D01*
X126961904Y-120667219D02*
X126866666Y-120667219D01*
X126866666Y-120667219D02*
X126723809Y-120714838D01*
X126723809Y-120714838D02*
X126676190Y-120762457D01*
X139132780Y-81530326D02*
X140132780Y-81530326D01*
X140132780Y-81530326D02*
X140132780Y-81149374D01*
X140132780Y-81149374D02*
X140085161Y-81054136D01*
X140085161Y-81054136D02*
X140037542Y-81006517D01*
X140037542Y-81006517D02*
X139942304Y-80958898D01*
X139942304Y-80958898D02*
X139799447Y-80958898D01*
X139799447Y-80958898D02*
X139704209Y-81006517D01*
X139704209Y-81006517D02*
X139656590Y-81054136D01*
X139656590Y-81054136D02*
X139608971Y-81149374D01*
X139608971Y-81149374D02*
X139608971Y-81530326D01*
X140132780Y-80339850D02*
X140132780Y-80149374D01*
X140132780Y-80149374D02*
X140085161Y-80054136D01*
X140085161Y-80054136D02*
X139989923Y-79958898D01*
X139989923Y-79958898D02*
X139799447Y-79911279D01*
X139799447Y-79911279D02*
X139466114Y-79911279D01*
X139466114Y-79911279D02*
X139275638Y-79958898D01*
X139275638Y-79958898D02*
X139180400Y-80054136D01*
X139180400Y-80054136D02*
X139132780Y-80149374D01*
X139132780Y-80149374D02*
X139132780Y-80339850D01*
X139132780Y-80339850D02*
X139180400Y-80435088D01*
X139180400Y-80435088D02*
X139275638Y-80530326D01*
X139275638Y-80530326D02*
X139466114Y-80577945D01*
X139466114Y-80577945D02*
X139799447Y-80577945D01*
X139799447Y-80577945D02*
X139989923Y-80530326D01*
X139989923Y-80530326D02*
X140085161Y-80435088D01*
X140085161Y-80435088D02*
X140132780Y-80339850D01*
X140132780Y-79625564D02*
X140132780Y-79054136D01*
X139132780Y-79339850D02*
X140132780Y-79339850D01*
X145369673Y-127732780D02*
X145369673Y-128732780D01*
X145369673Y-128732780D02*
X145941101Y-127732780D01*
X145941101Y-127732780D02*
X145941101Y-128732780D01*
X146274435Y-128732780D02*
X146845863Y-128732780D01*
X146560149Y-127732780D02*
X146560149Y-128732780D01*
X147750625Y-127828019D02*
X147703006Y-127780400D01*
X147703006Y-127780400D02*
X147560149Y-127732780D01*
X147560149Y-127732780D02*
X147464911Y-127732780D01*
X147464911Y-127732780D02*
X147322054Y-127780400D01*
X147322054Y-127780400D02*
X147226816Y-127875638D01*
X147226816Y-127875638D02*
X147179197Y-127970876D01*
X147179197Y-127970876D02*
X147131578Y-128161352D01*
X147131578Y-128161352D02*
X147131578Y-128304209D01*
X147131578Y-128304209D02*
X147179197Y-128494685D01*
X147179197Y-128494685D02*
X147226816Y-128589923D01*
X147226816Y-128589923D02*
X147322054Y-128685161D01*
X147322054Y-128685161D02*
X147464911Y-128732780D01*
X147464911Y-128732780D02*
X147560149Y-128732780D01*
X147560149Y-128732780D02*
X147703006Y-128685161D01*
X147703006Y-128685161D02*
X147750625Y-128637542D01*
X133932780Y-82830326D02*
X134932780Y-82830326D01*
X134932780Y-82830326D02*
X134218495Y-82496993D01*
X134218495Y-82496993D02*
X134932780Y-82163660D01*
X134932780Y-82163660D02*
X133932780Y-82163660D01*
X134313733Y-81687469D02*
X134313733Y-80925565D01*
X133599447Y-80211279D02*
X135028019Y-80211279D01*
X133980400Y-79544612D02*
X133932780Y-79401755D01*
X133932780Y-79401755D02*
X133932780Y-79163660D01*
X133932780Y-79163660D02*
X133980400Y-79068422D01*
X133980400Y-79068422D02*
X134028019Y-79020803D01*
X134028019Y-79020803D02*
X134123257Y-78973184D01*
X134123257Y-78973184D02*
X134218495Y-78973184D01*
X134218495Y-78973184D02*
X134313733Y-79020803D01*
X134313733Y-79020803D02*
X134361352Y-79068422D01*
X134361352Y-79068422D02*
X134408971Y-79163660D01*
X134408971Y-79163660D02*
X134456590Y-79354136D01*
X134456590Y-79354136D02*
X134504209Y-79449374D01*
X134504209Y-79449374D02*
X134551828Y-79496993D01*
X134551828Y-79496993D02*
X134647066Y-79544612D01*
X134647066Y-79544612D02*
X134742304Y-79544612D01*
X134742304Y-79544612D02*
X134837542Y-79496993D01*
X134837542Y-79496993D02*
X134885161Y-79449374D01*
X134885161Y-79449374D02*
X134932780Y-79354136D01*
X134932780Y-79354136D02*
X134932780Y-79116041D01*
X134932780Y-79116041D02*
X134885161Y-78973184D01*
X133932780Y-78544612D02*
X134932780Y-78544612D01*
X134885161Y-77544613D02*
X134932780Y-77639851D01*
X134932780Y-77639851D02*
X134932780Y-77782708D01*
X134932780Y-77782708D02*
X134885161Y-77925565D01*
X134885161Y-77925565D02*
X134789923Y-78020803D01*
X134789923Y-78020803D02*
X134694685Y-78068422D01*
X134694685Y-78068422D02*
X134504209Y-78116041D01*
X134504209Y-78116041D02*
X134361352Y-78116041D01*
X134361352Y-78116041D02*
X134170876Y-78068422D01*
X134170876Y-78068422D02*
X134075638Y-78020803D01*
X134075638Y-78020803D02*
X133980400Y-77925565D01*
X133980400Y-77925565D02*
X133932780Y-77782708D01*
X133932780Y-77782708D02*
X133932780Y-77687470D01*
X133932780Y-77687470D02*
X133980400Y-77544613D01*
X133980400Y-77544613D02*
X134028019Y-77496994D01*
X134028019Y-77496994D02*
X134361352Y-77496994D01*
X134361352Y-77496994D02*
X134361352Y-77687470D01*
X149267219Y-130069673D02*
X148267219Y-130069673D01*
X148267219Y-130069673D02*
X148981504Y-130403006D01*
X148981504Y-130403006D02*
X148267219Y-130736339D01*
X148267219Y-130736339D02*
X149267219Y-130736339D01*
X148886266Y-131212530D02*
X148886266Y-131974435D01*
X149267219Y-131593482D02*
X148505314Y-131593482D01*
X149600552Y-132688720D02*
X148171980Y-132688720D01*
X148267219Y-133260149D02*
X149267219Y-133593482D01*
X149267219Y-133593482D02*
X148267219Y-133926815D01*
X148886266Y-134260149D02*
X148886266Y-135022054D01*
X149267219Y-134641101D02*
X148505314Y-134641101D01*
X145867219Y-131369673D02*
X144867219Y-131369673D01*
X144867219Y-131369673D02*
X144867219Y-131750625D01*
X144867219Y-131750625D02*
X144914838Y-131845863D01*
X144914838Y-131845863D02*
X144962457Y-131893482D01*
X144962457Y-131893482D02*
X145057695Y-131941101D01*
X145057695Y-131941101D02*
X145200552Y-131941101D01*
X145200552Y-131941101D02*
X145295790Y-131893482D01*
X145295790Y-131893482D02*
X145343409Y-131845863D01*
X145343409Y-131845863D02*
X145391028Y-131750625D01*
X145391028Y-131750625D02*
X145391028Y-131369673D01*
X144867219Y-132560149D02*
X144867219Y-132750625D01*
X144867219Y-132750625D02*
X144914838Y-132845863D01*
X144914838Y-132845863D02*
X145010076Y-132941101D01*
X145010076Y-132941101D02*
X145200552Y-132988720D01*
X145200552Y-132988720D02*
X145533885Y-132988720D01*
X145533885Y-132988720D02*
X145724361Y-132941101D01*
X145724361Y-132941101D02*
X145819600Y-132845863D01*
X145819600Y-132845863D02*
X145867219Y-132750625D01*
X145867219Y-132750625D02*
X145867219Y-132560149D01*
X145867219Y-132560149D02*
X145819600Y-132464911D01*
X145819600Y-132464911D02*
X145724361Y-132369673D01*
X145724361Y-132369673D02*
X145533885Y-132322054D01*
X145533885Y-132322054D02*
X145200552Y-132322054D01*
X145200552Y-132322054D02*
X145010076Y-132369673D01*
X145010076Y-132369673D02*
X144914838Y-132464911D01*
X144914838Y-132464911D02*
X144867219Y-132560149D01*
X144867219Y-133274435D02*
X144867219Y-133845863D01*
X145867219Y-133560149D02*
X144867219Y-133560149D01*
D13*
X145159857Y-87671428D02*
X146359857Y-87671428D01*
X146359857Y-87671428D02*
X145502714Y-87271428D01*
X145502714Y-87271428D02*
X146359857Y-86871428D01*
X146359857Y-86871428D02*
X145159857Y-86871428D01*
X145159857Y-85671428D02*
X145159857Y-86357142D01*
X145159857Y-86014285D02*
X146359857Y-86014285D01*
X146359857Y-86014285D02*
X146188428Y-86128571D01*
X146188428Y-86128571D02*
X146074142Y-86242856D01*
X146074142Y-86242856D02*
X146017000Y-86357142D01*
D11*
X128586266Y-93728571D02*
X128586266Y-94490476D01*
X128967219Y-94109523D02*
X128205314Y-94109523D01*
X128443409Y-96061904D02*
X128491028Y-96204761D01*
X128491028Y-96204761D02*
X128538647Y-96252380D01*
X128538647Y-96252380D02*
X128633885Y-96299999D01*
X128633885Y-96299999D02*
X128776742Y-96299999D01*
X128776742Y-96299999D02*
X128871980Y-96252380D01*
X128871980Y-96252380D02*
X128919600Y-96204761D01*
X128919600Y-96204761D02*
X128967219Y-96109523D01*
X128967219Y-96109523D02*
X128967219Y-95728571D01*
X128967219Y-95728571D02*
X127967219Y-95728571D01*
X127967219Y-95728571D02*
X127967219Y-96061904D01*
X127967219Y-96061904D02*
X128014838Y-96157142D01*
X128014838Y-96157142D02*
X128062457Y-96204761D01*
X128062457Y-96204761D02*
X128157695Y-96252380D01*
X128157695Y-96252380D02*
X128252933Y-96252380D01*
X128252933Y-96252380D02*
X128348171Y-96204761D01*
X128348171Y-96204761D02*
X128395790Y-96157142D01*
X128395790Y-96157142D02*
X128443409Y-96061904D01*
X128443409Y-96061904D02*
X128443409Y-95728571D01*
X128681504Y-96680952D02*
X128681504Y-97157142D01*
X128967219Y-96585714D02*
X127967219Y-96919047D01*
X127967219Y-96919047D02*
X128967219Y-97252380D01*
X127967219Y-97442857D02*
X127967219Y-98014285D01*
X128967219Y-97728571D02*
X127967219Y-97728571D01*
X128586266Y-99109524D02*
X128586266Y-99871429D01*
X149630326Y-85267219D02*
X149630326Y-84267219D01*
X149630326Y-84267219D02*
X149058898Y-85267219D01*
X149058898Y-85267219D02*
X149058898Y-84267219D01*
X148725564Y-84267219D02*
X148154136Y-84267219D01*
X148439850Y-85267219D02*
X148439850Y-84267219D01*
X147249374Y-85171980D02*
X147296993Y-85219600D01*
X147296993Y-85219600D02*
X147439850Y-85267219D01*
X147439850Y-85267219D02*
X147535088Y-85267219D01*
X147535088Y-85267219D02*
X147677945Y-85219600D01*
X147677945Y-85219600D02*
X147773183Y-85124361D01*
X147773183Y-85124361D02*
X147820802Y-85029123D01*
X147820802Y-85029123D02*
X147868421Y-84838647D01*
X147868421Y-84838647D02*
X147868421Y-84695790D01*
X147868421Y-84695790D02*
X147820802Y-84505314D01*
X147820802Y-84505314D02*
X147773183Y-84410076D01*
X147773183Y-84410076D02*
X147677945Y-84314838D01*
X147677945Y-84314838D02*
X147535088Y-84267219D01*
X147535088Y-84267219D02*
X147439850Y-84267219D01*
X147439850Y-84267219D02*
X147296993Y-84314838D01*
X147296993Y-84314838D02*
X147249374Y-84362457D01*
X135576322Y-120571429D02*
X135576322Y-121333334D01*
X135957275Y-120952381D02*
X135195370Y-120952381D01*
X134957275Y-122285714D02*
X134957275Y-121809524D01*
X134957275Y-121809524D02*
X135433465Y-121761905D01*
X135433465Y-121761905D02*
X135385846Y-121809524D01*
X135385846Y-121809524D02*
X135338227Y-121904762D01*
X135338227Y-121904762D02*
X135338227Y-122142857D01*
X135338227Y-122142857D02*
X135385846Y-122238095D01*
X135385846Y-122238095D02*
X135433465Y-122285714D01*
X135433465Y-122285714D02*
X135528703Y-122333333D01*
X135528703Y-122333333D02*
X135766798Y-122333333D01*
X135766798Y-122333333D02*
X135862036Y-122285714D01*
X135862036Y-122285714D02*
X135909656Y-122238095D01*
X135909656Y-122238095D02*
X135957275Y-122142857D01*
X135957275Y-122142857D02*
X135957275Y-121904762D01*
X135957275Y-121904762D02*
X135909656Y-121809524D01*
X135909656Y-121809524D02*
X135862036Y-121761905D01*
X136290608Y-123000000D02*
X134862036Y-123000000D01*
X135576322Y-123714286D02*
X135576322Y-124476191D01*
X135957275Y-124095238D02*
X135195370Y-124095238D01*
X134957275Y-124857143D02*
X134957275Y-125476190D01*
X134957275Y-125476190D02*
X135338227Y-125142857D01*
X135338227Y-125142857D02*
X135338227Y-125285714D01*
X135338227Y-125285714D02*
X135385846Y-125380952D01*
X135385846Y-125380952D02*
X135433465Y-125428571D01*
X135433465Y-125428571D02*
X135528703Y-125476190D01*
X135528703Y-125476190D02*
X135766798Y-125476190D01*
X135766798Y-125476190D02*
X135862036Y-125428571D01*
X135862036Y-125428571D02*
X135909656Y-125380952D01*
X135909656Y-125380952D02*
X135957275Y-125285714D01*
X135957275Y-125285714D02*
X135957275Y-125000000D01*
X135957275Y-125000000D02*
X135909656Y-124904762D01*
X135909656Y-124904762D02*
X135862036Y-124857143D01*
X136567219Y-121452381D02*
X137567219Y-121785714D01*
X137567219Y-121785714D02*
X136567219Y-122119047D01*
X137567219Y-122452381D02*
X136567219Y-122452381D01*
X136662457Y-122880952D02*
X136614838Y-122928571D01*
X136614838Y-122928571D02*
X136567219Y-123023809D01*
X136567219Y-123023809D02*
X136567219Y-123261904D01*
X136567219Y-123261904D02*
X136614838Y-123357142D01*
X136614838Y-123357142D02*
X136662457Y-123404761D01*
X136662457Y-123404761D02*
X136757695Y-123452380D01*
X136757695Y-123452380D02*
X136852933Y-123452380D01*
X136852933Y-123452380D02*
X136995790Y-123404761D01*
X136995790Y-123404761D02*
X137567219Y-122833333D01*
X137567219Y-122833333D02*
X137567219Y-123452380D01*
X137471980Y-124452380D02*
X137519600Y-124404761D01*
X137519600Y-124404761D02*
X137567219Y-124261904D01*
X137567219Y-124261904D02*
X137567219Y-124166666D01*
X137567219Y-124166666D02*
X137519600Y-124023809D01*
X137519600Y-124023809D02*
X137424361Y-123928571D01*
X137424361Y-123928571D02*
X137329123Y-123880952D01*
X137329123Y-123880952D02*
X137138647Y-123833333D01*
X137138647Y-123833333D02*
X136995790Y-123833333D01*
X136995790Y-123833333D02*
X136805314Y-123880952D01*
X136805314Y-123880952D02*
X136710076Y-123928571D01*
X136710076Y-123928571D02*
X136614838Y-124023809D01*
X136614838Y-124023809D02*
X136567219Y-124166666D01*
X136567219Y-124166666D02*
X136567219Y-124261904D01*
X136567219Y-124261904D02*
X136614838Y-124404761D01*
X136614838Y-124404761D02*
X136662457Y-124452380D01*
D14*
G36*
X133523050Y-89276930D02*
G01*
X133512080Y-89446713D01*
X133480880Y-89594188D01*
X133431214Y-89722722D01*
X133379294Y-89811860D01*
X133316517Y-89889486D01*
X133242340Y-89956633D01*
X133155708Y-90013859D01*
X133062995Y-90057115D01*
X132956953Y-90089358D01*
X132835566Y-90109749D01*
X132696532Y-90116930D01*
X132543866Y-90107267D01*
X132413125Y-90079964D01*
X132300965Y-90036834D01*
X132204609Y-89978675D01*
X132121975Y-89905220D01*
X132053271Y-89818104D01*
X131998693Y-89717935D01*
X131958215Y-89602786D01*
X131932657Y-89470198D01*
X131923650Y-89317278D01*
X131923650Y-89308290D01*
X132203650Y-89308290D01*
X132212462Y-89418735D01*
X132237025Y-89509194D01*
X132275606Y-89583435D01*
X132328018Y-89644271D01*
X132392662Y-89691045D01*
X132475006Y-89726699D01*
X132579095Y-89750044D01*
X132709916Y-89758576D01*
X132846237Y-89749375D01*
X132955550Y-89724084D01*
X133042834Y-89685224D01*
X133112088Y-89633895D01*
X133166064Y-89569680D01*
X133206024Y-89490688D01*
X133231594Y-89393749D01*
X133240802Y-89274682D01*
X133240802Y-89131361D01*
X132203650Y-89131361D01*
X132203650Y-89308290D01*
X131923650Y-89308290D01*
X131923650Y-88788639D01*
X133523050Y-88788639D01*
X133523050Y-89276930D01*
G37*
G36*
X132277606Y-91076413D02*
G01*
X132282100Y-91148025D01*
X132291089Y-91210844D01*
X132606846Y-91177237D01*
X132596881Y-91119009D01*
X132593461Y-91038311D01*
X132600596Y-90969535D01*
X132622575Y-90899386D01*
X132660742Y-90836450D01*
X132718904Y-90784103D01*
X132765934Y-90759808D01*
X132826048Y-90743980D01*
X132902575Y-90738186D01*
X133523050Y-90738186D01*
X133523050Y-90399958D01*
X132299979Y-90399958D01*
X132299979Y-90657488D01*
X132506120Y-90706825D01*
X132506120Y-90722456D01*
X132419309Y-90785554D01*
X132344822Y-90869197D01*
X132307350Y-90933849D01*
X132285116Y-91002432D01*
X132277606Y-91076413D01*
G37*
G36*
X133259745Y-91288827D02*
G01*
X133338009Y-91310224D01*
X133400952Y-91343559D01*
X133451340Y-91388555D01*
X133502945Y-91464916D01*
X133534431Y-91553433D01*
X133545422Y-91657418D01*
X133539578Y-91760213D01*
X133523922Y-91838876D01*
X133500677Y-91898241D01*
X133444875Y-91980192D01*
X133357257Y-92065108D01*
X133357257Y-92074096D01*
X133523050Y-92139065D01*
X133523050Y-92374222D01*
X132707669Y-92374222D01*
X132601881Y-92365589D01*
X132515335Y-92341520D01*
X132444359Y-92303662D01*
X132386246Y-92252100D01*
X132341061Y-92188650D01*
X132307212Y-92111126D01*
X132285443Y-92016631D01*
X132277606Y-91901563D01*
X132285157Y-91757091D01*
X132306720Y-91629379D01*
X132341717Y-91509777D01*
X132385171Y-91408779D01*
X132615834Y-91507355D01*
X132550865Y-91679791D01*
X132530557Y-91767043D01*
X132523999Y-91850077D01*
X132529363Y-91906765D01*
X132544226Y-91951856D01*
X132567669Y-91987830D01*
X132600563Y-92013947D01*
X132649682Y-92031500D01*
X132721151Y-92038241D01*
X132759253Y-92038241D01*
X132956308Y-92038241D01*
X133057132Y-92038241D01*
X133131460Y-92029471D01*
X133189947Y-92004983D01*
X133236308Y-91965359D01*
X133270854Y-91913829D01*
X133291778Y-91855160D01*
X133299030Y-91787355D01*
X133289172Y-91719020D01*
X133262100Y-91669728D01*
X133234509Y-91646426D01*
X133197122Y-91631545D01*
X133146720Y-91626057D01*
X133093034Y-91633238D01*
X133049852Y-91653649D01*
X133014634Y-91687606D01*
X132990833Y-91731927D01*
X132972541Y-91802802D01*
X132963050Y-91910551D01*
X132956308Y-92038241D01*
X132759253Y-92038241D01*
X132765897Y-91834348D01*
X132778630Y-91692940D01*
X132802290Y-91579782D01*
X132834760Y-91490142D01*
X132874634Y-91419916D01*
X132928650Y-91359610D01*
X132993052Y-91316886D01*
X133069888Y-91290437D01*
X133162449Y-91281089D01*
X133259745Y-91288827D01*
G37*
G36*
X133068522Y-92647213D02*
G01*
X133195094Y-92672670D01*
X133298255Y-92711875D01*
X133381975Y-92763447D01*
X133453916Y-92832148D01*
X133504209Y-92910002D01*
X133534798Y-92998854D01*
X133545422Y-93101675D01*
X133539437Y-93184097D01*
X133522643Y-93253111D01*
X133496183Y-93311040D01*
X133438887Y-93387100D01*
X133366246Y-93446643D01*
X133366246Y-93457781D01*
X133444696Y-93449965D01*
X133516308Y-93446643D01*
X133549916Y-93446643D01*
X133622716Y-93437878D01*
X133681344Y-93413143D01*
X133729093Y-93372687D01*
X133763576Y-93319657D01*
X133785872Y-93250302D01*
X133794061Y-93159902D01*
X133787494Y-93025362D01*
X133769442Y-92915659D01*
X133739931Y-92811470D01*
X133699979Y-92707369D01*
X133986720Y-92707369D01*
X134020971Y-92808514D01*
X134043873Y-92917906D01*
X134056229Y-93033554D01*
X134060677Y-93171040D01*
X134050573Y-93330704D01*
X134022994Y-93457273D01*
X133981031Y-93556924D01*
X133926246Y-93634710D01*
X133854380Y-93698221D01*
X133767063Y-93744767D01*
X133661074Y-93774298D01*
X133532038Y-93784871D01*
X132299979Y-93784871D01*
X132299979Y-93498130D01*
X132454536Y-93469016D01*
X132454536Y-93457781D01*
X132382098Y-93394288D01*
X132325771Y-93315534D01*
X132299837Y-93256240D01*
X132289827Y-93213636D01*
X132544124Y-93213636D01*
X132550653Y-93283311D01*
X132568563Y-93337496D01*
X132596522Y-93379603D01*
X132634885Y-93411863D01*
X132698319Y-93441218D01*
X132787256Y-93461352D01*
X132909316Y-93469016D01*
X132958555Y-93469016D01*
X133068309Y-93461345D01*
X133147246Y-93441248D01*
X133202798Y-93411863D01*
X133244554Y-93367985D01*
X133271229Y-93306256D01*
X133281151Y-93220377D01*
X133271921Y-93150694D01*
X133245834Y-93095366D01*
X133202571Y-93050846D01*
X133138330Y-93015949D01*
X133046468Y-92992082D01*
X132918207Y-92982973D01*
X132797967Y-92990750D01*
X132707517Y-93011487D01*
X132640454Y-93042275D01*
X132586425Y-93088331D01*
X132555002Y-93144325D01*
X132544124Y-93213636D01*
X132289827Y-93213636D01*
X132283429Y-93186408D01*
X132277606Y-93103922D01*
X132288274Y-93002397D01*
X132319126Y-92913876D01*
X132370115Y-92835523D01*
X132443398Y-92765597D01*
X132528299Y-92712997D01*
X132632311Y-92673133D01*
X132759283Y-92647321D01*
X132913810Y-92638004D01*
X133068522Y-92647213D01*
G37*
G36*
X133043446Y-94061838D02*
G01*
X133157720Y-94087755D01*
X133255359Y-94128765D01*
X133343592Y-94186697D01*
X133415088Y-94256221D01*
X133471563Y-94338228D01*
X133511995Y-94429655D01*
X133536835Y-94530926D01*
X133545422Y-94644020D01*
X133534114Y-94780094D01*
X133502044Y-94895744D01*
X133450693Y-94994684D01*
X133379728Y-95079651D01*
X133292640Y-95146989D01*
X133187780Y-95196765D01*
X133061549Y-95228447D01*
X132909316Y-95239777D01*
X132775123Y-95230564D01*
X132661242Y-95204596D01*
X132564347Y-95163573D01*
X132476801Y-95105778D01*
X132406060Y-95036637D01*
X132350391Y-94955283D01*
X132310604Y-94864666D01*
X132286097Y-94763801D01*
X132277606Y-94650663D01*
X132277965Y-94646267D01*
X132535234Y-94646267D01*
X132541869Y-94710512D01*
X132560385Y-94761968D01*
X132589971Y-94803434D01*
X132631563Y-94836581D01*
X132698552Y-94866837D01*
X132789000Y-94887246D01*
X132909316Y-94894906D01*
X133028023Y-94887348D01*
X133119119Y-94867022D01*
X133188241Y-94836581D01*
X133231602Y-94803226D01*
X133262161Y-94761955D01*
X133281131Y-94711244D01*
X133287892Y-94648416D01*
X133281042Y-94583204D01*
X133261927Y-94531105D01*
X133231347Y-94489219D01*
X133188241Y-94455855D01*
X133119126Y-94425467D01*
X133028030Y-94405174D01*
X132909316Y-94397627D01*
X132788992Y-94405275D01*
X132698545Y-94425652D01*
X132631563Y-94455855D01*
X132589976Y-94489002D01*
X132560390Y-94530481D01*
X132541871Y-94581968D01*
X132535234Y-94646267D01*
X132277965Y-94646267D01*
X132288827Y-94513229D01*
X132320584Y-94396806D01*
X132371295Y-94297598D01*
X132441151Y-94212784D01*
X132527168Y-94145525D01*
X132631228Y-94095752D01*
X132757022Y-94064023D01*
X132909316Y-94052659D01*
X133043446Y-94061838D01*
G37*
G36*
X132277606Y-96208737D02*
G01*
X132285027Y-96309304D01*
X132305930Y-96394143D01*
X132339010Y-96465951D01*
X132383999Y-96526839D01*
X132440551Y-96574770D01*
X132513547Y-96610977D01*
X132606894Y-96634629D01*
X132725645Y-96643294D01*
X133523050Y-96643294D01*
X133523050Y-96307313D01*
X132810740Y-96307313D01*
X132704648Y-96297222D01*
X132632608Y-96271052D01*
X132585146Y-96232253D01*
X132556620Y-96180155D01*
X132546371Y-96110161D01*
X132553869Y-96035471D01*
X132574338Y-95978511D01*
X132606326Y-95935164D01*
X132650614Y-95902945D01*
X132722418Y-95874656D01*
X132819805Y-95855393D01*
X132949567Y-95848137D01*
X133523050Y-95848137D01*
X133523050Y-95509909D01*
X132299979Y-95509909D01*
X132299979Y-95769686D01*
X132463524Y-95816776D01*
X132463524Y-95830161D01*
X132397272Y-95883363D01*
X132346253Y-95946157D01*
X132309132Y-96019786D01*
X132285844Y-96106370D01*
X132277606Y-96208737D01*
G37*
G36*
X132550865Y-97652896D02*
G01*
X132550865Y-97363908D01*
X133523050Y-97363908D01*
X133523050Y-97030174D01*
X132550865Y-97030174D01*
X132550865Y-96846504D01*
X132389567Y-96846504D01*
X132299979Y-97030174D01*
X132210391Y-97030174D01*
X132106607Y-97036992D01*
X132027313Y-97055306D01*
X131967418Y-97082736D01*
X131915524Y-97122797D01*
X131875103Y-97172363D01*
X131845297Y-97232798D01*
X131818969Y-97335425D01*
X131809442Y-97462484D01*
X131813579Y-97558564D01*
X131825171Y-97640488D01*
X131842906Y-97715963D01*
X131860928Y-97769351D01*
X132105171Y-97684257D01*
X132083873Y-97601312D01*
X132073810Y-97498339D01*
X132079072Y-97454072D01*
X132093470Y-97421002D01*
X132116406Y-97396343D01*
X132163189Y-97372425D01*
X132223873Y-97363908D01*
X132299979Y-97363908D01*
X132299979Y-97652896D01*
X132550865Y-97652896D01*
G37*
G36*
X133523050Y-98170300D02*
G01*
X133523050Y-97832073D01*
X131820677Y-97832073D01*
X131820677Y-98170300D01*
X133523050Y-98170300D01*
G37*
G36*
X132299979Y-98350747D02*
G01*
X132299979Y-98706950D01*
X132998904Y-98937613D01*
X133103050Y-98967900D01*
X133207195Y-98989100D01*
X133207195Y-98998088D01*
X133104222Y-99021633D01*
X132998904Y-99054068D01*
X132299979Y-99280335D01*
X132299979Y-99629798D01*
X133635010Y-99128025D01*
X133768186Y-99069245D01*
X133871867Y-99004421D01*
X133950865Y-98934194D01*
X133996849Y-98872712D01*
X134031016Y-98798290D01*
X134052850Y-98708294D01*
X134060677Y-98599386D01*
X134055010Y-98499735D01*
X134042701Y-98429100D01*
X133776183Y-98429100D01*
X133785073Y-98487327D01*
X133789567Y-98561284D01*
X133782331Y-98627497D01*
X133762251Y-98679421D01*
X133730167Y-98720335D01*
X133665104Y-98769957D01*
X133583524Y-98809923D01*
X133514061Y-98836790D01*
X132299979Y-98350747D01*
G37*
G36*
X132185771Y-101102387D02*
G01*
X132195249Y-101009111D01*
X132222431Y-100929123D01*
X132266916Y-100859648D01*
X132330265Y-100798939D01*
X132404433Y-100752819D01*
X132493441Y-100718204D01*
X132600124Y-100696003D01*
X132727892Y-100688053D01*
X132856082Y-100695782D01*
X132961973Y-100717247D01*
X133049232Y-100750486D01*
X133120928Y-100794445D01*
X133180790Y-100852678D01*
X133224015Y-100923684D01*
X133251212Y-101010112D01*
X133260928Y-101115869D01*
X133254703Y-101219784D01*
X133236308Y-101318590D01*
X133208513Y-101415679D01*
X133173587Y-101514571D01*
X133464822Y-101514571D01*
X133508599Y-101385272D01*
X133535907Y-101240477D01*
X133545422Y-101077767D01*
X133538291Y-100949000D01*
X133518103Y-100837635D01*
X133486250Y-100741253D01*
X133443524Y-100657767D01*
X133387483Y-100580876D01*
X133321596Y-100515003D01*
X133245127Y-100459350D01*
X133156881Y-100413622D01*
X133031253Y-100370598D01*
X132888429Y-100343574D01*
X132725645Y-100334096D01*
X132566332Y-100344623D01*
X132424561Y-100374897D01*
X132297732Y-100423685D01*
X132209071Y-100474154D01*
X132131602Y-100534333D01*
X132064314Y-100604588D01*
X132006595Y-100685708D01*
X131961885Y-100773442D01*
X131929005Y-100871760D01*
X131908451Y-100982278D01*
X131901277Y-101106881D01*
X131907647Y-101225708D01*
X131927069Y-101347704D01*
X131959897Y-101467014D01*
X132006595Y-101579539D01*
X132279853Y-101467579D01*
X132244545Y-101385021D01*
X132213810Y-101296120D01*
X132192923Y-101203330D01*
X132185771Y-101102387D01*
G37*
G36*
X133043446Y-101763499D02*
G01*
X133157720Y-101789416D01*
X133255359Y-101830426D01*
X133343592Y-101888358D01*
X133415088Y-101957882D01*
X133471563Y-102039888D01*
X133511995Y-102131315D01*
X133536835Y-102232587D01*
X133545422Y-102345680D01*
X133534114Y-102481755D01*
X133502044Y-102597405D01*
X133450693Y-102696345D01*
X133379728Y-102781312D01*
X133292640Y-102848650D01*
X133187780Y-102898426D01*
X133061549Y-102930108D01*
X132909316Y-102941438D01*
X132775123Y-102932225D01*
X132661242Y-102906257D01*
X132564347Y-102865234D01*
X132476801Y-102807438D01*
X132406060Y-102738298D01*
X132350391Y-102656943D01*
X132310604Y-102566327D01*
X132286097Y-102465462D01*
X132277606Y-102352324D01*
X132277965Y-102347927D01*
X132535234Y-102347927D01*
X132541869Y-102412173D01*
X132560385Y-102463629D01*
X132589971Y-102505095D01*
X132631563Y-102538241D01*
X132698552Y-102568498D01*
X132789000Y-102588907D01*
X132909316Y-102596567D01*
X133028023Y-102589009D01*
X133119119Y-102568683D01*
X133188241Y-102538241D01*
X133231602Y-102504887D01*
X133262161Y-102463616D01*
X133281131Y-102412905D01*
X133287892Y-102350077D01*
X133281042Y-102284865D01*
X133261927Y-102232765D01*
X133231347Y-102190880D01*
X133188241Y-102157516D01*
X133119126Y-102127127D01*
X133028030Y-102106835D01*
X132909316Y-102099288D01*
X132788992Y-102106936D01*
X132698545Y-102127313D01*
X132631563Y-102157516D01*
X132589976Y-102190663D01*
X132560390Y-102232142D01*
X132541871Y-102283629D01*
X132535234Y-102347927D01*
X132277965Y-102347927D01*
X132288827Y-102214890D01*
X132320584Y-102098467D01*
X132371295Y-101999259D01*
X132441151Y-101914445D01*
X132527168Y-101847186D01*
X132631228Y-101797413D01*
X132757022Y-101765684D01*
X132909316Y-101754320D01*
X133043446Y-101763499D01*
G37*
G36*
X132277606Y-103910398D02*
G01*
X132285027Y-104010965D01*
X132305930Y-104095804D01*
X132339010Y-104167612D01*
X132383999Y-104228500D01*
X132440551Y-104276431D01*
X132513547Y-104312638D01*
X132606894Y-104336290D01*
X132725645Y-104344955D01*
X133523050Y-104344955D01*
X133523050Y-104008974D01*
X132810740Y-104008974D01*
X132704648Y-103998883D01*
X132632608Y-103972713D01*
X132585146Y-103933914D01*
X132556620Y-103881816D01*
X132546371Y-103811821D01*
X132553869Y-103737132D01*
X132574338Y-103680172D01*
X132606326Y-103636825D01*
X132650614Y-103604606D01*
X132722418Y-103576317D01*
X132819805Y-103557054D01*
X132949567Y-103549798D01*
X133523050Y-103549798D01*
X133523050Y-103211570D01*
X132299979Y-103211570D01*
X132299979Y-103471347D01*
X132463524Y-103518437D01*
X132463524Y-103531821D01*
X132397272Y-103585024D01*
X132346253Y-103647818D01*
X132309132Y-103721447D01*
X132285844Y-103808030D01*
X132277606Y-103910398D01*
G37*
G36*
X133278904Y-105193259D02*
G01*
X133267767Y-105300726D01*
X133240802Y-105403796D01*
X133489442Y-105403796D01*
X133509558Y-105346533D01*
X133528618Y-105270537D01*
X133541063Y-105188992D01*
X133545422Y-105096930D01*
X133536118Y-104991024D01*
X133509665Y-104900851D01*
X133480291Y-104847908D01*
X133439337Y-104802629D01*
X133385297Y-104764271D01*
X133324079Y-104737931D01*
X133243893Y-104720374D01*
X133139979Y-104713859D01*
X132550865Y-104713859D01*
X132550865Y-104554808D01*
X132409791Y-104554808D01*
X132297732Y-104738479D01*
X132040202Y-104834808D01*
X132040202Y-105047690D01*
X132299979Y-105047690D01*
X132299979Y-105390314D01*
X132550865Y-105390314D01*
X132550865Y-105047690D01*
X133139979Y-105047690D01*
X133184514Y-105052660D01*
X133218412Y-105066303D01*
X133244222Y-105087941D01*
X133269782Y-105133095D01*
X133278904Y-105193259D01*
G37*
G36*
X132277606Y-106314040D02*
G01*
X132282100Y-106385652D01*
X132291089Y-106448472D01*
X132606846Y-106414864D01*
X132596881Y-106356636D01*
X132593461Y-106275939D01*
X132600596Y-106207163D01*
X132622575Y-106137013D01*
X132660742Y-106074077D01*
X132718904Y-106021731D01*
X132765934Y-105997436D01*
X132826048Y-105981608D01*
X132902575Y-105975813D01*
X133523050Y-105975813D01*
X133523050Y-105637585D01*
X132299979Y-105637585D01*
X132299979Y-105895115D01*
X132506120Y-105944452D01*
X132506120Y-105960084D01*
X132419309Y-106023181D01*
X132344822Y-106106825D01*
X132307350Y-106171477D01*
X132285116Y-106240059D01*
X132277606Y-106314040D01*
G37*
G36*
X133043446Y-106543624D02*
G01*
X133157720Y-106569541D01*
X133255359Y-106610551D01*
X133343592Y-106668484D01*
X133415088Y-106738008D01*
X133471563Y-106820014D01*
X133511995Y-106911441D01*
X133536835Y-107012713D01*
X133545422Y-107125806D01*
X133534114Y-107261881D01*
X133502044Y-107377531D01*
X133450693Y-107476471D01*
X133379728Y-107561438D01*
X133292640Y-107628775D01*
X133187780Y-107678552D01*
X133061549Y-107710234D01*
X132909316Y-107721563D01*
X132775123Y-107712350D01*
X132661242Y-107686383D01*
X132564347Y-107645359D01*
X132476801Y-107587564D01*
X132406060Y-107518424D01*
X132350391Y-107437069D01*
X132310604Y-107346452D01*
X132286097Y-107245587D01*
X132277606Y-107132449D01*
X132277965Y-107128053D01*
X132535234Y-107128053D01*
X132541869Y-107192298D01*
X132560385Y-107243755D01*
X132589971Y-107285220D01*
X132631563Y-107318367D01*
X132698552Y-107348623D01*
X132789000Y-107369033D01*
X132909316Y-107376692D01*
X133028023Y-107369134D01*
X133119119Y-107348809D01*
X133188241Y-107318367D01*
X133231602Y-107285013D01*
X133262161Y-107243741D01*
X133281131Y-107193031D01*
X133287892Y-107130202D01*
X133281042Y-107064991D01*
X133261927Y-107012891D01*
X133231347Y-106971005D01*
X133188241Y-106937641D01*
X133119126Y-106907253D01*
X133028030Y-106886960D01*
X132909316Y-106879414D01*
X132788992Y-106887062D01*
X132698545Y-106907438D01*
X132631563Y-106937641D01*
X132589976Y-106970788D01*
X132560390Y-107012267D01*
X132541871Y-107063755D01*
X132535234Y-107128053D01*
X132277965Y-107128053D01*
X132288827Y-106995016D01*
X132320584Y-106878592D01*
X132371295Y-106779384D01*
X132441151Y-106694571D01*
X132527168Y-106627311D01*
X132631228Y-106577539D01*
X132757022Y-106545810D01*
X132909316Y-106534445D01*
X133043446Y-106543624D01*
G37*
G36*
X133523050Y-108329923D02*
G01*
X133523050Y-107991696D01*
X131820677Y-107991696D01*
X131820677Y-108329923D01*
X133523050Y-108329923D01*
G37*
G36*
X133523050Y-108997390D02*
G01*
X133523050Y-108659163D01*
X131820677Y-108659163D01*
X131820677Y-108997390D01*
X133523050Y-108997390D01*
G37*
G36*
X133058986Y-109278256D02*
G01*
X133174148Y-109305803D01*
X133270014Y-109349002D01*
X133355355Y-109409882D01*
X133423879Y-109483014D01*
X133477132Y-109569602D01*
X133514355Y-109665145D01*
X133537414Y-109771674D01*
X133545422Y-109891124D01*
X133539599Y-110031092D01*
X133524124Y-110137418D01*
X133496906Y-110235767D01*
X133458081Y-110327927D01*
X133204948Y-110327927D01*
X133244650Y-110229103D01*
X133272163Y-110135269D01*
X133288701Y-110038358D01*
X133294536Y-109926881D01*
X133284676Y-109829946D01*
X133257601Y-109755106D01*
X133215010Y-109697292D01*
X133157470Y-109653534D01*
X133085910Y-109624522D01*
X132996657Y-109611124D01*
X132996657Y-110397292D01*
X132833112Y-110397292D01*
X132699100Y-110386925D01*
X132588423Y-110357952D01*
X132496815Y-110312386D01*
X132421026Y-110250551D01*
X132360063Y-110173291D01*
X132315539Y-110082444D01*
X132287529Y-109975353D01*
X132278309Y-109857516D01*
X132517257Y-109857516D01*
X132525980Y-109928673D01*
X132550095Y-109982918D01*
X132588967Y-110024382D01*
X132639356Y-110054392D01*
X132699097Y-110073651D01*
X132770391Y-110081438D01*
X132770391Y-109620014D01*
X132689245Y-109633262D01*
X132627574Y-109657981D01*
X132581151Y-109692798D01*
X132546027Y-109738834D01*
X132524711Y-109792953D01*
X132517257Y-109857516D01*
X132278309Y-109857516D01*
X132277606Y-109848528D01*
X132288421Y-109720635D01*
X132319345Y-109609948D01*
X132369310Y-109513342D01*
X132438904Y-109428528D01*
X132505242Y-109373931D01*
X132584234Y-109330048D01*
X132677944Y-109297058D01*
X132788993Y-109275937D01*
X132920454Y-109268402D01*
X133058986Y-109278256D01*
G37*
G36*
X132277606Y-111339581D02*
G01*
X132282100Y-111411193D01*
X132291089Y-111474013D01*
X132606846Y-111440405D01*
X132596881Y-111382177D01*
X132593461Y-111301479D01*
X132600596Y-111232704D01*
X132622575Y-111162554D01*
X132660742Y-111099618D01*
X132718904Y-111047271D01*
X132765934Y-111022977D01*
X132826048Y-111007149D01*
X132902575Y-111001354D01*
X133523050Y-111001354D01*
X133523050Y-110663126D01*
X132299979Y-110663126D01*
X132299979Y-110920656D01*
X132506120Y-110969993D01*
X132506120Y-110985625D01*
X132419309Y-111048722D01*
X132344822Y-111132366D01*
X132307350Y-111197017D01*
X132285116Y-111265600D01*
X132277606Y-111339581D01*
G37*
G36*
X136211050Y-106132226D02*
G01*
X135597316Y-106132226D01*
X135597316Y-106322638D01*
X136211050Y-106678744D01*
X136211050Y-107070802D01*
X135505481Y-106616022D01*
X135461352Y-106694160D01*
X135407735Y-106762546D01*
X135344183Y-106822065D01*
X135271361Y-106866962D01*
X135183741Y-106895032D01*
X135077567Y-106905010D01*
X134968408Y-106895253D01*
X134877987Y-106867823D01*
X134802580Y-106824083D01*
X134739609Y-106763443D01*
X134687912Y-106683440D01*
X134647876Y-106579982D01*
X134621385Y-106447666D01*
X134611650Y-106280042D01*
X134611650Y-106273300D01*
X134878265Y-106273300D01*
X134885476Y-106370987D01*
X134904348Y-106440757D01*
X134931999Y-106489504D01*
X134972374Y-106526526D01*
X135024850Y-106549497D01*
X135093297Y-106557795D01*
X135174964Y-106548463D01*
X135234273Y-106523292D01*
X135276967Y-106483838D01*
X135306455Y-106431621D01*
X135325799Y-106362964D01*
X135332948Y-106273300D01*
X135332948Y-106132226D01*
X134878265Y-106132226D01*
X134878265Y-106273300D01*
X134611650Y-106273300D01*
X134611650Y-105789504D01*
X136211050Y-105789504D01*
X136211050Y-106132226D01*
G37*
G36*
X135746986Y-107183629D02*
G01*
X135862148Y-107211176D01*
X135958014Y-107254375D01*
X136043355Y-107315255D01*
X136111879Y-107388387D01*
X136165132Y-107474975D01*
X136202355Y-107570518D01*
X136225414Y-107677047D01*
X136233422Y-107796497D01*
X136227599Y-107936465D01*
X136212124Y-108042791D01*
X136184906Y-108141140D01*
X136146081Y-108233300D01*
X135892948Y-108233300D01*
X135932650Y-108134476D01*
X135960163Y-108040642D01*
X135976701Y-107943731D01*
X135982536Y-107832254D01*
X135972676Y-107735319D01*
X135945601Y-107660479D01*
X135903010Y-107602665D01*
X135845470Y-107558907D01*
X135773910Y-107529895D01*
X135684657Y-107516497D01*
X135684657Y-108302665D01*
X135521112Y-108302665D01*
X135387100Y-108292298D01*
X135276423Y-108263325D01*
X135184815Y-108217759D01*
X135109026Y-108155924D01*
X135048063Y-108078664D01*
X135003539Y-107987817D01*
X134975529Y-107880726D01*
X134966309Y-107762889D01*
X135205257Y-107762889D01*
X135213980Y-107834046D01*
X135238095Y-107888291D01*
X135276967Y-107929755D01*
X135327356Y-107959765D01*
X135387097Y-107979024D01*
X135458391Y-107986811D01*
X135458391Y-107525387D01*
X135377245Y-107538635D01*
X135315574Y-107563354D01*
X135269151Y-107598171D01*
X135234027Y-107644207D01*
X135212711Y-107698326D01*
X135205257Y-107762889D01*
X134966309Y-107762889D01*
X134965606Y-107753901D01*
X134976421Y-107626008D01*
X135007345Y-107515321D01*
X135057310Y-107418715D01*
X135126904Y-107333901D01*
X135193242Y-107279304D01*
X135272234Y-107235421D01*
X135365944Y-107202431D01*
X135476993Y-107181310D01*
X135608454Y-107173775D01*
X135746986Y-107183629D01*
G37*
G36*
X136211050Y-108825541D02*
G01*
X134987979Y-108359623D01*
X134987979Y-108713580D01*
X135709277Y-108941996D01*
X135806779Y-108970035D01*
X135910924Y-108991333D01*
X135910924Y-109000223D01*
X135809026Y-109021521D01*
X135711524Y-109051807D01*
X134987979Y-109284717D01*
X134987979Y-109638674D01*
X136211050Y-109172756D01*
X136211050Y-108825541D01*
G37*
G36*
X136211050Y-111144871D02*
G01*
X136211050Y-110806643D01*
X135285955Y-110806643D01*
X135133645Y-110809965D01*
X134967853Y-110815631D01*
X135016018Y-110767467D01*
X135077567Y-110699176D01*
X135225481Y-110515408D01*
X135021587Y-110351961D01*
X134611650Y-110867118D01*
X134611650Y-111144871D01*
X136211050Y-111144871D01*
G37*
D13*
X149740142Y-125128571D02*
X148540142Y-125128571D01*
X148540142Y-125128571D02*
X149397285Y-125528571D01*
X149397285Y-125528571D02*
X148540142Y-125928571D01*
X148540142Y-125928571D02*
X149740142Y-125928571D01*
X148540142Y-126385714D02*
X148540142Y-127128571D01*
X148540142Y-127128571D02*
X148997285Y-126728571D01*
X148997285Y-126728571D02*
X148997285Y-126900000D01*
X148997285Y-126900000D02*
X149054428Y-127014286D01*
X149054428Y-127014286D02*
X149111571Y-127071428D01*
X149111571Y-127071428D02*
X149225857Y-127128571D01*
X149225857Y-127128571D02*
X149511571Y-127128571D01*
X149511571Y-127128571D02*
X149625857Y-127071428D01*
X149625857Y-127071428D02*
X149683000Y-127014286D01*
X149683000Y-127014286D02*
X149740142Y-126900000D01*
X149740142Y-126900000D02*
X149740142Y-126557143D01*
X149740142Y-126557143D02*
X149683000Y-126442857D01*
X149683000Y-126442857D02*
X149625857Y-126385714D01*
D11*
X139267219Y-130069673D02*
X138267219Y-130069673D01*
X138267219Y-130069673D02*
X138981504Y-130403006D01*
X138981504Y-130403006D02*
X138267219Y-130736339D01*
X138267219Y-130736339D02*
X139267219Y-130736339D01*
X138886266Y-131212530D02*
X138886266Y-131974435D01*
X139267219Y-131593482D02*
X138505314Y-131593482D01*
X139600552Y-132688720D02*
X138171980Y-132688720D01*
X138267219Y-133260149D02*
X139267219Y-133593482D01*
X139267219Y-133593482D02*
X138267219Y-133926815D01*
X138886266Y-134260149D02*
X138886266Y-135022054D01*
X139267219Y-134641101D02*
X138505314Y-134641101D01*
X151067219Y-130069673D02*
X150067219Y-130069673D01*
X150067219Y-130069673D02*
X150781504Y-130403006D01*
X150781504Y-130403006D02*
X150067219Y-130736339D01*
X150067219Y-130736339D02*
X151067219Y-130736339D01*
X150686266Y-131212530D02*
X150686266Y-131974435D01*
X151400552Y-132688720D02*
X149971980Y-132688720D01*
X151019600Y-133355387D02*
X151067219Y-133498244D01*
X151067219Y-133498244D02*
X151067219Y-133736339D01*
X151067219Y-133736339D02*
X151019600Y-133831577D01*
X151019600Y-133831577D02*
X150971980Y-133879196D01*
X150971980Y-133879196D02*
X150876742Y-133926815D01*
X150876742Y-133926815D02*
X150781504Y-133926815D01*
X150781504Y-133926815D02*
X150686266Y-133879196D01*
X150686266Y-133879196D02*
X150638647Y-133831577D01*
X150638647Y-133831577D02*
X150591028Y-133736339D01*
X150591028Y-133736339D02*
X150543409Y-133545863D01*
X150543409Y-133545863D02*
X150495790Y-133450625D01*
X150495790Y-133450625D02*
X150448171Y-133403006D01*
X150448171Y-133403006D02*
X150352933Y-133355387D01*
X150352933Y-133355387D02*
X150257695Y-133355387D01*
X150257695Y-133355387D02*
X150162457Y-133403006D01*
X150162457Y-133403006D02*
X150114838Y-133450625D01*
X150114838Y-133450625D02*
X150067219Y-133545863D01*
X150067219Y-133545863D02*
X150067219Y-133783958D01*
X150067219Y-133783958D02*
X150114838Y-133926815D01*
X151067219Y-134355387D02*
X150067219Y-134355387D01*
X150114838Y-135355386D02*
X150067219Y-135260148D01*
X150067219Y-135260148D02*
X150067219Y-135117291D01*
X150067219Y-135117291D02*
X150114838Y-134974434D01*
X150114838Y-134974434D02*
X150210076Y-134879196D01*
X150210076Y-134879196D02*
X150305314Y-134831577D01*
X150305314Y-134831577D02*
X150495790Y-134783958D01*
X150495790Y-134783958D02*
X150638647Y-134783958D01*
X150638647Y-134783958D02*
X150829123Y-134831577D01*
X150829123Y-134831577D02*
X150924361Y-134879196D01*
X150924361Y-134879196D02*
X151019600Y-134974434D01*
X151019600Y-134974434D02*
X151067219Y-135117291D01*
X151067219Y-135117291D02*
X151067219Y-135212529D01*
X151067219Y-135212529D02*
X151019600Y-135355386D01*
X151019600Y-135355386D02*
X150971980Y-135403005D01*
X150971980Y-135403005D02*
X150638647Y-135403005D01*
X150638647Y-135403005D02*
X150638647Y-135212529D01*
X129467219Y-109228571D02*
X130276742Y-109228571D01*
X130276742Y-109228571D02*
X130371980Y-109276190D01*
X130371980Y-109276190D02*
X130419600Y-109323809D01*
X130419600Y-109323809D02*
X130467219Y-109419047D01*
X130467219Y-109419047D02*
X130467219Y-109609523D01*
X130467219Y-109609523D02*
X130419600Y-109704761D01*
X130419600Y-109704761D02*
X130371980Y-109752380D01*
X130371980Y-109752380D02*
X130276742Y-109799999D01*
X130276742Y-109799999D02*
X129467219Y-109799999D01*
X130181504Y-110228571D02*
X130181504Y-110704761D01*
X130467219Y-110133333D02*
X129467219Y-110466666D01*
X129467219Y-110466666D02*
X130467219Y-110799999D01*
X130467219Y-111704761D02*
X129991028Y-111371428D01*
X130467219Y-111133333D02*
X129467219Y-111133333D01*
X129467219Y-111133333D02*
X129467219Y-111514285D01*
X129467219Y-111514285D02*
X129514838Y-111609523D01*
X129514838Y-111609523D02*
X129562457Y-111657142D01*
X129562457Y-111657142D02*
X129657695Y-111704761D01*
X129657695Y-111704761D02*
X129800552Y-111704761D01*
X129800552Y-111704761D02*
X129895790Y-111657142D01*
X129895790Y-111657142D02*
X129943409Y-111609523D01*
X129943409Y-111609523D02*
X129991028Y-111514285D01*
X129991028Y-111514285D02*
X129991028Y-111133333D01*
X129467219Y-111990476D02*
X129467219Y-112561904D01*
X130467219Y-112276190D02*
X129467219Y-112276190D01*
X130467219Y-113419047D02*
X130467219Y-112847619D01*
X130467219Y-113133333D02*
X129467219Y-113133333D01*
X129467219Y-113133333D02*
X129610076Y-113038095D01*
X129610076Y-113038095D02*
X129705314Y-112942857D01*
X129705314Y-112942857D02*
X129752933Y-112847619D01*
X124967219Y-109228571D02*
X125776742Y-109228571D01*
X125776742Y-109228571D02*
X125871980Y-109276190D01*
X125871980Y-109276190D02*
X125919600Y-109323809D01*
X125919600Y-109323809D02*
X125967219Y-109419047D01*
X125967219Y-109419047D02*
X125967219Y-109609523D01*
X125967219Y-109609523D02*
X125919600Y-109704761D01*
X125919600Y-109704761D02*
X125871980Y-109752380D01*
X125871980Y-109752380D02*
X125776742Y-109799999D01*
X125776742Y-109799999D02*
X124967219Y-109799999D01*
X125681504Y-110228571D02*
X125681504Y-110704761D01*
X125967219Y-110133333D02*
X124967219Y-110466666D01*
X124967219Y-110466666D02*
X125967219Y-110799999D01*
X125967219Y-111704761D02*
X125491028Y-111371428D01*
X125967219Y-111133333D02*
X124967219Y-111133333D01*
X124967219Y-111133333D02*
X124967219Y-111514285D01*
X124967219Y-111514285D02*
X125014838Y-111609523D01*
X125014838Y-111609523D02*
X125062457Y-111657142D01*
X125062457Y-111657142D02*
X125157695Y-111704761D01*
X125157695Y-111704761D02*
X125300552Y-111704761D01*
X125300552Y-111704761D02*
X125395790Y-111657142D01*
X125395790Y-111657142D02*
X125443409Y-111609523D01*
X125443409Y-111609523D02*
X125491028Y-111514285D01*
X125491028Y-111514285D02*
X125491028Y-111133333D01*
X124967219Y-111990476D02*
X124967219Y-112561904D01*
X125967219Y-112276190D02*
X124967219Y-112276190D01*
X125062457Y-112847619D02*
X125014838Y-112895238D01*
X125014838Y-112895238D02*
X124967219Y-112990476D01*
X124967219Y-112990476D02*
X124967219Y-113228571D01*
X124967219Y-113228571D02*
X125014838Y-113323809D01*
X125014838Y-113323809D02*
X125062457Y-113371428D01*
X125062457Y-113371428D02*
X125157695Y-113419047D01*
X125157695Y-113419047D02*
X125252933Y-113419047D01*
X125252933Y-113419047D02*
X125395790Y-113371428D01*
X125395790Y-113371428D02*
X125967219Y-112800000D01*
X125967219Y-112800000D02*
X125967219Y-113419047D01*
X138632780Y-81625564D02*
X138632780Y-81006517D01*
X138632780Y-81006517D02*
X138251828Y-81339850D01*
X138251828Y-81339850D02*
X138251828Y-81196993D01*
X138251828Y-81196993D02*
X138204209Y-81101755D01*
X138204209Y-81101755D02*
X138156590Y-81054136D01*
X138156590Y-81054136D02*
X138061352Y-81006517D01*
X138061352Y-81006517D02*
X137823257Y-81006517D01*
X137823257Y-81006517D02*
X137728019Y-81054136D01*
X137728019Y-81054136D02*
X137680400Y-81101755D01*
X137680400Y-81101755D02*
X137632780Y-81196993D01*
X137632780Y-81196993D02*
X137632780Y-81482707D01*
X137632780Y-81482707D02*
X137680400Y-81577945D01*
X137680400Y-81577945D02*
X137728019Y-81625564D01*
X138299447Y-80673183D02*
X137632780Y-80435088D01*
X137632780Y-80435088D02*
X138299447Y-80196993D01*
X138632780Y-79911278D02*
X138632780Y-79292231D01*
X138632780Y-79292231D02*
X138251828Y-79625564D01*
X138251828Y-79625564D02*
X138251828Y-79482707D01*
X138251828Y-79482707D02*
X138204209Y-79387469D01*
X138204209Y-79387469D02*
X138156590Y-79339850D01*
X138156590Y-79339850D02*
X138061352Y-79292231D01*
X138061352Y-79292231D02*
X137823257Y-79292231D01*
X137823257Y-79292231D02*
X137728019Y-79339850D01*
X137728019Y-79339850D02*
X137680400Y-79387469D01*
X137680400Y-79387469D02*
X137632780Y-79482707D01*
X137632780Y-79482707D02*
X137632780Y-79768421D01*
X137632780Y-79768421D02*
X137680400Y-79863659D01*
X137680400Y-79863659D02*
X137728019Y-79911278D01*
X135867219Y-131369673D02*
X134867219Y-131369673D01*
X134867219Y-131369673D02*
X134867219Y-131750625D01*
X134867219Y-131750625D02*
X134914838Y-131845863D01*
X134914838Y-131845863D02*
X134962457Y-131893482D01*
X134962457Y-131893482D02*
X135057695Y-131941101D01*
X135057695Y-131941101D02*
X135200552Y-131941101D01*
X135200552Y-131941101D02*
X135295790Y-131893482D01*
X135295790Y-131893482D02*
X135343409Y-131845863D01*
X135343409Y-131845863D02*
X135391028Y-131750625D01*
X135391028Y-131750625D02*
X135391028Y-131369673D01*
X134867219Y-132560149D02*
X134867219Y-132750625D01*
X134867219Y-132750625D02*
X134914838Y-132845863D01*
X134914838Y-132845863D02*
X135010076Y-132941101D01*
X135010076Y-132941101D02*
X135200552Y-132988720D01*
X135200552Y-132988720D02*
X135533885Y-132988720D01*
X135533885Y-132988720D02*
X135724361Y-132941101D01*
X135724361Y-132941101D02*
X135819600Y-132845863D01*
X135819600Y-132845863D02*
X135867219Y-132750625D01*
X135867219Y-132750625D02*
X135867219Y-132560149D01*
X135867219Y-132560149D02*
X135819600Y-132464911D01*
X135819600Y-132464911D02*
X135724361Y-132369673D01*
X135724361Y-132369673D02*
X135533885Y-132322054D01*
X135533885Y-132322054D02*
X135200552Y-132322054D01*
X135200552Y-132322054D02*
X135010076Y-132369673D01*
X135010076Y-132369673D02*
X134914838Y-132464911D01*
X134914838Y-132464911D02*
X134867219Y-132560149D01*
X134867219Y-133274435D02*
X134867219Y-133845863D01*
X135867219Y-133560149D02*
X134867219Y-133560149D01*
X128421427Y-113947331D02*
X127907142Y-113947331D01*
X128164284Y-114947331D02*
X128164284Y-113947331D01*
X127692856Y-114947331D02*
X127221428Y-114280664D01*
X127692856Y-114280664D02*
X127221428Y-114947331D01*
X127885713Y-116557275D02*
X128185713Y-116081084D01*
X128399999Y-116557275D02*
X128399999Y-115557275D01*
X128399999Y-115557275D02*
X128057142Y-115557275D01*
X128057142Y-115557275D02*
X127971427Y-115604894D01*
X127971427Y-115604894D02*
X127928570Y-115652513D01*
X127928570Y-115652513D02*
X127885713Y-115747751D01*
X127885713Y-115747751D02*
X127885713Y-115890608D01*
X127885713Y-115890608D02*
X127928570Y-115985846D01*
X127928570Y-115985846D02*
X127971427Y-116033465D01*
X127971427Y-116033465D02*
X128057142Y-116081084D01*
X128057142Y-116081084D02*
X128399999Y-116081084D01*
X127585713Y-116557275D02*
X127114285Y-115890608D01*
X127585713Y-115890608D02*
X127114285Y-116557275D01*
X128957143Y-117786266D02*
X128271429Y-117786266D01*
X128614286Y-118167219D02*
X128614286Y-117405314D01*
X127414285Y-117167219D02*
X127842857Y-117167219D01*
X127842857Y-117167219D02*
X127885714Y-117643409D01*
X127885714Y-117643409D02*
X127842857Y-117595790D01*
X127842857Y-117595790D02*
X127757143Y-117548171D01*
X127757143Y-117548171D02*
X127542857Y-117548171D01*
X127542857Y-117548171D02*
X127457143Y-117595790D01*
X127457143Y-117595790D02*
X127414285Y-117643409D01*
X127414285Y-117643409D02*
X127371428Y-117738647D01*
X127371428Y-117738647D02*
X127371428Y-117976742D01*
X127371428Y-117976742D02*
X127414285Y-118071980D01*
X127414285Y-118071980D02*
X127457143Y-118119600D01*
X127457143Y-118119600D02*
X127542857Y-118167219D01*
X127542857Y-118167219D02*
X127757143Y-118167219D01*
X127757143Y-118167219D02*
X127842857Y-118119600D01*
X127842857Y-118119600D02*
X127885714Y-118071980D01*
X127114285Y-117167219D02*
X126814285Y-118167219D01*
X126814285Y-118167219D02*
X126514285Y-117167219D01*
X139730326Y-85267219D02*
X139730326Y-84267219D01*
X139730326Y-84267219D02*
X139158898Y-85267219D01*
X139158898Y-85267219D02*
X139158898Y-84267219D01*
X138825564Y-84267219D02*
X138254136Y-84267219D01*
X138539850Y-85267219D02*
X138539850Y-84267219D01*
X137349374Y-85171980D02*
X137396993Y-85219600D01*
X137396993Y-85219600D02*
X137539850Y-85267219D01*
X137539850Y-85267219D02*
X137635088Y-85267219D01*
X137635088Y-85267219D02*
X137777945Y-85219600D01*
X137777945Y-85219600D02*
X137873183Y-85124361D01*
X137873183Y-85124361D02*
X137920802Y-85029123D01*
X137920802Y-85029123D02*
X137968421Y-84838647D01*
X137968421Y-84838647D02*
X137968421Y-84695790D01*
X137968421Y-84695790D02*
X137920802Y-84505314D01*
X137920802Y-84505314D02*
X137873183Y-84410076D01*
X137873183Y-84410076D02*
X137777945Y-84314838D01*
X137777945Y-84314838D02*
X137635088Y-84267219D01*
X137635088Y-84267219D02*
X137539850Y-84267219D01*
X137539850Y-84267219D02*
X137396993Y-84314838D01*
X137396993Y-84314838D02*
X137349374Y-84362457D01*
X146367219Y-131274435D02*
X146367219Y-131893482D01*
X146367219Y-131893482D02*
X146748171Y-131560149D01*
X146748171Y-131560149D02*
X146748171Y-131703006D01*
X146748171Y-131703006D02*
X146795790Y-131798244D01*
X146795790Y-131798244D02*
X146843409Y-131845863D01*
X146843409Y-131845863D02*
X146938647Y-131893482D01*
X146938647Y-131893482D02*
X147176742Y-131893482D01*
X147176742Y-131893482D02*
X147271980Y-131845863D01*
X147271980Y-131845863D02*
X147319600Y-131798244D01*
X147319600Y-131798244D02*
X147367219Y-131703006D01*
X147367219Y-131703006D02*
X147367219Y-131417292D01*
X147367219Y-131417292D02*
X147319600Y-131322054D01*
X147319600Y-131322054D02*
X147271980Y-131274435D01*
X146700552Y-132226816D02*
X147367219Y-132464911D01*
X147367219Y-132464911D02*
X146700552Y-132703006D01*
X146367219Y-132988721D02*
X146367219Y-133607768D01*
X146367219Y-133607768D02*
X146748171Y-133274435D01*
X146748171Y-133274435D02*
X146748171Y-133417292D01*
X146748171Y-133417292D02*
X146795790Y-133512530D01*
X146795790Y-133512530D02*
X146843409Y-133560149D01*
X146843409Y-133560149D02*
X146938647Y-133607768D01*
X146938647Y-133607768D02*
X147176742Y-133607768D01*
X147176742Y-133607768D02*
X147271980Y-133560149D01*
X147271980Y-133560149D02*
X147319600Y-133512530D01*
X147319600Y-133512530D02*
X147367219Y-133417292D01*
X147367219Y-133417292D02*
X147367219Y-133131578D01*
X147367219Y-133131578D02*
X147319600Y-133036340D01*
X147319600Y-133036340D02*
X147271980Y-132988721D01*
X148058517Y-113365118D02*
X148153755Y-113317499D01*
X148153755Y-113317499D02*
X148296612Y-113317499D01*
X148296612Y-113317499D02*
X148439469Y-113365118D01*
X148439469Y-113365118D02*
X148534707Y-113460356D01*
X148534707Y-113460356D02*
X148582326Y-113555594D01*
X148582326Y-113555594D02*
X148629945Y-113746070D01*
X148629945Y-113746070D02*
X148629945Y-113888927D01*
X148629945Y-113888927D02*
X148582326Y-114079403D01*
X148582326Y-114079403D02*
X148534707Y-114174641D01*
X148534707Y-114174641D02*
X148439469Y-114269880D01*
X148439469Y-114269880D02*
X148296612Y-114317499D01*
X148296612Y-114317499D02*
X148201374Y-114317499D01*
X148201374Y-114317499D02*
X148058517Y-114269880D01*
X148058517Y-114269880D02*
X148010898Y-114222260D01*
X148010898Y-114222260D02*
X148010898Y-113888927D01*
X148010898Y-113888927D02*
X148201374Y-113888927D01*
X147582326Y-114317499D02*
X147582326Y-113317499D01*
X147582326Y-113317499D02*
X147010898Y-114317499D01*
X147010898Y-114317499D02*
X147010898Y-113317499D01*
X146534707Y-114317499D02*
X146534707Y-113317499D01*
X146534707Y-113317499D02*
X146296612Y-113317499D01*
X146296612Y-113317499D02*
X146153755Y-113365118D01*
X146153755Y-113365118D02*
X146058517Y-113460356D01*
X146058517Y-113460356D02*
X146010898Y-113555594D01*
X146010898Y-113555594D02*
X145963279Y-113746070D01*
X145963279Y-113746070D02*
X145963279Y-113888927D01*
X145963279Y-113888927D02*
X146010898Y-114079403D01*
X146010898Y-114079403D02*
X146058517Y-114174641D01*
X146058517Y-114174641D02*
X146153755Y-114269880D01*
X146153755Y-114269880D02*
X146296612Y-114317499D01*
X146296612Y-114317499D02*
X146534707Y-114317499D01*
X148010898Y-115832204D02*
X148058517Y-115879824D01*
X148058517Y-115879824D02*
X148201374Y-115927443D01*
X148201374Y-115927443D02*
X148296612Y-115927443D01*
X148296612Y-115927443D02*
X148439469Y-115879824D01*
X148439469Y-115879824D02*
X148534707Y-115784585D01*
X148534707Y-115784585D02*
X148582326Y-115689347D01*
X148582326Y-115689347D02*
X148629945Y-115498871D01*
X148629945Y-115498871D02*
X148629945Y-115356014D01*
X148629945Y-115356014D02*
X148582326Y-115165538D01*
X148582326Y-115165538D02*
X148534707Y-115070300D01*
X148534707Y-115070300D02*
X148439469Y-114975062D01*
X148439469Y-114975062D02*
X148296612Y-114927443D01*
X148296612Y-114927443D02*
X148201374Y-114927443D01*
X148201374Y-114927443D02*
X148058517Y-114975062D01*
X148058517Y-114975062D02*
X148010898Y-115022681D01*
X147106136Y-115927443D02*
X147582326Y-115927443D01*
X147582326Y-115927443D02*
X147582326Y-114927443D01*
X146772802Y-115927443D02*
X146772802Y-114927443D01*
X146201374Y-115927443D02*
X146629945Y-115356014D01*
X146201374Y-114927443D02*
X146772802Y-115498871D01*
X148582326Y-117537387D02*
X148582326Y-116537387D01*
X148582326Y-116537387D02*
X148344231Y-116537387D01*
X148344231Y-116537387D02*
X148201374Y-116585006D01*
X148201374Y-116585006D02*
X148106136Y-116680244D01*
X148106136Y-116680244D02*
X148058517Y-116775482D01*
X148058517Y-116775482D02*
X148010898Y-116965958D01*
X148010898Y-116965958D02*
X148010898Y-117108815D01*
X148010898Y-117108815D02*
X148058517Y-117299291D01*
X148058517Y-117299291D02*
X148106136Y-117394529D01*
X148106136Y-117394529D02*
X148201374Y-117489768D01*
X148201374Y-117489768D02*
X148344231Y-117537387D01*
X148344231Y-117537387D02*
X148582326Y-117537387D01*
X147582326Y-117537387D02*
X147582326Y-116537387D01*
X146915660Y-116537387D02*
X146725184Y-116537387D01*
X146725184Y-116537387D02*
X146629946Y-116585006D01*
X146629946Y-116585006D02*
X146534708Y-116680244D01*
X146534708Y-116680244D02*
X146487089Y-116870720D01*
X146487089Y-116870720D02*
X146487089Y-117204053D01*
X146487089Y-117204053D02*
X146534708Y-117394529D01*
X146534708Y-117394529D02*
X146629946Y-117489768D01*
X146629946Y-117489768D02*
X146725184Y-117537387D01*
X146725184Y-117537387D02*
X146915660Y-117537387D01*
X146915660Y-117537387D02*
X147010898Y-117489768D01*
X147010898Y-117489768D02*
X147106136Y-117394529D01*
X147106136Y-117394529D02*
X147153755Y-117204053D01*
X147153755Y-117204053D02*
X147153755Y-116870720D01*
X147153755Y-116870720D02*
X147106136Y-116680244D01*
X147106136Y-116680244D02*
X147010898Y-116585006D01*
X147010898Y-116585006D02*
X146915660Y-116537387D01*
X148248993Y-118623521D02*
X148106136Y-118671140D01*
X148106136Y-118671140D02*
X148058517Y-118718759D01*
X148058517Y-118718759D02*
X148010898Y-118813997D01*
X148010898Y-118813997D02*
X148010898Y-118956854D01*
X148010898Y-118956854D02*
X148058517Y-119052092D01*
X148058517Y-119052092D02*
X148106136Y-119099712D01*
X148106136Y-119099712D02*
X148201374Y-119147331D01*
X148201374Y-119147331D02*
X148582326Y-119147331D01*
X148582326Y-119147331D02*
X148582326Y-118147331D01*
X148582326Y-118147331D02*
X148248993Y-118147331D01*
X148248993Y-118147331D02*
X148153755Y-118194950D01*
X148153755Y-118194950D02*
X148106136Y-118242569D01*
X148106136Y-118242569D02*
X148058517Y-118337807D01*
X148058517Y-118337807D02*
X148058517Y-118433045D01*
X148058517Y-118433045D02*
X148106136Y-118528283D01*
X148106136Y-118528283D02*
X148153755Y-118575902D01*
X148153755Y-118575902D02*
X148248993Y-118623521D01*
X148248993Y-118623521D02*
X148582326Y-118623521D01*
X147391850Y-118147331D02*
X147201374Y-118147331D01*
X147201374Y-118147331D02*
X147106136Y-118194950D01*
X147106136Y-118194950D02*
X147010898Y-118290188D01*
X147010898Y-118290188D02*
X146963279Y-118480664D01*
X146963279Y-118480664D02*
X146963279Y-118813997D01*
X146963279Y-118813997D02*
X147010898Y-119004473D01*
X147010898Y-119004473D02*
X147106136Y-119099712D01*
X147106136Y-119099712D02*
X147201374Y-119147331D01*
X147201374Y-119147331D02*
X147391850Y-119147331D01*
X147391850Y-119147331D02*
X147487088Y-119099712D01*
X147487088Y-119099712D02*
X147582326Y-119004473D01*
X147582326Y-119004473D02*
X147629945Y-118813997D01*
X147629945Y-118813997D02*
X147629945Y-118480664D01*
X147629945Y-118480664D02*
X147582326Y-118290188D01*
X147582326Y-118290188D02*
X147487088Y-118194950D01*
X147487088Y-118194950D02*
X147391850Y-118147331D01*
X146344231Y-118147331D02*
X146153755Y-118147331D01*
X146153755Y-118147331D02*
X146058517Y-118194950D01*
X146058517Y-118194950D02*
X145963279Y-118290188D01*
X145963279Y-118290188D02*
X145915660Y-118480664D01*
X145915660Y-118480664D02*
X145915660Y-118813997D01*
X145915660Y-118813997D02*
X145963279Y-119004473D01*
X145963279Y-119004473D02*
X146058517Y-119099712D01*
X146058517Y-119099712D02*
X146153755Y-119147331D01*
X146153755Y-119147331D02*
X146344231Y-119147331D01*
X146344231Y-119147331D02*
X146439469Y-119099712D01*
X146439469Y-119099712D02*
X146534707Y-119004473D01*
X146534707Y-119004473D02*
X146582326Y-118813997D01*
X146582326Y-118813997D02*
X146582326Y-118480664D01*
X146582326Y-118480664D02*
X146534707Y-118290188D01*
X146534707Y-118290188D02*
X146439469Y-118194950D01*
X146439469Y-118194950D02*
X146344231Y-118147331D01*
X145629945Y-118147331D02*
X145058517Y-118147331D01*
X145344231Y-119147331D02*
X145344231Y-118147331D01*
X148582326Y-120090608D02*
X148582326Y-120757275D01*
X148582326Y-120185846D02*
X148534707Y-120138227D01*
X148534707Y-120138227D02*
X148439469Y-120090608D01*
X148439469Y-120090608D02*
X148296612Y-120090608D01*
X148296612Y-120090608D02*
X148201374Y-120138227D01*
X148201374Y-120138227D02*
X148153755Y-120233465D01*
X148153755Y-120233465D02*
X148153755Y-120757275D01*
X147106136Y-120757275D02*
X147439469Y-120281084D01*
X147677564Y-120757275D02*
X147677564Y-119757275D01*
X147677564Y-119757275D02*
X147296612Y-119757275D01*
X147296612Y-119757275D02*
X147201374Y-119804894D01*
X147201374Y-119804894D02*
X147153755Y-119852513D01*
X147153755Y-119852513D02*
X147106136Y-119947751D01*
X147106136Y-119947751D02*
X147106136Y-120090608D01*
X147106136Y-120090608D02*
X147153755Y-120185846D01*
X147153755Y-120185846D02*
X147201374Y-120233465D01*
X147201374Y-120233465D02*
X147296612Y-120281084D01*
X147296612Y-120281084D02*
X147677564Y-120281084D01*
X146725183Y-120709656D02*
X146582326Y-120757275D01*
X146582326Y-120757275D02*
X146344231Y-120757275D01*
X146344231Y-120757275D02*
X146248993Y-120709656D01*
X146248993Y-120709656D02*
X146201374Y-120662036D01*
X146201374Y-120662036D02*
X146153755Y-120566798D01*
X146153755Y-120566798D02*
X146153755Y-120471560D01*
X146153755Y-120471560D02*
X146201374Y-120376322D01*
X146201374Y-120376322D02*
X146248993Y-120328703D01*
X146248993Y-120328703D02*
X146344231Y-120281084D01*
X146344231Y-120281084D02*
X146534707Y-120233465D01*
X146534707Y-120233465D02*
X146629945Y-120185846D01*
X146629945Y-120185846D02*
X146677564Y-120138227D01*
X146677564Y-120138227D02*
X146725183Y-120042989D01*
X146725183Y-120042989D02*
X146725183Y-119947751D01*
X146725183Y-119947751D02*
X146677564Y-119852513D01*
X146677564Y-119852513D02*
X146629945Y-119804894D01*
X146629945Y-119804894D02*
X146534707Y-119757275D01*
X146534707Y-119757275D02*
X146296612Y-119757275D01*
X146296612Y-119757275D02*
X146153755Y-119804894D01*
X145868040Y-119757275D02*
X145296612Y-119757275D01*
X145582326Y-120757275D02*
X145582326Y-119757275D01*
X148677564Y-121367219D02*
X148058517Y-121367219D01*
X148058517Y-121367219D02*
X148391850Y-121748171D01*
X148391850Y-121748171D02*
X148248993Y-121748171D01*
X148248993Y-121748171D02*
X148153755Y-121795790D01*
X148153755Y-121795790D02*
X148106136Y-121843409D01*
X148106136Y-121843409D02*
X148058517Y-121938647D01*
X148058517Y-121938647D02*
X148058517Y-122176742D01*
X148058517Y-122176742D02*
X148106136Y-122271980D01*
X148106136Y-122271980D02*
X148153755Y-122319600D01*
X148153755Y-122319600D02*
X148248993Y-122367219D01*
X148248993Y-122367219D02*
X148534707Y-122367219D01*
X148534707Y-122367219D02*
X148629945Y-122319600D01*
X148629945Y-122319600D02*
X148677564Y-122271980D01*
X147772802Y-121367219D02*
X147439469Y-122367219D01*
X147439469Y-122367219D02*
X147106136Y-121367219D01*
X146868040Y-121367219D02*
X146248993Y-121367219D01*
X146248993Y-121367219D02*
X146582326Y-121748171D01*
X146582326Y-121748171D02*
X146439469Y-121748171D01*
X146439469Y-121748171D02*
X146344231Y-121795790D01*
X146344231Y-121795790D02*
X146296612Y-121843409D01*
X146296612Y-121843409D02*
X146248993Y-121938647D01*
X146248993Y-121938647D02*
X146248993Y-122176742D01*
X146248993Y-122176742D02*
X146296612Y-122271980D01*
X146296612Y-122271980D02*
X146344231Y-122319600D01*
X146344231Y-122319600D02*
X146439469Y-122367219D01*
X146439469Y-122367219D02*
X146725183Y-122367219D01*
X146725183Y-122367219D02*
X146820421Y-122319600D01*
X146820421Y-122319600D02*
X146868040Y-122271980D01*
X148632780Y-81725564D02*
X148632780Y-81106517D01*
X148632780Y-81106517D02*
X148251828Y-81439850D01*
X148251828Y-81439850D02*
X148251828Y-81296993D01*
X148251828Y-81296993D02*
X148204209Y-81201755D01*
X148204209Y-81201755D02*
X148156590Y-81154136D01*
X148156590Y-81154136D02*
X148061352Y-81106517D01*
X148061352Y-81106517D02*
X147823257Y-81106517D01*
X147823257Y-81106517D02*
X147728019Y-81154136D01*
X147728019Y-81154136D02*
X147680400Y-81201755D01*
X147680400Y-81201755D02*
X147632780Y-81296993D01*
X147632780Y-81296993D02*
X147632780Y-81582707D01*
X147632780Y-81582707D02*
X147680400Y-81677945D01*
X147680400Y-81677945D02*
X147728019Y-81725564D01*
X148299447Y-80773183D02*
X147632780Y-80535088D01*
X147632780Y-80535088D02*
X148299447Y-80296993D01*
X148632780Y-80011278D02*
X148632780Y-79392231D01*
X148632780Y-79392231D02*
X148251828Y-79725564D01*
X148251828Y-79725564D02*
X148251828Y-79582707D01*
X148251828Y-79582707D02*
X148204209Y-79487469D01*
X148204209Y-79487469D02*
X148156590Y-79439850D01*
X148156590Y-79439850D02*
X148061352Y-79392231D01*
X148061352Y-79392231D02*
X147823257Y-79392231D01*
X147823257Y-79392231D02*
X147728019Y-79439850D01*
X147728019Y-79439850D02*
X147680400Y-79487469D01*
X147680400Y-79487469D02*
X147632780Y-79582707D01*
X147632780Y-79582707D02*
X147632780Y-79868421D01*
X147632780Y-79868421D02*
X147680400Y-79963659D01*
X147680400Y-79963659D02*
X147728019Y-80011278D01*
D13*
X135259857Y-87671428D02*
X136459857Y-87671428D01*
X136459857Y-87671428D02*
X135602714Y-87271428D01*
X135602714Y-87271428D02*
X136459857Y-86871428D01*
X136459857Y-86871428D02*
X135259857Y-86871428D01*
X136459857Y-86071428D02*
X136459857Y-85957142D01*
X136459857Y-85957142D02*
X136402714Y-85842856D01*
X136402714Y-85842856D02*
X136345571Y-85785714D01*
X136345571Y-85785714D02*
X136231285Y-85728571D01*
X136231285Y-85728571D02*
X136002714Y-85671428D01*
X136002714Y-85671428D02*
X135717000Y-85671428D01*
X135717000Y-85671428D02*
X135488428Y-85728571D01*
X135488428Y-85728571D02*
X135374142Y-85785714D01*
X135374142Y-85785714D02*
X135317000Y-85842856D01*
X135317000Y-85842856D02*
X135259857Y-85957142D01*
X135259857Y-85957142D02*
X135259857Y-86071428D01*
X135259857Y-86071428D02*
X135317000Y-86185714D01*
X135317000Y-86185714D02*
X135374142Y-86242856D01*
X135374142Y-86242856D02*
X135488428Y-86299999D01*
X135488428Y-86299999D02*
X135717000Y-86357142D01*
X135717000Y-86357142D02*
X136002714Y-86357142D01*
X136002714Y-86357142D02*
X136231285Y-86299999D01*
X136231285Y-86299999D02*
X136345571Y-86242856D01*
X136345571Y-86242856D02*
X136402714Y-86185714D01*
X136402714Y-86185714D02*
X136459857Y-86071428D01*
D15*
G36*
X133778932Y-112505402D02*
G01*
X133866904Y-112515688D01*
X133954746Y-112532808D01*
X134049036Y-112557745D01*
X134156349Y-112591482D01*
X134390086Y-112678129D01*
X134632721Y-112787299D01*
X134877328Y-112916824D01*
X135124421Y-113066999D01*
X135374519Y-113238119D01*
X135628133Y-113430474D01*
X135647438Y-113445449D01*
X135684827Y-113472473D01*
X135715946Y-113492467D01*
X135735522Y-113501926D01*
X135750686Y-113503650D01*
X135775342Y-113498548D01*
X135806439Y-113483104D01*
X135847072Y-113455683D01*
X135900333Y-113414646D01*
X135906259Y-113409942D01*
X135996757Y-113345758D01*
X136083311Y-113299773D01*
X136169750Y-113269932D01*
X136198718Y-113265152D01*
X136243160Y-113257824D01*
X136329712Y-113260842D01*
X136410340Y-113281677D01*
X136483050Y-113318287D01*
X136545851Y-113368625D01*
X136596752Y-113430642D01*
X136633760Y-113502296D01*
X136654887Y-113581539D01*
X136658139Y-113666326D01*
X136641523Y-113754608D01*
X136627961Y-113794450D01*
X136602685Y-113850063D01*
X136568929Y-113904307D01*
X136523601Y-113961924D01*
X136463620Y-114027649D01*
X136434821Y-114057976D01*
X136404797Y-114092486D01*
X136386137Y-114121972D01*
X136378834Y-114150401D01*
X136382880Y-114181728D01*
X136398268Y-114219923D01*
X136424992Y-114268949D01*
X136463041Y-114332765D01*
X136534176Y-114454981D01*
X136598590Y-114577011D01*
X136651367Y-114692581D01*
X136694330Y-114806567D01*
X136729302Y-114923852D01*
X136758111Y-115049318D01*
X136782574Y-115187840D01*
X136785918Y-115210055D01*
X136791967Y-115257312D01*
X136796256Y-115305155D01*
X136798966Y-115357850D01*
X136800276Y-115419652D01*
X136800362Y-115494823D01*
X136799410Y-115587624D01*
X136797605Y-115676197D01*
X136793284Y-115778714D01*
X136785968Y-115871250D01*
X136774835Y-115958104D01*
X136759065Y-116043570D01*
X136737839Y-116131940D01*
X136710335Y-116227512D01*
X136675731Y-116334581D01*
X136633208Y-116457442D01*
X136581883Y-116587795D01*
X136507505Y-116744939D01*
X136421589Y-116899649D01*
X136327779Y-117045434D01*
X136229719Y-117175808D01*
X136200354Y-117211645D01*
X136163107Y-117259018D01*
X136139008Y-117295791D01*
X136127667Y-117325962D01*
X136128703Y-117353530D01*
X136141727Y-117382491D01*
X136166352Y-117416843D01*
X136202192Y-117460585D01*
X136256749Y-117531306D01*
X136304897Y-117608964D01*
X136336567Y-117682870D01*
X136353444Y-117756318D01*
X136356985Y-117807490D01*
X136347303Y-117883960D01*
X136318695Y-117949997D01*
X136271600Y-118004741D01*
X136206454Y-118047326D01*
X136190746Y-118054816D01*
X136161955Y-118066248D01*
X136134094Y-118072109D01*
X136099581Y-118073597D01*
X136050834Y-118071911D01*
X136016949Y-118069191D01*
X135940863Y-118054754D01*
X135862973Y-118027616D01*
X135779389Y-117986255D01*
X135686219Y-117929147D01*
X135659835Y-117912174D01*
X135618952Y-117887535D01*
X135585258Y-117869204D01*
X135564177Y-117860242D01*
X135562064Y-117859730D01*
X135549330Y-117857846D01*
X135535382Y-117859092D01*
X135517780Y-117864739D01*
X135494080Y-117876061D01*
X135461846Y-117894331D01*
X135418635Y-117920824D01*
X135362007Y-117956813D01*
X135289520Y-118003573D01*
X135085847Y-118127006D01*
X134865762Y-118242014D01*
X134645981Y-118338100D01*
X134428251Y-118414509D01*
X134214316Y-118470482D01*
X134185653Y-118475972D01*
X134100502Y-118486885D01*
X134002682Y-118493417D01*
X133898517Y-118495521D01*
X133794325Y-118493152D01*
X133696431Y-118486264D01*
X133611155Y-118474812D01*
X133571343Y-118467152D01*
X133410649Y-118426357D01*
X133245015Y-118369785D01*
X133079778Y-118299648D01*
X132920276Y-118218153D01*
X132771847Y-118127508D01*
X132757931Y-118118110D01*
X132622219Y-118018902D01*
X132483108Y-117904613D01*
X132345391Y-117779770D01*
X132213859Y-117648903D01*
X132093303Y-117516539D01*
X131988515Y-117387208D01*
X131973451Y-117366205D01*
X131932490Y-117300796D01*
X131888694Y-117220980D01*
X131844151Y-117131455D01*
X131800955Y-117036910D01*
X131761196Y-116942044D01*
X131726966Y-116851548D01*
X131700356Y-116770118D01*
X131683458Y-116702448D01*
X131680555Y-116686879D01*
X131660323Y-116524317D01*
X131660311Y-116494102D01*
X131794260Y-116494102D01*
X131795208Y-116551432D01*
X131798243Y-116597861D01*
X131804238Y-116640677D01*
X131814065Y-116687160D01*
X131828598Y-116744599D01*
X131834661Y-116767571D01*
X131854236Y-116839538D01*
X131871331Y-116897155D01*
X131887922Y-116945900D01*
X131905980Y-116991247D01*
X131927480Y-117038674D01*
X131954395Y-117093661D01*
X131957953Y-117100738D01*
X132024129Y-117221271D01*
X132100550Y-117343089D01*
X132180286Y-117455109D01*
X132184242Y-117460226D01*
X132224983Y-117509025D01*
X132278019Y-117567595D01*
X132339555Y-117632169D01*
X132405791Y-117698980D01*
X132472933Y-117764259D01*
X132537182Y-117824232D01*
X132594742Y-117875136D01*
X132641815Y-117913199D01*
X132742296Y-117985054D01*
X132936925Y-118105505D01*
X133136017Y-118204623D01*
X133339426Y-118282341D01*
X133547020Y-118338596D01*
X133609330Y-118349262D01*
X133694323Y-118358093D01*
X133787874Y-118363195D01*
X133883964Y-118364501D01*
X133976579Y-118361946D01*
X134059701Y-118355463D01*
X134127313Y-118344986D01*
X134284258Y-118306286D01*
X134487039Y-118241395D01*
X134690390Y-118159046D01*
X134898133Y-118057813D01*
X134921965Y-118045067D01*
X134982982Y-118010944D01*
X135047977Y-117972862D01*
X135114076Y-117932674D01*
X135178404Y-117892236D01*
X135238088Y-117853404D01*
X135290256Y-117818032D01*
X135332031Y-117787980D01*
X135360543Y-117765097D01*
X135372919Y-117751242D01*
X135374470Y-117726557D01*
X135359804Y-117692138D01*
X135329140Y-117656352D01*
X135322190Y-117650226D01*
X135297104Y-117629144D01*
X135259250Y-117598006D01*
X135211520Y-117559179D01*
X135156822Y-117515027D01*
X135098050Y-117467915D01*
X135072357Y-117447437D01*
X135005183Y-117394747D01*
X134951512Y-117354683D01*
X134908929Y-117326091D01*
X134875026Y-117307818D01*
X134847389Y-117298709D01*
X134823606Y-117297614D01*
X134801269Y-117303377D01*
X134777962Y-117314846D01*
X134755035Y-117328455D01*
X134717913Y-117351286D01*
X134672594Y-117379657D01*
X134624308Y-117410317D01*
X134622780Y-117411292D01*
X134561752Y-117448112D01*
X134487393Y-117489715D01*
X134404295Y-117533813D01*
X134317054Y-117578123D01*
X134230257Y-117620358D01*
X134148502Y-117658234D01*
X134076380Y-117689465D01*
X134018480Y-117711768D01*
X133992919Y-117720419D01*
X133848965Y-117760564D01*
X133714485Y-117782501D01*
X133587500Y-117786445D01*
X133466032Y-117772614D01*
X133325808Y-117736935D01*
X133175891Y-117678692D01*
X133031657Y-117602129D01*
X132895511Y-117509101D01*
X132769850Y-117401467D01*
X132657078Y-117281081D01*
X132559591Y-117149806D01*
X132479789Y-117009493D01*
X132451674Y-116949991D01*
X132423989Y-116884198D01*
X132405117Y-116826293D01*
X132393516Y-116770198D01*
X132387649Y-116709830D01*
X132385976Y-116639111D01*
X132386532Y-116595941D01*
X132386816Y-116592150D01*
X132527253Y-116592150D01*
X132527321Y-116655541D01*
X132527355Y-116665630D01*
X132527906Y-116727901D01*
X132529441Y-116773969D01*
X132532606Y-116808851D01*
X132538046Y-116837556D01*
X132546405Y-116865105D01*
X132558332Y-116896507D01*
X132578758Y-116945008D01*
X132653008Y-117087367D01*
X132742544Y-117216494D01*
X132845887Y-117331234D01*
X132961558Y-117430425D01*
X133088079Y-117512910D01*
X133223970Y-117577529D01*
X133367750Y-117623122D01*
X133517943Y-117648532D01*
X133535106Y-117650184D01*
X133587680Y-117654513D01*
X133628158Y-117655663D01*
X133664147Y-117653227D01*
X133703252Y-117646797D01*
X133753077Y-117635968D01*
X133780082Y-117629400D01*
X133845828Y-117611235D01*
X133915313Y-117589762D01*
X133977370Y-117568348D01*
X134012322Y-117554698D01*
X134077601Y-117526566D01*
X134149863Y-117492802D01*
X134226424Y-117454901D01*
X134304600Y-117414354D01*
X134381715Y-117372656D01*
X134455081Y-117331296D01*
X134522022Y-117291768D01*
X134579853Y-117255567D01*
X134625892Y-117224182D01*
X134657458Y-117199105D01*
X134671870Y-117181834D01*
X134675728Y-117171443D01*
X134679073Y-117160912D01*
X134671071Y-117144833D01*
X134648494Y-117117840D01*
X134614039Y-117082777D01*
X134570394Y-117042380D01*
X134520254Y-116999389D01*
X134472690Y-116959889D01*
X134379992Y-116882076D01*
X134279740Y-116797039D01*
X134177466Y-116709508D01*
X134078718Y-116624214D01*
X133989034Y-116545885D01*
X133939142Y-116502245D01*
X133876050Y-116448141D01*
X133825918Y-116406868D01*
X133786970Y-116377090D01*
X133757429Y-116357474D01*
X133735517Y-116346681D01*
X133719459Y-116343380D01*
X133713876Y-116343973D01*
X133686998Y-116351778D01*
X133649322Y-116366743D01*
X133607167Y-116386444D01*
X133597537Y-116391239D01*
X133518247Y-116425978D01*
X133443556Y-116448344D01*
X133364953Y-116460313D01*
X133273924Y-116463863D01*
X133228395Y-116463021D01*
X133163541Y-116457722D01*
X133102410Y-116446340D01*
X133040739Y-116427480D01*
X132974266Y-116399748D01*
X132898726Y-116361749D01*
X132809858Y-116312089D01*
X132762433Y-116286237D01*
X132718087Y-116268059D01*
X132682415Y-116263965D01*
X132652243Y-116275277D01*
X132624395Y-116303315D01*
X132595699Y-116349400D01*
X132562980Y-116414855D01*
X132553113Y-116435881D01*
X132542079Y-116461701D01*
X132534688Y-116485441D01*
X132530227Y-116511897D01*
X132527985Y-116545868D01*
X132527253Y-116592150D01*
X132386816Y-116592150D01*
X132393493Y-116503006D01*
X132409933Y-116421556D01*
X132437774Y-116347138D01*
X132478932Y-116275301D01*
X132535323Y-116201591D01*
X132608868Y-116121554D01*
X132640092Y-116089980D01*
X132681977Y-116049610D01*
X132682415Y-116049235D01*
X132713042Y-116023007D01*
X132735445Y-116008390D01*
X132751346Y-116003977D01*
X132756342Y-116004076D01*
X132783123Y-116008795D01*
X132800444Y-116023432D01*
X132811124Y-116051977D01*
X132817972Y-116098418D01*
X132821058Y-116123569D01*
X132828801Y-116157001D01*
X132842799Y-116182983D01*
X132866551Y-116205470D01*
X132903556Y-116228410D01*
X132957313Y-116255754D01*
X133045378Y-116292645D01*
X133160375Y-116322138D01*
X133274891Y-116329991D01*
X133389689Y-116316310D01*
X133418787Y-116309525D01*
X133455144Y-116298419D01*
X133490231Y-116283553D01*
X133526430Y-116263245D01*
X133566130Y-116235812D01*
X133581717Y-116223419D01*
X133849847Y-116223419D01*
X133856309Y-116246893D01*
X133867995Y-116264809D01*
X133896322Y-116296694D01*
X133939856Y-116340474D01*
X133997566Y-116395258D01*
X134068418Y-116460156D01*
X134151385Y-116534274D01*
X134245431Y-116616726D01*
X134349524Y-116706617D01*
X134462634Y-116803061D01*
X134583729Y-116905164D01*
X134711774Y-117012039D01*
X134845741Y-117122789D01*
X134984597Y-117236530D01*
X135127309Y-117352368D01*
X135272847Y-117469413D01*
X135366077Y-117543996D01*
X135465452Y-117623221D01*
X135550615Y-117690525D01*
X135623139Y-117746906D01*
X135684594Y-117793356D01*
X135736552Y-117830868D01*
X135780584Y-117860436D01*
X135818264Y-117883053D01*
X135851160Y-117899713D01*
X135880845Y-117911410D01*
X135908892Y-117919137D01*
X135936870Y-117923887D01*
X135966352Y-117926653D01*
X135998909Y-117928430D01*
X136035699Y-117929368D01*
X136093764Y-117925453D01*
X136136698Y-117912724D01*
X136168308Y-117889743D01*
X136192396Y-117855064D01*
X136195985Y-117847751D01*
X136210366Y-117791385D01*
X136207237Y-117726386D01*
X136186707Y-117656562D01*
X136176535Y-117632457D01*
X136163420Y-117604621D01*
X136148697Y-117578962D01*
X136130454Y-117553464D01*
X136106781Y-117526112D01*
X136075767Y-117494890D01*
X136035502Y-117457784D01*
X135984074Y-117412779D01*
X135919574Y-117357860D01*
X135840091Y-117291011D01*
X135776099Y-117237329D01*
X135695175Y-117169427D01*
X135610543Y-117098399D01*
X135529037Y-117029983D01*
X135457484Y-116969906D01*
X135402949Y-116923838D01*
X135251366Y-116792413D01*
X135466276Y-116792413D01*
X135473384Y-116815096D01*
X135489161Y-116838703D01*
X135502912Y-116852863D01*
X135531069Y-116878773D01*
X135570235Y-116913410D01*
X135617353Y-116954205D01*
X135669371Y-116998581D01*
X135723233Y-117043969D01*
X135775884Y-117087790D01*
X135824273Y-117127477D01*
X135865342Y-117160454D01*
X135896036Y-117184149D01*
X135913303Y-117195987D01*
X135921184Y-117199959D01*
X135947020Y-117208486D01*
X135971469Y-117206554D01*
X135998208Y-117192430D01*
X136030917Y-117164382D01*
X136073276Y-117120681D01*
X136103366Y-117087081D01*
X136192050Y-116974222D01*
X136277962Y-116844859D01*
X136358740Y-116703032D01*
X136432023Y-116552781D01*
X136495454Y-116398145D01*
X136532429Y-116294990D01*
X136563204Y-116199652D01*
X136587957Y-116109435D01*
X136607876Y-116018935D01*
X136624145Y-115922746D01*
X136637954Y-115815462D01*
X136650484Y-115691677D01*
X136651917Y-115675427D01*
X136657519Y-115580260D01*
X136657410Y-115488238D01*
X136651229Y-115393397D01*
X136638618Y-115289775D01*
X136619222Y-115171410D01*
X136587966Y-115026423D01*
X136542812Y-114870765D01*
X136487715Y-114721848D01*
X136424218Y-114583382D01*
X136353868Y-114459078D01*
X136278210Y-114352643D01*
X136256582Y-114326447D01*
X136228705Y-114296340D01*
X136206777Y-114279922D01*
X136186744Y-114274513D01*
X136164553Y-114277423D01*
X136151561Y-114283705D01*
X136122540Y-114301927D01*
X136081765Y-114329692D01*
X136032212Y-114364788D01*
X135976858Y-114405009D01*
X135918681Y-114448140D01*
X135860659Y-114491972D01*
X135805766Y-114534294D01*
X135756981Y-114572896D01*
X135717279Y-114605568D01*
X135689639Y-114630097D01*
X135684845Y-114634759D01*
X135658268Y-114665913D01*
X135644375Y-114696662D01*
X135643627Y-114730284D01*
X135656484Y-114770055D01*
X135683406Y-114819254D01*
X135724852Y-114881155D01*
X135778985Y-114964446D01*
X135853867Y-115104578D01*
X135915793Y-115252946D01*
X135961354Y-115402037D01*
X135963738Y-115411841D01*
X135973508Y-115457067D01*
X135980199Y-115500698D01*
X135984356Y-115548604D01*
X135986526Y-115606656D01*
X135987250Y-115680724D01*
X135987266Y-115689273D01*
X135987030Y-115755567D01*
X135985711Y-115805735D01*
X135982750Y-115844971D01*
X135977592Y-115878474D01*
X135969675Y-115911442D01*
X135958444Y-115949073D01*
X135943002Y-115996563D01*
X135892308Y-116130566D01*
X135833181Y-116254732D01*
X135762827Y-116373963D01*
X135678450Y-116493153D01*
X135577255Y-116617205D01*
X135548225Y-116651230D01*
X135508806Y-116700060D01*
X135482799Y-116737877D01*
X135469018Y-116767668D01*
X135466276Y-116792413D01*
X135251366Y-116792413D01*
X135225290Y-116769805D01*
X135048821Y-116610467D01*
X134870132Y-116442643D01*
X134685819Y-116263150D01*
X134492471Y-116068807D01*
X134429919Y-116005392D01*
X134373268Y-115948928D01*
X134328652Y-115905847D01*
X134294540Y-115874755D01*
X134269405Y-115854266D01*
X134251716Y-115842992D01*
X134239943Y-115839543D01*
X134224206Y-115841555D01*
X134205413Y-115848984D01*
X134181973Y-115863504D01*
X134151717Y-115886797D01*
X134112472Y-115920535D01*
X134062066Y-115966395D01*
X133998329Y-116026056D01*
X133956781Y-116065710D01*
X133911189Y-116111399D01*
X133879391Y-116147383D01*
X133859697Y-116176295D01*
X133850413Y-116200764D01*
X133849847Y-116223419D01*
X133581717Y-116223419D01*
X133611716Y-116199567D01*
X133665572Y-116152822D01*
X133730087Y-116093896D01*
X133807641Y-116021103D01*
X133815112Y-116014038D01*
X133915981Y-115919178D01*
X134013132Y-115828940D01*
X134107987Y-115742152D01*
X134126583Y-115725430D01*
X134382419Y-115725430D01*
X134393553Y-115758049D01*
X134419674Y-115797321D01*
X134461933Y-115846648D01*
X134474008Y-115859759D01*
X134519285Y-115907836D01*
X134575926Y-115966798D01*
X134641279Y-116033976D01*
X134712688Y-116106701D01*
X134787497Y-116182307D01*
X134863049Y-116258126D01*
X134936695Y-116331491D01*
X135005776Y-116399736D01*
X135067637Y-116460193D01*
X135119625Y-116510193D01*
X135159085Y-116547071D01*
X135187026Y-116572457D01*
X135233498Y-116612870D01*
X135269857Y-116638534D01*
X135300212Y-116649405D01*
X135328674Y-116645439D01*
X135359354Y-116626596D01*
X135396360Y-116592832D01*
X135443807Y-116544102D01*
X135483183Y-116501150D01*
X135532610Y-116442921D01*
X135578947Y-116384205D01*
X135615828Y-116332822D01*
X135636477Y-116300803D01*
X135681217Y-116225130D01*
X135724028Y-116144919D01*
X135762165Y-116065728D01*
X135792884Y-115993116D01*
X135813438Y-115932642D01*
X135815029Y-115926590D01*
X135824735Y-115871743D01*
X135831674Y-115796651D01*
X135835719Y-115702630D01*
X135835921Y-115694315D01*
X135836945Y-115625920D01*
X135836081Y-115573202D01*
X135832935Y-115530575D01*
X135827115Y-115492447D01*
X135818230Y-115453225D01*
X135792940Y-115368421D01*
X135758234Y-115275109D01*
X135716916Y-115179942D01*
X135671284Y-115087563D01*
X135623633Y-115002616D01*
X135576260Y-114929741D01*
X135531463Y-114873580D01*
X135504763Y-114845830D01*
X135484358Y-114829206D01*
X135467673Y-114823583D01*
X135449408Y-114825876D01*
X135448119Y-114826208D01*
X135434961Y-114830583D01*
X135419430Y-114837911D01*
X135399896Y-114849398D01*
X135374735Y-114866246D01*
X135342311Y-114889657D01*
X135301002Y-114920833D01*
X135249179Y-114960979D01*
X135185211Y-115011297D01*
X135107471Y-115072986D01*
X135014330Y-115147256D01*
X134910605Y-115230500D01*
X134809892Y-115312185D01*
X134717065Y-115388353D01*
X134633467Y-115457875D01*
X134560443Y-115519612D01*
X134499331Y-115572425D01*
X134451476Y-115615187D01*
X134418219Y-115646757D01*
X134400903Y-115666003D01*
X134400522Y-115666548D01*
X134385126Y-115696062D01*
X134382419Y-115725430D01*
X134126583Y-115725430D01*
X134201972Y-115657637D01*
X134239943Y-115624131D01*
X134296507Y-115574217D01*
X134393017Y-115490723D01*
X134492925Y-115405976D01*
X134597654Y-115318803D01*
X134708627Y-115228028D01*
X134827269Y-115132476D01*
X134955002Y-115030972D01*
X135093249Y-114922344D01*
X135243435Y-114805414D01*
X135406981Y-114679007D01*
X135467674Y-114632361D01*
X135585311Y-114541949D01*
X135779849Y-114393066D01*
X135875676Y-114319618D01*
X135969643Y-114247139D01*
X136058386Y-114178243D01*
X136140154Y-114114308D01*
X136186744Y-114077573D01*
X136213201Y-114056713D01*
X136275780Y-114006836D01*
X136326140Y-113966054D01*
X136362536Y-113935747D01*
X136383222Y-113917292D01*
X136415593Y-113883206D01*
X136449755Y-113837528D01*
X136472059Y-113791332D01*
X136477799Y-113775207D01*
X136496426Y-113706892D01*
X136501242Y-113647930D01*
X136492855Y-113592520D01*
X136489078Y-113579034D01*
X136469646Y-113529808D01*
X136441657Y-113492156D01*
X136399279Y-113457671D01*
X136397792Y-113456646D01*
X136371245Y-113440488D01*
X136344547Y-113430458D01*
X136310448Y-113424627D01*
X136261696Y-113421065D01*
X136239858Y-113420020D01*
X136198719Y-113419567D01*
X136167466Y-113423226D01*
X136137665Y-113432444D01*
X136100879Y-113448672D01*
X136071744Y-113464424D01*
X136026131Y-113493377D01*
X135975932Y-113528704D01*
X135927714Y-113565958D01*
X135894230Y-113593075D01*
X135833584Y-113641555D01*
X135770685Y-113691233D01*
X135714784Y-113734771D01*
X135700748Y-113745617D01*
X135654032Y-113781898D01*
X135596042Y-113827131D01*
X135531046Y-113877974D01*
X135463324Y-113931084D01*
X135397148Y-113983121D01*
X135389248Y-113989336D01*
X135314140Y-114048125D01*
X135231050Y-114112680D01*
X135146263Y-114178152D01*
X135066055Y-114239686D01*
X134996711Y-114292435D01*
X134988709Y-114298483D01*
X134814706Y-114430341D01*
X134658201Y-114549548D01*
X134518955Y-114656286D01*
X134396731Y-114750738D01*
X134291292Y-114833087D01*
X134202398Y-114903517D01*
X134151025Y-114944470D01*
X134098958Y-114985724D01*
X134053102Y-115021798D01*
X134017078Y-115049851D01*
X133994510Y-115067029D01*
X133974372Y-115082362D01*
X133933523Y-115114674D01*
X133880579Y-115157455D01*
X133818192Y-115208489D01*
X133749033Y-115265564D01*
X133675754Y-115326465D01*
X133601020Y-115388980D01*
X133527490Y-115450894D01*
X133457825Y-115509995D01*
X133394688Y-115564070D01*
X133340735Y-115610905D01*
X133303626Y-115643394D01*
X133245883Y-115693631D01*
X133201300Y-115731622D01*
X133167764Y-115758848D01*
X133143165Y-115776790D01*
X133125387Y-115786926D01*
X133112320Y-115790737D01*
X133101853Y-115789702D01*
X133091874Y-115785305D01*
X133070389Y-115768446D01*
X133053194Y-115738749D01*
X133052559Y-115708087D01*
X133062983Y-115693641D01*
X133088073Y-115667154D01*
X133125574Y-115630736D01*
X133173256Y-115586429D01*
X133228884Y-115536271D01*
X133290231Y-115482302D01*
X133355063Y-115426565D01*
X133421149Y-115371099D01*
X133452684Y-115344436D01*
X133490777Y-115310762D01*
X133521058Y-115282332D01*
X133538894Y-115263380D01*
X133543224Y-115257482D01*
X133559080Y-115221029D01*
X133558986Y-115185593D01*
X133542699Y-115157908D01*
X133517439Y-115140103D01*
X133474811Y-115116757D01*
X133423849Y-115093083D01*
X133371301Y-115072192D01*
X133323921Y-115057186D01*
X133315935Y-115055185D01*
X133210053Y-115040108D01*
X133098023Y-115043545D01*
X132983799Y-115064785D01*
X132871320Y-115103118D01*
X132764537Y-115157834D01*
X132733390Y-115178479D01*
X132679757Y-115218413D01*
X132616000Y-115269563D01*
X132544583Y-115329653D01*
X132467974Y-115396404D01*
X132388634Y-115467542D01*
X132309031Y-115540790D01*
X132231628Y-115613873D01*
X132158893Y-115684511D01*
X132093291Y-115750430D01*
X132037285Y-115809354D01*
X131993341Y-115859005D01*
X131963924Y-115897110D01*
X131940884Y-115933848D01*
X131897614Y-116016445D01*
X131857725Y-116109749D01*
X131824499Y-116206468D01*
X131820563Y-116219764D01*
X131809328Y-116261767D01*
X131801846Y-116300286D01*
X131797355Y-116341668D01*
X131795090Y-116392252D01*
X131794298Y-116458387D01*
X131794260Y-116494102D01*
X131660311Y-116494102D01*
X131660263Y-116369270D01*
X131680661Y-116220743D01*
X131721791Y-116077737D01*
X131783934Y-115939256D01*
X131867370Y-115804299D01*
X131972380Y-115671871D01*
X131996230Y-115643876D01*
X132016722Y-115614345D01*
X132026017Y-115587591D01*
X132023606Y-115559650D01*
X132008975Y-115526557D01*
X131981613Y-115484344D01*
X131941007Y-115429050D01*
X131901281Y-115374919D01*
X131846992Y-115294861D01*
X131804112Y-115221795D01*
X131769813Y-115150731D01*
X131741265Y-115076677D01*
X131706679Y-114957648D01*
X131678964Y-114796158D01*
X131671770Y-114644652D01*
X131811131Y-114644652D01*
X131820682Y-114805403D01*
X131850860Y-114958819D01*
X131901735Y-115105108D01*
X131973372Y-115244477D01*
X132065839Y-115377135D01*
X132072142Y-115384965D01*
X132109012Y-115425385D01*
X132140409Y-115447949D01*
X132169658Y-115454375D01*
X132200087Y-115446376D01*
X132222839Y-115433121D01*
X132258751Y-115407193D01*
X132302661Y-115372172D01*
X132351793Y-115330607D01*
X132403375Y-115285048D01*
X132454633Y-115238044D01*
X132502791Y-115192147D01*
X132545077Y-115149903D01*
X132578716Y-115113863D01*
X132600934Y-115086578D01*
X132608956Y-115070596D01*
X132604913Y-115059036D01*
X132591050Y-115032084D01*
X132569652Y-114994913D01*
X132543150Y-114951903D01*
X132497987Y-114875447D01*
X132462022Y-114798206D01*
X132438851Y-114722133D01*
X132426441Y-114640371D01*
X132422755Y-114546062D01*
X132423791Y-114497871D01*
X132560974Y-114497871D01*
X132563246Y-114609766D01*
X132581974Y-114710142D01*
X132617811Y-114801728D01*
X132671412Y-114887258D01*
X132692169Y-114914709D01*
X132719542Y-114947903D01*
X132743455Y-114968272D01*
X132768779Y-114977069D01*
X132800386Y-114975545D01*
X132843152Y-114964958D01*
X132901946Y-114946558D01*
X132907169Y-114944894D01*
X132973558Y-114925134D01*
X133029098Y-114912225D01*
X133082470Y-114904493D01*
X133142356Y-114900267D01*
X133240521Y-114899654D01*
X133341129Y-114910317D01*
X133433543Y-114934715D01*
X133523608Y-114974460D01*
X133617171Y-115031161D01*
X133625451Y-115036732D01*
X133669926Y-115065384D01*
X133701315Y-115082500D01*
X133723224Y-115089784D01*
X133739255Y-115088948D01*
X133743646Y-115087283D01*
X133770217Y-115072293D01*
X133812583Y-115043770D01*
X133870041Y-115002230D01*
X133941891Y-114948192D01*
X134027427Y-114882170D01*
X134125946Y-114804682D01*
X134154848Y-114781847D01*
X134218598Y-114731891D01*
X134283900Y-114681174D01*
X134344538Y-114634515D01*
X134394294Y-114596732D01*
X134438655Y-114563176D01*
X134508519Y-114509489D01*
X134577107Y-114455860D01*
X134642104Y-114404170D01*
X134701199Y-114356300D01*
X134752080Y-114314128D01*
X134792434Y-114279536D01*
X134819945Y-114254404D01*
X134832303Y-114240613D01*
X134833339Y-114238637D01*
X134843439Y-114201267D01*
X134833253Y-114165560D01*
X134802098Y-114129000D01*
X134743773Y-114079027D01*
X134652509Y-114007916D01*
X134548934Y-113933523D01*
X134437522Y-113858819D01*
X134322745Y-113786782D01*
X134209078Y-113720387D01*
X134100993Y-113662611D01*
X133997941Y-113611626D01*
X133908098Y-113570078D01*
X133830333Y-113538099D01*
X133761329Y-113514710D01*
X133697772Y-113498935D01*
X133636348Y-113489800D01*
X133573740Y-113486325D01*
X133506635Y-113487537D01*
X133453591Y-113491413D01*
X133320846Y-113514929D01*
X133193872Y-113558389D01*
X133071038Y-113622440D01*
X132950701Y-113707731D01*
X132923134Y-113731513D01*
X132862412Y-113793267D01*
X132800873Y-113866647D01*
X132743075Y-113945630D01*
X132693577Y-114024180D01*
X132656936Y-114096273D01*
X132641298Y-114134954D01*
X132607055Y-114237856D01*
X132580747Y-114344116D01*
X132565108Y-114443393D01*
X132560974Y-114497871D01*
X132423791Y-114497871D01*
X132424232Y-114477333D01*
X132434431Y-114369035D01*
X132455673Y-114266573D01*
X132489533Y-114160858D01*
X132537447Y-114046261D01*
X132616892Y-113900651D01*
X132711448Y-113769236D01*
X132819946Y-113653824D01*
X132853697Y-113623228D01*
X132960930Y-113536644D01*
X133068480Y-113467223D01*
X133181334Y-113412031D01*
X133304472Y-113368127D01*
X133327439Y-113361357D01*
X133366743Y-113351199D01*
X133403800Y-113344484D01*
X133444651Y-113340501D01*
X133495328Y-113338545D01*
X133561868Y-113337904D01*
X133573740Y-113337870D01*
X133720685Y-113337450D01*
X133866563Y-113389938D01*
X133873783Y-113392543D01*
X133934404Y-113414931D01*
X133993798Y-113437661D01*
X134045477Y-113458213D01*
X134082957Y-113474065D01*
X134168301Y-113515144D01*
X134286636Y-113579328D01*
X134414735Y-113655834D01*
X134549555Y-113742760D01*
X134688054Y-113838199D01*
X134827195Y-113940249D01*
X134878198Y-113977967D01*
X134929061Y-114013822D01*
X134972800Y-114042840D01*
X135006044Y-114062794D01*
X135025426Y-114071448D01*
X135034465Y-114072741D01*
X135050127Y-114071482D01*
X135068937Y-114064178D01*
X135094378Y-114048905D01*
X135129931Y-114023747D01*
X135179078Y-113986785D01*
X135228207Y-113949322D01*
X135312212Y-113885019D01*
X135380995Y-113831910D01*
X135436095Y-113788721D01*
X135479050Y-113754175D01*
X135511399Y-113726999D01*
X135534680Y-113705917D01*
X135550433Y-113689651D01*
X135560194Y-113676930D01*
X135565503Y-113666475D01*
X135568753Y-113657598D01*
X135575527Y-113635039D01*
X135574391Y-113619975D01*
X135565313Y-113602261D01*
X135561618Y-113596733D01*
X135537603Y-113570541D01*
X135498107Y-113534907D01*
X135445512Y-113491562D01*
X135382196Y-113442234D01*
X135310540Y-113388653D01*
X135232923Y-113332542D01*
X135151725Y-113275636D01*
X135069327Y-113219657D01*
X134988106Y-113166338D01*
X134910445Y-113117405D01*
X134838722Y-113074588D01*
X134826833Y-113067763D01*
X134704302Y-113000523D01*
X134575655Y-112935010D01*
X134445682Y-112873417D01*
X134319178Y-112817942D01*
X134200932Y-112770779D01*
X134095738Y-112734131D01*
X134053323Y-112720994D01*
X133978685Y-112699856D01*
X133911371Y-112684429D01*
X133845545Y-112673880D01*
X133775372Y-112667377D01*
X133695019Y-112664085D01*
X133598649Y-112663173D01*
X133588867Y-112663174D01*
X133515280Y-112663418D01*
X133458090Y-112664404D01*
X133412361Y-112666610D01*
X133373154Y-112670509D01*
X133335533Y-112676574D01*
X133294561Y-112685280D01*
X133245298Y-112697102D01*
X133123295Y-112732494D01*
X132952962Y-112800885D01*
X132789950Y-112889110D01*
X132635092Y-112996428D01*
X132489232Y-113122093D01*
X132353202Y-113265363D01*
X132227838Y-113425493D01*
X132113978Y-113601740D01*
X132012457Y-113793359D01*
X131939487Y-113965473D01*
X131875957Y-114167468D01*
X131833609Y-114374735D01*
X131812661Y-114586402D01*
X131811131Y-114644652D01*
X131671770Y-114644652D01*
X131670923Y-114626809D01*
X131682453Y-114448512D01*
X131682932Y-114444464D01*
X131691734Y-114382368D01*
X131703876Y-114312333D01*
X131718280Y-114239297D01*
X131733865Y-114168196D01*
X131749553Y-114103966D01*
X131764268Y-114051545D01*
X131776931Y-114015869D01*
X131780994Y-114006088D01*
X131792515Y-113976958D01*
X131808216Y-113936362D01*
X131825914Y-113889909D01*
X131834035Y-113869112D01*
X131867899Y-113790860D01*
X131909893Y-113703198D01*
X131956857Y-113612111D01*
X132005633Y-113523584D01*
X132053061Y-113443607D01*
X132095982Y-113378162D01*
X132154462Y-113298598D01*
X132261392Y-113167657D01*
X132375241Y-113044580D01*
X132493233Y-112931949D01*
X132612591Y-112832344D01*
X132730540Y-112748345D01*
X132844301Y-112682537D01*
X132894966Y-112657964D01*
X133063903Y-112588572D01*
X133236080Y-112535789D01*
X133276944Y-112526032D01*
X133319376Y-112517799D01*
X133363539Y-112511798D01*
X133414474Y-112507496D01*
X133477228Y-112504363D01*
X133556843Y-112501864D01*
X133576293Y-112501397D01*
X133598648Y-112501307D01*
X133684254Y-112500965D01*
X133778932Y-112505402D01*
G37*
G36*
X151833688Y-91990357D02*
G01*
X151833690Y-91990359D01*
X151845096Y-92024018D01*
X151856370Y-92098898D01*
X151867446Y-92211658D01*
X151878261Y-92358959D01*
X151888748Y-92537461D01*
X151898843Y-92743823D01*
X151908481Y-92974706D01*
X151917597Y-93226770D01*
X151926125Y-93496675D01*
X151934000Y-93781080D01*
X151941159Y-94076646D01*
X151947535Y-94380032D01*
X151953063Y-94687899D01*
X151957679Y-94996907D01*
X151961317Y-95303715D01*
X151963912Y-95604984D01*
X151965400Y-95897373D01*
X151965714Y-96177543D01*
X151964791Y-96442153D01*
X151962565Y-96687864D01*
X151958972Y-96911335D01*
X151953945Y-97109227D01*
X151947420Y-97278199D01*
X151939332Y-97414912D01*
X151938059Y-97431971D01*
X151931185Y-97521507D01*
X151924191Y-97606459D01*
X151916600Y-97690573D01*
X151907935Y-97777595D01*
X151897721Y-97871271D01*
X151885481Y-97975347D01*
X151870739Y-98093568D01*
X151853018Y-98229681D01*
X151831844Y-98387431D01*
X151806738Y-98570564D01*
X151777226Y-98782826D01*
X151742830Y-99027962D01*
X151703076Y-99309719D01*
X151657485Y-99631842D01*
X151637548Y-99772787D01*
X151583458Y-100158001D01*
X151535679Y-100504063D01*
X151493921Y-100814632D01*
X151457891Y-101093363D01*
X151427299Y-101343913D01*
X151401853Y-101569940D01*
X151381262Y-101775099D01*
X151365234Y-101963048D01*
X151353478Y-102137443D01*
X151345703Y-102301942D01*
X151341617Y-102460200D01*
X151340929Y-102615875D01*
X151343347Y-102772624D01*
X151348580Y-102934102D01*
X151356337Y-103103968D01*
X151366326Y-103285877D01*
X151377057Y-103464720D01*
X151394117Y-103734458D01*
X151414290Y-104040327D01*
X151437240Y-104377637D01*
X151462633Y-104741694D01*
X151490133Y-105127809D01*
X151519407Y-105531290D01*
X151550117Y-105947445D01*
X151581931Y-106371583D01*
X151614513Y-106799013D01*
X151647528Y-107225043D01*
X151653099Y-107296689D01*
X151669661Y-107514374D01*
X151684570Y-107717378D01*
X151697547Y-107901452D01*
X151708316Y-108062349D01*
X151716597Y-108195821D01*
X151722113Y-108297620D01*
X151724585Y-108363499D01*
X151723736Y-108389210D01*
X151710034Y-108402777D01*
X151669333Y-108407885D01*
X151630399Y-108382588D01*
X151627144Y-108370066D01*
X151619728Y-108316076D01*
X151609644Y-108222836D01*
X151597139Y-108093509D01*
X151582458Y-107931259D01*
X151565844Y-107739249D01*
X151547543Y-107520645D01*
X151527801Y-107278608D01*
X151506862Y-107016303D01*
X151484971Y-106736894D01*
X151462374Y-106443543D01*
X151439314Y-106139416D01*
X151416038Y-105827676D01*
X151392790Y-105511485D01*
X151369815Y-105194009D01*
X151347359Y-104878411D01*
X151325666Y-104567854D01*
X151304981Y-104265503D01*
X151285549Y-103974520D01*
X151267616Y-103698070D01*
X151259790Y-103574174D01*
X151246290Y-103350351D01*
X151235221Y-103144975D01*
X151226840Y-102954140D01*
X151221402Y-102773937D01*
X151219166Y-102600458D01*
X151220386Y-102429795D01*
X151225321Y-102258041D01*
X151234227Y-102081287D01*
X151247360Y-101895625D01*
X151264977Y-101697148D01*
X151287335Y-101481947D01*
X151314690Y-101246115D01*
X151347300Y-100985743D01*
X151385420Y-100696923D01*
X151429308Y-100375749D01*
X151479219Y-100018311D01*
X151535412Y-99620702D01*
X151579195Y-99311359D01*
X151621041Y-99013857D01*
X151657365Y-98752785D01*
X151688637Y-98524149D01*
X151715326Y-98323957D01*
X151737903Y-98148217D01*
X151756836Y-97992934D01*
X151772596Y-97854118D01*
X151785653Y-97727774D01*
X151796475Y-97609910D01*
X151805532Y-97496533D01*
X151813295Y-97383651D01*
X151820233Y-97267270D01*
X151826815Y-97143398D01*
X151830101Y-97071849D01*
X151836792Y-96864299D01*
X151841395Y-96618853D01*
X151843980Y-96340229D01*
X151844614Y-96033146D01*
X151843365Y-95702323D01*
X151840303Y-95352478D01*
X151835495Y-94988330D01*
X151829009Y-94614597D01*
X151820914Y-94235999D01*
X151811278Y-93857254D01*
X151800169Y-93483080D01*
X151787656Y-93118197D01*
X151773807Y-92767322D01*
X151758690Y-92435175D01*
X151757729Y-92415439D01*
X151751294Y-92271149D01*
X151748064Y-92164440D01*
X151748201Y-92089160D01*
X151751867Y-92039155D01*
X151759225Y-92008271D01*
X151770438Y-91990357D01*
X151776821Y-91984008D01*
X151804403Y-91969011D01*
X151833688Y-91990357D01*
G37*
G36*
X150305949Y-96493307D02*
G01*
X150306706Y-96510040D01*
X150304805Y-96544086D01*
X150302833Y-96579386D01*
X150299091Y-96646391D01*
X150298282Y-96660872D01*
X150265560Y-96808902D01*
X150212490Y-96940803D01*
X150143019Y-97043247D01*
X150113884Y-97073866D01*
X150070654Y-97107784D01*
X150022295Y-97121653D01*
X149949171Y-97123614D01*
X149849695Y-97112494D01*
X149731649Y-97073483D01*
X149696894Y-97056573D01*
X149649094Y-97033889D01*
X149628518Y-97025000D01*
X149628299Y-97025066D01*
X149617158Y-97045023D01*
X149597415Y-97089825D01*
X149590947Y-97110216D01*
X149588231Y-97138608D01*
X149591586Y-97177703D01*
X149602230Y-97232804D01*
X149621381Y-97309209D01*
X149650258Y-97412219D01*
X149690078Y-97547134D01*
X149742059Y-97719255D01*
X149785937Y-97862974D01*
X149829041Y-98002637D01*
X149866790Y-98123377D01*
X149897310Y-98219257D01*
X149918729Y-98284340D01*
X149929176Y-98312690D01*
X149943029Y-98313124D01*
X149984370Y-98286901D01*
X150053306Y-98230320D01*
X150150751Y-98142620D01*
X150277621Y-98023041D01*
X150326471Y-97976308D01*
X150497844Y-97812621D01*
X150640669Y-97676775D01*
X150757721Y-97566270D01*
X150851771Y-97478608D01*
X150925593Y-97411288D01*
X150981960Y-97361813D01*
X151023644Y-97327682D01*
X151053418Y-97306397D01*
X151074055Y-97295459D01*
X151088328Y-97292368D01*
X151092500Y-97292025D01*
X151110811Y-97279842D01*
X151126056Y-97247936D01*
X151138456Y-97193205D01*
X151148233Y-97112547D01*
X151155608Y-97002858D01*
X151160803Y-96861037D01*
X151164040Y-96683982D01*
X151165540Y-96468588D01*
X151165525Y-96211754D01*
X151164683Y-96055292D01*
X151161435Y-95802875D01*
X151155685Y-95540277D01*
X151147254Y-95263698D01*
X151135967Y-94969339D01*
X151121647Y-94653402D01*
X151104117Y-94312087D01*
X151083200Y-93941595D01*
X151058720Y-93538127D01*
X151030500Y-93097884D01*
X150998363Y-92617068D01*
X150994013Y-92552116D01*
X150983531Y-92386497D01*
X150974908Y-92236648D01*
X150968419Y-92108306D01*
X150964338Y-92007203D01*
X150962939Y-91939074D01*
X150964497Y-91909655D01*
X150978587Y-91892212D01*
X151020480Y-91878158D01*
X151044024Y-91883125D01*
X151064222Y-91911001D01*
X151076716Y-91972851D01*
X151077244Y-91977165D01*
X151082245Y-92030789D01*
X151089573Y-92124299D01*
X151098961Y-92253689D01*
X151110143Y-92414955D01*
X151122854Y-92604094D01*
X151136826Y-92817100D01*
X151151795Y-93049971D01*
X151167492Y-93298700D01*
X151183654Y-93559284D01*
X151200012Y-93827719D01*
X151209956Y-93996204D01*
X151231345Y-94389111D01*
X151249765Y-94772673D01*
X151265120Y-95142993D01*
X151277315Y-95496179D01*
X151286254Y-95828334D01*
X151291842Y-96135565D01*
X151293983Y-96413978D01*
X151292581Y-96659678D01*
X151287541Y-96868770D01*
X151278768Y-97037359D01*
X151262508Y-97261385D01*
X151409605Y-97252019D01*
X151464201Y-97249185D01*
X151523845Y-97250262D01*
X151556019Y-97259981D01*
X151571090Y-97280148D01*
X151575903Y-97313187D01*
X151552187Y-97344926D01*
X151491409Y-97365733D01*
X151390114Y-97377465D01*
X151318816Y-97383968D01*
X151265665Y-97392770D01*
X151245351Y-97401723D01*
X151243637Y-97421386D01*
X151236670Y-97481142D01*
X151235578Y-97489894D01*
X151225161Y-97573366D01*
X151209997Y-97691437D01*
X151192062Y-97828738D01*
X151172240Y-97978649D01*
X151151418Y-98134550D01*
X151130481Y-98289823D01*
X151110312Y-98437849D01*
X151091798Y-98572007D01*
X151075824Y-98685680D01*
X151063274Y-98772248D01*
X151055033Y-98825091D01*
X151042459Y-98898428D01*
X151160615Y-98884449D01*
X151208670Y-98877792D01*
X151311615Y-98859776D01*
X151408918Y-98838904D01*
X151413959Y-98837686D01*
X151498176Y-98820541D01*
X151548619Y-98820097D01*
X151573133Y-98838068D01*
X151579562Y-98876165D01*
X151579561Y-98876431D01*
X151569969Y-98907275D01*
X151537806Y-98932557D01*
X151477588Y-98954258D01*
X151383835Y-98974357D01*
X151251064Y-98994836D01*
X151200868Y-99002068D01*
X151118019Y-99015420D01*
X151058613Y-99026906D01*
X151033029Y-99034632D01*
X151032803Y-99034998D01*
X151027022Y-99062136D01*
X151023087Y-99085480D01*
X151015952Y-99127812D01*
X151000336Y-99226863D01*
X150980916Y-99354130D01*
X150958433Y-99504450D01*
X150933630Y-99672664D01*
X150907249Y-99853609D01*
X150880031Y-100042125D01*
X150852719Y-100233051D01*
X150826055Y-100421226D01*
X150800780Y-100601488D01*
X150777637Y-100768676D01*
X150757367Y-100917629D01*
X150740713Y-101043187D01*
X150728417Y-101140188D01*
X150721221Y-101203471D01*
X150714912Y-101289966D01*
X150721275Y-101352925D01*
X150748526Y-101394843D01*
X150804052Y-101426567D01*
X150895242Y-101458944D01*
X150959565Y-101485685D01*
X151009810Y-101522982D01*
X151024503Y-101560400D01*
X150999705Y-101592889D01*
X150968819Y-101598545D01*
X150905719Y-101590127D01*
X150828475Y-101567732D01*
X150751308Y-101534692D01*
X150712339Y-101517168D01*
X150691218Y-101523859D01*
X150679564Y-101565001D01*
X150675712Y-101585354D01*
X150657623Y-101712337D01*
X150642004Y-101874807D01*
X150629287Y-102065228D01*
X150619904Y-102276067D01*
X150614286Y-102499789D01*
X150612866Y-102728860D01*
X150613116Y-102768635D01*
X150616198Y-102937645D01*
X150622726Y-103131680D01*
X150632820Y-103352347D01*
X150646599Y-103601252D01*
X150664180Y-103880000D01*
X150685682Y-104190197D01*
X150711224Y-104533448D01*
X150740923Y-104911360D01*
X150774900Y-105325538D01*
X150813272Y-105777588D01*
X150856157Y-106269115D01*
X150903675Y-106801725D01*
X150955943Y-107377024D01*
X150967487Y-107503822D01*
X150985463Y-107704358D01*
X151001835Y-107890784D01*
X151016181Y-108058057D01*
X151028077Y-108201133D01*
X151037099Y-108314970D01*
X151042823Y-108394525D01*
X151044825Y-108434754D01*
X151042680Y-108481528D01*
X151030229Y-108513681D01*
X151001578Y-108521842D01*
X150976041Y-108518465D01*
X150945357Y-108500849D01*
X150944619Y-108498772D01*
X150939014Y-108463189D01*
X150930068Y-108387599D01*
X150918109Y-108275619D01*
X150903466Y-108130867D01*
X150886466Y-107956963D01*
X150867436Y-107757524D01*
X150846706Y-107536169D01*
X150824601Y-107296515D01*
X150801451Y-107042181D01*
X150777582Y-106776784D01*
X150753323Y-106503944D01*
X150729001Y-106227278D01*
X150704944Y-105950405D01*
X150681481Y-105676942D01*
X150658937Y-105410508D01*
X150637642Y-105154721D01*
X150617924Y-104913200D01*
X150600109Y-104689561D01*
X150586679Y-104517033D01*
X150559235Y-104152753D01*
X150536235Y-103827013D01*
X150517580Y-103535791D01*
X150503169Y-103275063D01*
X150492904Y-103040806D01*
X150486685Y-102828995D01*
X150484413Y-102635609D01*
X150485987Y-102456622D01*
X150491309Y-102288013D01*
X150500279Y-102125756D01*
X150512798Y-101965830D01*
X150528765Y-101804210D01*
X150532729Y-101766889D01*
X150547344Y-101612926D01*
X150554551Y-101500906D01*
X150554424Y-101429184D01*
X150547036Y-101396119D01*
X150544234Y-101392607D01*
X150528561Y-101377014D01*
X150505163Y-101360946D01*
X150470161Y-101343018D01*
X150419675Y-101321847D01*
X150349824Y-101296050D01*
X150256728Y-101264242D01*
X150136508Y-101225041D01*
X149985283Y-101177062D01*
X149799173Y-101118922D01*
X149574298Y-101049237D01*
X149535029Y-101037084D01*
X149349352Y-100979294D01*
X149175709Y-100924732D01*
X149019197Y-100875033D01*
X148884910Y-100831836D01*
X148777944Y-100796776D01*
X148703396Y-100771490D01*
X148666360Y-100757614D01*
X148593948Y-100724317D01*
X148593953Y-100648358D01*
X148700798Y-100648358D01*
X149332504Y-100843766D01*
X149334048Y-100844244D01*
X149511259Y-100899361D01*
X149689910Y-100955461D01*
X149861192Y-101009737D01*
X150016294Y-101059384D01*
X150146406Y-101101599D01*
X150242719Y-101133574D01*
X150260151Y-101139491D01*
X150365610Y-101175636D01*
X150456362Y-101207311D01*
X150523227Y-101231281D01*
X150557024Y-101244311D01*
X150573459Y-101247739D01*
X150587917Y-101232837D01*
X150598496Y-101189262D01*
X150608193Y-101109096D01*
X150610185Y-101091101D01*
X150619118Y-101019403D01*
X150633343Y-100911521D01*
X150652094Y-100773029D01*
X150674608Y-100609503D01*
X150700117Y-100426516D01*
X150727857Y-100229644D01*
X150757064Y-100024462D01*
X150772908Y-99913356D01*
X150799905Y-99722280D01*
X150824232Y-99547845D01*
X150845269Y-99394629D01*
X150862398Y-99267208D01*
X150874999Y-99170158D01*
X150882453Y-99108057D01*
X150884140Y-99085480D01*
X150881329Y-99085774D01*
X150847624Y-99097051D01*
X150780837Y-99122131D01*
X150687094Y-99158639D01*
X150572522Y-99204200D01*
X150443246Y-99256438D01*
X150163073Y-99369653D01*
X149868746Y-99486390D01*
X149611052Y-99585980D01*
X149390640Y-99668187D01*
X149208156Y-99732778D01*
X149064247Y-99779517D01*
X148959558Y-99808170D01*
X148894737Y-99818502D01*
X148783333Y-99821228D01*
X148787187Y-99660418D01*
X148894195Y-99660418D01*
X148900236Y-99690641D01*
X148923989Y-99697558D01*
X148939839Y-99695322D01*
X149000465Y-99678678D01*
X149099111Y-99645674D01*
X149236273Y-99596125D01*
X149412446Y-99529846D01*
X149628125Y-99446651D01*
X149883808Y-99346357D01*
X150179989Y-99228778D01*
X150281258Y-99188345D01*
X150455713Y-99118336D01*
X150594795Y-99061721D01*
X150702581Y-99016573D01*
X150783149Y-98980962D01*
X150840575Y-98952960D01*
X150878937Y-98930636D01*
X150902312Y-98912062D01*
X150914776Y-98895309D01*
X150920408Y-98878448D01*
X150923226Y-98862643D01*
X150932652Y-98801971D01*
X150946410Y-98708061D01*
X150963506Y-98588158D01*
X150982945Y-98449506D01*
X151003732Y-98299352D01*
X151024872Y-98144941D01*
X151045371Y-97993518D01*
X151064235Y-97852329D01*
X151080467Y-97728619D01*
X151093074Y-97629633D01*
X151101061Y-97562617D01*
X151107140Y-97489894D01*
X151104964Y-97440607D01*
X151092354Y-97428933D01*
X151080858Y-97437409D01*
X151039622Y-97473314D01*
X150972878Y-97533882D01*
X150884577Y-97615457D01*
X150778670Y-97714382D01*
X150659108Y-97826998D01*
X150529841Y-97949649D01*
X150442881Y-98032318D01*
X150318156Y-98150419D01*
X150205104Y-98256912D01*
X150107831Y-98347960D01*
X150030445Y-98419723D01*
X149977050Y-98468364D01*
X149951753Y-98490044D01*
X149949394Y-98491677D01*
X149912040Y-98505822D01*
X149877063Y-98483178D01*
X149868644Y-98470763D01*
X149843978Y-98416437D01*
X149809736Y-98326225D01*
X149767471Y-98204789D01*
X149718737Y-98056792D01*
X149665090Y-97886897D01*
X149608084Y-97699764D01*
X149549273Y-97500058D01*
X149477156Y-97250992D01*
X149394088Y-97293371D01*
X149382066Y-97299191D01*
X149298904Y-97330149D01*
X149214282Y-97350460D01*
X149136245Y-97364900D01*
X149134380Y-97365537D01*
X149083255Y-97382998D01*
X149073540Y-97402448D01*
X149106404Y-97423724D01*
X149132171Y-97435490D01*
X149226402Y-97504105D01*
X149286063Y-97595612D01*
X149306818Y-97703949D01*
X149306782Y-97706452D01*
X149301089Y-97759015D01*
X149286797Y-97845860D01*
X149265487Y-97958593D01*
X149238736Y-98088823D01*
X149208127Y-98228158D01*
X149185934Y-98325969D01*
X149142463Y-98517550D01*
X149095939Y-98722578D01*
X149050666Y-98922086D01*
X149010948Y-99097105D01*
X149008227Y-99109103D01*
X148977160Y-99247524D01*
X148948958Y-99375610D01*
X148925406Y-99485088D01*
X148908283Y-99567687D01*
X148899373Y-99615132D01*
X148894195Y-99660418D01*
X148787187Y-99660418D01*
X148787338Y-99654123D01*
X148795345Y-99557355D01*
X148816072Y-99420070D01*
X148848590Y-99250133D01*
X148892028Y-99052544D01*
X148895849Y-99036058D01*
X148960432Y-98757250D01*
X149015542Y-98518409D01*
X149061709Y-98316267D01*
X149099464Y-98147553D01*
X149129339Y-98008996D01*
X149151863Y-97897328D01*
X149167569Y-97809278D01*
X149176987Y-97741576D01*
X149180647Y-97690952D01*
X149179080Y-97654135D01*
X149172819Y-97627857D01*
X149162392Y-97608846D01*
X149148332Y-97593834D01*
X149131169Y-97579549D01*
X149130991Y-97579405D01*
X149073388Y-97543477D01*
X149032351Y-97546071D01*
X149001380Y-97587588D01*
X148999484Y-97591488D01*
X148972062Y-97637071D01*
X148927146Y-97703163D01*
X148873448Y-97776870D01*
X148768571Y-97916021D01*
X148765939Y-98008473D01*
X148749698Y-98578976D01*
X148745135Y-98743662D01*
X148738964Y-98977141D01*
X148732582Y-99228701D01*
X148726353Y-99483670D01*
X148720642Y-99727376D01*
X148715812Y-99945144D01*
X148700798Y-100648358D01*
X148593953Y-100648358D01*
X148593984Y-100194790D01*
X148594159Y-100125308D01*
X148595559Y-99952245D01*
X148598207Y-99749943D01*
X148601921Y-99528747D01*
X148606516Y-99299001D01*
X148611813Y-99071049D01*
X148617626Y-98855235D01*
X148622753Y-98670126D01*
X148626975Y-98499039D01*
X148630197Y-98347371D01*
X148632334Y-98220147D01*
X148633303Y-98122390D01*
X148633019Y-98059124D01*
X148631397Y-98035373D01*
X148618168Y-98037505D01*
X148576838Y-98058426D01*
X148519237Y-98094598D01*
X148457904Y-98132976D01*
X148331719Y-98199882D01*
X148189935Y-98263579D01*
X148043285Y-98320074D01*
X147933191Y-98355497D01*
X147902500Y-98365372D01*
X147778310Y-98395480D01*
X147681448Y-98406403D01*
X147669096Y-98407085D01*
X147632917Y-98421066D01*
X147596119Y-98459357D01*
X147549979Y-98530171D01*
X147502084Y-98604150D01*
X147434482Y-98698671D01*
X147367123Y-98784708D01*
X147349596Y-98806381D01*
X147289380Y-98887440D01*
X147282735Y-98896385D01*
X147211170Y-99001352D01*
X147147662Y-99102784D01*
X147130459Y-99131431D01*
X147058341Y-99245339D01*
X146977367Y-99366180D01*
X146902021Y-99472175D01*
X146873115Y-99511941D01*
X146794156Y-99625957D01*
X146776051Y-99653443D01*
X146712668Y-99749667D01*
X146642322Y-99862519D01*
X146611916Y-99912054D01*
X146538452Y-100024948D01*
X146462043Y-100135129D01*
X146395046Y-100224513D01*
X146389627Y-100231372D01*
X146316989Y-100332489D01*
X146278196Y-100393660D01*
X146243227Y-100448802D01*
X146183520Y-100556491D01*
X146153708Y-100612849D01*
X146090083Y-100722285D01*
X146016677Y-100839231D01*
X145944105Y-100946403D01*
X145896847Y-101013931D01*
X145834533Y-101105860D01*
X145824277Y-101120991D01*
X145758005Y-101222355D01*
X145708046Y-101302895D01*
X145680834Y-101347254D01*
X145618814Y-101442391D01*
X145546596Y-101547978D01*
X145474831Y-101648246D01*
X145459412Y-101669481D01*
X145388495Y-101772044D01*
X145329103Y-101862264D01*
X145306835Y-101896090D01*
X145223356Y-102027862D01*
X145146981Y-102153608D01*
X145131138Y-102180190D01*
X145049939Y-102311492D01*
X144961570Y-102447860D01*
X144875683Y-102574645D01*
X144801929Y-102677204D01*
X144793913Y-102687901D01*
X144716257Y-102795713D01*
X144659778Y-102877836D01*
X144627488Y-102924788D01*
X144537942Y-103059847D01*
X144457955Y-103185614D01*
X144455614Y-103189394D01*
X144384173Y-103301489D01*
X144294338Y-103437711D01*
X144193770Y-103586707D01*
X144090127Y-103737123D01*
X143991072Y-103877605D01*
X143976623Y-103897847D01*
X143881663Y-104032532D01*
X143787230Y-104169030D01*
X143760931Y-104207768D01*
X143699753Y-104297883D01*
X143625662Y-104409636D01*
X143571386Y-104494832D01*
X143563315Y-104507885D01*
X143495837Y-104612749D01*
X143412670Y-104736597D01*
X143323610Y-104865048D01*
X143238450Y-104983718D01*
X143184180Y-105057956D01*
X143089707Y-105187934D01*
X142985095Y-105332537D01*
X142948874Y-105382811D01*
X142879635Y-105478913D01*
X142782620Y-105614210D01*
X142714150Y-105708761D01*
X142599028Y-105864139D01*
X142474223Y-106029252D01*
X142350754Y-106189566D01*
X142239640Y-106330543D01*
X142236954Y-106333899D01*
X142141300Y-106455384D01*
X142048001Y-106577339D01*
X141988452Y-106657502D01*
X141963539Y-106691039D01*
X141894400Y-106787759D01*
X141847067Y-106858775D01*
X141833608Y-106879717D01*
X141764477Y-106975562D01*
X141669961Y-107094332D01*
X141555405Y-107230273D01*
X141426154Y-107377631D01*
X141389154Y-107418481D01*
X141287553Y-107530652D01*
X141144946Y-107683583D01*
X141003679Y-107830669D01*
X140869097Y-107966156D01*
X140746545Y-108084292D01*
X140641367Y-108179321D01*
X140558908Y-108245490D01*
X140520062Y-108272410D01*
X140411431Y-108333949D01*
X140326492Y-108358302D01*
X140265504Y-108345496D01*
X140228721Y-108295560D01*
X140217896Y-108219067D01*
X140333949Y-108219067D01*
X140350036Y-108228695D01*
X140391594Y-108211499D01*
X140463242Y-108166915D01*
X140472041Y-108160726D01*
X140524656Y-108117645D01*
X140599414Y-108050679D01*
X140689442Y-107966562D01*
X140787867Y-107872030D01*
X140887816Y-107773817D01*
X140982417Y-107678658D01*
X141064796Y-107593288D01*
X141128081Y-107524442D01*
X141165398Y-107478855D01*
X141183942Y-107449471D01*
X141187252Y-107418481D01*
X141159982Y-107381791D01*
X141159315Y-107381059D01*
X141108229Y-107338467D01*
X141039523Y-107296538D01*
X140970478Y-107264565D01*
X140918373Y-107251842D01*
X140902578Y-107259687D01*
X140863236Y-107300113D01*
X140809419Y-107369223D01*
X140745137Y-107460579D01*
X140674402Y-107567742D01*
X140601223Y-107684272D01*
X140529610Y-107803730D01*
X140463574Y-107919677D01*
X140407126Y-108025674D01*
X140364274Y-108115282D01*
X140339031Y-108182061D01*
X140338716Y-108183178D01*
X140333949Y-108219067D01*
X140217896Y-108219067D01*
X140216404Y-108208521D01*
X140226387Y-108146407D01*
X140262680Y-108044778D01*
X140323484Y-107916419D01*
X140406663Y-107765425D01*
X140510082Y-107595894D01*
X140631607Y-107411921D01*
X140646629Y-107389897D01*
X140728542Y-107267934D01*
X140811830Y-107141261D01*
X140820424Y-107127905D01*
X140978257Y-107127905D01*
X140979023Y-107128379D01*
X141005549Y-107140311D01*
X141054575Y-107160365D01*
X141073544Y-107169298D01*
X141137234Y-107211111D01*
X141198200Y-107264474D01*
X141222920Y-107289242D01*
X141263305Y-107326036D01*
X141284678Y-107340155D01*
X141285097Y-107340117D01*
X141314064Y-107321098D01*
X141362970Y-107272647D01*
X141426379Y-107201697D01*
X141498858Y-107115183D01*
X141574971Y-107020037D01*
X141649282Y-106923193D01*
X141716357Y-106831584D01*
X141770761Y-106752143D01*
X141807058Y-106691805D01*
X141819813Y-106657502D01*
X141803192Y-106619498D01*
X141757453Y-106565944D01*
X141693041Y-106508361D01*
X141620403Y-106456016D01*
X141549985Y-106418172D01*
X141470373Y-106384908D01*
X141314077Y-106601138D01*
X141249958Y-106691636D01*
X141180338Y-106793431D01*
X141114690Y-106892631D01*
X141057337Y-106982457D01*
X141012600Y-107056130D01*
X140984799Y-107106873D01*
X140978257Y-107127905D01*
X140820424Y-107127905D01*
X140887528Y-107023625D01*
X140946672Y-106928772D01*
X140952199Y-106919717D01*
X141015219Y-106820713D01*
X141094402Y-106701802D01*
X141180177Y-106577138D01*
X141262976Y-106460877D01*
X141284329Y-106431393D01*
X141374573Y-106304591D01*
X141402432Y-106264697D01*
X141561587Y-106264697D01*
X141584136Y-106293839D01*
X141639268Y-106325795D01*
X141670227Y-106342092D01*
X141744304Y-106392891D01*
X141811820Y-106452140D01*
X141846471Y-106486578D01*
X141887652Y-106524153D01*
X141908689Y-106538682D01*
X141916778Y-106533630D01*
X141949830Y-106499167D01*
X142002853Y-106436522D01*
X142071911Y-106350924D01*
X142153071Y-106247602D01*
X142242395Y-106131784D01*
X142335949Y-106008698D01*
X142429797Y-105883574D01*
X142520004Y-105761639D01*
X142602634Y-105648123D01*
X142673753Y-105548254D01*
X142729425Y-105467259D01*
X142765714Y-105410369D01*
X142778684Y-105382811D01*
X142773067Y-105360711D01*
X142739441Y-105312243D01*
X142683273Y-105257108D01*
X142613594Y-105201647D01*
X142539437Y-105152197D01*
X142469835Y-105115099D01*
X142413819Y-105096690D01*
X142380421Y-105103309D01*
X142373945Y-105110723D01*
X142331987Y-105162991D01*
X142271866Y-105242178D01*
X142197628Y-105342572D01*
X142113324Y-105458459D01*
X142023001Y-105584128D01*
X141930707Y-105713864D01*
X141840492Y-105841955D01*
X141756403Y-105962689D01*
X141682490Y-106070352D01*
X141622800Y-106159231D01*
X141581383Y-106223614D01*
X141562286Y-106257789D01*
X141561587Y-106264697D01*
X141402432Y-106264697D01*
X141475344Y-106160289D01*
X141575815Y-106014087D01*
X141665157Y-105881579D01*
X141691840Y-105841793D01*
X141789269Y-105700006D01*
X141898899Y-105544561D01*
X142009177Y-105391714D01*
X142108550Y-105257719D01*
X142149177Y-105203369D01*
X142245002Y-105071294D01*
X142310167Y-104978374D01*
X142467747Y-104978374D01*
X142587820Y-105035178D01*
X142634409Y-105060372D01*
X142719647Y-105118997D01*
X142787792Y-105180421D01*
X142819645Y-105215122D01*
X142856857Y-105253812D01*
X142873913Y-105268860D01*
X142874780Y-105268620D01*
X142895243Y-105247205D01*
X142935933Y-105195200D01*
X142992794Y-105118418D01*
X143061774Y-105022668D01*
X143138816Y-104913761D01*
X143219868Y-104797507D01*
X143300875Y-104679718D01*
X143377783Y-104566203D01*
X143446536Y-104462773D01*
X143503082Y-104375238D01*
X143543366Y-104309410D01*
X143602393Y-104207768D01*
X143519179Y-104127957D01*
X143486479Y-104099261D01*
X143416169Y-104047530D01*
X143340822Y-104000930D01*
X143273532Y-103967255D01*
X143227394Y-103954298D01*
X143212340Y-103965721D01*
X143173691Y-104006545D01*
X143117735Y-104070739D01*
X143049837Y-104151722D01*
X142975358Y-104242913D01*
X142899662Y-104337732D01*
X142828113Y-104429600D01*
X142766074Y-104511935D01*
X142718908Y-104578158D01*
X142718789Y-104578335D01*
X142672007Y-104649392D01*
X142614736Y-104739213D01*
X142559346Y-104828398D01*
X142467747Y-104978374D01*
X142310167Y-104978374D01*
X142341054Y-104934332D01*
X142428082Y-104805793D01*
X142496837Y-104698989D01*
X142535030Y-104639384D01*
X142615638Y-104521256D01*
X142710725Y-104388704D01*
X142811447Y-104253954D01*
X142908960Y-104129231D01*
X142956379Y-104069259D01*
X143065808Y-103925144D01*
X143140941Y-103821915D01*
X143303243Y-103821915D01*
X143324118Y-103851506D01*
X143387902Y-103888150D01*
X143417088Y-103903095D01*
X143500807Y-103954687D01*
X143576224Y-104011261D01*
X143611360Y-104040595D01*
X143655314Y-104074696D01*
X143677193Y-104087982D01*
X143694671Y-104070527D01*
X143733038Y-104021738D01*
X143788305Y-103947294D01*
X143856497Y-103852875D01*
X143933639Y-103744161D01*
X144015756Y-103626829D01*
X144098873Y-103506561D01*
X144179015Y-103389036D01*
X144252209Y-103279932D01*
X144314478Y-103184929D01*
X144361848Y-103109708D01*
X144502919Y-102877836D01*
X144426196Y-102813002D01*
X144394603Y-102788178D01*
X144310881Y-102735395D01*
X144228516Y-102698335D01*
X144162937Y-102684528D01*
X144147077Y-102690837D01*
X144102718Y-102728350D01*
X144039711Y-102795415D01*
X143961733Y-102887187D01*
X143872459Y-102998823D01*
X143775566Y-103125477D01*
X143674730Y-103262305D01*
X143573627Y-103404464D01*
X143475933Y-103547108D01*
X143385324Y-103685394D01*
X143305476Y-103814476D01*
X143303243Y-103821915D01*
X143140941Y-103821915D01*
X143179000Y-103769623D01*
X143285070Y-103617805D01*
X143373135Y-103484803D01*
X143398032Y-103446239D01*
X143495739Y-103302053D01*
X143607355Y-103145759D01*
X143720962Y-102993781D01*
X143824643Y-102862544D01*
X143864615Y-102813146D01*
X143965699Y-102683094D01*
X144067376Y-102546114D01*
X144068517Y-102544503D01*
X144235106Y-102544503D01*
X144259518Y-102572644D01*
X144322338Y-102603277D01*
X144343357Y-102612175D01*
X144420821Y-102656280D01*
X144483537Y-102706974D01*
X144498390Y-102722045D01*
X144539080Y-102758739D01*
X144563069Y-102773421D01*
X144574543Y-102767188D01*
X144610186Y-102729564D01*
X144662516Y-102662951D01*
X144727601Y-102573196D01*
X144801511Y-102466150D01*
X144880317Y-102347662D01*
X144960088Y-102223582D01*
X145036893Y-102099757D01*
X145106803Y-101982039D01*
X145165887Y-101876275D01*
X145171690Y-101862264D01*
X145166992Y-101839183D01*
X145135291Y-101815011D01*
X145069186Y-101782578D01*
X144989416Y-101747692D01*
X144921094Y-101726078D01*
X144866890Y-101726798D01*
X144816216Y-101752889D01*
X144758488Y-101807389D01*
X144683119Y-101893333D01*
X144657355Y-101924299D01*
X144591061Y-102008931D01*
X144517109Y-102108477D01*
X144441311Y-102214571D01*
X144369479Y-102318845D01*
X144307426Y-102412934D01*
X144260963Y-102488471D01*
X144235903Y-102537088D01*
X144235106Y-102544503D01*
X144068517Y-102544503D01*
X144159724Y-102415746D01*
X144232824Y-102305526D01*
X144297028Y-102207682D01*
X144391769Y-102072504D01*
X144490686Y-101939352D01*
X144580521Y-101826491D01*
X144648010Y-101743380D01*
X144742185Y-101621239D01*
X144770531Y-101582590D01*
X144939912Y-101582590D01*
X144945223Y-101592507D01*
X144981644Y-101615627D01*
X145041226Y-101637399D01*
X145067129Y-101645445D01*
X145140850Y-101675563D01*
X145195880Y-101707723D01*
X145249221Y-101749681D01*
X145373704Y-101581355D01*
X145390088Y-101559014D01*
X145456247Y-101465524D01*
X145521653Y-101368645D01*
X145581277Y-101276309D01*
X145630091Y-101196445D01*
X145663066Y-101136985D01*
X145675176Y-101105860D01*
X145660953Y-101077065D01*
X145618228Y-101035771D01*
X145559868Y-100995296D01*
X145499024Y-100966075D01*
X145462714Y-100954965D01*
X145433376Y-100955178D01*
X145402680Y-100972484D01*
X145361185Y-101012267D01*
X145299456Y-101079910D01*
X145246849Y-101140861D01*
X145176584Y-101228104D01*
X145106435Y-101320420D01*
X145042049Y-101409920D01*
X144989070Y-101488709D01*
X144953143Y-101548897D01*
X144939912Y-101582590D01*
X144770531Y-101582590D01*
X144832240Y-101498451D01*
X144905459Y-101392017D01*
X144940873Y-101339659D01*
X145026583Y-101221928D01*
X145118761Y-101104464D01*
X145202762Y-101006272D01*
X145235633Y-100969151D01*
X145320576Y-100865288D01*
X145349141Y-100827014D01*
X145519422Y-100827014D01*
X145532334Y-100846826D01*
X145573195Y-100865999D01*
X145580217Y-100868053D01*
X145636017Y-100895095D01*
X145694500Y-100936195D01*
X145761820Y-100992841D01*
X145876738Y-100830368D01*
X145886319Y-100816683D01*
X145951135Y-100718315D01*
X146013742Y-100614967D01*
X146061792Y-100526890D01*
X146081989Y-100486041D01*
X146108550Y-100427922D01*
X146117416Y-100393660D01*
X146110242Y-100372632D01*
X146088680Y-100354214D01*
X146079194Y-100348422D01*
X146022169Y-100329979D01*
X145952110Y-100322544D01*
X145921745Y-100323284D01*
X145872460Y-100333089D01*
X145830893Y-100361582D01*
X145780683Y-100417862D01*
X145776126Y-100423463D01*
X145723182Y-100493047D01*
X145666181Y-100574417D01*
X145611215Y-100658037D01*
X145564372Y-100734369D01*
X145531745Y-100793874D01*
X145519422Y-100827014D01*
X145349141Y-100827014D01*
X145401798Y-100756461D01*
X145465417Y-100660921D01*
X145473334Y-100647965D01*
X145538717Y-100546331D01*
X145610349Y-100442110D01*
X145674091Y-100355965D01*
X145700819Y-100320405D01*
X145765241Y-100227167D01*
X145791312Y-100186516D01*
X145940816Y-100186516D01*
X146025233Y-100201329D01*
X146033542Y-100202883D01*
X146102711Y-100221766D01*
X146156282Y-100245283D01*
X146176300Y-100255436D01*
X146199085Y-100254898D01*
X146226738Y-100234937D01*
X146266397Y-100190034D01*
X146325203Y-100114668D01*
X146331495Y-100106405D01*
X146394763Y-100019267D01*
X146458435Y-99925359D01*
X146517201Y-99833251D01*
X146565752Y-99751516D01*
X146598777Y-99688722D01*
X146610965Y-99653443D01*
X146605343Y-99638745D01*
X146568531Y-99606763D01*
X146508716Y-99576114D01*
X146439239Y-99554485D01*
X146423835Y-99551514D01*
X146394045Y-99550211D01*
X146366650Y-99561461D01*
X146334523Y-99591154D01*
X146290539Y-99645180D01*
X146227573Y-99729428D01*
X146193424Y-99776586D01*
X146123762Y-99877583D01*
X146060508Y-99974953D01*
X146014092Y-100052888D01*
X145940816Y-100186516D01*
X145791312Y-100186516D01*
X145834182Y-100119673D01*
X145896673Y-100014743D01*
X145921219Y-99972433D01*
X145994256Y-99853681D01*
X146073016Y-99733396D01*
X146144250Y-99632055D01*
X146205894Y-99543619D01*
X146279619Y-99411680D01*
X146427990Y-99411680D01*
X146434292Y-99427821D01*
X146452755Y-99431316D01*
X146473747Y-99434855D01*
X146530167Y-99454230D01*
X146597754Y-99484850D01*
X146703498Y-99538385D01*
X146811144Y-99391790D01*
X146819535Y-99380275D01*
X146886744Y-99283852D01*
X146959699Y-99173580D01*
X147024024Y-99071117D01*
X147029724Y-99061666D01*
X147077975Y-98978130D01*
X147104169Y-98922676D01*
X147111285Y-98887440D01*
X147102304Y-98864560D01*
X147100556Y-98862551D01*
X147052982Y-98829365D01*
X146978313Y-98796812D01*
X146892625Y-98770827D01*
X146811989Y-98757346D01*
X146811472Y-98757309D01*
X146773770Y-98756735D01*
X146744472Y-98766143D01*
X146715859Y-98792660D01*
X146680215Y-98843409D01*
X146629821Y-98925516D01*
X146620835Y-98940691D01*
X146563178Y-99048244D01*
X146509121Y-99163965D01*
X146469319Y-99265297D01*
X146455252Y-99307527D01*
X146434694Y-99374410D01*
X146427990Y-99411680D01*
X146279619Y-99411680D01*
X146281188Y-99408873D01*
X146340301Y-99259356D01*
X146357579Y-99211484D01*
X146407654Y-99091758D01*
X146467977Y-98964780D01*
X146529055Y-98851079D01*
X146561134Y-98793494D01*
X146617532Y-98681402D01*
X146655757Y-98595130D01*
X146798767Y-98595130D01*
X146810632Y-98615831D01*
X146847652Y-98630937D01*
X146919188Y-98647141D01*
X146971616Y-98660776D01*
X147057598Y-98693075D01*
X147123382Y-98729445D01*
X147142412Y-98743338D01*
X147185174Y-98773252D01*
X147205214Y-98785175D01*
X147207458Y-98784254D01*
X147230708Y-98760467D01*
X147270411Y-98711596D01*
X147319447Y-98647167D01*
X147370699Y-98576706D01*
X147417046Y-98509738D01*
X147451370Y-98455791D01*
X147510146Y-98355497D01*
X147431692Y-98283599D01*
X147368011Y-98236854D01*
X147282666Y-98190421D01*
X147191340Y-98151695D01*
X147108177Y-98126649D01*
X147047322Y-98121258D01*
X147034260Y-98125531D01*
X147000826Y-98155590D01*
X146959766Y-98217862D01*
X146907562Y-98317281D01*
X146887048Y-98359699D01*
X146847302Y-98446670D01*
X146817319Y-98518772D01*
X146802389Y-98563617D01*
X146798767Y-98595130D01*
X146655757Y-98595130D01*
X146665711Y-98572663D01*
X146697799Y-98484386D01*
X146726397Y-98401871D01*
X146773377Y-98292273D01*
X146822294Y-98199191D01*
X146842184Y-98164918D01*
X146885739Y-98070940D01*
X146901061Y-97999114D01*
X146886832Y-97954434D01*
X146881558Y-97955894D01*
X146859341Y-97984991D01*
X146825947Y-98042401D01*
X146786356Y-98119924D01*
X146696063Y-98288427D01*
X146553115Y-98513181D01*
X146377657Y-98753968D01*
X146172749Y-99006853D01*
X145941451Y-99267902D01*
X145807103Y-99407871D01*
X145686824Y-99533183D01*
X145542926Y-99675875D01*
X145367544Y-99843726D01*
X145202973Y-99992784D01*
X145039054Y-100131885D01*
X144865630Y-100269866D01*
X144672544Y-100415564D01*
X144572099Y-100488952D01*
X144057598Y-100838379D01*
X143537753Y-101147781D01*
X143014386Y-101416285D01*
X142489322Y-101643013D01*
X141964381Y-101827091D01*
X141441388Y-101967642D01*
X141429839Y-101970263D01*
X141238707Y-102012057D01*
X141068908Y-102045215D01*
X140911035Y-102070683D01*
X140755682Y-102089412D01*
X140593440Y-102102349D01*
X140414903Y-102110443D01*
X140210664Y-102114643D01*
X139971316Y-102115899D01*
X139912942Y-102115866D01*
X139683890Y-102114202D01*
X139488555Y-102109356D01*
X139318157Y-102100377D01*
X139163917Y-102086317D01*
X139017056Y-102066224D01*
X138868792Y-102039148D01*
X138710348Y-102004141D01*
X138532943Y-101960250D01*
X138324189Y-101902453D01*
X138089913Y-101823373D01*
X137889166Y-101736228D01*
X137715772Y-101637860D01*
X137563556Y-101525116D01*
X137426343Y-101394841D01*
X137337396Y-101292061D01*
X137236829Y-101139976D01*
X137174392Y-100986168D01*
X137146813Y-100823957D01*
X137145863Y-100810406D01*
X137143019Y-100786302D01*
X137248621Y-100786302D01*
X137263465Y-100860782D01*
X137283804Y-100935268D01*
X137350483Y-101081029D01*
X137449610Y-101229282D01*
X137575125Y-101371566D01*
X137720965Y-101499419D01*
X137813474Y-101560537D01*
X137967798Y-101638946D01*
X138155476Y-101714799D01*
X138370197Y-101786045D01*
X138605650Y-101850637D01*
X138855525Y-101906523D01*
X139113509Y-101951655D01*
X139190509Y-101961594D01*
X139326354Y-101974653D01*
X139485256Y-101986219D01*
X139657584Y-101995906D01*
X139833707Y-102003329D01*
X140003992Y-102008100D01*
X140158808Y-102009833D01*
X140288524Y-102008140D01*
X140383509Y-102002636D01*
X140398669Y-102001098D01*
X140585302Y-101981548D01*
X140739082Y-101963904D01*
X140870790Y-101946654D01*
X140991210Y-101928279D01*
X141111125Y-101907267D01*
X141241316Y-101882102D01*
X141724196Y-101767963D01*
X142216850Y-101613805D01*
X142707108Y-101421341D01*
X143197971Y-101189268D01*
X143692438Y-100916284D01*
X144193509Y-100601087D01*
X144447597Y-100426065D01*
X144795430Y-100166556D01*
X145115769Y-99903267D01*
X145400543Y-99642608D01*
X145641755Y-99407871D01*
X145350006Y-99639347D01*
X144910151Y-99973044D01*
X144416766Y-100309926D01*
X143924144Y-100605781D01*
X143429150Y-100862220D01*
X142928650Y-101080851D01*
X142419511Y-101263283D01*
X141898597Y-101411125D01*
X141740036Y-101449482D01*
X141420128Y-101519249D01*
X141121040Y-101572480D01*
X140829543Y-101611072D01*
X140532407Y-101636915D01*
X140216404Y-101651905D01*
X140038284Y-101655204D01*
X139588641Y-101641801D01*
X139162830Y-101595574D01*
X138755233Y-101515517D01*
X138360231Y-101400622D01*
X137972207Y-101249884D01*
X137855762Y-101196756D01*
X137686441Y-101108006D01*
X137533290Y-101010062D01*
X137378960Y-100892469D01*
X137248621Y-100786302D01*
X137143019Y-100786302D01*
X137135084Y-100719058D01*
X137116584Y-100657379D01*
X137086618Y-100612193D01*
X137066258Y-100588893D01*
X136949688Y-100427644D01*
X136872052Y-100264299D01*
X136834553Y-100103726D01*
X136950334Y-100103726D01*
X136951123Y-100108487D01*
X136993070Y-100242339D01*
X137072383Y-100386124D01*
X137184718Y-100534725D01*
X137325730Y-100683031D01*
X137491074Y-100825925D01*
X137676404Y-100958294D01*
X137763476Y-101011066D01*
X137973106Y-101117621D01*
X138213699Y-101217374D01*
X138476115Y-101307345D01*
X138751213Y-101384551D01*
X139029853Y-101446013D01*
X139302895Y-101488750D01*
X139739755Y-101525577D01*
X140259022Y-101529697D01*
X140786624Y-101492725D01*
X141319565Y-101415334D01*
X141854852Y-101298193D01*
X142389490Y-101141973D01*
X142920484Y-100947346D01*
X143444839Y-100714981D01*
X143959562Y-100445551D01*
X144100846Y-100363404D01*
X144439200Y-100150289D01*
X144787121Y-99910198D01*
X145134760Y-99650644D01*
X145472268Y-99379138D01*
X145789797Y-99103191D01*
X146077496Y-98830315D01*
X146088250Y-98819573D01*
X146240503Y-98663276D01*
X146364882Y-98525401D01*
X146467975Y-98397195D01*
X146556373Y-98269905D01*
X146636667Y-98134781D01*
X146715446Y-97983070D01*
X146841606Y-97726842D01*
X146842323Y-97695821D01*
X146967313Y-97695821D01*
X146981758Y-97789314D01*
X146986832Y-97820760D01*
X147005066Y-97903207D01*
X147029999Y-97954537D01*
X147068643Y-97985106D01*
X147128013Y-98005271D01*
X147308787Y-98066075D01*
X147461406Y-98148192D01*
X147578059Y-98247845D01*
X147613524Y-98279347D01*
X147644901Y-98292763D01*
X147650054Y-98292258D01*
X147751322Y-98274350D01*
X147877694Y-98241217D01*
X148015407Y-98197538D01*
X148150697Y-98147992D01*
X148269802Y-98097258D01*
X148358958Y-98050015D01*
X148424758Y-98008473D01*
X148370098Y-97997698D01*
X148369306Y-97997543D01*
X148325306Y-97990342D01*
X148248140Y-97978966D01*
X148148463Y-97964947D01*
X148036930Y-97949816D01*
X148023391Y-97948001D01*
X147819562Y-97918074D01*
X147625411Y-97884917D01*
X147447875Y-97849992D01*
X147293894Y-97814761D01*
X147170409Y-97780684D01*
X147084359Y-97749223D01*
X146967313Y-97695821D01*
X146842323Y-97695821D01*
X146847061Y-97490781D01*
X146849127Y-97429056D01*
X146849729Y-97418748D01*
X146969983Y-97418748D01*
X146978518Y-97484191D01*
X147005132Y-97540322D01*
X147053589Y-97588955D01*
X147127654Y-97631902D01*
X147231093Y-97670973D01*
X147367670Y-97707981D01*
X147541151Y-97744739D01*
X147755300Y-97783058D01*
X147852658Y-97798776D01*
X148007309Y-97821436D01*
X148158003Y-97841071D01*
X148291454Y-97855987D01*
X148394374Y-97864492D01*
X148629274Y-97877855D01*
X148726008Y-97768928D01*
X148751349Y-97738296D01*
X148805897Y-97661413D01*
X148859491Y-97574168D01*
X148905718Y-97488089D01*
X148938166Y-97414703D01*
X148950421Y-97365537D01*
X148947784Y-97347599D01*
X148930546Y-97298435D01*
X148904102Y-97243724D01*
X148876548Y-97199292D01*
X148855983Y-97180965D01*
X148847489Y-97182200D01*
X148802711Y-97192584D01*
X148730891Y-97211243D01*
X148642872Y-97235406D01*
X148417977Y-97295109D01*
X148135358Y-97357943D01*
X147889951Y-97396689D01*
X147681843Y-97411335D01*
X147511117Y-97401868D01*
X147452813Y-97391603D01*
X147306909Y-97350547D01*
X147170469Y-97292411D01*
X147060980Y-97224102D01*
X147000877Y-97176723D01*
X146986803Y-97240116D01*
X146983767Y-97255821D01*
X146974934Y-97326699D01*
X146970092Y-97405174D01*
X146969983Y-97418748D01*
X146849729Y-97418748D01*
X146855964Y-97311905D01*
X146865553Y-97204779D01*
X146876506Y-97124947D01*
X146885990Y-97066551D01*
X146891776Y-97010357D01*
X146890464Y-96993252D01*
X147034298Y-96993252D01*
X147036641Y-97009591D01*
X147037092Y-97010357D01*
X147069041Y-97064593D01*
X147133160Y-97123820D01*
X147220846Y-97180650D01*
X147323948Y-97228465D01*
X147430584Y-97260614D01*
X147581560Y-97282512D01*
X147754788Y-97283378D01*
X147954381Y-97262951D01*
X148184455Y-97220969D01*
X148449123Y-97157172D01*
X148450238Y-97156877D01*
X148557577Y-97128706D01*
X148652745Y-97104021D01*
X148725443Y-97085475D01*
X148765372Y-97075720D01*
X148786466Y-97069246D01*
X148801201Y-97054406D01*
X148807664Y-97022770D01*
X148807538Y-96965123D01*
X148802505Y-96872247D01*
X148800316Y-96837946D01*
X148796064Y-96780683D01*
X148921863Y-96780683D01*
X148922956Y-96878458D01*
X148931154Y-96957890D01*
X148948462Y-97022770D01*
X148949977Y-97028450D01*
X148982851Y-97108553D01*
X149013390Y-97173035D01*
X149042469Y-97220275D01*
X149070060Y-97241775D01*
X149103876Y-97246316D01*
X149117151Y-97245771D01*
X149241258Y-97221742D01*
X149355284Y-97168337D01*
X149448040Y-97092353D01*
X149508339Y-97000588D01*
X149511384Y-96993088D01*
X149520909Y-96958409D01*
X149514497Y-96926618D01*
X149487201Y-96886012D01*
X149434075Y-96824885D01*
X149387844Y-96767513D01*
X149326876Y-96675725D01*
X149282648Y-96590451D01*
X149280830Y-96586068D01*
X149266547Y-96553867D01*
X149396200Y-96553867D01*
X149407040Y-96586612D01*
X149445499Y-96645711D01*
X149504101Y-96717303D01*
X149574770Y-96792852D01*
X149649428Y-96863821D01*
X149720000Y-96921672D01*
X149778408Y-96957868D01*
X149779863Y-96958409D01*
X149865789Y-96990357D01*
X149962357Y-97000844D01*
X150038703Y-96972428D01*
X150097901Y-96903723D01*
X150143021Y-96793342D01*
X150150895Y-96766181D01*
X150170269Y-96687469D01*
X150173686Y-96646391D01*
X150161270Y-96644318D01*
X150133142Y-96682619D01*
X150084884Y-96747093D01*
X150003480Y-96805505D01*
X149905261Y-96824474D01*
X149862419Y-96819417D01*
X149781630Y-96785807D01*
X149715034Y-96729856D01*
X149677811Y-96662383D01*
X149675821Y-96655576D01*
X149656033Y-96626517D01*
X149801338Y-96626517D01*
X149807933Y-96660882D01*
X149854258Y-96691341D01*
X149872367Y-96698114D01*
X149920211Y-96710534D01*
X149953921Y-96699561D01*
X149994630Y-96660563D01*
X150025313Y-96620198D01*
X150045803Y-96567798D01*
X150180638Y-96567798D01*
X150183304Y-96594240D01*
X150190006Y-96597725D01*
X150198158Y-96579386D01*
X150196550Y-96567591D01*
X150183304Y-96564532D01*
X150180638Y-96567798D01*
X150045803Y-96567798D01*
X150055075Y-96544086D01*
X150054451Y-96470970D01*
X150021966Y-96414139D01*
X149996424Y-96392174D01*
X149978886Y-96386105D01*
X149975351Y-96409934D01*
X149972689Y-96435514D01*
X149946742Y-96502794D01*
X149902702Y-96561022D01*
X149852402Y-96592619D01*
X149834661Y-96598339D01*
X149801338Y-96626517D01*
X149656033Y-96626517D01*
X149655014Y-96625021D01*
X149609903Y-96600291D01*
X149530555Y-96575527D01*
X149466388Y-96560084D01*
X149415606Y-96551657D01*
X149396200Y-96553867D01*
X149266547Y-96553867D01*
X149251355Y-96519618D01*
X149226529Y-96484359D01*
X149195450Y-96470434D01*
X149147217Y-96467982D01*
X149067557Y-96481598D01*
X148993108Y-96530025D01*
X148963945Y-96557511D01*
X148941253Y-96588277D01*
X148928939Y-96627763D01*
X148923608Y-96687916D01*
X148921863Y-96780683D01*
X148796064Y-96780683D01*
X148793943Y-96752120D01*
X148787811Y-96686779D01*
X148782992Y-96653929D01*
X148779244Y-96647093D01*
X148739669Y-96622927D01*
X148664863Y-96600508D01*
X148562133Y-96581029D01*
X148438787Y-96565683D01*
X148302131Y-96555661D01*
X148159474Y-96552158D01*
X148106855Y-96552681D01*
X147888687Y-96565129D01*
X147686414Y-96592944D01*
X147504102Y-96634531D01*
X147345818Y-96688296D01*
X147215628Y-96752645D01*
X147117601Y-96825984D01*
X147055802Y-96906717D01*
X147034298Y-96993252D01*
X146890464Y-96993252D01*
X146889790Y-96984468D01*
X146873891Y-96982409D01*
X146817574Y-96986273D01*
X146725399Y-96997085D01*
X146601926Y-97014070D01*
X146451712Y-97036455D01*
X146279317Y-97063464D01*
X146089300Y-97094325D01*
X145886219Y-97128263D01*
X145674633Y-97164505D01*
X145459100Y-97202276D01*
X145244181Y-97240801D01*
X145034433Y-97279309D01*
X144834416Y-97317023D01*
X144648687Y-97353170D01*
X144481807Y-97386977D01*
X144338333Y-97417669D01*
X144194911Y-97450626D01*
X143956800Y-97510378D01*
X143728342Y-97573750D01*
X143515246Y-97638869D01*
X143323219Y-97703862D01*
X143157972Y-97766858D01*
X143025213Y-97825983D01*
X142930652Y-97879366D01*
X142928528Y-97880793D01*
X142889799Y-97902057D01*
X142840553Y-97918657D01*
X142772291Y-97932318D01*
X142676518Y-97944763D01*
X142544737Y-97957720D01*
X142525754Y-97959444D01*
X142070929Y-98006095D01*
X141619086Y-98062373D01*
X141176159Y-98127209D01*
X140748081Y-98199532D01*
X140340783Y-98278274D01*
X139960197Y-98362364D01*
X139612257Y-98450733D01*
X139302895Y-98542311D01*
X139270385Y-98552933D01*
X139076448Y-98621273D01*
X138862748Y-98703759D01*
X138637038Y-98796855D01*
X138407071Y-98897028D01*
X138180600Y-99000743D01*
X137965378Y-99104465D01*
X137769158Y-99204659D01*
X137599693Y-99297791D01*
X137464737Y-99380326D01*
X137369557Y-99446651D01*
X137207332Y-99580728D01*
X137082742Y-99715661D01*
X136997342Y-99849264D01*
X136952687Y-99979348D01*
X136950334Y-100103726D01*
X136834553Y-100103726D01*
X136834286Y-100102584D01*
X136837327Y-99946225D01*
X136882113Y-99798947D01*
X136905286Y-99753523D01*
X136985743Y-99634197D01*
X137095613Y-99514770D01*
X137236677Y-99394137D01*
X137410714Y-99271191D01*
X137619505Y-99144825D01*
X137864829Y-99013932D01*
X138148467Y-98877406D01*
X138472198Y-98734141D01*
X138837801Y-98583029D01*
X139077926Y-98492389D01*
X139440403Y-98374286D01*
X139836459Y-98265588D01*
X140267826Y-98165936D01*
X140736234Y-98074972D01*
X141243415Y-97992339D01*
X141791100Y-97917678D01*
X142381020Y-97850633D01*
X142507642Y-97837236D01*
X142625702Y-97823428D01*
X142714780Y-97810419D01*
X142783270Y-97796443D01*
X142839569Y-97779731D01*
X142892073Y-97758517D01*
X142949178Y-97731033D01*
X142991190Y-97710432D01*
X143180174Y-97627619D01*
X143398001Y-97546835D01*
X143646416Y-97467673D01*
X143927160Y-97389722D01*
X144241977Y-97312576D01*
X144592609Y-97235824D01*
X144980801Y-97159058D01*
X145408294Y-97081870D01*
X145876832Y-97003851D01*
X146388158Y-96924591D01*
X146934035Y-96842688D01*
X147034298Y-96746761D01*
X147100260Y-96688752D01*
X147197450Y-96622766D01*
X147312363Y-96568017D01*
X147458361Y-96517274D01*
X147488869Y-96508301D01*
X147672800Y-96467854D01*
X147879798Y-96441173D01*
X148096912Y-96428653D01*
X148311191Y-96430689D01*
X148509684Y-96447677D01*
X148679440Y-96480011D01*
X148820634Y-96517525D01*
X148893982Y-96446434D01*
X148959079Y-96396673D01*
X149060344Y-96362866D01*
X149081647Y-96359595D01*
X149132536Y-96343890D01*
X149142255Y-96321457D01*
X149107186Y-96210357D01*
X149092759Y-96086220D01*
X149217343Y-96086220D01*
X149230047Y-96183881D01*
X149280811Y-96291236D01*
X149292878Y-96309780D01*
X149337444Y-96364783D01*
X149390475Y-96400589D01*
X149469746Y-96430279D01*
X149519507Y-96444655D01*
X149618556Y-96468092D01*
X149705232Y-96482950D01*
X149727110Y-96485397D01*
X149785752Y-96487874D01*
X149818492Y-96477224D01*
X149839368Y-96449998D01*
X149859095Y-96384338D01*
X149860570Y-96283287D01*
X149839054Y-96167544D01*
X149832542Y-96146021D01*
X149829293Y-96139552D01*
X149965808Y-96139552D01*
X149966953Y-96166304D01*
X149983391Y-96191814D01*
X150024230Y-96240579D01*
X150064665Y-96283287D01*
X150078493Y-96297893D01*
X150116698Y-96333483D01*
X150153830Y-96358107D01*
X150164848Y-96349177D01*
X150148757Y-96308919D01*
X150104563Y-96239560D01*
X150068377Y-96196363D01*
X150025325Y-96159269D01*
X149988200Y-96138770D01*
X149965808Y-96139552D01*
X149829293Y-96139552D01*
X149774411Y-96030279D01*
X149690032Y-95946746D01*
X149585607Y-95898503D01*
X149467339Y-95888633D01*
X149341429Y-95920219D01*
X149302760Y-95940487D01*
X149241860Y-96003380D01*
X149217343Y-96086220D01*
X149092759Y-96086220D01*
X149091936Y-96079138D01*
X149114721Y-95970860D01*
X149175930Y-95884743D01*
X149275953Y-95820008D01*
X149415179Y-95775876D01*
X149464322Y-95767547D01*
X149588227Y-95770692D01*
X149703124Y-95813479D01*
X149816446Y-95898176D01*
X149867542Y-95941465D01*
X149930034Y-95985112D01*
X149976675Y-96007371D01*
X150047362Y-96032802D01*
X150147835Y-96104593D01*
X150227009Y-96209089D01*
X150281006Y-96340568D01*
X150282412Y-96349177D01*
X150305949Y-96493307D01*
G37*
D16*
X132000000Y-124500000D02*
X132000000Y-123900000D01*
X132300000Y-124200000D02*
X132000000Y-123900000D01*
X132300000Y-124200000D02*
X132000000Y-124500000D01*
X132500000Y-121600000D02*
X132500000Y-124400000D01*
X133200000Y-125050000D02*
X133800000Y-125050000D01*
X133800000Y-120950000D02*
X133200000Y-120950000D01*
X134500000Y-124400000D02*
X134500000Y-121600000D01*
X132500000Y-121650000D02*
G75*
G02*
X133200000Y-120950000I700000J0D01*
G01*
X133200000Y-125050000D02*
G75*
G02*
X132500000Y-124350000I-1J699999D01*
G01*
X133800000Y-120950000D02*
G75*
G02*
X134500000Y-121650000I0J-700000D01*
G01*
X134500000Y-124350000D02*
G75*
G02*
X133800000Y-125050000I-699999J-1D01*
G01*
M02*
