G04 #@! TF.GenerationSoftware,KiCad,Pcbnew,9.0.2*
G04 #@! TF.CreationDate,2025-07-21T23:06:58-07:00*
G04 #@! TF.ProjectId,servo-drive,73657276-6f2d-4647-9269-76652e6b6963,rev?*
G04 #@! TF.SameCoordinates,Original*
G04 #@! TF.FileFunction,Soldermask,Bot*
G04 #@! TF.FilePolarity,Negative*
%FSLAX46Y46*%
G04 Gerber Fmt 4.6, Leading zero omitted, Abs format (unit mm)*
G04 Created by KiCad (PCBNEW 9.0.2) date 2025-07-21 23:06:58*
%MOMM*%
%LPD*%
G01*
G04 APERTURE LIST*
G04 Aperture macros list*
%AMRoundRect*
0 Rectangle with rounded corners*
0 $1 Rounding radius*
0 $2 $3 $4 $5 $6 $7 $8 $9 X,Y pos of 4 corners*
0 Add a 4 corners polygon primitive as box body*
4,1,4,$2,$3,$4,$5,$6,$7,$8,$9,$2,$3,0*
0 Add four circle primitives for the rounded corners*
1,1,$1+$1,$2,$3*
1,1,$1+$1,$4,$5*
1,1,$1+$1,$6,$7*
1,1,$1+$1,$8,$9*
0 Add four rect primitives between the rounded corners*
20,1,$1+$1,$2,$3,$4,$5,0*
20,1,$1+$1,$4,$5,$6,$7,0*
20,1,$1+$1,$6,$7,$8,$9,0*
20,1,$1+$1,$8,$9,$2,$3,0*%
%AMFreePoly0*
4,1,23,0.550000,-0.750000,0.000000,-0.750000,0.000000,-0.745722,-0.065263,-0.745722,-0.191342,-0.711940,-0.304381,-0.646677,-0.396677,-0.554381,-0.461940,-0.441342,-0.495722,-0.315263,-0.495722,-0.250000,-0.500000,-0.250000,-0.500000,0.250000,-0.495722,0.250000,-0.495722,0.315263,-0.461940,0.441342,-0.396677,0.554381,-0.304381,0.646677,-0.191342,0.711940,-0.065263,0.745722,0.000000,0.745722,
0.000000,0.750000,0.550000,0.750000,0.550000,-0.750000,0.550000,-0.750000,$1*%
%AMFreePoly1*
4,1,23,0.000000,0.745722,0.065263,0.745722,0.191342,0.711940,0.304381,0.646677,0.396677,0.554381,0.461940,0.441342,0.495722,0.315263,0.495722,0.250000,0.500000,0.250000,0.500000,-0.250000,0.495722,-0.250000,0.495722,-0.315263,0.461940,-0.441342,0.396677,-0.554381,0.304381,-0.646677,0.191342,-0.711940,0.065263,-0.745722,0.000000,-0.745722,0.000000,-0.750000,-0.550000,-0.750000,
-0.550000,0.750000,0.000000,0.750000,0.000000,0.745722,0.000000,0.745722,$1*%
G04 Aperture macros list end*
%ADD10RoundRect,0.250000X-0.265000X-0.615000X0.265000X-0.615000X0.265000X0.615000X-0.265000X0.615000X0*%
%ADD11O,1.030000X1.730000*%
%ADD12RoundRect,0.250002X-1.699998X1.699998X-1.699998X-1.699998X1.699998X-1.699998X1.699998X1.699998X0*%
%ADD13C,3.900000*%
%ADD14RoundRect,0.250000X0.615000X-0.265000X0.615000X0.265000X-0.615000X0.265000X-0.615000X-0.265000X0*%
%ADD15O,1.730000X1.030000*%
%ADD16RoundRect,0.250000X-0.615000X0.265000X-0.615000X-0.265000X0.615000X-0.265000X0.615000X0.265000X0*%
%ADD17RoundRect,0.250000X0.265000X0.615000X-0.265000X0.615000X-0.265000X-0.615000X0.265000X-0.615000X0*%
%ADD18R,1.000000X1.000000*%
%ADD19C,1.000000*%
%ADD20FreePoly0,90.000000*%
%ADD21R,1.500000X1.000000*%
%ADD22FreePoly1,90.000000*%
G04 APERTURE END LIST*
G36*
X134250000Y-123750000D02*
G01*
X132750000Y-123750000D01*
X132750000Y-122250000D01*
X134250000Y-122250000D01*
X134250000Y-123750000D01*
G37*
D10*
X134500000Y-76500000D03*
D11*
X136000000Y-76500000D03*
X137500000Y-76500000D03*
X139000000Y-76500000D03*
X140500000Y-76500000D03*
D10*
X144500000Y-76500000D03*
D11*
X146000000Y-76500000D03*
X147500000Y-76500000D03*
X149000000Y-76500000D03*
X150500000Y-76500000D03*
D12*
X125330000Y-92475000D03*
D13*
X125330000Y-100275000D03*
D14*
X134000000Y-128300000D03*
D15*
X134000000Y-126800000D03*
D16*
X150950000Y-84750000D03*
D15*
X150950000Y-86250000D03*
D17*
X140500000Y-136500000D03*
D11*
X139000000Y-136500000D03*
X137500000Y-136500000D03*
X136000000Y-136500000D03*
X134500000Y-136500000D03*
D16*
X130000000Y-114500000D03*
D15*
X130000000Y-116000000D03*
X130000000Y-117500000D03*
X130000000Y-119000000D03*
D16*
X130000000Y-123000000D03*
D15*
X130000000Y-124500000D03*
X130000000Y-126000000D03*
X130000000Y-127500000D03*
D14*
X144050000Y-128250000D03*
D15*
X144050000Y-126750000D03*
D16*
X125500000Y-114500000D03*
D15*
X125500000Y-116000000D03*
X125500000Y-117500000D03*
X125500000Y-119000000D03*
D17*
X150500000Y-136500000D03*
D11*
X149000000Y-136500000D03*
X147500000Y-136500000D03*
X146000000Y-136500000D03*
X144500000Y-136500000D03*
D16*
X125500000Y-123000000D03*
D15*
X125500000Y-124500000D03*
X125500000Y-126000000D03*
X125500000Y-127500000D03*
D18*
X151500000Y-121810000D03*
D19*
X151500000Y-120540000D03*
X151500000Y-119270000D03*
X151500000Y-118000000D03*
X151500000Y-116730000D03*
X151500000Y-115460000D03*
D16*
X140950000Y-84750000D03*
D15*
X140950000Y-86250000D03*
D20*
X133500000Y-124300000D03*
D21*
X133500000Y-123000000D03*
D22*
X133500000Y-121700000D03*
M02*
