G04 #@! TF.GenerationSoftware,KiCad,Pcbnew,9.0.2*
G04 #@! TF.CreationDate,2025-07-21T23:06:57-07:00*
G04 #@! TF.ProjectId,servo-drive,73657276-6f2d-4647-9269-76652e6b6963,rev?*
G04 #@! TF.SameCoordinates,Original*
G04 #@! TF.FileFunction,Copper,L4,Bot*
G04 #@! TF.FilePolarity,Positive*
%FSLAX46Y46*%
G04 Gerber Fmt 4.6, Leading zero omitted, Abs format (unit mm)*
G04 Created by KiCad (PCBNEW 9.0.2) date 2025-07-21 23:06:57*
%MOMM*%
%LPD*%
G01*
G04 APERTURE LIST*
G04 Aperture macros list*
%AMRoundRect*
0 Rectangle with rounded corners*
0 $1 Rounding radius*
0 $2 $3 $4 $5 $6 $7 $8 $9 X,Y pos of 4 corners*
0 Add a 4 corners polygon primitive as box body*
4,1,4,$2,$3,$4,$5,$6,$7,$8,$9,$2,$3,0*
0 Add four circle primitives for the rounded corners*
1,1,$1+$1,$2,$3*
1,1,$1+$1,$4,$5*
1,1,$1+$1,$6,$7*
1,1,$1+$1,$8,$9*
0 Add four rect primitives between the rounded corners*
20,1,$1+$1,$2,$3,$4,$5,0*
20,1,$1+$1,$4,$5,$6,$7,0*
20,1,$1+$1,$6,$7,$8,$9,0*
20,1,$1+$1,$8,$9,$2,$3,0*%
%AMFreePoly0*
4,1,23,0.550000,-0.750000,0.000000,-0.750000,0.000000,-0.745722,-0.065263,-0.745722,-0.191342,-0.711940,-0.304381,-0.646677,-0.396677,-0.554381,-0.461940,-0.441342,-0.495722,-0.315263,-0.495722,-0.250000,-0.500000,-0.250000,-0.500000,0.250000,-0.495722,0.250000,-0.495722,0.315263,-0.461940,0.441342,-0.396677,0.554381,-0.304381,0.646677,-0.191342,0.711940,-0.065263,0.745722,0.000000,0.745722,
0.000000,0.750000,0.550000,0.750000,0.550000,-0.750000,0.550000,-0.750000,$1*%
%AMFreePoly1*
4,1,23,0.000000,0.745722,0.065263,0.745722,0.191342,0.711940,0.304381,0.646677,0.396677,0.554381,0.461940,0.441342,0.495722,0.315263,0.495722,0.250000,0.500000,0.250000,0.500000,-0.250000,0.495722,-0.250000,0.495722,-0.315263,0.461940,-0.441342,0.396677,-0.554381,0.304381,-0.646677,0.191342,-0.711940,0.065263,-0.745722,0.000000,-0.745722,0.000000,-0.750000,-0.550000,-0.750000,
-0.550000,0.750000,0.000000,0.750000,0.000000,0.745722,0.000000,0.745722,$1*%
G04 Aperture macros list end*
G04 #@! TA.AperFunction,EtchedComponent*
%ADD10C,0.000000*%
G04 #@! TD*
G04 #@! TA.AperFunction,ComponentPad*
%ADD11RoundRect,0.250000X-0.265000X-0.615000X0.265000X-0.615000X0.265000X0.615000X-0.265000X0.615000X0*%
G04 #@! TD*
G04 #@! TA.AperFunction,ComponentPad*
%ADD12O,1.030000X1.730000*%
G04 #@! TD*
G04 #@! TA.AperFunction,ComponentPad*
%ADD13RoundRect,0.250002X-1.699998X1.699998X-1.699998X-1.699998X1.699998X-1.699998X1.699998X1.699998X0*%
G04 #@! TD*
G04 #@! TA.AperFunction,ComponentPad*
%ADD14C,3.900000*%
G04 #@! TD*
G04 #@! TA.AperFunction,ComponentPad*
%ADD15RoundRect,0.250000X0.615000X-0.265000X0.615000X0.265000X-0.615000X0.265000X-0.615000X-0.265000X0*%
G04 #@! TD*
G04 #@! TA.AperFunction,ComponentPad*
%ADD16O,1.730000X1.030000*%
G04 #@! TD*
G04 #@! TA.AperFunction,HeatsinkPad*
%ADD17C,0.600000*%
G04 #@! TD*
G04 #@! TA.AperFunction,SMDPad,CuDef*
%ADD18R,1.600000X0.900000*%
G04 #@! TD*
G04 #@! TA.AperFunction,ComponentPad*
%ADD19RoundRect,0.250000X-0.615000X0.265000X-0.615000X-0.265000X0.615000X-0.265000X0.615000X0.265000X0*%
G04 #@! TD*
G04 #@! TA.AperFunction,ComponentPad*
%ADD20RoundRect,0.250000X0.265000X0.615000X-0.265000X0.615000X-0.265000X-0.615000X0.265000X-0.615000X0*%
G04 #@! TD*
G04 #@! TA.AperFunction,ComponentPad*
%ADD21R,1.000000X1.000000*%
G04 #@! TD*
G04 #@! TA.AperFunction,ComponentPad*
%ADD22C,1.000000*%
G04 #@! TD*
G04 #@! TA.AperFunction,SMDPad,CuDef*
%ADD23FreePoly0,90.000000*%
G04 #@! TD*
G04 #@! TA.AperFunction,SMDPad,CuDef*
%ADD24R,1.500000X1.000000*%
G04 #@! TD*
G04 #@! TA.AperFunction,SMDPad,CuDef*
%ADD25FreePoly1,90.000000*%
G04 #@! TD*
G04 #@! TA.AperFunction,ViaPad*
%ADD26C,0.508000*%
G04 #@! TD*
G04 #@! TA.AperFunction,ViaPad*
%ADD27C,0.600000*%
G04 #@! TD*
G04 #@! TA.AperFunction,Conductor*
%ADD28C,0.500000*%
G04 #@! TD*
G04 #@! TA.AperFunction,Conductor*
%ADD29C,2.000000*%
G04 #@! TD*
G04 #@! TA.AperFunction,Conductor*
%ADD30C,1.400000*%
G04 #@! TD*
G04 #@! TA.AperFunction,Conductor*
%ADD31C,0.150000*%
G04 #@! TD*
G04 #@! TA.AperFunction,Conductor*
%ADD32C,0.200000*%
G04 #@! TD*
G04 APERTURE END LIST*
D10*
G04 #@! TA.AperFunction,EtchedComponent*
G36*
X133800000Y-123900000D02*
G01*
X133200000Y-123900000D01*
X133200000Y-123400000D01*
X133800000Y-123400000D01*
X133800000Y-123900000D01*
G37*
G04 #@! TD.AperFunction*
D11*
X134500000Y-76500000D03*
D12*
X136000000Y-76500000D03*
X137500000Y-76500000D03*
X139000000Y-76500000D03*
X140500000Y-76500000D03*
D11*
X144500000Y-76500000D03*
D12*
X146000000Y-76500000D03*
X147500000Y-76500000D03*
X149000000Y-76500000D03*
X150500000Y-76500000D03*
D13*
X125330000Y-92475000D03*
D14*
X125330000Y-100275000D03*
D15*
X134000000Y-128300000D03*
D16*
X134000000Y-126800000D03*
D17*
X136300000Y-84800000D03*
D18*
X135800000Y-84800000D03*
D17*
X135300000Y-84800000D03*
D19*
X150950000Y-84750000D03*
D16*
X150950000Y-86250000D03*
D20*
X140500000Y-136500000D03*
D12*
X139000000Y-136500000D03*
X137500000Y-136500000D03*
X136000000Y-136500000D03*
X134500000Y-136500000D03*
D19*
X130000000Y-114500000D03*
D16*
X130000000Y-116000000D03*
X130000000Y-117500000D03*
X130000000Y-119000000D03*
D17*
X146300000Y-84800000D03*
D18*
X145800000Y-84800000D03*
D17*
X145300000Y-84800000D03*
D19*
X130000000Y-123000000D03*
D16*
X130000000Y-124500000D03*
X130000000Y-126000000D03*
X130000000Y-127500000D03*
D15*
X144050000Y-128250000D03*
D16*
X144050000Y-126750000D03*
D19*
X125500000Y-114500000D03*
D16*
X125500000Y-116000000D03*
X125500000Y-117500000D03*
X125500000Y-119000000D03*
D20*
X150500000Y-136500000D03*
D12*
X149000000Y-136500000D03*
X147500000Y-136500000D03*
X146000000Y-136500000D03*
X144500000Y-136500000D03*
D19*
X125500000Y-123000000D03*
D16*
X125500000Y-124500000D03*
X125500000Y-126000000D03*
X125500000Y-127500000D03*
D17*
X138700000Y-128200000D03*
D18*
X139200000Y-128200000D03*
D17*
X139700000Y-128200000D03*
X148700000Y-128200000D03*
D18*
X149200000Y-128200000D03*
D17*
X149700000Y-128200000D03*
D21*
X151500000Y-121810000D03*
D22*
X151500000Y-120540000D03*
X151500000Y-119270000D03*
X151500000Y-118000000D03*
X151500000Y-116730000D03*
X151500000Y-115460000D03*
D19*
X140950000Y-84750000D03*
D16*
X140950000Y-86250000D03*
D23*
X133500000Y-124300000D03*
D24*
X133500000Y-123000000D03*
D25*
X133500000Y-121700000D03*
D26*
X141250000Y-112000000D03*
X138000000Y-109500000D03*
X137900000Y-86600000D03*
X140000000Y-109500000D03*
X134600000Y-123900000D03*
X137100000Y-126400000D03*
X134750000Y-133500000D03*
X150250000Y-79500000D03*
X151750000Y-97420000D03*
X128750000Y-86250000D03*
X151500000Y-102500000D03*
X138000000Y-108500000D03*
X144000000Y-101750000D03*
X147900000Y-86600000D03*
X149000000Y-114500000D03*
X140250000Y-79500000D03*
X144750000Y-133500000D03*
X140000000Y-108500000D03*
X147100000Y-126400000D03*
X144200000Y-113700000D03*
X152250000Y-104250000D03*
X132000000Y-103250000D03*
X144750000Y-130750000D03*
D27*
X126500000Y-99200000D03*
D26*
X141250000Y-92500000D03*
X151500000Y-127000000D03*
X141500000Y-127000000D03*
X134500000Y-85000000D03*
X140739336Y-110740104D03*
X150250000Y-82250000D03*
X141500000Y-129000000D03*
X132000000Y-98750000D03*
X129750000Y-86250000D03*
X133500000Y-86000000D03*
X131250000Y-96500000D03*
X140000000Y-112500000D03*
X142500000Y-92500000D03*
X132000000Y-101000000D03*
X138000000Y-112500000D03*
X140250000Y-82250000D03*
D27*
X126500000Y-101400000D03*
D26*
X124250000Y-89135000D03*
X134500000Y-84000000D03*
D27*
X124100000Y-99200000D03*
D26*
X150500000Y-129000000D03*
X138000000Y-111500000D03*
X131250000Y-98750000D03*
X139166085Y-105678243D03*
D27*
X123700000Y-100300000D03*
D26*
X144500000Y-85000000D03*
X132000000Y-96500000D03*
X134250000Y-86000000D03*
X134750000Y-130750000D03*
X144250000Y-86000000D03*
X151750000Y-94500000D03*
X141500000Y-128000000D03*
X125750000Y-89135000D03*
X145000000Y-101750000D03*
X150500000Y-128000000D03*
X131250000Y-101000000D03*
X140500000Y-128000000D03*
D27*
X126900000Y-100300000D03*
X124200000Y-101400000D03*
D26*
X132750000Y-104500000D03*
X143500000Y-84000000D03*
X146000000Y-119750000D03*
X151500000Y-128000000D03*
X151500000Y-129000000D03*
X143500000Y-86000000D03*
X133500000Y-84000000D03*
X132750000Y-103750000D03*
X133500000Y-85000000D03*
X140500000Y-129000000D03*
D27*
X125300000Y-101900000D03*
D26*
X143500000Y-85000000D03*
X140750000Y-127000000D03*
X147999169Y-114500896D03*
X140000000Y-111500000D03*
D27*
X125300000Y-98700000D03*
D26*
X131250000Y-103250000D03*
X150750000Y-127000000D03*
X144500000Y-84000000D03*
X143113997Y-92500000D03*
X138500000Y-86000000D03*
X148500000Y-85000000D03*
X129500000Y-98750000D03*
X136500000Y-127000000D03*
X128250000Y-90250000D03*
X146500000Y-129000000D03*
X148500000Y-86000000D03*
X138500000Y-88000000D03*
X128500000Y-98750000D03*
X129500000Y-101000000D03*
X138500000Y-83000000D03*
X129500000Y-94500000D03*
X138500000Y-84000000D03*
X136500000Y-129000000D03*
X148500000Y-84000000D03*
X148500000Y-83000000D03*
X148500000Y-88000000D03*
X128500000Y-96500000D03*
X129500000Y-96500000D03*
X146500000Y-128000000D03*
X136500000Y-125000000D03*
X138500000Y-85000000D03*
X146500000Y-127000000D03*
X138500000Y-87000000D03*
X136500000Y-128000000D03*
X146500000Y-130000000D03*
X136500000Y-126000000D03*
X128500000Y-101000000D03*
X146500000Y-125000000D03*
X128500000Y-94500000D03*
X148500000Y-87000000D03*
X136500000Y-130000000D03*
X146500000Y-126000000D03*
X149100000Y-106800000D03*
X139500000Y-118250000D03*
X140300000Y-106400000D03*
X139300000Y-107600000D03*
X140000000Y-93200000D03*
X138200000Y-119000000D03*
X145000000Y-92500000D03*
X145200000Y-110200000D03*
X140500000Y-115100000D03*
X134800000Y-123000000D03*
X141100000Y-115800000D03*
X144500000Y-110300000D03*
X145400000Y-109500000D03*
X141700000Y-115100000D03*
X146800000Y-109600000D03*
X142300000Y-114600000D03*
X142900000Y-114100000D03*
X147106763Y-110741803D03*
X142700000Y-113300000D03*
X147900000Y-110600000D03*
D27*
X126900000Y-90900000D03*
X125400000Y-90900000D03*
X123700000Y-94100000D03*
X123700000Y-90900000D03*
X125300000Y-94100000D03*
X126900000Y-94100000D03*
X126900000Y-92500000D03*
X123700000Y-92500000D03*
D26*
X135227224Y-116522780D03*
X134250000Y-101750000D03*
X136328041Y-117236184D03*
X135250000Y-101000000D03*
X150400000Y-112300000D03*
X145800000Y-101700000D03*
X149553224Y-101941797D03*
X143700000Y-114500000D03*
X144100000Y-105557000D03*
X149600000Y-115300000D03*
X147600000Y-111200000D03*
X143750000Y-92500000D03*
X150250000Y-92500000D03*
X143750000Y-97500000D03*
X136905000Y-116526852D03*
X145750000Y-97500000D03*
X135750000Y-99000000D03*
X134692000Y-98500000D03*
X143750000Y-96500000D03*
X135815100Y-116765470D03*
X145000000Y-96500000D03*
X147700000Y-107700000D03*
X140900000Y-96000000D03*
X148096317Y-102974713D03*
X145709231Y-105207000D03*
X134963997Y-92000000D03*
X138200000Y-103857000D03*
X138500000Y-102900000D03*
X146385000Y-102010000D03*
X135600000Y-92000000D03*
X143200000Y-102500000D03*
X143200000Y-103136003D03*
X139045367Y-103227220D03*
X136300000Y-92000000D03*
X149600000Y-102600000D03*
X141372651Y-104695442D03*
X141400000Y-100700000D03*
X149882000Y-88835748D03*
X144900000Y-105557000D03*
X140100000Y-121000000D03*
X136598922Y-102682055D03*
X148100000Y-101957000D03*
X149700000Y-100500000D03*
X150257000Y-89452151D03*
X147900000Y-100900000D03*
X139436003Y-121000000D03*
X148800000Y-106100000D03*
X136227000Y-103197972D03*
X143100000Y-104500000D03*
X147100000Y-95800000D03*
X152200000Y-110000000D03*
X139100000Y-92700000D03*
X148500000Y-108800000D03*
X146800000Y-100300000D03*
X152300000Y-110800000D03*
X138600000Y-119500000D03*
X149600000Y-109900000D03*
X146900000Y-107600000D03*
X145600000Y-92000000D03*
X148763997Y-123800000D03*
X145342999Y-106402000D03*
X135948000Y-102250000D03*
X138800000Y-121000000D03*
X142000000Y-104800000D03*
X142100000Y-100700000D03*
X139507647Y-117611350D03*
X149900000Y-111000000D03*
X150036003Y-123800000D03*
X146514000Y-102924000D03*
X150200000Y-100900000D03*
X149900000Y-88200000D03*
X147200000Y-106500000D03*
X140900000Y-95363997D03*
X144707007Y-106398292D03*
X149400000Y-123800000D03*
X138377001Y-116250000D03*
X145500000Y-114750000D03*
X141500000Y-117250000D03*
X134099743Y-92065801D03*
X132452011Y-91797989D03*
X140500000Y-116257000D03*
X134261442Y-115557000D03*
X144311768Y-114326104D03*
X134750000Y-116000000D03*
X145014924Y-114269245D03*
X140787646Y-116824238D03*
X133568858Y-91715571D03*
D28*
X134600000Y-123900000D02*
X133900000Y-123900000D01*
X133900000Y-123900000D02*
X133500000Y-124300000D01*
D29*
X134360076Y-90457338D02*
X134152738Y-90250000D01*
X129000000Y-90250000D02*
X129000000Y-110000000D01*
X146500000Y-124000000D02*
X146500000Y-125000000D01*
X138500000Y-90000000D02*
X138250000Y-90250000D01*
X129000000Y-110000000D02*
X132500000Y-113500000D01*
X132500000Y-113500000D02*
X132500000Y-116000000D01*
X147047927Y-90250000D02*
X148250000Y-90250000D01*
X135500000Y-121638076D02*
X136258000Y-122396076D01*
X136396076Y-122396076D02*
X136500000Y-122500000D01*
X134994292Y-90457338D02*
X134360076Y-90457338D01*
X136500000Y-122500000D02*
X136500000Y-125000000D01*
X137047262Y-90250000D02*
X136839924Y-90457338D01*
X146839927Y-90458000D02*
X147047927Y-90250000D01*
X136203924Y-90459122D02*
X134996076Y-90459122D01*
X134996076Y-90459122D02*
X134994292Y-90457338D01*
X137047262Y-90250000D02*
X144152073Y-90250000D01*
X136205708Y-90457338D02*
X136203924Y-90459122D01*
X145000000Y-122500000D02*
X146500000Y-124000000D01*
X136839924Y-90457338D02*
X136205708Y-90457338D01*
X148500000Y-90000000D02*
X148500000Y-88000000D01*
X135500000Y-119000000D02*
X135500000Y-121638076D01*
X148250000Y-90250000D02*
X148500000Y-90000000D01*
X144152073Y-90250000D02*
X144360073Y-90458000D01*
X137000000Y-122500000D02*
X145000000Y-122500000D01*
X144360073Y-90458000D02*
X146839927Y-90458000D01*
X136500000Y-123000000D02*
X137000000Y-122500000D01*
X138500000Y-88000000D02*
X138500000Y-90000000D01*
X134152738Y-90250000D02*
X129000000Y-90250000D01*
X136258000Y-122396076D02*
X136396076Y-122396076D01*
X132500000Y-116000000D02*
X135500000Y-119000000D01*
X138250000Y-90250000D02*
X137047262Y-90250000D01*
D30*
X130000000Y-117500000D02*
X130800000Y-117500000D01*
X133529000Y-120229000D02*
X133529000Y-121671000D01*
X133529000Y-121671000D02*
X133500000Y-121671000D01*
X130800000Y-117500000D02*
X133529000Y-120229000D01*
D31*
X138999999Y-117749999D02*
X138999999Y-117400000D01*
X139200000Y-107700000D02*
X139300000Y-107600000D01*
D32*
X147272828Y-108100000D02*
X145982824Y-108100000D01*
X141604998Y-108104998D02*
X140300000Y-106800000D01*
D31*
X140000000Y-93200000D02*
X140000000Y-106100000D01*
X140320999Y-92281718D02*
X140321000Y-92284434D01*
X139206563Y-108111997D02*
X139200000Y-108105434D01*
X140000000Y-106100000D02*
X140300000Y-106400000D01*
X138200000Y-119000000D02*
X138300000Y-118900000D01*
X140881717Y-91721000D02*
X140320999Y-92281718D01*
X139206563Y-116793437D02*
X139206563Y-108111997D01*
X138999999Y-117000001D02*
X139206563Y-116793437D01*
D32*
X144822171Y-108104998D02*
X141604998Y-108104998D01*
D31*
X144220999Y-91720999D02*
X140881717Y-91721000D01*
D32*
X144822172Y-108104999D02*
X144822171Y-108104998D01*
D31*
X139500000Y-118250000D02*
X138999999Y-117749999D01*
D32*
X140300000Y-106800000D02*
X140300000Y-106400000D01*
D31*
X140321000Y-92284434D02*
X140253999Y-92351435D01*
X138999999Y-118100001D02*
X138999999Y-117400000D01*
D32*
X149100000Y-106800000D02*
X149100000Y-107300000D01*
D31*
X138999999Y-117400000D02*
X138999999Y-117000001D01*
X138300000Y-118900000D02*
X138300000Y-118800000D01*
X145000000Y-92500000D02*
X144220999Y-91720999D01*
X138300000Y-118800000D02*
X138999999Y-118100001D01*
D32*
X147962001Y-108437999D02*
X147610828Y-108438000D01*
X149100000Y-107300000D02*
X147962001Y-108437999D01*
D31*
X140253999Y-92351435D02*
X140254000Y-92846000D01*
X140000000Y-93100000D02*
X140000000Y-93200000D01*
D32*
X145982824Y-108100000D02*
X145977826Y-108104998D01*
X145977826Y-108104998D02*
X144822172Y-108104999D01*
D31*
X139200000Y-108105434D02*
X139200000Y-107700000D01*
D32*
X147610828Y-108438000D02*
X147272828Y-108100000D01*
D31*
X140254000Y-92846000D02*
X140000000Y-93100000D01*
X141342000Y-112458000D02*
X140820999Y-112979001D01*
X144767000Y-109767000D02*
X144033000Y-109767000D01*
X141708000Y-112189710D02*
X141439710Y-112458000D01*
X140500000Y-114900000D02*
X140500000Y-115100000D01*
X145200000Y-110195513D02*
X144908263Y-109903776D01*
X144033000Y-109767000D02*
X141708000Y-112092000D01*
X144908263Y-109903776D02*
X144903776Y-109903776D01*
X145200000Y-110200000D02*
X145200000Y-110195513D01*
X140820999Y-114579001D02*
X140500000Y-114900000D01*
X140820999Y-112979001D02*
X140820999Y-114579001D01*
X141708000Y-112092000D02*
X141708000Y-112189710D01*
X141439710Y-112458000D02*
X141342000Y-112458000D01*
X144903776Y-109903776D02*
X144767000Y-109767000D01*
D28*
X133500000Y-123000000D02*
X134800000Y-123000000D01*
D31*
X144000000Y-110400000D02*
X144400000Y-110400000D01*
X141100000Y-113300000D02*
X144000000Y-110400000D01*
X141100000Y-115800000D02*
X141100000Y-113300000D01*
X144400000Y-110400000D02*
X144500000Y-110300000D01*
X141700000Y-113146454D02*
X141700000Y-115100000D01*
X145403546Y-110896454D02*
X143950000Y-110896454D01*
X145800000Y-109900000D02*
X145800000Y-110500000D01*
X145400000Y-109500000D02*
X145800000Y-109900000D01*
X145800000Y-110500000D02*
X145403546Y-110896454D01*
X143950000Y-110896454D02*
X141700000Y-113146454D01*
X142558000Y-112842000D02*
X142510290Y-112842000D01*
X145500000Y-111200000D02*
X144200000Y-111200000D01*
X146800000Y-109600000D02*
X146800000Y-109900000D01*
X146800000Y-109900000D02*
X145500000Y-111200000D01*
X142242000Y-113158000D02*
X141979000Y-113421000D01*
X141979000Y-113421000D02*
X141979000Y-114279000D01*
X142510290Y-112842000D02*
X142242000Y-113110290D01*
X144200000Y-111200000D02*
X142558000Y-112842000D01*
X141979000Y-114279000D02*
X142300000Y-114600000D01*
X142242000Y-113110290D02*
X142242000Y-113158000D01*
X146747329Y-110741803D02*
X145731131Y-111758001D01*
X147106763Y-110741803D02*
X146747329Y-110741803D01*
X145731131Y-111758001D02*
X145241999Y-111758001D01*
X145241999Y-111758001D02*
X142900000Y-114100000D01*
X144521000Y-111479000D02*
X142700000Y-113300000D01*
X146885987Y-110208803D02*
X146631988Y-110462802D01*
X147639763Y-110521027D02*
X147327539Y-110208803D01*
X147900000Y-110600000D02*
X147821027Y-110521027D01*
X145615566Y-111479000D02*
X144521000Y-111479000D01*
X146631988Y-110462802D02*
X146631764Y-110462802D01*
X147327539Y-110208803D02*
X146885987Y-110208803D01*
X146631764Y-110462802D02*
X145615566Y-111479000D01*
X147821027Y-110521027D02*
X147639763Y-110521027D01*
D32*
X135250000Y-114957440D02*
X134479000Y-114186440D01*
X135250000Y-116500000D02*
X135250000Y-114957440D01*
X134479000Y-114186440D02*
X134479000Y-101979000D01*
X135227224Y-116522780D02*
X135227224Y-116522776D01*
X135227224Y-116522776D02*
X135250000Y-116500000D01*
X134479000Y-101979000D02*
X134250000Y-101750000D01*
X135137000Y-113637000D02*
X135137000Y-101113000D01*
X136346000Y-114846000D02*
X135137000Y-113637000D01*
X135137000Y-101113000D02*
X135250000Y-101000000D01*
X136348033Y-117216192D02*
X136348033Y-116102099D01*
X136328041Y-117236184D02*
X136348033Y-117216192D01*
X136348033Y-116102099D02*
X136346000Y-116100066D01*
X136346000Y-116100066D02*
X136346000Y-114846000D01*
D31*
X147898287Y-102415000D02*
X148785000Y-102415000D01*
X149395021Y-102100000D02*
X149553224Y-101941797D01*
X145948000Y-101552000D02*
X147035287Y-101552000D01*
X147035287Y-101552000D02*
X147898287Y-102415000D01*
X149100000Y-102100000D02*
X149395021Y-102100000D01*
X145800000Y-101700000D02*
X145948000Y-101552000D01*
X148785000Y-102415000D02*
X149100000Y-102100000D01*
X149600000Y-115300000D02*
X149600000Y-113200000D01*
X149600000Y-113200000D02*
X147600000Y-111200000D01*
D32*
X149750000Y-92500000D02*
X150250000Y-92500000D01*
X148650000Y-93600000D02*
X149750000Y-92500000D01*
X143750000Y-93050000D02*
X144300000Y-93600000D01*
X143750000Y-92500000D02*
X143750000Y-93050000D01*
X144300000Y-93600000D02*
X148650000Y-93600000D01*
X135466000Y-113366000D02*
X136900000Y-114800000D01*
X143750000Y-97500000D02*
X145750000Y-97500000D01*
X136900000Y-116521852D02*
X136905000Y-116526852D01*
X135808000Y-101492000D02*
X135466000Y-101834000D01*
X135466000Y-101834000D02*
X135466000Y-113366000D01*
X135750000Y-99000000D02*
X135808000Y-99058000D01*
X136900000Y-114800000D02*
X136900000Y-116521852D01*
X135808000Y-99058000D02*
X135808000Y-101492000D01*
X145000000Y-96500000D02*
X143750000Y-96500000D01*
X134808000Y-101518868D02*
X134692000Y-101402868D01*
X134692000Y-101402868D02*
X134692000Y-98500000D01*
X135815100Y-116765470D02*
X135815100Y-114915100D01*
X135815100Y-114915100D02*
X134808000Y-113908000D01*
X134808000Y-113908000D02*
X134808000Y-101518868D01*
D31*
X147433000Y-107433000D02*
X147433000Y-107379224D01*
X140558000Y-105463434D02*
X140558000Y-96542000D01*
X146425224Y-107321000D02*
X146184434Y-107321000D01*
X140900000Y-96200000D02*
X140900000Y-96000000D01*
X141179000Y-106851434D02*
X141179000Y-106084434D01*
X140558000Y-96542000D02*
X140900000Y-96200000D01*
X146088434Y-107417000D02*
X141744566Y-107417000D01*
X141179000Y-106084434D02*
X140558000Y-105463434D01*
X147433000Y-107379224D02*
X147120776Y-107067000D01*
X146184434Y-107321000D02*
X146088434Y-107417000D01*
X147700000Y-107700000D02*
X147433000Y-107433000D01*
X141744566Y-107417000D02*
X141179000Y-106851434D01*
X146679224Y-107067000D02*
X146425224Y-107321000D01*
X147120776Y-107067000D02*
X146679224Y-107067000D01*
X134963997Y-95763997D02*
X134963997Y-92000000D01*
X138000000Y-103657000D02*
X138000000Y-98800000D01*
X138000000Y-98800000D02*
X134963997Y-95763997D01*
X138200000Y-103857000D02*
X138000000Y-103657000D01*
X145863659Y-102187999D02*
X145551658Y-102500000D01*
X135600000Y-95600000D02*
X135600000Y-92000000D01*
X138500000Y-102900000D02*
X138500000Y-98500000D01*
X146169139Y-102010000D02*
X145991139Y-102188000D01*
X146385000Y-102010000D02*
X146169139Y-102010000D01*
X145551658Y-102500000D02*
X143200000Y-102500000D01*
X145991139Y-102188000D02*
X145863659Y-102187999D01*
X138500000Y-98500000D02*
X135600000Y-95600000D01*
X136300000Y-95700000D02*
X139100000Y-98500000D01*
X147079224Y-102652336D02*
X146893888Y-102467000D01*
X149600000Y-102600000D02*
X148400000Y-103800000D01*
X139100000Y-103172587D02*
X139045367Y-103227220D01*
X146893888Y-102467000D02*
X145979224Y-102467000D01*
X148400000Y-103800000D02*
X148100000Y-103800000D01*
X145310221Y-103136003D02*
X143200000Y-103136003D01*
X145979224Y-102467000D02*
X145310221Y-103136003D01*
X139100000Y-98500000D02*
X139100000Y-103172587D01*
X136300000Y-92000000D02*
X136300000Y-95700000D01*
X148100000Y-103800000D02*
X147079224Y-102779224D01*
X147079224Y-102779224D02*
X147079224Y-102652336D01*
X141400000Y-100700000D02*
X141400000Y-104668093D01*
X141400000Y-104668093D02*
X141372651Y-104695442D01*
X148900000Y-94800000D02*
X143300000Y-94800000D01*
X142667000Y-100133000D02*
X142667000Y-103356779D01*
X149967000Y-90233000D02*
X149967000Y-91067000D01*
X142200000Y-95900000D02*
X142200000Y-99600000D01*
X144900000Y-104500000D02*
X144900000Y-105557000D01*
X142700000Y-100100000D02*
X142667000Y-100133000D01*
X143210221Y-103900000D02*
X144300000Y-103900000D01*
X150800000Y-92900000D02*
X148900000Y-94800000D01*
X150800000Y-91900000D02*
X150800000Y-92900000D01*
X149967000Y-91067000D02*
X150800000Y-91900000D01*
X149800000Y-90066000D02*
X149967000Y-90233000D01*
X149882000Y-88835748D02*
X149800000Y-88917748D01*
X144300000Y-103900000D02*
X144900000Y-104500000D01*
X142200000Y-99600000D02*
X142700000Y-100100000D01*
X142667000Y-103356779D02*
X143210221Y-103900000D01*
X149800000Y-88917748D02*
X149800000Y-90066000D01*
X143300000Y-94800000D02*
X142200000Y-95900000D01*
X140100000Y-120910221D02*
X140100000Y-121000000D01*
X137833000Y-120033000D02*
X139222779Y-120033000D01*
X137262000Y-118438000D02*
X137262000Y-119462000D01*
X136598922Y-102682055D02*
X136720776Y-102803909D01*
X136720776Y-102803909D02*
X136720776Y-112920776D01*
X137920001Y-114120001D02*
X137920001Y-117779999D01*
X136720776Y-112920776D02*
X137920001Y-114120001D01*
X137920001Y-117779999D02*
X137262000Y-118438000D01*
X137262000Y-119462000D02*
X137833000Y-120033000D01*
X139222779Y-120033000D02*
X140100000Y-120910221D01*
X148100000Y-101957000D02*
X148100000Y-101700000D01*
X150257000Y-89452151D02*
X150257000Y-90557000D01*
X147900000Y-101500000D02*
X147900000Y-100900000D01*
X151200000Y-91500000D02*
X151200000Y-93300000D01*
X150257000Y-90557000D02*
X151200000Y-91500000D01*
X151200000Y-93300000D02*
X150700000Y-93800000D01*
X150700000Y-93800000D02*
X150700000Y-99500000D01*
X148100000Y-101700000D02*
X147900000Y-101500000D01*
X150700000Y-99500000D02*
X149700000Y-100500000D01*
X136983000Y-117611566D02*
X136983000Y-119883000D01*
X139436003Y-120882227D02*
X139436003Y-121000000D01*
X147420776Y-105967000D02*
X147620776Y-106167000D01*
X136200000Y-112997283D02*
X137641000Y-114438283D01*
X145953304Y-106762999D02*
X146184434Y-106762998D01*
X136983000Y-119883000D02*
X137500000Y-120400000D01*
X146979224Y-105967000D02*
X147420776Y-105967000D01*
X142600000Y-106000000D02*
X143459000Y-106859000D01*
X138953776Y-120400000D02*
X139436003Y-120882227D01*
X148733000Y-106167000D02*
X148800000Y-106100000D01*
X142600000Y-105000000D02*
X142600000Y-106000000D01*
X137641000Y-116953566D02*
X136983000Y-117611566D01*
X143459000Y-106859000D02*
X145857302Y-106859000D01*
X146184434Y-106761790D02*
X146979224Y-105967000D01*
X136200000Y-103200000D02*
X136200000Y-112997283D01*
X146184434Y-106762998D02*
X146184434Y-106761790D01*
X145857302Y-106859000D02*
X145953304Y-106762999D01*
X137500000Y-120400000D02*
X138953776Y-120400000D01*
X136202028Y-103197972D02*
X136200000Y-103200000D01*
X147620776Y-106167000D02*
X148733000Y-106167000D01*
X137641000Y-114438283D02*
X137641000Y-116953566D01*
X136227000Y-103197972D02*
X136202028Y-103197972D01*
X143100000Y-104500000D02*
X142600000Y-105000000D01*
X149610290Y-100958000D02*
X150500000Y-101847710D01*
X152200000Y-106100000D02*
X152200000Y-110000000D01*
X149510290Y-100958000D02*
X149610290Y-100958000D01*
X150500000Y-101847710D02*
X150500000Y-104400000D01*
X150500000Y-104400000D02*
X152200000Y-106100000D01*
X147100000Y-95800000D02*
X147100000Y-98547710D01*
X147100000Y-98547710D02*
X149510290Y-100958000D01*
X148140790Y-108800000D02*
X148500000Y-108800000D01*
X147484908Y-108742000D02*
X148082788Y-108741998D01*
X147151907Y-108408999D02*
X147484908Y-108742000D01*
X139721000Y-93700000D02*
X139721000Y-106650920D01*
X141479079Y-108408999D02*
X147151907Y-108408999D01*
X139100000Y-92700000D02*
X139300000Y-92900000D01*
X139300000Y-92900000D02*
X139300000Y-93279000D01*
X148082788Y-108741998D02*
X148140790Y-108800000D01*
X139721000Y-106650920D02*
X141479079Y-108408999D01*
X139300000Y-93279000D02*
X139721000Y-93700000D01*
X148200000Y-100300000D02*
X146800000Y-100300000D01*
X152300000Y-110800000D02*
X152246224Y-110800000D01*
X151667000Y-110220776D02*
X151667000Y-106361566D01*
X149137001Y-101237001D02*
X148200000Y-100300000D01*
X150173112Y-104867678D02*
X150173112Y-101915388D01*
X151667000Y-106361566D02*
X150173112Y-104867678D01*
X149494725Y-101237001D02*
X149137001Y-101237001D01*
X152246224Y-110800000D02*
X151667000Y-110220776D01*
X150173112Y-101915388D02*
X149494725Y-101237001D01*
X138835001Y-116439710D02*
X138800000Y-116474711D01*
X147967223Y-109020999D02*
X147369342Y-109021000D01*
X139675514Y-107000000D02*
X139146224Y-107000000D01*
X137979224Y-119533000D02*
X138420776Y-119533000D01*
X138800000Y-116700000D02*
X138400000Y-117100000D01*
X147036341Y-108687999D02*
X141363514Y-108688000D01*
X138600000Y-119353776D02*
X138600000Y-119500000D01*
X138800000Y-116025289D02*
X138835001Y-116060290D01*
X149600000Y-109900000D02*
X149500000Y-110000000D01*
X138400000Y-117100000D02*
X138400000Y-117900000D01*
X139146224Y-107000000D02*
X138767000Y-107379224D01*
X148946224Y-110000000D02*
X147967223Y-109020999D01*
X137667000Y-118633000D02*
X137667000Y-119220776D01*
X137667000Y-119220776D02*
X137979224Y-119533000D01*
X138400000Y-117900000D02*
X137667000Y-118633000D01*
X138767000Y-107379224D02*
X138767000Y-107820776D01*
X147369342Y-109021000D02*
X147036341Y-108687999D01*
X149500000Y-110000000D02*
X148946224Y-110000000D01*
X138800000Y-107853776D02*
X138800000Y-116025289D01*
X138420776Y-119533000D02*
X138600000Y-119353776D01*
X138767000Y-107820776D02*
X138800000Y-107853776D01*
X138835001Y-116060290D02*
X138835001Y-116439710D01*
X141363514Y-108688000D02*
X139675514Y-107000000D01*
X138800000Y-116474711D02*
X138800000Y-116700000D01*
X144810290Y-92958000D02*
X145189710Y-92958000D01*
X140532999Y-92467001D02*
X140600001Y-92399999D01*
X140458000Y-93036566D02*
X140533001Y-92961565D01*
X144200000Y-92094566D02*
X144200000Y-92100000D01*
X140600001Y-92399999D02*
X140600001Y-92397282D01*
X140900000Y-106967000D02*
X140900000Y-106200000D01*
X140279000Y-105579000D02*
X140279000Y-93568710D01*
X145458000Y-92342000D02*
X145600000Y-92200000D01*
X146204000Y-107696000D02*
X141629000Y-107696000D01*
X145600000Y-92200000D02*
X145600000Y-92000000D01*
X141629000Y-107696000D02*
X140900000Y-106967000D01*
X146900000Y-107600000D02*
X146300000Y-107600000D01*
X140600001Y-92397282D02*
X140997283Y-92000000D01*
X144542000Y-92689710D02*
X144810290Y-92958000D01*
X145189710Y-92958000D02*
X145458000Y-92689710D01*
X144200000Y-92100000D02*
X144467000Y-92367000D01*
X140279000Y-93568710D02*
X140458000Y-93389710D01*
X144467000Y-92367000D02*
X144472434Y-92367000D01*
X145458000Y-92689710D02*
X145458000Y-92342000D01*
X146300000Y-107600000D02*
X146204000Y-107696000D01*
X140900000Y-106200000D02*
X140279000Y-105579000D01*
X140533001Y-92961565D02*
X140532999Y-92467001D01*
X140458000Y-93389710D02*
X140458000Y-93036566D01*
X144472434Y-92367000D02*
X144542000Y-92436566D01*
X140997283Y-92000000D02*
X144105434Y-92000000D01*
X144105434Y-92000000D02*
X144200000Y-92094566D01*
X144542000Y-92436566D02*
X144542000Y-92689710D01*
X146192160Y-106359498D02*
X146863659Y-105687999D01*
X145342999Y-106402000D02*
X145342999Y-106371995D01*
X146863659Y-105687999D02*
X148458225Y-105687999D01*
X148579224Y-105567000D02*
X149020776Y-105567000D01*
X145330502Y-106359498D02*
X146192160Y-106359498D01*
X150141999Y-116358001D02*
X148763997Y-117736003D01*
X150400000Y-106946224D02*
X150400000Y-111300000D01*
X150141999Y-113358001D02*
X150141999Y-116358001D01*
X148458225Y-105687999D02*
X148579224Y-105567000D01*
X150942000Y-112558000D02*
X150141999Y-113358001D01*
X150400000Y-111300000D02*
X150942000Y-111842000D01*
X148763997Y-117736003D02*
X148763997Y-123800000D01*
X149020776Y-105567000D02*
X150400000Y-106946224D01*
X150942000Y-111842000D02*
X150942000Y-112558000D01*
X145342999Y-106371995D02*
X145330502Y-106359498D01*
X137362000Y-114651132D02*
X137362000Y-116838000D01*
X137400000Y-121000000D02*
X138800000Y-121000000D01*
X136704000Y-120304000D02*
X137400000Y-121000000D01*
X135948000Y-102652000D02*
X135770000Y-102830000D01*
X135770000Y-102830000D02*
X135770000Y-113059132D01*
X137362000Y-116838000D02*
X136704000Y-117496000D01*
X136704000Y-117496000D02*
X136704000Y-120304000D01*
X135770000Y-113059132D02*
X137362000Y-114651132D01*
X135948000Y-102250000D02*
X135948000Y-102652000D01*
X141700000Y-103763997D02*
X141700000Y-101153776D01*
X142000000Y-104063997D02*
X141700000Y-103763997D01*
X141933000Y-100867000D02*
X142100000Y-100700000D01*
X141933000Y-100920776D02*
X141933000Y-100867000D01*
X142000000Y-104800000D02*
X142000000Y-104063997D01*
X141700000Y-101153776D02*
X141933000Y-100920776D01*
X140180948Y-107900000D02*
X141247949Y-108967001D01*
X147253777Y-109300001D02*
X147500001Y-109300001D01*
X149200000Y-111000000D02*
X149900000Y-111000000D01*
X139485564Y-117589267D02*
X139485564Y-108214436D01*
X146920775Y-108966999D02*
X147253777Y-109300001D01*
X139507647Y-117611350D02*
X139485564Y-117589267D01*
X147500001Y-109300001D02*
X149200000Y-111000000D01*
X139800000Y-107900000D02*
X140180948Y-107900000D01*
X139485564Y-108214436D02*
X139800000Y-107900000D01*
X141247949Y-108967001D02*
X146920775Y-108966999D01*
X151700000Y-113700000D02*
X150700000Y-114700000D01*
X147100000Y-104800000D02*
X149500000Y-104800000D01*
X150700000Y-118300000D02*
X150036003Y-118963997D01*
X146600000Y-103010000D02*
X146600000Y-104300000D01*
X149500000Y-104800000D02*
X151200000Y-106500000D01*
X150700000Y-114700000D02*
X150700000Y-118300000D01*
X150036003Y-118963997D02*
X150036003Y-123800000D01*
X146600000Y-104300000D02*
X147100000Y-104800000D01*
X151200000Y-110300000D02*
X151700000Y-110800000D01*
X151700000Y-110800000D02*
X151700000Y-113700000D01*
X151200000Y-106500000D02*
X151200000Y-110300000D01*
X146514000Y-102924000D02*
X146600000Y-103010000D01*
X151600000Y-93700000D02*
X151217000Y-94083000D01*
X151217000Y-94083000D02*
X151217000Y-99883000D01*
X149900000Y-88200000D02*
X150000000Y-88200000D01*
X151600000Y-89800000D02*
X151600000Y-93700000D01*
X150000000Y-88200000D02*
X151600000Y-89800000D01*
X151217000Y-99883000D02*
X150200000Y-100900000D01*
X141458001Y-105968869D02*
X140837000Y-105347868D01*
X146068869Y-107041999D02*
X145972866Y-107138001D01*
X141500000Y-95800000D02*
X141063997Y-95363997D01*
X146298791Y-107041999D02*
X146068869Y-107041999D01*
X141458000Y-106735868D02*
X141458001Y-105968869D01*
X141860132Y-107138000D02*
X141458000Y-106735868D01*
X140837000Y-96863000D02*
X141500000Y-96200000D01*
X141500000Y-96200000D02*
X141500000Y-95800000D01*
X140837000Y-105347868D02*
X140837000Y-96863000D01*
X145972866Y-107138001D02*
X141860132Y-107138000D01*
X146840790Y-106500000D02*
X146298791Y-107041999D01*
X147200000Y-106500000D02*
X146840790Y-106500000D01*
X141063997Y-95363997D02*
X140900000Y-95363997D01*
X149400000Y-118300000D02*
X149400000Y-123800000D01*
X144884999Y-106212290D02*
X145153289Y-105944000D01*
X144707007Y-106398292D02*
X144884999Y-106220300D01*
X150800000Y-106700000D02*
X150800000Y-110647283D01*
X150800000Y-110647283D02*
X151295238Y-111142521D01*
X146213092Y-105944000D02*
X146748093Y-105408999D01*
X148192452Y-105288000D02*
X149388000Y-105288000D01*
X144884999Y-106220300D02*
X144884999Y-106212290D01*
X150420999Y-117279001D02*
X149400000Y-118300000D01*
X145153289Y-105944000D02*
X146213092Y-105944000D01*
X149388000Y-105288000D02*
X150800000Y-106700000D01*
X151295238Y-113110196D02*
X150420999Y-113984435D01*
X148071453Y-105408999D02*
X148192452Y-105288000D01*
X150420999Y-113984435D02*
X150420999Y-117279001D01*
X151295238Y-111142521D02*
X151295238Y-113110196D01*
X146748093Y-105408999D02*
X148071453Y-105408999D01*
X138458000Y-116169001D02*
X138458000Y-105958000D01*
X137500000Y-105000000D02*
X137500000Y-99140790D01*
X134000000Y-95640790D02*
X134000000Y-92000000D01*
X143000000Y-117250000D02*
X141500000Y-117250000D01*
X138458000Y-105958000D02*
X137500000Y-105000000D01*
X134000000Y-92000000D02*
X134033942Y-92000000D01*
X134033942Y-92000000D02*
X134099743Y-92065801D01*
X137500000Y-99140790D02*
X134000000Y-95640790D01*
X145500000Y-114750000D02*
X143000000Y-117250000D01*
X138377001Y-116250000D02*
X138458000Y-116169001D01*
X144158000Y-114442000D02*
X144158000Y-114689710D01*
X144158000Y-114689710D02*
X143889710Y-114958000D01*
X143889710Y-114958000D02*
X143642000Y-114958000D01*
X132900000Y-92245978D02*
X132900000Y-102500000D01*
X132900000Y-102500000D02*
X133750000Y-103350000D01*
X132452011Y-91797989D02*
X132900000Y-92245978D01*
X133750000Y-103350000D02*
X133750000Y-114931652D01*
X144311768Y-114326104D02*
X144273896Y-114326104D01*
X144273896Y-114326104D02*
X144158000Y-114442000D01*
X133750000Y-114931652D02*
X134261442Y-115443094D01*
X134261442Y-115443094D02*
X134261442Y-115557000D01*
X143642000Y-114958000D02*
X142343000Y-116257000D01*
X142343000Y-116257000D02*
X140500000Y-116257000D01*
X140819884Y-116792000D02*
X140787646Y-116824238D01*
X142602566Y-116792000D02*
X140819884Y-116792000D01*
X134175000Y-102675000D02*
X133568858Y-102068858D01*
X133568858Y-102068858D02*
X133568858Y-91715571D01*
X145014924Y-114379642D02*
X142602566Y-116792000D01*
X145014924Y-114269245D02*
X145014924Y-114379642D01*
X134750000Y-116000000D02*
X134750000Y-115150000D01*
X134750000Y-115150000D02*
X134175000Y-114575000D01*
X134175000Y-114575000D02*
X134175000Y-102675000D01*
G04 #@! TA.AperFunction,Conductor*
G36*
X148925500Y-82519962D02*
G01*
X148980038Y-82574500D01*
X149000000Y-82649000D01*
X149000000Y-88351000D01*
X148980038Y-88425500D01*
X148925500Y-88480038D01*
X148851000Y-88500000D01*
X146149000Y-88500000D01*
X146074500Y-88480038D01*
X146019962Y-88425500D01*
X146000000Y-88351000D01*
X146000000Y-86540158D01*
X147445500Y-86540158D01*
X147445500Y-86659841D01*
X147476470Y-86775426D01*
X147476472Y-86775429D01*
X147536306Y-86879066D01*
X147536307Y-86879067D01*
X147536309Y-86879070D01*
X147620930Y-86963691D01*
X147724569Y-87023527D01*
X147724570Y-87023527D01*
X147724573Y-87023529D01*
X147840158Y-87054499D01*
X147840162Y-87054499D01*
X147840164Y-87054500D01*
X147840166Y-87054500D01*
X147959834Y-87054500D01*
X147959836Y-87054500D01*
X147959838Y-87054499D01*
X147959841Y-87054499D01*
X148075426Y-87023529D01*
X148075427Y-87023527D01*
X148075431Y-87023527D01*
X148179070Y-86963691D01*
X148263691Y-86879070D01*
X148323527Y-86775431D01*
X148323527Y-86775427D01*
X148323529Y-86775426D01*
X148354499Y-86659841D01*
X148354500Y-86659834D01*
X148354500Y-86540165D01*
X148354499Y-86540158D01*
X148323529Y-86424573D01*
X148323527Y-86424570D01*
X148323527Y-86424569D01*
X148263691Y-86320930D01*
X148179070Y-86236309D01*
X148179067Y-86236307D01*
X148179066Y-86236306D01*
X148075429Y-86176472D01*
X148075426Y-86176470D01*
X147959841Y-86145500D01*
X147959836Y-86145500D01*
X147840164Y-86145500D01*
X147840158Y-86145500D01*
X147724573Y-86176470D01*
X147724570Y-86176472D01*
X147620933Y-86236306D01*
X147536306Y-86320933D01*
X147476472Y-86424570D01*
X147476470Y-86424573D01*
X147445500Y-86540158D01*
X146000000Y-86540158D01*
X146000000Y-85599500D01*
X146019962Y-85525000D01*
X146074500Y-85470462D01*
X146149000Y-85450500D01*
X146619748Y-85450500D01*
X146678231Y-85438867D01*
X146744552Y-85394552D01*
X146788867Y-85328231D01*
X146800500Y-85269748D01*
X146800500Y-84330252D01*
X146788867Y-84271769D01*
X146744552Y-84205448D01*
X146678231Y-84161133D01*
X146678230Y-84161132D01*
X146619748Y-84149500D01*
X146149000Y-84149500D01*
X146074500Y-84129538D01*
X146019962Y-84075000D01*
X146000000Y-84000500D01*
X146000000Y-83561718D01*
X146019962Y-83487218D01*
X146043641Y-83456359D01*
X146956359Y-82543641D01*
X147023154Y-82505077D01*
X147061718Y-82500000D01*
X148851000Y-82500000D01*
X148925500Y-82519962D01*
G37*
G04 #@! TD.AperFunction*
G04 #@! TA.AperFunction,Conductor*
G36*
X138925500Y-82519962D02*
G01*
X138980038Y-82574500D01*
X139000000Y-82649000D01*
X139000000Y-88351000D01*
X138980038Y-88425500D01*
X138925500Y-88480038D01*
X138851000Y-88500000D01*
X136149000Y-88500000D01*
X136074500Y-88480038D01*
X136019962Y-88425500D01*
X136000000Y-88351000D01*
X136000000Y-86540158D01*
X137445500Y-86540158D01*
X137445500Y-86659841D01*
X137476470Y-86775426D01*
X137476472Y-86775429D01*
X137536306Y-86879066D01*
X137536307Y-86879067D01*
X137536309Y-86879070D01*
X137620930Y-86963691D01*
X137724569Y-87023527D01*
X137724570Y-87023527D01*
X137724573Y-87023529D01*
X137840158Y-87054499D01*
X137840162Y-87054499D01*
X137840164Y-87054500D01*
X137840166Y-87054500D01*
X137959834Y-87054500D01*
X137959836Y-87054500D01*
X137959838Y-87054499D01*
X137959841Y-87054499D01*
X138075426Y-87023529D01*
X138075427Y-87023527D01*
X138075431Y-87023527D01*
X138179070Y-86963691D01*
X138263691Y-86879070D01*
X138323527Y-86775431D01*
X138323527Y-86775427D01*
X138323529Y-86775426D01*
X138354499Y-86659841D01*
X138354500Y-86659834D01*
X138354500Y-86540165D01*
X138354499Y-86540158D01*
X138323529Y-86424573D01*
X138323527Y-86424570D01*
X138323527Y-86424569D01*
X138263691Y-86320930D01*
X138179070Y-86236309D01*
X138179067Y-86236307D01*
X138179066Y-86236306D01*
X138075429Y-86176472D01*
X138075426Y-86176470D01*
X137959841Y-86145500D01*
X137959836Y-86145500D01*
X137840164Y-86145500D01*
X137840158Y-86145500D01*
X137724573Y-86176470D01*
X137724570Y-86176472D01*
X137620933Y-86236306D01*
X137536306Y-86320933D01*
X137476472Y-86424570D01*
X137476470Y-86424573D01*
X137445500Y-86540158D01*
X136000000Y-86540158D01*
X136000000Y-85599500D01*
X136019962Y-85525000D01*
X136074500Y-85470462D01*
X136149000Y-85450500D01*
X136619748Y-85450500D01*
X136678231Y-85438867D01*
X136744552Y-85394552D01*
X136788867Y-85328231D01*
X136800500Y-85269748D01*
X136800500Y-84330252D01*
X136788867Y-84271769D01*
X136744552Y-84205448D01*
X136678231Y-84161133D01*
X136678230Y-84161132D01*
X136619748Y-84149500D01*
X136149000Y-84149500D01*
X136074500Y-84129538D01*
X136019962Y-84075000D01*
X136000000Y-84000500D01*
X136000000Y-83561718D01*
X136019962Y-83487218D01*
X136043641Y-83456359D01*
X136956359Y-82543641D01*
X137023154Y-82505077D01*
X137061718Y-82500000D01*
X138851000Y-82500000D01*
X138925500Y-82519962D01*
G37*
G04 #@! TD.AperFunction*
G04 #@! TA.AperFunction,Conductor*
G36*
X138943039Y-78019685D02*
G01*
X138988794Y-78072489D01*
X139000000Y-78124000D01*
X139000000Y-81876000D01*
X138980315Y-81943039D01*
X138927511Y-81988794D01*
X138876000Y-82000000D01*
X136499999Y-82000000D01*
X135500000Y-82999999D01*
X135500000Y-88376000D01*
X135480315Y-88443039D01*
X135427511Y-88488794D01*
X135376000Y-88500000D01*
X133124000Y-88500000D01*
X133056961Y-88480315D01*
X133011206Y-88427511D01*
X133000000Y-88376000D01*
X133000000Y-78124000D01*
X133019685Y-78056961D01*
X133072489Y-78011206D01*
X133124000Y-78000000D01*
X138876000Y-78000000D01*
X138943039Y-78019685D01*
G37*
G04 #@! TD.AperFunction*
G04 #@! TA.AperFunction,Conductor*
G36*
X148943039Y-78019685D02*
G01*
X148988794Y-78072489D01*
X149000000Y-78124000D01*
X149000000Y-81876000D01*
X148980315Y-81943039D01*
X148927511Y-81988794D01*
X148876000Y-82000000D01*
X146499999Y-82000000D01*
X145500000Y-82999999D01*
X145500000Y-88376000D01*
X145480315Y-88443039D01*
X145427511Y-88488794D01*
X145376000Y-88500000D01*
X143124000Y-88500000D01*
X143056961Y-88480315D01*
X143011206Y-88427511D01*
X143000000Y-88376000D01*
X143000000Y-78124000D01*
X143019685Y-78056961D01*
X143072489Y-78011206D01*
X143124000Y-78000000D01*
X148876000Y-78000000D01*
X148943039Y-78019685D01*
G37*
G04 #@! TD.AperFunction*
G04 #@! TA.AperFunction,Conductor*
G36*
X138925500Y-124519962D02*
G01*
X138980038Y-124574500D01*
X139000000Y-124649000D01*
X139000000Y-127400500D01*
X138980038Y-127475000D01*
X138925500Y-127529538D01*
X138851000Y-127549500D01*
X138380252Y-127549500D01*
X138321769Y-127561132D01*
X138255448Y-127605448D01*
X138211132Y-127671769D01*
X138199500Y-127730251D01*
X138199500Y-128669748D01*
X138211132Y-128728230D01*
X138211133Y-128728231D01*
X138255448Y-128794552D01*
X138321769Y-128838867D01*
X138380252Y-128850500D01*
X138851000Y-128850500D01*
X138925500Y-128870462D01*
X138980038Y-128925000D01*
X139000000Y-128999500D01*
X139000000Y-129438282D01*
X138980038Y-129512782D01*
X138956359Y-129543641D01*
X138043641Y-130456359D01*
X137976846Y-130494923D01*
X137938282Y-130500000D01*
X136149000Y-130500000D01*
X136074500Y-130480038D01*
X136019962Y-130425500D01*
X136000000Y-130351000D01*
X136000000Y-126340158D01*
X136645500Y-126340158D01*
X136645500Y-126459841D01*
X136676470Y-126575426D01*
X136676472Y-126575429D01*
X136736306Y-126679066D01*
X136736307Y-126679067D01*
X136736309Y-126679070D01*
X136820930Y-126763691D01*
X136924569Y-126823527D01*
X136924570Y-126823527D01*
X136924573Y-126823529D01*
X137040158Y-126854499D01*
X137040162Y-126854499D01*
X137040164Y-126854500D01*
X137040166Y-126854500D01*
X137159834Y-126854500D01*
X137159836Y-126854500D01*
X137159838Y-126854499D01*
X137159841Y-126854499D01*
X137275426Y-126823529D01*
X137275427Y-126823527D01*
X137275431Y-126823527D01*
X137379070Y-126763691D01*
X137463691Y-126679070D01*
X137523527Y-126575431D01*
X137523527Y-126575427D01*
X137523529Y-126575426D01*
X137554499Y-126459841D01*
X137554500Y-126459834D01*
X137554500Y-126340165D01*
X137554499Y-126340158D01*
X137523529Y-126224573D01*
X137523527Y-126224570D01*
X137523527Y-126224569D01*
X137463691Y-126120930D01*
X137379070Y-126036309D01*
X137379067Y-126036307D01*
X137379066Y-126036306D01*
X137275429Y-125976472D01*
X137275426Y-125976470D01*
X137159841Y-125945500D01*
X137159836Y-125945500D01*
X137040164Y-125945500D01*
X137040158Y-125945500D01*
X136924573Y-125976470D01*
X136924570Y-125976472D01*
X136820933Y-126036306D01*
X136736306Y-126120933D01*
X136676472Y-126224570D01*
X136676470Y-126224573D01*
X136645500Y-126340158D01*
X136000000Y-126340158D01*
X136000000Y-124649000D01*
X136019962Y-124574500D01*
X136074500Y-124519962D01*
X136149000Y-124500000D01*
X138851000Y-124500000D01*
X138925500Y-124519962D01*
G37*
G04 #@! TD.AperFunction*
G04 #@! TA.AperFunction,Conductor*
G36*
X151943039Y-124519685D02*
G01*
X151988794Y-124572489D01*
X152000000Y-124624000D01*
X152000000Y-134876000D01*
X151980315Y-134943039D01*
X151927511Y-134988794D01*
X151876000Y-135000000D01*
X146124000Y-135000000D01*
X146056961Y-134980315D01*
X146011206Y-134927511D01*
X146000000Y-134876000D01*
X146000000Y-131124000D01*
X146019685Y-131056961D01*
X146072489Y-131011206D01*
X146124000Y-131000000D01*
X148500000Y-131000000D01*
X149500000Y-130000000D01*
X149500000Y-124624000D01*
X149519685Y-124556961D01*
X149572489Y-124511206D01*
X149624000Y-124500000D01*
X151876000Y-124500000D01*
X151943039Y-124519685D01*
G37*
G04 #@! TD.AperFunction*
G04 #@! TA.AperFunction,Conductor*
G36*
X148925500Y-124519962D02*
G01*
X148980038Y-124574500D01*
X149000000Y-124649000D01*
X149000000Y-127400500D01*
X148980038Y-127475000D01*
X148925500Y-127529538D01*
X148851000Y-127549500D01*
X148380252Y-127549500D01*
X148321769Y-127561132D01*
X148255448Y-127605448D01*
X148211132Y-127671769D01*
X148199500Y-127730251D01*
X148199500Y-128669748D01*
X148211132Y-128728230D01*
X148211133Y-128728231D01*
X148255448Y-128794552D01*
X148321769Y-128838867D01*
X148380252Y-128850500D01*
X148851000Y-128850500D01*
X148925500Y-128870462D01*
X148980038Y-128925000D01*
X149000000Y-128999500D01*
X149000000Y-129438282D01*
X148980038Y-129512782D01*
X148956359Y-129543641D01*
X148043641Y-130456359D01*
X147976846Y-130494923D01*
X147938282Y-130500000D01*
X146149000Y-130500000D01*
X146074500Y-130480038D01*
X146019962Y-130425500D01*
X146000000Y-130351000D01*
X146000000Y-126340158D01*
X146645500Y-126340158D01*
X146645500Y-126459841D01*
X146676470Y-126575426D01*
X146676472Y-126575429D01*
X146736306Y-126679066D01*
X146736307Y-126679067D01*
X146736309Y-126679070D01*
X146820930Y-126763691D01*
X146924569Y-126823527D01*
X146924570Y-126823527D01*
X146924573Y-126823529D01*
X147040158Y-126854499D01*
X147040162Y-126854499D01*
X147040164Y-126854500D01*
X147040166Y-126854500D01*
X147159834Y-126854500D01*
X147159836Y-126854500D01*
X147159838Y-126854499D01*
X147159841Y-126854499D01*
X147275426Y-126823529D01*
X147275427Y-126823527D01*
X147275431Y-126823527D01*
X147379070Y-126763691D01*
X147463691Y-126679070D01*
X147523527Y-126575431D01*
X147523527Y-126575427D01*
X147523529Y-126575426D01*
X147554499Y-126459841D01*
X147554500Y-126459834D01*
X147554500Y-126340165D01*
X147554499Y-126340158D01*
X147523529Y-126224573D01*
X147523527Y-126224570D01*
X147523527Y-126224569D01*
X147463691Y-126120930D01*
X147379070Y-126036309D01*
X147379067Y-126036307D01*
X147379066Y-126036306D01*
X147275429Y-125976472D01*
X147275426Y-125976470D01*
X147159841Y-125945500D01*
X147159836Y-125945500D01*
X147040164Y-125945500D01*
X147040158Y-125945500D01*
X146924573Y-125976470D01*
X146924570Y-125976472D01*
X146820933Y-126036306D01*
X146736306Y-126120933D01*
X146676472Y-126224570D01*
X146676470Y-126224573D01*
X146645500Y-126340158D01*
X146000000Y-126340158D01*
X146000000Y-124649000D01*
X146019962Y-124574500D01*
X146074500Y-124519962D01*
X146149000Y-124500000D01*
X148851000Y-124500000D01*
X148925500Y-124519962D01*
G37*
G04 #@! TD.AperFunction*
G04 #@! TA.AperFunction,Conductor*
G36*
X141943039Y-124519685D02*
G01*
X141988794Y-124572489D01*
X142000000Y-124624000D01*
X142000000Y-134876000D01*
X141980315Y-134943039D01*
X141927511Y-134988794D01*
X141876000Y-135000000D01*
X136124000Y-135000000D01*
X136056961Y-134980315D01*
X136011206Y-134927511D01*
X136000000Y-134876000D01*
X136000000Y-131124000D01*
X136019685Y-131056961D01*
X136072489Y-131011206D01*
X136124000Y-131000000D01*
X138500000Y-131000000D01*
X139500000Y-130000000D01*
X139500000Y-124624000D01*
X139519685Y-124556961D01*
X139572489Y-124511206D01*
X139624000Y-124500000D01*
X141876000Y-124500000D01*
X141943039Y-124519685D01*
G37*
G04 #@! TD.AperFunction*
M02*
