G04 #@! TF.GenerationSoftware,KiCad,Pcbnew,9.0.2*
G04 #@! TF.CreationDate,2025-07-21T23:06:58-07:00*
G04 #@! TF.ProjectId,servo-drive,73657276-6f2d-4647-9269-76652e6b6963,rev?*
G04 #@! TF.SameCoordinates,Original*
G04 #@! TF.FileFunction,Soldermask,Top*
G04 #@! TF.FilePolarity,Negative*
%FSLAX46Y46*%
G04 Gerber Fmt 4.6, Leading zero omitted, Abs format (unit mm)*
G04 Created by KiCad (PCBNEW 9.0.2) date 2025-07-21 23:06:58*
%MOMM*%
%LPD*%
G01*
G04 APERTURE LIST*
G04 Aperture macros list*
%AMRoundRect*
0 Rectangle with rounded corners*
0 $1 Rounding radius*
0 $2 $3 $4 $5 $6 $7 $8 $9 X,Y pos of 4 corners*
0 Add a 4 corners polygon primitive as box body*
4,1,4,$2,$3,$4,$5,$6,$7,$8,$9,$2,$3,0*
0 Add four circle primitives for the rounded corners*
1,1,$1+$1,$2,$3*
1,1,$1+$1,$4,$5*
1,1,$1+$1,$6,$7*
1,1,$1+$1,$8,$9*
0 Add four rect primitives between the rounded corners*
20,1,$1+$1,$2,$3,$4,$5,0*
20,1,$1+$1,$4,$5,$6,$7,0*
20,1,$1+$1,$6,$7,$8,$9,0*
20,1,$1+$1,$8,$9,$2,$3,0*%
%AMFreePoly0*
4,1,9,3.862500,-0.866500,0.737500,-0.866500,0.737500,-0.450000,-0.737500,-0.450000,-0.737500,0.450000,0.737500,0.450000,0.737500,0.866500,3.862500,0.866500,3.862500,-0.866500,3.862500,-0.866500,$1*%
G04 Aperture macros list end*
%ADD10RoundRect,0.140000X-0.170000X0.140000X-0.170000X-0.140000X0.170000X-0.140000X0.170000X0.140000X0*%
%ADD11RoundRect,0.135000X-0.185000X0.135000X-0.185000X-0.135000X0.185000X-0.135000X0.185000X0.135000X0*%
%ADD12RoundRect,0.250000X-0.265000X-0.615000X0.265000X-0.615000X0.265000X0.615000X-0.265000X0.615000X0*%
%ADD13O,1.030000X1.730000*%
%ADD14RoundRect,0.140000X0.170000X-0.140000X0.170000X0.140000X-0.170000X0.140000X-0.170000X-0.140000X0*%
%ADD15RoundRect,0.225000X0.250000X-0.225000X0.250000X0.225000X-0.250000X0.225000X-0.250000X-0.225000X0*%
%ADD16RoundRect,0.250002X-1.699998X1.699998X-1.699998X-1.699998X1.699998X-1.699998X1.699998X1.699998X0*%
%ADD17C,3.900000*%
%ADD18RoundRect,0.135000X-0.135000X-0.185000X0.135000X-0.185000X0.135000X0.185000X-0.135000X0.185000X0*%
%ADD19RoundRect,0.250000X0.615000X-0.265000X0.615000X0.265000X-0.615000X0.265000X-0.615000X-0.265000X0*%
%ADD20O,1.730000X1.030000*%
%ADD21RoundRect,0.135000X0.185000X-0.135000X0.185000X0.135000X-0.185000X0.135000X-0.185000X-0.135000X0*%
%ADD22RoundRect,0.062500X-0.062500X0.187500X-0.062500X-0.187500X0.062500X-0.187500X0.062500X0.187500X0*%
%ADD23R,1.600000X0.900000*%
%ADD24RoundRect,0.250000X-0.615000X0.265000X-0.615000X-0.265000X0.615000X-0.265000X0.615000X0.265000X0*%
%ADD25RoundRect,0.075000X0.075000X-0.662500X0.075000X0.662500X-0.075000X0.662500X-0.075000X-0.662500X0*%
%ADD26RoundRect,0.075000X0.662500X-0.075000X0.662500X0.075000X-0.662500X0.075000X-0.662500X-0.075000X0*%
%ADD27RoundRect,0.100000X-0.225000X-0.100000X0.225000X-0.100000X0.225000X0.100000X-0.225000X0.100000X0*%
%ADD28RoundRect,0.140000X0.140000X0.170000X-0.140000X0.170000X-0.140000X-0.170000X0.140000X-0.170000X0*%
%ADD29RoundRect,0.225000X0.425000X0.225000X-0.425000X0.225000X-0.425000X-0.225000X0.425000X-0.225000X0*%
%ADD30FreePoly0,180.000000*%
%ADD31RoundRect,0.250000X-0.457500X-0.445000X0.457500X-0.445000X0.457500X0.445000X-0.457500X0.445000X0*%
%ADD32RoundRect,0.250000X0.450000X-0.262500X0.450000X0.262500X-0.450000X0.262500X-0.450000X-0.262500X0*%
%ADD33RoundRect,0.250000X0.750000X0.950000X-0.750000X0.950000X-0.750000X-0.950000X0.750000X-0.950000X0*%
%ADD34RoundRect,0.250000X0.265000X0.615000X-0.265000X0.615000X-0.265000X-0.615000X0.265000X-0.615000X0*%
%ADD35RoundRect,0.100000X0.225000X0.100000X-0.225000X0.100000X-0.225000X-0.100000X0.225000X-0.100000X0*%
%ADD36RoundRect,0.250000X0.445000X-0.457500X0.445000X0.457500X-0.445000X0.457500X-0.445000X-0.457500X0*%
%ADD37RoundRect,0.150000X-0.150000X0.825000X-0.150000X-0.825000X0.150000X-0.825000X0.150000X0.825000X0*%
%ADD38RoundRect,0.250000X-0.445000X0.457500X-0.445000X-0.457500X0.445000X-0.457500X0.445000X0.457500X0*%
%ADD39RoundRect,0.375000X-0.375000X0.625000X-0.375000X-0.625000X0.375000X-0.625000X0.375000X0.625000X0*%
%ADD40RoundRect,0.500000X-1.400000X0.500000X-1.400000X-0.500000X1.400000X-0.500000X1.400000X0.500000X0*%
%ADD41RoundRect,0.100000X-0.100000X0.225000X-0.100000X-0.225000X0.100000X-0.225000X0.100000X0.225000X0*%
%ADD42RoundRect,0.237500X0.237500X-0.287500X0.237500X0.287500X-0.237500X0.287500X-0.237500X-0.287500X0*%
%ADD43RoundRect,0.250000X-0.450000X0.262500X-0.450000X-0.262500X0.450000X-0.262500X0.450000X0.262500X0*%
%ADD44RoundRect,0.140000X-0.140000X-0.170000X0.140000X-0.170000X0.140000X0.170000X-0.140000X0.170000X0*%
%ADD45RoundRect,0.250000X0.457500X0.445000X-0.457500X0.445000X-0.457500X-0.445000X0.457500X-0.445000X0*%
%ADD46RoundRect,0.062500X0.062500X-0.187500X0.062500X0.187500X-0.062500X0.187500X-0.062500X-0.187500X0*%
%ADD47R,1.000000X1.000000*%
%ADD48C,1.000000*%
G04 APERTURE END LIST*
D10*
X140200000Y-80420000D03*
X140200000Y-81380000D03*
D11*
X151500000Y-80490000D03*
X151500000Y-81510000D03*
D12*
X134500000Y-76500000D03*
D13*
X136000000Y-76500000D03*
X137500000Y-76500000D03*
X139000000Y-76500000D03*
X140500000Y-76500000D03*
D14*
X151750000Y-96480000D03*
X151750000Y-95520000D03*
D11*
X125000000Y-88115000D03*
X125000000Y-89135000D03*
D15*
X138700000Y-106475000D03*
X138700000Y-104925000D03*
D12*
X144500000Y-76500000D03*
D13*
X146000000Y-76500000D03*
X147500000Y-76500000D03*
X149000000Y-76500000D03*
X150500000Y-76500000D03*
D16*
X125330000Y-92475000D03*
D17*
X125330000Y-100275000D03*
D14*
X134800000Y-132580000D03*
X134800000Y-131620000D03*
D18*
X132490000Y-122500000D03*
X133510000Y-122500000D03*
D19*
X134000000Y-128300000D03*
D20*
X134000000Y-126800000D03*
D21*
X137400000Y-107510000D03*
X137400000Y-106490000D03*
D22*
X136550000Y-83850000D03*
X136050000Y-83850000D03*
X135550000Y-83850000D03*
X135050000Y-83850000D03*
X135050000Y-85750000D03*
X135550000Y-85750000D03*
X136050000Y-85750000D03*
X136550000Y-85750000D03*
D23*
X135800000Y-84800000D03*
D14*
X147600000Y-85980000D03*
X147600000Y-85020000D03*
D24*
X150950000Y-84750000D03*
D20*
X150950000Y-86250000D03*
D25*
X144250000Y-112412500D03*
X144750000Y-112412500D03*
X145250000Y-112412500D03*
X145750000Y-112412500D03*
X146250000Y-112412500D03*
X146750000Y-112412500D03*
X147250000Y-112412500D03*
X147750000Y-112412500D03*
X148250000Y-112412500D03*
X148750000Y-112412500D03*
X149250000Y-112412500D03*
X149750000Y-112412500D03*
D26*
X151162500Y-111000000D03*
X151162500Y-110500000D03*
X151162500Y-110000000D03*
X151162500Y-109500000D03*
X151162500Y-109000000D03*
X151162500Y-108500000D03*
X151162500Y-108000000D03*
X151162500Y-107500000D03*
X151162500Y-107000000D03*
X151162500Y-106500000D03*
X151162500Y-106000000D03*
X151162500Y-105500000D03*
D25*
X149750000Y-104087500D03*
X149250000Y-104087500D03*
X148750000Y-104087500D03*
X148250000Y-104087500D03*
X147750000Y-104087500D03*
X147250000Y-104087500D03*
X146750000Y-104087500D03*
X146250000Y-104087500D03*
X145750000Y-104087500D03*
X145250000Y-104087500D03*
X144750000Y-104087500D03*
X144250000Y-104087500D03*
D26*
X142837500Y-105500000D03*
X142837500Y-106000000D03*
X142837500Y-106500000D03*
X142837500Y-107000000D03*
X142837500Y-107500000D03*
X142837500Y-108000000D03*
X142837500Y-108500000D03*
X142837500Y-109000000D03*
X142837500Y-109500000D03*
X142837500Y-110000000D03*
X142837500Y-110500000D03*
X142837500Y-111000000D03*
D27*
X145950000Y-131150000D03*
X145950000Y-131800000D03*
X145950000Y-132450000D03*
X147850000Y-132450000D03*
X147850000Y-131800000D03*
X147850000Y-131150000D03*
D28*
X147750000Y-119750000D03*
X146790000Y-119750000D03*
D10*
X151500000Y-103270000D03*
X151500000Y-104230000D03*
D28*
X148500000Y-113950000D03*
X147540000Y-113950000D03*
D29*
X136950000Y-112000000D03*
D30*
X136862500Y-110500000D03*
D29*
X136950000Y-109000000D03*
D31*
X128947500Y-99800000D03*
X131652500Y-99800000D03*
D32*
X149500000Y-132412500D03*
X149500000Y-130587500D03*
D21*
X137400000Y-105520000D03*
X137400000Y-104500000D03*
D33*
X147850000Y-117000000D03*
X144150000Y-117000000D03*
D34*
X140500000Y-136500000D03*
D13*
X139000000Y-136500000D03*
X137500000Y-136500000D03*
X136000000Y-136500000D03*
X134500000Y-136500000D03*
D14*
X147400000Y-129880000D03*
X147400000Y-128920000D03*
D10*
X137400000Y-127020000D03*
X137400000Y-127980000D03*
D35*
X139050000Y-81850000D03*
X139050000Y-81200000D03*
X139050000Y-80550000D03*
X137150000Y-80550000D03*
X137150000Y-81200000D03*
X137150000Y-81850000D03*
D31*
X128947500Y-95400000D03*
X131652500Y-95400000D03*
D32*
X139500000Y-132412500D03*
X139500000Y-130587500D03*
D10*
X137600000Y-83120000D03*
X137600000Y-84080000D03*
D24*
X130000000Y-114500000D03*
D20*
X130000000Y-116000000D03*
X130000000Y-117500000D03*
X130000000Y-119000000D03*
D22*
X146550000Y-83850000D03*
X146050000Y-83850000D03*
X145550000Y-83850000D03*
X145050000Y-83850000D03*
X145050000Y-85750000D03*
X145550000Y-85750000D03*
X146050000Y-85750000D03*
X146550000Y-85750000D03*
D23*
X145800000Y-84800000D03*
D11*
X126500000Y-88115000D03*
X126500000Y-89135000D03*
D27*
X135950000Y-131150000D03*
X135950000Y-131800000D03*
X135950000Y-132450000D03*
X137850000Y-132450000D03*
X137850000Y-131800000D03*
X137850000Y-131150000D03*
D18*
X130590000Y-93800000D03*
X131610000Y-93800000D03*
D14*
X137600000Y-85980000D03*
X137600000Y-85020000D03*
D10*
X150200000Y-80420000D03*
X150200000Y-81380000D03*
D31*
X138147500Y-125500000D03*
X140852500Y-125500000D03*
X128947500Y-97600000D03*
X131652500Y-97600000D03*
D18*
X132490000Y-123500000D03*
X133510000Y-123500000D03*
D36*
X134000000Y-106852500D03*
X134000000Y-104147500D03*
D21*
X133500000Y-132510000D03*
X133500000Y-131490000D03*
D31*
X128947500Y-102000000D03*
X131652500Y-102000000D03*
D37*
X150195000Y-94025000D03*
X148925000Y-94025000D03*
X147655000Y-94025000D03*
X146385000Y-94025000D03*
X145115000Y-94025000D03*
X143845000Y-94025000D03*
X142575000Y-94025000D03*
X141305000Y-94025000D03*
X141305000Y-98975000D03*
X142575000Y-98975000D03*
X143845000Y-98975000D03*
X145115000Y-98975000D03*
X146385000Y-98975000D03*
X147655000Y-98975000D03*
X148925000Y-98975000D03*
X150195000Y-98975000D03*
D11*
X141500000Y-80490000D03*
X141500000Y-81510000D03*
D38*
X139000000Y-109147500D03*
X139000000Y-111852500D03*
D24*
X130000000Y-123000000D03*
D20*
X130000000Y-124500000D03*
X130000000Y-126000000D03*
X130000000Y-127500000D03*
D39*
X131300000Y-104350000D03*
X129000000Y-104350000D03*
D40*
X129000000Y-110650000D03*
D39*
X126700000Y-104350000D03*
D11*
X130600000Y-91790000D03*
X130600000Y-92810000D03*
D10*
X147600000Y-83120000D03*
X147600000Y-84080000D03*
D19*
X144050000Y-128250000D03*
D20*
X144050000Y-126750000D03*
D24*
X125500000Y-114500000D03*
D20*
X125500000Y-116000000D03*
X125500000Y-117500000D03*
X125500000Y-119000000D03*
D35*
X149050000Y-81850000D03*
X149050000Y-81200000D03*
X149050000Y-80550000D03*
X147150000Y-80550000D03*
X147150000Y-81200000D03*
X147150000Y-81850000D03*
D41*
X130250000Y-88250000D03*
X129600000Y-88250000D03*
X128950000Y-88250000D03*
X128950000Y-90150000D03*
X129600000Y-90150000D03*
X130250000Y-90150000D03*
D31*
X148147500Y-125500000D03*
X150852500Y-125500000D03*
D42*
X125000000Y-86875000D03*
X125000000Y-85125000D03*
D21*
X143500000Y-132510000D03*
X143500000Y-131490000D03*
D42*
X123500000Y-86875000D03*
X123500000Y-85125000D03*
D43*
X135500000Y-80587500D03*
X135500000Y-82412500D03*
D14*
X141300000Y-111230000D03*
X141300000Y-110270000D03*
D34*
X150500000Y-136500000D03*
D13*
X149000000Y-136500000D03*
X147500000Y-136500000D03*
X146000000Y-136500000D03*
X144500000Y-136500000D03*
D14*
X144800000Y-132580000D03*
X144800000Y-131620000D03*
D44*
X128670000Y-87050000D03*
X129630000Y-87050000D03*
D24*
X125500000Y-123000000D03*
D20*
X125500000Y-124500000D03*
X125500000Y-126000000D03*
X125500000Y-127500000D03*
D45*
X136852500Y-87500000D03*
X134147500Y-87500000D03*
D46*
X138450000Y-129150000D03*
X138950000Y-129150000D03*
X139450000Y-129150000D03*
X139950000Y-129150000D03*
X139950000Y-127250000D03*
X139450000Y-127250000D03*
X138950000Y-127250000D03*
X138450000Y-127250000D03*
D23*
X139200000Y-128200000D03*
D44*
X144290000Y-119750000D03*
X145250000Y-119750000D03*
D14*
X137400000Y-129880000D03*
X137400000Y-128920000D03*
D11*
X123500000Y-88115000D03*
X123500000Y-89135000D03*
D46*
X148450000Y-129150000D03*
X148950000Y-129150000D03*
X149450000Y-129150000D03*
X149950000Y-129150000D03*
X149950000Y-127250000D03*
X149450000Y-127250000D03*
X148950000Y-127250000D03*
X148450000Y-127250000D03*
D23*
X149200000Y-128200000D03*
D47*
X151500000Y-121810000D03*
D48*
X151500000Y-120540000D03*
X151500000Y-119270000D03*
X151500000Y-118000000D03*
X151500000Y-116730000D03*
X151500000Y-115460000D03*
D10*
X147400000Y-127020000D03*
X147400000Y-127980000D03*
D24*
X140950000Y-84750000D03*
D20*
X140950000Y-86250000D03*
D44*
X144020000Y-102550000D03*
X144980000Y-102550000D03*
D32*
X129000000Y-93512500D03*
X129000000Y-91687500D03*
D45*
X146852500Y-87500000D03*
X144147500Y-87500000D03*
D42*
X126500000Y-86875000D03*
X126500000Y-85125000D03*
D43*
X145500000Y-80587500D03*
X145500000Y-82412500D03*
M02*
