M48
; DRILL file {KiCad 9.0.2} date 2025-07-21T23:22:41-0700
; FORMAT={-:-/ absolute / inch / decimal}
; #@! TF.CreationDate,2025-07-21T23:22:41-07:00
; #@! TF.GenerationSoftware,Kicad,Pcbnew,9.0.2
; #@! TF.FileFunction,Plated,1,4,PTH
FMAT,2
INCH
; #@! TA.AperFunction,Plated,PTH,ComponentDrill
T1C0.0098
; #@! TA.AperFunction,Plated,PTH,ViaDrill
T2C0.0100
; #@! TA.AperFunction,Plated,PTH,ViaDrill
T3C0.0118
; #@! TA.AperFunction,Plated,PTH,ComponentDrill
T4C0.0256
; #@! TA.AperFunction,Plated,PTH,ComponentDrill
T5C0.0287
; #@! TA.AperFunction,Plated,PTH,ComponentDrill
T6C0.0689
%
G90
G05
T1
X5.3268Y-3.3386
X5.3661Y-3.3386
X5.4606Y-5.0472
X5.5Y-5.0472
X5.7205Y-3.3386
X5.7598Y-3.3386
X5.8543Y-5.0472
X5.8937Y-5.0472
T2
X4.8917Y-3.5093
X4.9508Y-3.5093
X5.0492Y-3.5531
X5.0591Y-3.7205
X5.0591Y-3.7992
X5.0591Y-3.8878
X5.0591Y-3.9764
X5.0689Y-3.3957
X5.0984Y-3.7205
X5.0984Y-3.7992
X5.0984Y-3.8878
X5.0984Y-3.9764
X5.1083Y-3.3957
X5.1673Y-3.7992
X5.1673Y-3.8878
X5.1673Y-3.9764
X5.1673Y-4.065
X5.1969Y-3.7992
X5.1969Y-3.8878
X5.1969Y-3.9764
X5.1969Y-4.065
X5.2146Y-3.6141
X5.2264Y-4.0846
X5.2264Y-4.1142
X5.2559Y-3.3071
X5.2559Y-3.3465
X5.2559Y-3.3858
X5.2586Y-3.6108
X5.2795Y-3.6246
X5.2854Y-3.3858
X5.2854Y-4.0059
X5.2859Y-4.5495
X5.2953Y-3.3071
X5.2953Y-3.3465
X5.2992Y-4.878
X5.3028Y-3.878
X5.3051Y-4.5669
X5.3051Y-5.1476
X5.3051Y-5.2559
X5.3071Y-4.8425
X5.3135Y-3.622
X5.3239Y-4.5875
X5.3248Y-3.9764
X5.3386Y-3.622
X5.3445Y-3.8976
X5.3471Y-4.5971
X5.3523Y-4.0256
X5.3633Y-4.0629
X5.3661Y-3.622
X5.3672Y-4.6156
X5.374Y-4.9213
X5.374Y-4.9606
X5.374Y-5.0
X5.374Y-5.0394
X5.374Y-5.0787
X5.374Y-5.1181
X5.3779Y-4.0426
X5.39Y-4.5877
X5.3976Y-4.9764
X5.4291Y-3.4094
X5.4331Y-4.2717
X5.4331Y-4.311
X5.4331Y-4.3898
X5.4331Y-4.4291
X5.4409Y-4.0889
X5.4409Y-4.685
X5.4479Y-4.5768
X5.4528Y-3.2677
X5.4528Y-3.3071
X5.4528Y-3.3465
X5.4528Y-3.3858
X5.4528Y-3.4252
X5.4528Y-3.4646
X5.4528Y-4.0512
X5.4567Y-4.7047
X5.4646Y-4.7638
X5.4742Y-4.0641
X5.4764Y-3.6496
X5.479Y-4.1606
X5.4843Y-4.2362
X5.4896Y-4.7638
X5.4921Y-4.6555
X5.4924Y-4.6304
X5.5118Y-3.6693
X5.5118Y-4.2717
X5.5118Y-4.311
X5.5118Y-4.3898
X5.5118Y-4.4291
X5.5157Y-4.7638
X5.5217Y-3.1299
X5.5217Y-3.2382
X5.5236Y-4.189
X5.5315Y-4.5315
X5.5315Y-4.577
X5.5315Y-5.0394
X5.5315Y-5.0787
X5.5409Y-4.3598
X5.5413Y-5.0
X5.5428Y-4.5994
X5.5472Y-3.7545
X5.5472Y-3.7795
X5.5551Y-4.5591
X5.561Y-3.6417
X5.561Y-4.4094
X5.5659Y-4.1219
X5.5669Y-3.9646
X5.5709Y-4.6161
X5.5709Y-5.0
X5.5709Y-5.0394
X5.5709Y-5.0787
X5.5787Y-4.5315
X5.5906Y-4.126
X5.5945Y-3.9646
X5.6024Y-4.5118
X5.6102Y-3.6417
X5.6181Y-4.4606
X5.626Y-4.4921
X5.6339Y-4.1142
X5.6344Y-3.6417
X5.6378Y-4.0354
X5.6378Y-4.0605
X5.6496Y-3.3071
X5.6496Y-3.3465
X5.6496Y-3.3858
X5.6575Y-4.5079
X5.6594Y-3.6417
X5.6594Y-3.7992
X5.6594Y-3.8386
X5.6693Y-4.0059
X5.6732Y-4.1558
X5.6772Y-4.4764
X5.6791Y-3.3858
X5.6816Y-4.501
X5.689Y-3.3071
X5.689Y-3.3465
X5.689Y-4.3425
X5.6971Y-4.1889
X5.6988Y-5.1476
X5.6988Y-5.2559
X5.7047Y-4.1558
X5.7087Y-3.6417
X5.7087Y-3.7992
X5.7087Y-4.0059
X5.7092Y-4.4988
X5.7165Y-4.3386
X5.7222Y-4.1891
X5.7244Y-4.311
X5.7283Y-4.5177
X5.7323Y-3.622
X5.7366Y-4.142
X5.7382Y-3.8386
X5.7402Y-4.0039
X5.748Y-4.7146
X5.7632Y-4.0161
X5.7677Y-4.9213
X5.7677Y-4.9606
X5.7677Y-5.0
X5.7677Y-5.0394
X5.7677Y-5.0787
X5.7677Y-5.1181
X5.7683Y-4.0521
X5.7795Y-3.9488
X5.7795Y-4.315
X5.7835Y-4.2362
X5.7913Y-3.7717
X5.7913Y-4.9764
X5.7916Y-4.3599
X5.7953Y-4.1929
X5.811Y-4.378
X5.815Y-4.2402
X5.8228Y-3.4094
X5.8228Y-3.9724
X5.8228Y-4.3543
X5.8267Y-4.5079
X5.8306Y-4.0541
X5.8307Y-4.0141
X5.8465Y-3.2677
X5.8465Y-3.3071
X5.8465Y-3.3465
X5.8465Y-3.3858
X5.8465Y-3.4252
X5.8465Y-3.4646
X5.8465Y-4.2835
X5.8569Y-4.874
X5.8583Y-4.1772
X5.8661Y-4.5079
X5.8701Y-4.2047
X5.8819Y-4.874
X5.8879Y-4.0135
X5.8898Y-4.0394
X5.8898Y-4.3268
X5.8898Y-4.5394
X5.8937Y-3.9567
X5.9009Y-3.4975
X5.9016Y-3.4724
X5.9016Y-4.3701
X5.9069Y-4.874
X5.9134Y-3.9724
X5.9154Y-3.1299
X5.9154Y-3.2382
X5.9154Y-3.6417
X5.9156Y-3.5217
X5.9213Y-4.4213
X5.9252Y-5.0394
X5.9252Y-5.0787
X5.935Y-5.0
X5.9646Y-4.0354
X5.9646Y-5.0
X5.9646Y-5.0394
X5.9646Y-5.0787
X5.9744Y-3.7205
X5.9744Y-3.8354
X5.9921Y-4.3307
X5.9941Y-4.1043
X5.9961Y-4.3622
T3
X4.8701Y-3.5787
X4.8701Y-3.6417
X4.8701Y-3.7047
X4.8701Y-3.9488
X4.8858Y-3.9055
X4.8898Y-3.9921
X4.9331Y-3.7047
X4.9331Y-3.8858
X4.9331Y-4.0118
X4.937Y-3.5787
X4.9803Y-3.9055
X4.9803Y-3.9921
X4.9961Y-3.5787
X4.9961Y-3.6417
X4.9961Y-3.7047
X4.9961Y-3.9488
T4
X5.9646Y-4.5457
X5.9646Y-4.5957
X5.9646Y-4.6457
X5.9646Y-4.6957
X5.9646Y-4.7457
X5.9646Y-4.7957
T5
X4.9409Y-4.5079
X4.9409Y-4.5669
X4.9409Y-4.626
X4.9409Y-4.685
X4.9409Y-4.8425
X4.9409Y-4.9016
X4.9409Y-4.9606
X4.9409Y-5.0197
X5.1181Y-4.5079
X5.1181Y-4.5669
X5.1181Y-4.626
X5.1181Y-4.685
X5.1181Y-4.8425
X5.1181Y-4.9016
X5.1181Y-4.9606
X5.1181Y-5.0197
X5.2756Y-4.9921
X5.2756Y-5.0512
X5.2953Y-3.0118
X5.2953Y-5.374
X5.3543Y-3.0118
X5.3543Y-5.374
X5.4134Y-3.0118
X5.4134Y-5.374
X5.4724Y-3.0118
X5.4724Y-5.374
X5.5315Y-3.0118
X5.5315Y-5.374
X5.5492Y-3.3366
X5.5492Y-3.3957
X5.6713Y-4.9902
X5.6713Y-5.0492
X5.689Y-3.0118
X5.689Y-5.374
X5.748Y-3.0118
X5.748Y-5.374
X5.8071Y-3.0118
X5.8071Y-5.374
X5.8661Y-3.0118
X5.8661Y-5.374
X5.9252Y-3.0118
X5.9252Y-5.374
X5.9429Y-3.3366
X5.9429Y-3.3957
T6
X4.9343Y-3.6407
X4.9343Y-3.9478
M30
