%TF.GenerationSoftware,KiCad,Pcbnew,9.0.2*%
%TF.CreationDate,2025-07-21T23:22:41-07:00*%
%TF.ProjectId,servo-drive,73657276-6f2d-4647-9269-76652e6b6963,rev?*%
%TF.SameCoordinates,Original*%
%TF.FileFunction,Copper,L1,Top*%
%TF.FilePolarity,Positive*%
%FSLAX46Y46*%
G04 Gerber Fmt 4.6, Leading zero omitted, Abs format (unit mm)*
G04 Created by KiCad (PCBNEW 9.0.2) date 2025-07-21 23:22:41*
%MOMM*%
%LPD*%
G01*
G04 APERTURE LIST*
G04 Aperture macros list*
%AMRoundRect*
0 Rectangle with rounded corners*
0 $1 Rounding radius*
0 $2 $3 $4 $5 $6 $7 $8 $9 X,Y pos of 4 corners*
0 Add a 4 corners polygon primitive as box body*
4,1,4,$2,$3,$4,$5,$6,$7,$8,$9,$2,$3,0*
0 Add four circle primitives for the rounded corners*
1,1,$1+$1,$2,$3*
1,1,$1+$1,$4,$5*
1,1,$1+$1,$6,$7*
1,1,$1+$1,$8,$9*
0 Add four rect primitives between the rounded corners*
20,1,$1+$1,$2,$3,$4,$5,0*
20,1,$1+$1,$4,$5,$6,$7,0*
20,1,$1+$1,$6,$7,$8,$9,0*
20,1,$1+$1,$8,$9,$2,$3,0*%
%AMFreePoly0*
4,1,9,3.862500,-0.866500,0.737500,-0.866500,0.737500,-0.450000,-0.737500,-0.450000,-0.737500,0.450000,0.737500,0.450000,0.737500,0.866500,3.862500,0.866500,3.862500,-0.866500,3.862500,-0.866500,$1*%
G04 Aperture macros list end*
%TA.AperFunction,SMDPad,CuDef*%
%ADD10RoundRect,0.140000X-0.170000X0.140000X-0.170000X-0.140000X0.170000X-0.140000X0.170000X0.140000X0*%
%TD*%
%TA.AperFunction,SMDPad,CuDef*%
%ADD11RoundRect,0.135000X-0.185000X0.135000X-0.185000X-0.135000X0.185000X-0.135000X0.185000X0.135000X0*%
%TD*%
%TA.AperFunction,ComponentPad*%
%ADD12RoundRect,0.250000X-0.265000X-0.615000X0.265000X-0.615000X0.265000X0.615000X-0.265000X0.615000X0*%
%TD*%
%TA.AperFunction,ComponentPad*%
%ADD13O,1.030000X1.730000*%
%TD*%
%TA.AperFunction,SMDPad,CuDef*%
%ADD14RoundRect,0.140000X0.170000X-0.140000X0.170000X0.140000X-0.170000X0.140000X-0.170000X-0.140000X0*%
%TD*%
%TA.AperFunction,SMDPad,CuDef*%
%ADD15RoundRect,0.225000X0.250000X-0.225000X0.250000X0.225000X-0.250000X0.225000X-0.250000X-0.225000X0*%
%TD*%
%TA.AperFunction,ComponentPad*%
%ADD16RoundRect,0.250002X-1.699998X1.699998X-1.699998X-1.699998X1.699998X-1.699998X1.699998X1.699998X0*%
%TD*%
%TA.AperFunction,ComponentPad*%
%ADD17C,3.900000*%
%TD*%
%TA.AperFunction,SMDPad,CuDef*%
%ADD18RoundRect,0.135000X-0.135000X-0.185000X0.135000X-0.185000X0.135000X0.185000X-0.135000X0.185000X0*%
%TD*%
%TA.AperFunction,ComponentPad*%
%ADD19RoundRect,0.250000X0.615000X-0.265000X0.615000X0.265000X-0.615000X0.265000X-0.615000X-0.265000X0*%
%TD*%
%TA.AperFunction,ComponentPad*%
%ADD20O,1.730000X1.030000*%
%TD*%
%TA.AperFunction,SMDPad,CuDef*%
%ADD21RoundRect,0.135000X0.185000X-0.135000X0.185000X0.135000X-0.185000X0.135000X-0.185000X-0.135000X0*%
%TD*%
%TA.AperFunction,SMDPad,CuDef*%
%ADD22RoundRect,0.062500X-0.062500X0.187500X-0.062500X-0.187500X0.062500X-0.187500X0.062500X0.187500X0*%
%TD*%
%TA.AperFunction,HeatsinkPad*%
%ADD23C,0.600000*%
%TD*%
%TA.AperFunction,SMDPad,CuDef*%
%ADD24R,1.600000X0.900000*%
%TD*%
%TA.AperFunction,ComponentPad*%
%ADD25RoundRect,0.250000X-0.615000X0.265000X-0.615000X-0.265000X0.615000X-0.265000X0.615000X0.265000X0*%
%TD*%
%TA.AperFunction,SMDPad,CuDef*%
%ADD26RoundRect,0.075000X0.075000X-0.662500X0.075000X0.662500X-0.075000X0.662500X-0.075000X-0.662500X0*%
%TD*%
%TA.AperFunction,SMDPad,CuDef*%
%ADD27RoundRect,0.075000X0.662500X-0.075000X0.662500X0.075000X-0.662500X0.075000X-0.662500X-0.075000X0*%
%TD*%
%TA.AperFunction,SMDPad,CuDef*%
%ADD28RoundRect,0.100000X-0.225000X-0.100000X0.225000X-0.100000X0.225000X0.100000X-0.225000X0.100000X0*%
%TD*%
%TA.AperFunction,SMDPad,CuDef*%
%ADD29RoundRect,0.140000X0.140000X0.170000X-0.140000X0.170000X-0.140000X-0.170000X0.140000X-0.170000X0*%
%TD*%
%TA.AperFunction,SMDPad,CuDef*%
%ADD30RoundRect,0.225000X0.425000X0.225000X-0.425000X0.225000X-0.425000X-0.225000X0.425000X-0.225000X0*%
%TD*%
%TA.AperFunction,SMDPad,CuDef*%
%ADD31FreePoly0,180.000000*%
%TD*%
%TA.AperFunction,SMDPad,CuDef*%
%ADD32RoundRect,0.250000X-0.457500X-0.445000X0.457500X-0.445000X0.457500X0.445000X-0.457500X0.445000X0*%
%TD*%
%TA.AperFunction,SMDPad,CuDef*%
%ADD33RoundRect,0.250000X0.450000X-0.262500X0.450000X0.262500X-0.450000X0.262500X-0.450000X-0.262500X0*%
%TD*%
%TA.AperFunction,SMDPad,CuDef*%
%ADD34RoundRect,0.250000X0.750000X0.950000X-0.750000X0.950000X-0.750000X-0.950000X0.750000X-0.950000X0*%
%TD*%
%TA.AperFunction,ComponentPad*%
%ADD35RoundRect,0.250000X0.265000X0.615000X-0.265000X0.615000X-0.265000X-0.615000X0.265000X-0.615000X0*%
%TD*%
%TA.AperFunction,SMDPad,CuDef*%
%ADD36RoundRect,0.100000X0.225000X0.100000X-0.225000X0.100000X-0.225000X-0.100000X0.225000X-0.100000X0*%
%TD*%
%TA.AperFunction,SMDPad,CuDef*%
%ADD37RoundRect,0.250000X0.445000X-0.457500X0.445000X0.457500X-0.445000X0.457500X-0.445000X-0.457500X0*%
%TD*%
%TA.AperFunction,SMDPad,CuDef*%
%ADD38RoundRect,0.150000X-0.150000X0.825000X-0.150000X-0.825000X0.150000X-0.825000X0.150000X0.825000X0*%
%TD*%
%TA.AperFunction,SMDPad,CuDef*%
%ADD39RoundRect,0.250000X-0.445000X0.457500X-0.445000X-0.457500X0.445000X-0.457500X0.445000X0.457500X0*%
%TD*%
%TA.AperFunction,SMDPad,CuDef*%
%ADD40RoundRect,0.375000X-0.375000X0.625000X-0.375000X-0.625000X0.375000X-0.625000X0.375000X0.625000X0*%
%TD*%
%TA.AperFunction,SMDPad,CuDef*%
%ADD41RoundRect,0.500000X-1.400000X0.500000X-1.400000X-0.500000X1.400000X-0.500000X1.400000X0.500000X0*%
%TD*%
%TA.AperFunction,SMDPad,CuDef*%
%ADD42RoundRect,0.100000X-0.100000X0.225000X-0.100000X-0.225000X0.100000X-0.225000X0.100000X0.225000X0*%
%TD*%
%TA.AperFunction,SMDPad,CuDef*%
%ADD43RoundRect,0.237500X0.237500X-0.287500X0.237500X0.287500X-0.237500X0.287500X-0.237500X-0.287500X0*%
%TD*%
%TA.AperFunction,SMDPad,CuDef*%
%ADD44RoundRect,0.250000X-0.450000X0.262500X-0.450000X-0.262500X0.450000X-0.262500X0.450000X0.262500X0*%
%TD*%
%TA.AperFunction,SMDPad,CuDef*%
%ADD45RoundRect,0.140000X-0.140000X-0.170000X0.140000X-0.170000X0.140000X0.170000X-0.140000X0.170000X0*%
%TD*%
%TA.AperFunction,SMDPad,CuDef*%
%ADD46RoundRect,0.250000X0.457500X0.445000X-0.457500X0.445000X-0.457500X-0.445000X0.457500X-0.445000X0*%
%TD*%
%TA.AperFunction,SMDPad,CuDef*%
%ADD47RoundRect,0.062500X0.062500X-0.187500X0.062500X0.187500X-0.062500X0.187500X-0.062500X-0.187500X0*%
%TD*%
%TA.AperFunction,ComponentPad*%
%ADD48R,1.000000X1.000000*%
%TD*%
%TA.AperFunction,ComponentPad*%
%ADD49C,1.000000*%
%TD*%
%TA.AperFunction,ViaPad*%
%ADD50C,0.508000*%
%TD*%
%TA.AperFunction,ViaPad*%
%ADD51C,0.600000*%
%TD*%
%TA.AperFunction,Conductor*%
%ADD52C,0.200000*%
%TD*%
%TA.AperFunction,Conductor*%
%ADD53C,1.000000*%
%TD*%
%TA.AperFunction,Conductor*%
%ADD54C,0.150000*%
%TD*%
%TA.AperFunction,Conductor*%
%ADD55C,0.500000*%
%TD*%
%TA.AperFunction,Conductor*%
%ADD56C,1.400000*%
%TD*%
%TA.AperFunction,Conductor*%
%ADD57C,0.300000*%
%TD*%
G04 APERTURE END LIST*
D10*
%TO.P,C7,1*%
%TO.N,+3V3*%
X140200000Y-80420000D03*
%TO.P,C7,2*%
%TO.N,GND*%
X140200000Y-81380000D03*
%TD*%
D11*
%TO.P,R13,1*%
%TO.N,+3V3*%
X151500000Y-80490000D03*
%TO.P,R13,2*%
%TO.N,AI1*%
X151500000Y-81510000D03*
%TD*%
D12*
%TO.P,J6,1,Pin_1*%
%TO.N,/Driver0/OUTN*%
X134500000Y-76500000D03*
D13*
%TO.P,J6,2,Pin_2*%
%TO.N,/Driver0/OUTP*%
X136000000Y-76500000D03*
%TO.P,J6,3,Pin_3*%
%TO.N,+3V3*%
X137500000Y-76500000D03*
%TO.P,J6,4,Pin_4*%
%TO.N,POT0*%
X139000000Y-76500000D03*
%TO.P,J6,5,Pin_5*%
%TO.N,GND*%
X140500000Y-76500000D03*
%TD*%
D14*
%TO.P,C27,1*%
%TO.N,+3V3*%
X151750000Y-96480000D03*
%TO.P,C27,2*%
%TO.N,GND*%
X151750000Y-95520000D03*
%TD*%
D11*
%TO.P,R17,1*%
%TO.N,Net-(D2-K)*%
X125000000Y-88115000D03*
%TO.P,R17,2*%
%TO.N,GND*%
X125000000Y-89135000D03*
%TD*%
D15*
%TO.P,C26,1*%
%TO.N,VREF*%
X138700000Y-106475000D03*
%TO.P,C26,2*%
%TO.N,GND*%
X138700000Y-104925000D03*
%TD*%
D12*
%TO.P,J7,1,Pin_1*%
%TO.N,/Driver1/OUTN*%
X144500000Y-76500000D03*
D13*
%TO.P,J7,2,Pin_2*%
%TO.N,/Driver1/OUTP*%
X146000000Y-76500000D03*
%TO.P,J7,3,Pin_3*%
%TO.N,+3V3*%
X147500000Y-76500000D03*
%TO.P,J7,4,Pin_4*%
%TO.N,POT1*%
X149000000Y-76500000D03*
%TO.P,J7,5,Pin_5*%
%TO.N,GND*%
X150500000Y-76500000D03*
%TD*%
D16*
%TO.P,J5,1,Pin_1*%
%TO.N,Net-(J5-Pin_1)*%
X125330000Y-92475000D03*
D17*
%TO.P,J5,2,Pin_2*%
%TO.N,GND*%
X125330000Y-100275000D03*
%TD*%
D14*
%TO.P,C13,1*%
%TO.N,+3V3*%
X134800000Y-132580000D03*
%TO.P,C13,2*%
%TO.N,GND*%
X134800000Y-131620000D03*
%TD*%
D18*
%TO.P,R6,1*%
%TO.N,I2C-SCL*%
X132490000Y-122500000D03*
%TO.P,R6,2*%
%TO.N,/V-I2C*%
X133510000Y-122500000D03*
%TD*%
D19*
%TO.P,J14,1,Pin_1*%
%TO.N,AI3*%
X134000000Y-128300000D03*
D20*
%TO.P,J14,2,Pin_2*%
%TO.N,GND*%
X134000000Y-126800000D03*
%TD*%
D21*
%TO.P,R8,1*%
%TO.N,+3V3*%
X137400000Y-107510000D03*
%TO.P,R8,2*%
%TO.N,VREF*%
X137400000Y-106490000D03*
%TD*%
D22*
%TO.P,U1,1,VM*%
%TO.N,+BATT*%
X136550000Y-83850000D03*
%TO.P,U1,2,OUT1*%
%TO.N,Net-(U1-OUT1)*%
X136050000Y-83850000D03*
%TO.P,U1,3,OUT2*%
%TO.N,/Driver0/OUTN*%
X135550000Y-83850000D03*
%TO.P,U1,4,GND*%
%TO.N,GND*%
X135050000Y-83850000D03*
%TO.P,U1,5,IN2*%
%TO.N,D0-INN*%
X135050000Y-85750000D03*
%TO.P,U1,6,IN1*%
%TO.N,D0-INP*%
X135550000Y-85750000D03*
%TO.P,U1,7,~{SLEEP}*%
%TO.N,D0-MODE*%
X136050000Y-85750000D03*
%TO.P,U1,8,VCC*%
%TO.N,+3V3*%
X136550000Y-85750000D03*
D23*
%TO.P,U1,9,GND*%
%TO.N,GND*%
X136300000Y-84800000D03*
D24*
X135800000Y-84800000D03*
D23*
X135300000Y-84800000D03*
%TD*%
D14*
%TO.P,C8,1*%
%TO.N,+3V3*%
X147600000Y-85980000D03*
%TO.P,C8,2*%
%TO.N,GND*%
X147600000Y-85020000D03*
%TD*%
D25*
%TO.P,J12,1,Pin_1*%
%TO.N,AI1*%
X150950000Y-84750000D03*
D20*
%TO.P,J12,2,Pin_2*%
%TO.N,GND*%
X150950000Y-86250000D03*
%TD*%
D26*
%TO.P,U2,1,VBAT*%
%TO.N,+3V3*%
X144250000Y-112412500D03*
%TO.P,U2,2,PC13*%
%TO.N,LED1*%
X144750000Y-112412500D03*
%TO.P,U2,3,PC14*%
%TO.N,LED2*%
X145250000Y-112412500D03*
%TO.P,U2,4,PC15*%
%TO.N,LED3*%
X145750000Y-112412500D03*
%TO.P,U2,5,OSC_IN*%
%TO.N,Net-(U2-OSC_IN)*%
X146250000Y-112412500D03*
%TO.P,U2,6,OSC_OUT*%
%TO.N,Net-(U2-OSC_OUT)*%
X146750000Y-112412500D03*
%TO.P,U2,7,~{RST}*%
%TO.N,nRST*%
X147250000Y-112412500D03*
%TO.P,U2,8,VSSA*%
%TO.N,GND*%
X147750000Y-112412500D03*
%TO.P,U2,9,VDDA*%
%TO.N,+3V3*%
X148250000Y-112412500D03*
%TO.P,U2,10,PA0*%
%TO.N,ISNS0*%
X148750000Y-112412500D03*
%TO.P,U2,11,PA1*%
%TO.N,ISNS1*%
X149250000Y-112412500D03*
%TO.P,U2,12,PA2*%
%TO.N,ISNS2*%
X149750000Y-112412500D03*
D27*
%TO.P,U2,13,PA3*%
%TO.N,ISNS3*%
X151162500Y-111000000D03*
%TO.P,U2,14,PA4*%
%TO.N,Net-(U13-X)*%
X151162500Y-110500000D03*
%TO.P,U2,15,PA5*%
%TO.N,Net-(U13-Y)*%
X151162500Y-110000000D03*
%TO.P,U2,16,PA6*%
%TO.N,VSNS-BAT*%
X151162500Y-109500000D03*
%TO.P,U2,17,PA7*%
%TO.N,ISNS-BAT*%
X151162500Y-109000000D03*
%TO.P,U2,18,PB0*%
%TO.N,UART1-TX*%
X151162500Y-108500000D03*
%TO.P,U2,19,PB1*%
%TO.N,VREF*%
X151162500Y-108000000D03*
%TO.P,U2,20,PB2*%
%TO.N,D2-INP*%
X151162500Y-107500000D03*
%TO.P,U2,21,PB10*%
%TO.N,UART2-TX*%
X151162500Y-107000000D03*
%TO.P,U2,22,PB11*%
%TO.N,UART2-RX*%
X151162500Y-106500000D03*
%TO.P,U2,23,VSS*%
%TO.N,GND*%
X151162500Y-106000000D03*
%TO.P,U2,24,VDD_VIO*%
%TO.N,+3V3*%
X151162500Y-105500000D03*
D26*
%TO.P,U2,25,PB12*%
%TO.N,D0-MODE*%
X149750000Y-104087500D03*
%TO.P,U2,26,PB13*%
%TO.N,D1-MODE*%
X149250000Y-104087500D03*
%TO.P,U2,27,PB14*%
%TO.N,D2-MODE*%
X148750000Y-104087500D03*
%TO.P,U2,28,PB15*%
%TO.N,D3-MODE*%
X148250000Y-104087500D03*
%TO.P,U2,29,PA8*%
%TO.N,D0-INN*%
X147750000Y-104087500D03*
%TO.P,U2,30,PA9*%
%TO.N,D1-INN*%
X147250000Y-104087500D03*
%TO.P,U2,31,PA10*%
%TO.N,D2-INN*%
X146750000Y-104087500D03*
%TO.P,U2,32,PA11*%
%TO.N,D3-INN*%
X146250000Y-104087500D03*
%TO.P,U2,33,PA12*%
%TO.N,D0-INP*%
X145750000Y-104087500D03*
%TO.P,U2,34,SWDIO*%
%TO.N,SWDIO*%
X145250000Y-104087500D03*
%TO.P,U2,35,VSS*%
%TO.N,GND*%
X144750000Y-104087500D03*
%TO.P,U2,36,VDD*%
%TO.N,+3V3*%
X144250000Y-104087500D03*
D27*
%TO.P,U2,37,SWCLK*%
%TO.N,SWCLK*%
X142837500Y-105500000D03*
%TO.P,U2,38,PA15*%
%TO.N,D1-INP*%
X142837500Y-106000000D03*
%TO.P,U2,39,PB3*%
%TO.N,D3-INP*%
X142837500Y-106500000D03*
%TO.P,U2,40,PB4*%
%TO.N,unconnected-(U2-PB4-Pad40)*%
X142837500Y-107000000D03*
%TO.P,U2,41,PB5*%
%TO.N,UART1-RX*%
X142837500Y-107500000D03*
%TO.P,U2,42,PB6*%
%TO.N,I2C-SCL*%
X142837500Y-108000000D03*
%TO.P,U2,43,PB7*%
%TO.N,I2C-SDA*%
X142837500Y-108500000D03*
%TO.P,U2,44,BOOT0*%
%TO.N,BOOT0*%
X142837500Y-109000000D03*
%TO.P,U2,45,PB8*%
%TO.N,AI-SEL-A*%
X142837500Y-109500000D03*
%TO.P,U2,46,PB9*%
%TO.N,AI-SEL-B*%
X142837500Y-110000000D03*
%TO.P,U2,47,VSS*%
%TO.N,GND*%
X142837500Y-110500000D03*
%TO.P,U2,48,VDD*%
%TO.N,+3V3*%
X142837500Y-111000000D03*
%TD*%
D28*
%TO.P,U11,1,REF*%
%TO.N,VREF*%
X145950000Y-131150000D03*
%TO.P,U11,2,GND*%
%TO.N,GND*%
X145950000Y-131800000D03*
%TO.P,U11,3,V+*%
%TO.N,+3V3*%
X145950000Y-132450000D03*
%TO.P,U11,4,+*%
%TO.N,/Driver3/OUTP*%
X147850000Y-132450000D03*
%TO.P,U11,5,-*%
%TO.N,Net-(U10-OUT1)*%
X147850000Y-131800000D03*
%TO.P,U11,6*%
%TO.N,ISNS3*%
X147850000Y-131150000D03*
%TD*%
D29*
%TO.P,C24,1*%
%TO.N,Net-(U2-OSC_OUT)*%
X147750000Y-119750000D03*
%TO.P,C24,2*%
%TO.N,GND*%
X146790000Y-119750000D03*
%TD*%
D10*
%TO.P,C6,1*%
%TO.N,+3V3*%
X151500000Y-103270000D03*
%TO.P,C6,2*%
%TO.N,GND*%
X151500000Y-104230000D03*
%TD*%
D29*
%TO.P,C4,1*%
%TO.N,+3V3*%
X148500000Y-113950000D03*
%TO.P,C4,2*%
%TO.N,GND*%
X147540000Y-113950000D03*
%TD*%
D30*
%TO.P,U3,1,GND*%
%TO.N,GND*%
X136950000Y-112000000D03*
D31*
%TO.P,U3,2,VIN*%
%TO.N,+5V*%
X136862500Y-110500000D03*
D30*
%TO.P,U3,3,VOUT*%
%TO.N,+3V3*%
X136950000Y-109000000D03*
%TD*%
D32*
%TO.P,C20,1*%
%TO.N,+BATT*%
X128947500Y-99800000D03*
%TO.P,C20,2*%
%TO.N,GND*%
X131652500Y-99800000D03*
%TD*%
D33*
%TO.P,R4,1*%
%TO.N,/Driver3/OUTP*%
X149500000Y-132412500D03*
%TO.P,R4,2*%
%TO.N,Net-(U10-OUT1)*%
X149500000Y-130587500D03*
%TD*%
D21*
%TO.P,R9,1*%
%TO.N,VREF*%
X137400000Y-105520000D03*
%TO.P,R9,2*%
%TO.N,GND*%
X137400000Y-104500000D03*
%TD*%
D34*
%TO.P,Y1,1,1*%
%TO.N,Net-(U2-OSC_OUT)*%
X147850000Y-117000000D03*
%TO.P,Y1,2,2*%
%TO.N,Net-(U2-OSC_IN)*%
X144150000Y-117000000D03*
%TD*%
D35*
%TO.P,J8,1,Pin_1*%
%TO.N,/Driver2/OUTN*%
X140500000Y-136500000D03*
D13*
%TO.P,J8,2,Pin_2*%
%TO.N,/Driver2/OUTP*%
X139000000Y-136500000D03*
%TO.P,J8,3,Pin_3*%
%TO.N,+3V3*%
X137500000Y-136500000D03*
%TO.P,J8,4,Pin_4*%
%TO.N,POT2*%
X136000000Y-136500000D03*
%TO.P,J8,5,Pin_5*%
%TO.N,GND*%
X134500000Y-136500000D03*
%TD*%
D14*
%TO.P,C15,1*%
%TO.N,+BATT*%
X147400000Y-129880000D03*
%TO.P,C15,2*%
%TO.N,GND*%
X147400000Y-128920000D03*
%TD*%
D10*
%TO.P,C11,1*%
%TO.N,+3V3*%
X137400000Y-127020000D03*
%TO.P,C11,2*%
%TO.N,GND*%
X137400000Y-127980000D03*
%TD*%
D36*
%TO.P,U4,1,REF*%
%TO.N,VREF*%
X139050000Y-81850000D03*
%TO.P,U4,2,GND*%
%TO.N,GND*%
X139050000Y-81200000D03*
%TO.P,U4,3,V+*%
%TO.N,+3V3*%
X139050000Y-80550000D03*
%TO.P,U4,4,+*%
%TO.N,/Driver0/OUTP*%
X137150000Y-80550000D03*
%TO.P,U4,5,-*%
%TO.N,Net-(U1-OUT1)*%
X137150000Y-81200000D03*
%TO.P,U4,6*%
%TO.N,ISNS0*%
X137150000Y-81850000D03*
%TD*%
D32*
%TO.P,C18,1*%
%TO.N,+BATT*%
X128947500Y-95400000D03*
%TO.P,C18,2*%
%TO.N,GND*%
X131652500Y-95400000D03*
%TD*%
D33*
%TO.P,R3,1*%
%TO.N,/Driver2/OUTP*%
X139500000Y-132412500D03*
%TO.P,R3,2*%
%TO.N,Net-(U8-OUT1)*%
X139500000Y-130587500D03*
%TD*%
D10*
%TO.P,C2,1*%
%TO.N,+BATT*%
X137600000Y-83120000D03*
%TO.P,C2,2*%
%TO.N,GND*%
X137600000Y-84080000D03*
%TD*%
D25*
%TO.P,J3,1,Pin_1*%
%TO.N,UART1-TX*%
X130000000Y-114500000D03*
D20*
%TO.P,J3,2,Pin_2*%
%TO.N,UART1-RX*%
X130000000Y-116000000D03*
%TO.P,J3,3,Pin_3*%
%TO.N,+5V*%
X130000000Y-117500000D03*
%TO.P,J3,4,Pin_4*%
%TO.N,GND*%
X130000000Y-119000000D03*
%TD*%
D22*
%TO.P,U6,1,VM*%
%TO.N,+BATT*%
X146550000Y-83850000D03*
%TO.P,U6,2,OUT1*%
%TO.N,Net-(U6-OUT1)*%
X146050000Y-83850000D03*
%TO.P,U6,3,OUT2*%
%TO.N,/Driver1/OUTN*%
X145550000Y-83850000D03*
%TO.P,U6,4,GND*%
%TO.N,GND*%
X145050000Y-83850000D03*
%TO.P,U6,5,IN2*%
%TO.N,D1-INN*%
X145050000Y-85750000D03*
%TO.P,U6,6,IN1*%
%TO.N,D1-INP*%
X145550000Y-85750000D03*
%TO.P,U6,7,~{SLEEP}*%
%TO.N,D1-MODE*%
X146050000Y-85750000D03*
%TO.P,U6,8,VCC*%
%TO.N,+3V3*%
X146550000Y-85750000D03*
D23*
%TO.P,U6,9,GND*%
%TO.N,GND*%
X146300000Y-84800000D03*
D24*
X145800000Y-84800000D03*
D23*
X145300000Y-84800000D03*
%TD*%
D11*
%TO.P,R18,1*%
%TO.N,Net-(D3-K)*%
X126500000Y-88115000D03*
%TO.P,R18,2*%
%TO.N,GND*%
X126500000Y-89135000D03*
%TD*%
D28*
%TO.P,U9,1,REF*%
%TO.N,VREF*%
X135950000Y-131150000D03*
%TO.P,U9,2,GND*%
%TO.N,GND*%
X135950000Y-131800000D03*
%TO.P,U9,3,V+*%
%TO.N,+3V3*%
X135950000Y-132450000D03*
%TO.P,U9,4,+*%
%TO.N,/Driver2/OUTP*%
X137850000Y-132450000D03*
%TO.P,U9,5,-*%
%TO.N,Net-(U8-OUT1)*%
X137850000Y-131800000D03*
%TO.P,U9,6*%
%TO.N,ISNS2*%
X137850000Y-131150000D03*
%TD*%
D18*
%TO.P,R11,1*%
%TO.N,VSNS-BAT*%
X130590000Y-93800000D03*
%TO.P,R11,2*%
%TO.N,GND*%
X131610000Y-93800000D03*
%TD*%
D14*
%TO.P,C1,1*%
%TO.N,+3V3*%
X137600000Y-85980000D03*
%TO.P,C1,2*%
%TO.N,GND*%
X137600000Y-85020000D03*
%TD*%
D10*
%TO.P,C10,1*%
%TO.N,+3V3*%
X150200000Y-80420000D03*
%TO.P,C10,2*%
%TO.N,GND*%
X150200000Y-81380000D03*
%TD*%
D32*
%TO.P,C31,1*%
%TO.N,+BATT*%
X138147500Y-125500000D03*
%TO.P,C31,2*%
%TO.N,GND*%
X140852500Y-125500000D03*
%TD*%
%TO.P,C19,1*%
%TO.N,+BATT*%
X128947500Y-97600000D03*
%TO.P,C19,2*%
%TO.N,GND*%
X131652500Y-97600000D03*
%TD*%
D18*
%TO.P,R7,1*%
%TO.N,I2C-SDA*%
X132490000Y-123500000D03*
%TO.P,R7,2*%
%TO.N,/V-I2C*%
X133510000Y-123500000D03*
%TD*%
D37*
%TO.P,C17,1*%
%TO.N,+5V*%
X134000000Y-106852500D03*
%TO.P,C17,2*%
%TO.N,GND*%
X134000000Y-104147500D03*
%TD*%
D21*
%TO.P,R15,1*%
%TO.N,+3V3*%
X133500000Y-132510000D03*
%TO.P,R15,2*%
%TO.N,AI3*%
X133500000Y-131490000D03*
%TD*%
D32*
%TO.P,C21,1*%
%TO.N,+BATT*%
X128947500Y-102000000D03*
%TO.P,C21,2*%
%TO.N,GND*%
X131652500Y-102000000D03*
%TD*%
D38*
%TO.P,U13,1,Y0*%
%TO.N,AI0*%
X150195000Y-94025000D03*
%TO.P,U13,2,Y2*%
%TO.N,AI2*%
X148925000Y-94025000D03*
%TO.P,U13,3,Y*%
%TO.N,Net-(U13-Y)*%
X147655000Y-94025000D03*
%TO.P,U13,4,Y3*%
%TO.N,AI3*%
X146385000Y-94025000D03*
%TO.P,U13,5,Y1*%
%TO.N,AI1*%
X145115000Y-94025000D03*
%TO.P,U13,6,INH*%
%TO.N,GND*%
X143845000Y-94025000D03*
%TO.P,U13,7,VEE*%
X142575000Y-94025000D03*
%TO.P,U13,8,VSS*%
X141305000Y-94025000D03*
%TO.P,U13,9,B*%
%TO.N,AI-SEL-B*%
X141305000Y-98975000D03*
%TO.P,U13,10,A*%
%TO.N,AI-SEL-A*%
X142575000Y-98975000D03*
%TO.P,U13,11,X3*%
%TO.N,POT3*%
X143845000Y-98975000D03*
%TO.P,U13,12,X0*%
%TO.N,POT0*%
X145115000Y-98975000D03*
%TO.P,U13,13,X*%
%TO.N,Net-(U13-X)*%
X146385000Y-98975000D03*
%TO.P,U13,14,X1*%
%TO.N,POT1*%
X147655000Y-98975000D03*
%TO.P,U13,15,X2*%
%TO.N,POT2*%
X148925000Y-98975000D03*
%TO.P,U13,16,VDD*%
%TO.N,+3V3*%
X150195000Y-98975000D03*
%TD*%
D11*
%TO.P,R12,1*%
%TO.N,+3V3*%
X141500000Y-80490000D03*
%TO.P,R12,2*%
%TO.N,AI0*%
X141500000Y-81510000D03*
%TD*%
D39*
%TO.P,C23,1*%
%TO.N,+3V3*%
X139000000Y-109147500D03*
%TO.P,C23,2*%
%TO.N,GND*%
X139000000Y-111852500D03*
%TD*%
D25*
%TO.P,J2,1,Pin_1*%
%TO.N,I2C-SCL*%
X130000000Y-123000000D03*
D20*
%TO.P,J2,2,Pin_2*%
%TO.N,I2C-SDA*%
X130000000Y-124500000D03*
%TO.P,J2,3,Pin_3*%
%TO.N,/V-I2C*%
X130000000Y-126000000D03*
%TO.P,J2,4,Pin_4*%
%TO.N,GND*%
X130000000Y-127500000D03*
%TD*%
D40*
%TO.P,U5,1,GND*%
%TO.N,GND*%
X131300000Y-104350000D03*
%TO.P,U5,2,VO*%
%TO.N,+5V*%
X129000000Y-104350000D03*
D41*
X129000000Y-110650000D03*
D40*
%TO.P,U5,3,VI*%
%TO.N,+BATT*%
X126700000Y-104350000D03*
%TD*%
D11*
%TO.P,R10,1*%
%TO.N,Net-(J5-Pin_1)*%
X130600000Y-91790000D03*
%TO.P,R10,2*%
%TO.N,VSNS-BAT*%
X130600000Y-92810000D03*
%TD*%
D10*
%TO.P,C9,1*%
%TO.N,+BATT*%
X147600000Y-83120000D03*
%TO.P,C9,2*%
%TO.N,GND*%
X147600000Y-84080000D03*
%TD*%
D19*
%TO.P,J13,1,Pin_1*%
%TO.N,AI2*%
X144050000Y-128250000D03*
D20*
%TO.P,J13,2,Pin_2*%
%TO.N,GND*%
X144050000Y-126750000D03*
%TD*%
D25*
%TO.P,J4,1,Pin_1*%
%TO.N,UART2-TX*%
X125500000Y-114500000D03*
D20*
%TO.P,J4,2,Pin_2*%
%TO.N,UART2-RX*%
X125500000Y-116000000D03*
%TO.P,J4,3,Pin_3*%
%TO.N,+5V*%
X125500000Y-117500000D03*
%TO.P,J4,4,Pin_4*%
%TO.N,GND*%
X125500000Y-119000000D03*
%TD*%
D36*
%TO.P,U7,1,REF*%
%TO.N,VREF*%
X149050000Y-81850000D03*
%TO.P,U7,2,GND*%
%TO.N,GND*%
X149050000Y-81200000D03*
%TO.P,U7,3,V+*%
%TO.N,+3V3*%
X149050000Y-80550000D03*
%TO.P,U7,4,+*%
%TO.N,/Driver1/OUTP*%
X147150000Y-80550000D03*
%TO.P,U7,5,-*%
%TO.N,Net-(U6-OUT1)*%
X147150000Y-81200000D03*
%TO.P,U7,6*%
%TO.N,ISNS1*%
X147150000Y-81850000D03*
%TD*%
D42*
%TO.P,U12,1,REF*%
%TO.N,VREF*%
X130250000Y-88250000D03*
%TO.P,U12,2,GND*%
%TO.N,GND*%
X129600000Y-88250000D03*
%TO.P,U12,3,V+*%
%TO.N,+3V3*%
X128950000Y-88250000D03*
%TO.P,U12,4,+*%
%TO.N,+BATT*%
X128950000Y-90150000D03*
%TO.P,U12,5,-*%
%TO.N,Net-(J5-Pin_1)*%
X129600000Y-90150000D03*
%TO.P,U12,6*%
%TO.N,ISNS-BAT*%
X130250000Y-90150000D03*
%TD*%
D32*
%TO.P,C30,1*%
%TO.N,+BATT*%
X148147500Y-125500000D03*
%TO.P,C30,2*%
%TO.N,GND*%
X150852500Y-125500000D03*
%TD*%
D43*
%TO.P,D2,1,K*%
%TO.N,Net-(D2-K)*%
X125000000Y-86875000D03*
%TO.P,D2,2,A*%
%TO.N,LED2*%
X125000000Y-85125000D03*
%TD*%
D21*
%TO.P,R14,1*%
%TO.N,+3V3*%
X143500000Y-132510000D03*
%TO.P,R14,2*%
%TO.N,AI2*%
X143500000Y-131490000D03*
%TD*%
D43*
%TO.P,D1,1,K*%
%TO.N,Net-(D1-K)*%
X123500000Y-86875000D03*
%TO.P,D1,2,A*%
%TO.N,LED1*%
X123500000Y-85125000D03*
%TD*%
D44*
%TO.P,R1,1*%
%TO.N,/Driver0/OUTP*%
X135500000Y-80587500D03*
%TO.P,R1,2*%
%TO.N,Net-(U1-OUT1)*%
X135500000Y-82412500D03*
%TD*%
D14*
%TO.P,C3,1*%
%TO.N,+3V3*%
X141300000Y-111230000D03*
%TO.P,C3,2*%
%TO.N,GND*%
X141300000Y-110270000D03*
%TD*%
D35*
%TO.P,J9,1,Pin_1*%
%TO.N,/Driver3/OUTN*%
X150500000Y-136500000D03*
D13*
%TO.P,J9,2,Pin_2*%
%TO.N,/Driver3/OUTP*%
X149000000Y-136500000D03*
%TO.P,J9,3,Pin_3*%
%TO.N,+3V3*%
X147500000Y-136500000D03*
%TO.P,J9,4,Pin_4*%
%TO.N,POT3*%
X146000000Y-136500000D03*
%TO.P,J9,5,Pin_5*%
%TO.N,GND*%
X144500000Y-136500000D03*
%TD*%
D14*
%TO.P,C14,1*%
%TO.N,+3V3*%
X144800000Y-132580000D03*
%TO.P,C14,2*%
%TO.N,GND*%
X144800000Y-131620000D03*
%TD*%
D45*
%TO.P,C22,1*%
%TO.N,+3V3*%
X128670000Y-87050000D03*
%TO.P,C22,2*%
%TO.N,GND*%
X129630000Y-87050000D03*
%TD*%
D25*
%TO.P,J1,1,Pin_1*%
%TO.N,I2C-SCL*%
X125500000Y-123000000D03*
D20*
%TO.P,J1,2,Pin_2*%
%TO.N,I2C-SDA*%
X125500000Y-124500000D03*
%TO.P,J1,3,Pin_3*%
%TO.N,/V-I2C*%
X125500000Y-126000000D03*
%TO.P,J1,4,Pin_4*%
%TO.N,GND*%
X125500000Y-127500000D03*
%TD*%
D46*
%TO.P,C29,1*%
%TO.N,+BATT*%
X136852500Y-87500000D03*
%TO.P,C29,2*%
%TO.N,GND*%
X134147500Y-87500000D03*
%TD*%
D47*
%TO.P,U8,1,VM*%
%TO.N,+BATT*%
X138450000Y-129150000D03*
%TO.P,U8,2,OUT1*%
%TO.N,Net-(U8-OUT1)*%
X138950000Y-129150000D03*
%TO.P,U8,3,OUT2*%
%TO.N,/Driver2/OUTN*%
X139450000Y-129150000D03*
%TO.P,U8,4,GND*%
%TO.N,GND*%
X139950000Y-129150000D03*
%TO.P,U8,5,IN2*%
%TO.N,D2-INN*%
X139950000Y-127250000D03*
%TO.P,U8,6,IN1*%
%TO.N,D2-INP*%
X139450000Y-127250000D03*
%TO.P,U8,7,~{SLEEP}*%
%TO.N,D2-MODE*%
X138950000Y-127250000D03*
%TO.P,U8,8,VCC*%
%TO.N,+3V3*%
X138450000Y-127250000D03*
D23*
%TO.P,U8,9,GND*%
%TO.N,GND*%
X138700000Y-128200000D03*
D24*
X139200000Y-128200000D03*
D23*
X139700000Y-128200000D03*
%TD*%
D45*
%TO.P,C25,1*%
%TO.N,Net-(U2-OSC_IN)*%
X144290000Y-119750000D03*
%TO.P,C25,2*%
%TO.N,GND*%
X145250000Y-119750000D03*
%TD*%
D14*
%TO.P,C12,1*%
%TO.N,+BATT*%
X137400000Y-129880000D03*
%TO.P,C12,2*%
%TO.N,GND*%
X137400000Y-128920000D03*
%TD*%
D11*
%TO.P,R16,1*%
%TO.N,Net-(D1-K)*%
X123500000Y-88115000D03*
%TO.P,R16,2*%
%TO.N,GND*%
X123500000Y-89135000D03*
%TD*%
D47*
%TO.P,U10,1,VM*%
%TO.N,+BATT*%
X148450000Y-129150000D03*
%TO.P,U10,2,OUT1*%
%TO.N,Net-(U10-OUT1)*%
X148950000Y-129150000D03*
%TO.P,U10,3,OUT2*%
%TO.N,/Driver3/OUTN*%
X149450000Y-129150000D03*
%TO.P,U10,4,GND*%
%TO.N,GND*%
X149950000Y-129150000D03*
%TO.P,U10,5,IN2*%
%TO.N,D3-INN*%
X149950000Y-127250000D03*
%TO.P,U10,6,IN1*%
%TO.N,D3-INP*%
X149450000Y-127250000D03*
%TO.P,U10,7,~{SLEEP}*%
%TO.N,D3-MODE*%
X148950000Y-127250000D03*
%TO.P,U10,8,VCC*%
%TO.N,+3V3*%
X148450000Y-127250000D03*
D23*
%TO.P,U10,9,GND*%
%TO.N,GND*%
X148700000Y-128200000D03*
D24*
X149200000Y-128200000D03*
D23*
X149700000Y-128200000D03*
%TD*%
D48*
%TO.P,J10,1,Pin_1*%
%TO.N,+3V3*%
X151500000Y-121810000D03*
D49*
%TO.P,J10,2,Pin_2*%
%TO.N,nRST*%
X151500000Y-120540000D03*
%TO.P,J10,3,Pin_3*%
%TO.N,BOOT0*%
X151500000Y-119270000D03*
%TO.P,J10,4,Pin_4*%
%TO.N,SWDIO*%
X151500000Y-118000000D03*
%TO.P,J10,5,Pin_5*%
%TO.N,SWCLK*%
X151500000Y-116730000D03*
%TO.P,J10,6,Pin_6*%
%TO.N,GND*%
X151500000Y-115460000D03*
%TD*%
D10*
%TO.P,C16,1*%
%TO.N,+3V3*%
X147400000Y-127020000D03*
%TO.P,C16,2*%
%TO.N,GND*%
X147400000Y-127980000D03*
%TD*%
D25*
%TO.P,J11,1,Pin_1*%
%TO.N,AI0*%
X140950000Y-84750000D03*
D20*
%TO.P,J11,2,Pin_2*%
%TO.N,GND*%
X140950000Y-86250000D03*
%TD*%
D45*
%TO.P,C5,1*%
%TO.N,+3V3*%
X144020000Y-102550000D03*
%TO.P,C5,2*%
%TO.N,GND*%
X144980000Y-102550000D03*
%TD*%
D33*
%TO.P,R5,1*%
%TO.N,+BATT*%
X129000000Y-93512500D03*
%TO.P,R5,2*%
%TO.N,Net-(J5-Pin_1)*%
X129000000Y-91687500D03*
%TD*%
D46*
%TO.P,C28,1*%
%TO.N,+BATT*%
X146852500Y-87500000D03*
%TO.P,C28,2*%
%TO.N,GND*%
X144147500Y-87500000D03*
%TD*%
D43*
%TO.P,D3,1,K*%
%TO.N,Net-(D3-K)*%
X126500000Y-86875000D03*
%TO.P,D3,2,A*%
%TO.N,LED3*%
X126500000Y-85125000D03*
%TD*%
D44*
%TO.P,R2,1*%
%TO.N,/Driver1/OUTP*%
X145500000Y-80587500D03*
%TO.P,R2,2*%
%TO.N,Net-(U6-OUT1)*%
X145500000Y-82412500D03*
%TD*%
D50*
%TO.N,+3V3*%
X141250000Y-112000000D03*
X138000000Y-109500000D03*
X137900000Y-86600000D03*
X140000000Y-109500000D03*
X134600000Y-123900000D03*
X137100000Y-126400000D03*
X134750000Y-133500000D03*
X150250000Y-79500000D03*
X151750000Y-97420000D03*
X128750000Y-86250000D03*
X151500000Y-102500000D03*
X138000000Y-108500000D03*
X144000000Y-101750000D03*
X147900000Y-86600000D03*
X149000000Y-114500000D03*
X140250000Y-79500000D03*
X144750000Y-133500000D03*
X140000000Y-108500000D03*
X147100000Y-126400000D03*
X144200000Y-113700000D03*
%TO.N,GND*%
X152250000Y-104250000D03*
X132000000Y-103250000D03*
X144750000Y-130750000D03*
D51*
X126500000Y-99200000D03*
D50*
X141250000Y-92500000D03*
X151500000Y-127000000D03*
X141500000Y-127000000D03*
X134500000Y-85000000D03*
X140739336Y-110740104D03*
X150250000Y-82250000D03*
X141500000Y-129000000D03*
X132000000Y-98750000D03*
X129750000Y-86250000D03*
X133500000Y-86000000D03*
X131250000Y-96500000D03*
X140000000Y-112500000D03*
X142500000Y-92500000D03*
X132000000Y-101000000D03*
X138000000Y-112500000D03*
X140250000Y-82250000D03*
D51*
X126500000Y-101400000D03*
D50*
X124250000Y-89135000D03*
X134500000Y-84000000D03*
D51*
X124100000Y-99200000D03*
D50*
X150500000Y-129000000D03*
X138000000Y-111500000D03*
X131250000Y-98750000D03*
X139166085Y-105678243D03*
D51*
X123700000Y-100300000D03*
D50*
X144500000Y-85000000D03*
X132000000Y-96500000D03*
X134250000Y-86000000D03*
X134750000Y-130750000D03*
X144250000Y-86000000D03*
X151750000Y-94500000D03*
X141500000Y-128000000D03*
X125750000Y-89135000D03*
X145000000Y-101750000D03*
X150500000Y-128000000D03*
X131250000Y-101000000D03*
X140500000Y-128000000D03*
D51*
X126900000Y-100300000D03*
X124200000Y-101400000D03*
D50*
X132750000Y-104500000D03*
X143500000Y-84000000D03*
X146000000Y-119750000D03*
X151500000Y-128000000D03*
X151500000Y-129000000D03*
X143500000Y-86000000D03*
X133500000Y-84000000D03*
X132750000Y-103750000D03*
X133500000Y-85000000D03*
X140500000Y-129000000D03*
D51*
X125300000Y-101900000D03*
D50*
X143500000Y-85000000D03*
X140750000Y-127000000D03*
X147999169Y-114500896D03*
X140000000Y-111500000D03*
D51*
X125300000Y-98700000D03*
D50*
X131250000Y-103250000D03*
X150750000Y-127000000D03*
X144500000Y-84000000D03*
X143113997Y-92500000D03*
%TO.N,+BATT*%
X138500000Y-86000000D03*
X148500000Y-85000000D03*
X129500000Y-98750000D03*
X136500000Y-127000000D03*
X128250000Y-90250000D03*
X146500000Y-129000000D03*
X148500000Y-86000000D03*
X138500000Y-88000000D03*
X128500000Y-98750000D03*
X129500000Y-101000000D03*
X138500000Y-83000000D03*
X129500000Y-94500000D03*
X138500000Y-84000000D03*
X136500000Y-129000000D03*
X148500000Y-84000000D03*
X148500000Y-83000000D03*
X148500000Y-88000000D03*
X128500000Y-96500000D03*
X129500000Y-96500000D03*
X146500000Y-128000000D03*
X136500000Y-125000000D03*
X138500000Y-85000000D03*
X146500000Y-127000000D03*
X138500000Y-87000000D03*
X136500000Y-128000000D03*
X146500000Y-130000000D03*
X136500000Y-126000000D03*
X128500000Y-101000000D03*
X146500000Y-125000000D03*
X128500000Y-94500000D03*
X148500000Y-87000000D03*
X136500000Y-130000000D03*
X146500000Y-126000000D03*
%TO.N,VREF*%
X149100000Y-106800000D03*
X139500000Y-118250000D03*
X140300000Y-106400000D03*
X139300000Y-107600000D03*
X140000000Y-93200000D03*
X138200000Y-119000000D03*
X145000000Y-92500000D03*
%TO.N,I2C-SCL*%
X145200000Y-110200000D03*
X140500000Y-115100000D03*
%TO.N,/V-I2C*%
X134800000Y-123000000D03*
%TO.N,I2C-SDA*%
X141100000Y-115800000D03*
X144500000Y-110300000D03*
%TO.N,UART1-RX*%
X145400000Y-109500000D03*
X141700000Y-115100000D03*
%TO.N,UART1-TX*%
X146800000Y-109600000D03*
X142300000Y-114600000D03*
%TO.N,UART2-RX*%
X142900000Y-114100000D03*
X147106763Y-110741803D03*
%TO.N,UART2-TX*%
X142700000Y-113300000D03*
X147900000Y-110600000D03*
D51*
%TO.N,Net-(J5-Pin_1)*%
X126900000Y-90900000D03*
X125400000Y-90900000D03*
X123700000Y-94100000D03*
X123700000Y-90900000D03*
X125300000Y-94100000D03*
X126900000Y-94100000D03*
X126900000Y-92500000D03*
X123700000Y-92500000D03*
D50*
%TO.N,POT2*%
X135227224Y-116522780D03*
X134250000Y-101750000D03*
%TO.N,POT3*%
X136328041Y-117236184D03*
X135250000Y-101000000D03*
%TO.N,SWDIO*%
X150400000Y-112300000D03*
X145800000Y-101700000D03*
X149553224Y-101941797D03*
%TO.N,SWCLK*%
X143700000Y-114500000D03*
X144100000Y-105557000D03*
%TO.N,BOOT0*%
X149600000Y-115300000D03*
X147600000Y-111200000D03*
%TO.N,AI0*%
X143750000Y-92500000D03*
X150250000Y-92500000D03*
%TO.N,AI2*%
X143750000Y-97500000D03*
X136905000Y-116526852D03*
X145750000Y-97500000D03*
X135750000Y-99000000D03*
%TO.N,AI3*%
X134692000Y-98500000D03*
X143750000Y-96500000D03*
X135815100Y-116765470D03*
X145000000Y-96500000D03*
%TO.N,VSNS-BAT*%
X147700000Y-107700000D03*
X140900000Y-96000000D03*
%TO.N,D0-INN*%
X148096317Y-102974713D03*
X145709231Y-105207000D03*
X134963997Y-92000000D03*
X138200000Y-103857000D03*
%TO.N,D0-INP*%
X138500000Y-102900000D03*
X146385000Y-102010000D03*
X135600000Y-92000000D03*
X143200000Y-102500000D03*
%TO.N,D0-MODE*%
X143200000Y-103136003D03*
X139045367Y-103227220D03*
X136300000Y-92000000D03*
X149600000Y-102600000D03*
%TO.N,AI-SEL-B*%
X141372651Y-104695442D03*
X141400000Y-100700000D03*
%TO.N,D1-INP*%
X149882000Y-88835748D03*
X144900000Y-105557000D03*
%TO.N,D2-INN*%
X140100000Y-121000000D03*
X136598922Y-102682055D03*
%TO.N,D1-INN*%
X148100000Y-101957000D03*
X149700000Y-100500000D03*
X150257000Y-89452151D03*
X147900000Y-100900000D03*
%TO.N,D2-INP*%
X139436003Y-121000000D03*
X148800000Y-106100000D03*
X136227000Y-103197972D03*
X143100000Y-104500000D03*
%TO.N,Net-(U13-Y)*%
X147100000Y-95800000D03*
X152200000Y-110000000D03*
%TO.N,ISNS0*%
X139100000Y-92700000D03*
X148500000Y-108800000D03*
%TO.N,Net-(U13-X)*%
X146800000Y-100300000D03*
X152300000Y-110800000D03*
%TO.N,ISNS2*%
X138600000Y-119500000D03*
X149600000Y-109900000D03*
%TO.N,ISNS1*%
X146900000Y-107600000D03*
X145600000Y-92000000D03*
%TO.N,D3-MODE*%
X148763997Y-123800000D03*
X145342999Y-106402000D03*
%TO.N,D2-MODE*%
X135948000Y-102250000D03*
X138800000Y-121000000D03*
%TO.N,AI-SEL-A*%
X142000000Y-104800000D03*
X142100000Y-100700000D03*
%TO.N,ISNS3*%
X139507647Y-117611350D03*
X149900000Y-111000000D03*
%TO.N,D3-INN*%
X150036003Y-123800000D03*
X146514000Y-102924000D03*
%TO.N,D1-MODE*%
X150200000Y-100900000D03*
X149900000Y-88200000D03*
%TO.N,ISNS-BAT*%
X147200000Y-106500000D03*
X140900000Y-95363997D03*
%TO.N,D3-INP*%
X144707007Y-106398292D03*
X149400000Y-123800000D03*
%TO.N,LED3*%
X138377001Y-116250000D03*
X145500000Y-114750000D03*
X141500000Y-117250000D03*
X134099743Y-92065801D03*
%TO.N,LED1*%
X132452011Y-91797989D03*
X140500000Y-116257000D03*
X134261442Y-115557000D03*
X144311768Y-114326104D03*
%TO.N,LED2*%
X134750000Y-116000000D03*
X145014924Y-114269245D03*
X140787646Y-116824238D03*
X133568858Y-91715571D03*
%TD*%
D52*
%TO.N,+3V3*%
X134930000Y-132450000D02*
X134800000Y-132580000D01*
X150961000Y-105298500D02*
X150961000Y-103809000D01*
X137600000Y-85980000D02*
X137600000Y-86300000D01*
X137400000Y-108550000D02*
X136950000Y-109000000D01*
X140200000Y-80420000D02*
X141430000Y-80420000D01*
X146900000Y-85750000D02*
X146550000Y-85750000D01*
D53*
X138852500Y-109000000D02*
X139000000Y-109147500D01*
D52*
X141530000Y-111000000D02*
X141300000Y-111230000D01*
X137130000Y-85980000D02*
X136900000Y-85750000D01*
X128750000Y-86970000D02*
X128670000Y-87050000D01*
X147130000Y-85980000D02*
X146900000Y-85750000D01*
X138100000Y-127250000D02*
X138450000Y-127250000D01*
X148250000Y-112412500D02*
X148250000Y-113700000D01*
X151500000Y-103270000D02*
X151500000Y-102500000D01*
X144930000Y-132450000D02*
X144800000Y-132580000D01*
X151162500Y-105500000D02*
X150961000Y-105298500D01*
X144800000Y-132580000D02*
X143570000Y-132580000D01*
X147870000Y-127020000D02*
X148100000Y-127250000D01*
X144800000Y-132580000D02*
X144800000Y-133450000D01*
X136900000Y-85750000D02*
X136550000Y-85750000D01*
X128750000Y-86250000D02*
X128750000Y-86970000D01*
X144020000Y-101770000D02*
X144000000Y-101750000D01*
X147400000Y-127020000D02*
X147400000Y-126700000D01*
X150961000Y-103809000D02*
X151500000Y-103270000D01*
X144250000Y-104087500D02*
X144250000Y-102780000D01*
X140070000Y-80550000D02*
X140200000Y-80420000D01*
X141300000Y-111950000D02*
X141250000Y-112000000D01*
X144020000Y-102550000D02*
X144020000Y-101770000D01*
X128950000Y-88250000D02*
X128950000Y-87330000D01*
X140200000Y-80420000D02*
X140200000Y-79550000D01*
X137400000Y-107510000D02*
X137400000Y-108550000D01*
X147400000Y-127020000D02*
X147870000Y-127020000D01*
D53*
X136950000Y-109000000D02*
X138852500Y-109000000D01*
D52*
X151750000Y-97420000D02*
X150195000Y-98975000D01*
X141300000Y-111230000D02*
X141300000Y-111950000D01*
X150200000Y-80420000D02*
X151430000Y-80420000D01*
X134800000Y-132580000D02*
X133570000Y-132580000D01*
X137400000Y-126700000D02*
X137100000Y-126400000D01*
X128950000Y-87330000D02*
X128670000Y-87050000D01*
X148100000Y-127250000D02*
X148450000Y-127250000D01*
X137870000Y-127020000D02*
X138100000Y-127250000D01*
X139050000Y-80550000D02*
X140070000Y-80550000D01*
X147400000Y-126700000D02*
X147100000Y-126400000D01*
X148500000Y-113950000D02*
X148500000Y-114000000D01*
X137400000Y-127020000D02*
X137400000Y-126700000D01*
X145950000Y-132450000D02*
X144930000Y-132450000D01*
X137400000Y-127020000D02*
X137870000Y-127020000D01*
X148250000Y-113700000D02*
X148500000Y-113950000D01*
D54*
X144250000Y-112412500D02*
X144250000Y-113650000D01*
X144250000Y-113650000D02*
X144200000Y-113700000D01*
D52*
X150070000Y-80550000D02*
X150200000Y-80420000D01*
X137600000Y-86300000D02*
X137900000Y-86600000D01*
X147600000Y-85980000D02*
X147600000Y-86300000D01*
X137600000Y-85980000D02*
X137130000Y-85980000D01*
X147600000Y-85980000D02*
X147130000Y-85980000D01*
X142837500Y-111000000D02*
X141530000Y-111000000D01*
X135950000Y-132450000D02*
X134930000Y-132450000D01*
X144250000Y-102780000D02*
X144020000Y-102550000D01*
X149050000Y-80550000D02*
X150070000Y-80550000D01*
X147600000Y-86300000D02*
X147900000Y-86600000D01*
X140200000Y-79550000D02*
X140250000Y-79500000D01*
X134800000Y-132580000D02*
X134800000Y-133450000D01*
X141430000Y-80420000D02*
X141500000Y-80490000D01*
X150200000Y-80420000D02*
X150200000Y-79550000D01*
X148500000Y-114000000D02*
X149000000Y-114500000D01*
X151750000Y-96480000D02*
X151750000Y-97420000D01*
D55*
%TO.N,GND*%
X137600000Y-84080000D02*
X137600000Y-85020000D01*
D52*
X151500000Y-104230000D02*
X152230000Y-104230000D01*
X135950000Y-131800000D02*
X134980000Y-131800000D01*
D55*
X146300000Y-84800000D02*
X147380000Y-84800000D01*
D52*
X143653000Y-93058000D02*
X143518868Y-93058000D01*
D55*
X137400000Y-128920000D02*
X137400000Y-127980000D01*
D54*
X125750000Y-89135000D02*
X126500000Y-89135000D01*
D52*
X143113997Y-92518997D02*
X143113997Y-92500000D01*
D55*
X136300000Y-84800000D02*
X137380000Y-84800000D01*
D52*
X147750000Y-112412500D02*
X147750000Y-113740000D01*
X141300000Y-110270000D02*
X141209440Y-110270000D01*
X139050000Y-81200000D02*
X140020000Y-81200000D01*
X151750000Y-95520000D02*
X151750000Y-94500000D01*
X150020000Y-81200000D02*
X150200000Y-81380000D01*
D55*
X147380000Y-84800000D02*
X147600000Y-85020000D01*
D52*
X129600000Y-88250000D02*
X129600000Y-87080000D01*
X147750000Y-113740000D02*
X147540000Y-113950000D01*
X145950000Y-131800000D02*
X144980000Y-131800000D01*
X147999169Y-114500896D02*
X147540000Y-114041727D01*
D56*
X131652500Y-103250000D02*
X131652500Y-103997500D01*
X131652500Y-101000000D02*
X131652500Y-103250000D01*
D52*
X152129000Y-104859000D02*
X152129000Y-105770999D01*
X142837500Y-110500000D02*
X141530000Y-110500000D01*
X150200000Y-81380000D02*
X150200000Y-82200000D01*
D55*
X138700000Y-128200000D02*
X137620000Y-128200000D01*
D52*
X131610000Y-93800000D02*
X131610000Y-95357500D01*
D55*
X137380000Y-84800000D02*
X137600000Y-85020000D01*
D52*
X138700000Y-104925000D02*
X138700000Y-105212158D01*
X141530000Y-110500000D02*
X141300000Y-110270000D01*
X134980000Y-131800000D02*
X134800000Y-131620000D01*
X141305000Y-94025000D02*
X141305000Y-92555000D01*
D53*
X138852500Y-112000000D02*
X139000000Y-111852500D01*
D56*
X134000000Y-104147500D02*
X131502500Y-104147500D01*
D55*
X137620000Y-128200000D02*
X137400000Y-127980000D01*
D52*
X149050000Y-81200000D02*
X150020000Y-81200000D01*
D56*
X131652500Y-96500000D02*
X131652500Y-98750000D01*
X131502500Y-104147500D02*
X131300000Y-104350000D01*
D52*
X129630000Y-87050000D02*
X129630000Y-86370000D01*
D56*
X131652500Y-103997500D02*
X131300000Y-104350000D01*
X131652500Y-98750000D02*
X131652500Y-101000000D01*
D55*
X147620000Y-128200000D02*
X147400000Y-127980000D01*
D52*
X144800000Y-131620000D02*
X144800000Y-130800000D01*
X141209440Y-110270000D02*
X140739336Y-110740104D01*
X134800000Y-131620000D02*
X134800000Y-130800000D01*
X140200000Y-82200000D02*
X140250000Y-82250000D01*
X140020000Y-81200000D02*
X140200000Y-81380000D01*
X138700000Y-104925000D02*
X137825000Y-104925000D01*
D55*
X147600000Y-84080000D02*
X147600000Y-85020000D01*
D52*
X146000000Y-119750000D02*
X145250000Y-119750000D01*
X140200000Y-81380000D02*
X140200000Y-82200000D01*
X144980000Y-131800000D02*
X144800000Y-131620000D01*
X151500000Y-104230000D02*
X152129000Y-104859000D01*
D55*
X147400000Y-128920000D02*
X147400000Y-127980000D01*
D52*
X144750000Y-102780000D02*
X144750000Y-104087500D01*
X144980000Y-102550000D02*
X144750000Y-102780000D01*
X143845000Y-93250000D02*
X143653000Y-93058000D01*
X141305000Y-92555000D02*
X141250000Y-92500000D01*
X143518868Y-93058000D02*
X143192000Y-92731132D01*
D56*
X131652500Y-95400000D02*
X131652500Y-96500000D01*
D52*
X138700000Y-105212158D02*
X139166085Y-105678243D01*
X129630000Y-86370000D02*
X129750000Y-86250000D01*
X143192000Y-92597000D02*
X143113997Y-92518997D01*
D55*
X148700000Y-128200000D02*
X147620000Y-128200000D01*
D52*
X142575000Y-92575000D02*
X142500000Y-92500000D01*
D54*
X123500000Y-89135000D02*
X124250000Y-89135000D01*
D52*
X144980000Y-102550000D02*
X144980000Y-101770000D01*
X144980000Y-101770000D02*
X145000000Y-101750000D01*
X137490000Y-104590000D02*
X137400000Y-104590000D01*
X143192000Y-92731132D02*
X143192000Y-92597000D01*
X137825000Y-104925000D02*
X137490000Y-104590000D01*
X152230000Y-104230000D02*
X152250000Y-104250000D01*
X152129000Y-105770999D02*
X151899999Y-106000000D01*
X142575000Y-94025000D02*
X142575000Y-92575000D01*
X146790000Y-119750000D02*
X146000000Y-119750000D01*
X131610000Y-95357500D02*
X131652500Y-95400000D01*
D54*
X124250000Y-89135000D02*
X125750000Y-89135000D01*
D52*
X147540000Y-114041727D02*
X147540000Y-113950000D01*
X129600000Y-87080000D02*
X129630000Y-87050000D01*
X151899999Y-106000000D02*
X151162500Y-106000000D01*
D53*
X136950000Y-112000000D02*
X138852500Y-112000000D01*
D56*
%TO.N,+BATT*%
X128050000Y-102000000D02*
X128947500Y-102000000D01*
X129000000Y-98750000D02*
X129000000Y-101000000D01*
X129000000Y-93512500D02*
X129000000Y-94500000D01*
X129000000Y-101947500D02*
X128947500Y-102000000D01*
X126700000Y-103350000D02*
X128050000Y-102000000D01*
X129000000Y-94500000D02*
X129000000Y-96500000D01*
X129000000Y-101000000D02*
X129000000Y-101947500D01*
X126700000Y-104350000D02*
X126700000Y-103350000D01*
D52*
X128350000Y-90150000D02*
X128250000Y-90250000D01*
X128950000Y-90150000D02*
X128350000Y-90150000D01*
D56*
X129000000Y-96500000D02*
X129000000Y-98750000D01*
%TO.N,+5V*%
X125500000Y-117500000D02*
X124647474Y-117500000D01*
X128200000Y-110700000D02*
X128950000Y-110700000D01*
X123734000Y-111516000D02*
X124000000Y-111250000D01*
X127750000Y-111150000D02*
X128200000Y-110700000D01*
X128950000Y-110700000D02*
X129000000Y-110650000D01*
X125500000Y-117500000D02*
X130000000Y-117500000D01*
X123734000Y-116586526D02*
X123734000Y-111516000D01*
X124647474Y-117500000D02*
X123734000Y-116586526D01*
D52*
%TO.N,Net-(U2-OSC_OUT)*%
X147850000Y-116307276D02*
X147850000Y-117000000D01*
X146579000Y-115036276D02*
X147850000Y-116307276D01*
X146750000Y-113082000D02*
X146579000Y-113253000D01*
X146750000Y-112412500D02*
X146750000Y-113082000D01*
X147750000Y-117100000D02*
X147850000Y-117000000D01*
X146579000Y-113253000D02*
X146579000Y-115036276D01*
X147750000Y-119750000D02*
X147750000Y-117100000D01*
%TO.N,Net-(U2-OSC_IN)*%
X146250000Y-114900000D02*
X144150000Y-117000000D01*
X144290000Y-119750000D02*
X144290000Y-117140000D01*
X144290000Y-117140000D02*
X144150000Y-117000000D01*
X146250000Y-112412500D02*
X146250000Y-114900000D01*
%TO.N,VREF*%
X140000000Y-93200000D02*
X139800000Y-93000000D01*
X138000000Y-119200000D02*
X138000000Y-119400000D01*
D54*
X135621000Y-92621000D02*
X132628726Y-92621000D01*
D52*
X135309842Y-124909842D02*
X135309842Y-130509842D01*
X136700000Y-122830552D02*
X135816000Y-123714552D01*
X144992000Y-92492000D02*
X145000000Y-92500000D01*
X149400000Y-106900000D02*
X150196000Y-107696000D01*
X137400000Y-106490000D02*
X137400000Y-105520000D01*
X150228493Y-90629000D02*
X148671000Y-90629000D01*
D54*
X139700000Y-93500000D02*
X136500000Y-93500000D01*
D52*
X145216000Y-130416000D02*
X145950000Y-131150000D01*
D54*
X136500000Y-93500000D02*
X135621000Y-92621000D01*
D52*
X140250000Y-118250000D02*
X145216000Y-123216000D01*
X135816000Y-124403684D02*
X135309842Y-124909842D01*
X149750000Y-86884724D02*
X151069000Y-88203724D01*
X145216000Y-123216000D02*
X145216000Y-130416000D01*
X147000000Y-92300000D02*
X146134724Y-92300000D01*
X145942724Y-92492000D02*
X144992000Y-92492000D01*
X139500000Y-118250000D02*
X140250000Y-118250000D01*
X135816000Y-123714552D02*
X135816000Y-124403684D01*
D54*
X130803863Y-90796137D02*
X130803863Y-88803863D01*
D52*
X149100000Y-106800000D02*
X149200000Y-106900000D01*
X149050000Y-81850000D02*
X149750000Y-82550000D01*
X137505000Y-106475000D02*
X137400000Y-106580000D01*
D54*
X140000000Y-93200000D02*
X139700000Y-93500000D01*
D52*
X139500000Y-82313724D02*
X139500000Y-82300000D01*
X150500000Y-108000000D02*
X151162500Y-108000000D01*
X148671000Y-90629000D02*
X147000000Y-92300000D01*
X150372000Y-107879000D02*
X150379000Y-107879000D01*
X151069000Y-89788493D02*
X150228493Y-90629000D01*
X150379000Y-107879000D02*
X150500000Y-108000000D01*
X138775000Y-106400000D02*
X138700000Y-106475000D01*
X138200000Y-119000000D02*
X138000000Y-119200000D01*
X140300000Y-106600000D02*
X139300000Y-107600000D01*
X140300000Y-106400000D02*
X138775000Y-106400000D01*
D54*
X132628726Y-92621000D02*
X130803863Y-90796137D01*
D52*
X138000000Y-119400000D02*
X136700000Y-120700000D01*
X146134724Y-92300000D02*
X145942724Y-92492000D01*
X135309842Y-130509842D02*
X135950000Y-131150000D01*
X136700000Y-120700000D02*
X136700000Y-122830552D01*
D54*
X130803863Y-88803863D02*
X130250000Y-88250000D01*
D52*
X139800000Y-82613724D02*
X139500000Y-82313724D01*
X151069000Y-88203724D02*
X151069000Y-89788493D01*
X140300000Y-106400000D02*
X140300000Y-106600000D01*
X139500000Y-82300000D02*
X139050000Y-81850000D01*
X139800000Y-93000000D02*
X139800000Y-82613724D01*
X150196000Y-107703000D02*
X150372000Y-107879000D01*
X138700000Y-106475000D02*
X137505000Y-106475000D01*
D54*
X138700000Y-106800000D02*
X138700000Y-106475000D01*
D52*
X149200000Y-106900000D02*
X149400000Y-106900000D01*
X150196000Y-107696000D02*
X150196000Y-107703000D01*
X149750000Y-82550000D02*
X149750000Y-86884724D01*
D54*
%TO.N,I2C-SCL*%
X140400000Y-115200000D02*
X139897283Y-115200000D01*
X144800000Y-109795513D02*
X144800000Y-109100000D01*
X143700000Y-108000000D02*
X142837500Y-108000000D01*
X139397283Y-114700000D02*
X133350000Y-114700000D01*
X140500000Y-115100000D02*
X140400000Y-115200000D01*
D55*
X132490000Y-122500000D02*
X131650000Y-122500000D01*
D54*
X132500000Y-115550000D02*
X132500000Y-122490000D01*
D55*
X131150000Y-123000000D02*
X130000000Y-123000000D01*
X130000000Y-123000000D02*
X125500000Y-123000000D01*
D54*
X132500000Y-122490000D02*
X132490000Y-122500000D01*
X145200000Y-110195513D02*
X144800000Y-109795513D01*
X145200000Y-110200000D02*
X145200000Y-110195513D01*
X144800000Y-109100000D02*
X143700000Y-108000000D01*
D55*
X131650000Y-122500000D02*
X131150000Y-123000000D01*
D54*
X139897283Y-115200000D02*
X139397283Y-114700000D01*
X133350000Y-114700000D02*
X132500000Y-115550000D01*
D55*
%TO.N,/V-I2C*%
X125500000Y-126000000D02*
X130000000Y-126000000D01*
X133510000Y-122500000D02*
X133510000Y-123000000D01*
X131329999Y-126000000D02*
X133510000Y-123819999D01*
X133510000Y-123819999D02*
X133510000Y-123500000D01*
X133510000Y-123000000D02*
X133510000Y-123500000D01*
X130000000Y-126000000D02*
X131329999Y-126000000D01*
X134800000Y-123000000D02*
X133510000Y-123000000D01*
D54*
%TO.N,I2C-SDA*%
X140000000Y-115800000D02*
X139300000Y-115100000D01*
X133600000Y-115100000D02*
X133036000Y-115664000D01*
X144500000Y-110300000D02*
X144500000Y-110253776D01*
X133036000Y-122954000D02*
X132490000Y-123500000D01*
D55*
X125500000Y-124500000D02*
X130000000Y-124500000D01*
X131100000Y-124500000D02*
X132100000Y-123500000D01*
D54*
X141100000Y-115800000D02*
X140000000Y-115800000D01*
X133036000Y-115664000D02*
X133036000Y-122954000D01*
D55*
X130000000Y-124500000D02*
X131100000Y-124500000D01*
D54*
X144400000Y-109325001D02*
X143574999Y-108500000D01*
X144500000Y-110253776D02*
X144400000Y-110153776D01*
X139300000Y-115100000D02*
X133600000Y-115100000D01*
D55*
X132100000Y-123500000D02*
X132490000Y-123500000D01*
D54*
X144400000Y-110153776D02*
X144400000Y-109325001D01*
X143574999Y-108500000D02*
X142837500Y-108500000D01*
%TO.N,UART1-RX*%
X141100000Y-114400000D02*
X141700000Y-115000000D01*
X145400000Y-109000000D02*
X143900000Y-107500000D01*
X145400000Y-109500000D02*
X145400000Y-109000000D01*
X130000000Y-116000000D02*
X131318000Y-116000000D01*
X143900000Y-107500000D02*
X142837500Y-107500000D01*
X131318000Y-116000000D02*
X132918000Y-114400000D01*
X141700000Y-115000000D02*
X141700000Y-115100000D01*
X132918000Y-114400000D02*
X141100000Y-114400000D01*
%TO.N,UART1-TX*%
X146800000Y-108300000D02*
X146442000Y-107942000D01*
X132200000Y-114400000D02*
X132500000Y-114100000D01*
X146442000Y-107942000D02*
X146442000Y-107258000D01*
X146442000Y-107258000D02*
X146600000Y-107100000D01*
X132500000Y-114100000D02*
X141600000Y-114100000D01*
X146600000Y-106346224D02*
X146946224Y-106000000D01*
X149229999Y-107429999D02*
X150300000Y-108500000D01*
X146946224Y-106000000D02*
X147400000Y-106000000D01*
X148829999Y-107429999D02*
X149229999Y-107429999D01*
X141600000Y-114100000D02*
X142100000Y-114600000D01*
X130000000Y-114500000D02*
X130100000Y-114400000D01*
X146600000Y-107100000D02*
X146600000Y-106346224D01*
X150300000Y-108500000D02*
X151162500Y-108500000D01*
X130100000Y-114400000D02*
X132200000Y-114400000D01*
X147400000Y-106000000D02*
X148829999Y-107429999D01*
X142100000Y-114600000D02*
X142300000Y-114600000D01*
X146800000Y-109600000D02*
X146800000Y-108300000D01*
%TO.N,UART2-RX*%
X145858000Y-109689710D02*
X145858000Y-109310290D01*
X146341803Y-110741803D02*
X145799999Y-110199999D01*
X131000000Y-113800000D02*
X130909000Y-113709000D01*
X145799999Y-109747711D02*
X145858000Y-109689710D01*
X148112040Y-105288000D02*
X149388000Y-105288000D01*
X145799999Y-109252289D02*
X145800000Y-106592709D01*
X145800000Y-106211291D02*
X145800000Y-106157092D01*
X150221000Y-106121000D02*
X150221000Y-106192644D01*
X145800999Y-106212290D02*
X145800000Y-106211291D01*
X130909000Y-113709000D02*
X128791000Y-113709000D01*
X145799999Y-110199999D02*
X145799999Y-109747711D01*
X142150000Y-113800000D02*
X131000000Y-113800000D01*
X142417000Y-114067000D02*
X142150000Y-113800000D01*
X150221000Y-106192644D02*
X150528356Y-106500000D01*
X145800000Y-106157092D02*
X146494094Y-105462998D01*
X146494094Y-105462998D02*
X146694094Y-105462998D01*
X150528356Y-106500000D02*
X151162500Y-106500000D01*
X145800000Y-106592709D02*
X145800999Y-106591710D01*
X146694094Y-105462998D02*
X146748092Y-105409000D01*
X147106763Y-110741803D02*
X146341803Y-110741803D01*
X126500000Y-116000000D02*
X125500000Y-116000000D01*
X142900000Y-114100000D02*
X142867000Y-114067000D01*
X146748092Y-105409000D02*
X147991040Y-105409000D01*
X145858000Y-109310290D02*
X145799999Y-109252289D01*
X149388000Y-105288000D02*
X150221000Y-106121000D01*
X142867000Y-114067000D02*
X142417000Y-114067000D01*
X128791000Y-113709000D02*
X126500000Y-116000000D01*
X147991040Y-105409000D02*
X148112040Y-105288000D01*
X145800999Y-106591710D02*
X145800999Y-106212290D01*
%TO.N,UART2-TX*%
X147618736Y-110500000D02*
X147327539Y-110208803D01*
X146163000Y-109963000D02*
X146163000Y-106188658D01*
X149253776Y-105800000D02*
X149328356Y-105800000D01*
X142700000Y-113300000D02*
X142570001Y-113429999D01*
X147900000Y-110600000D02*
X147800000Y-110500000D01*
X146863658Y-105688000D02*
X148458224Y-105688000D01*
X148458224Y-105688000D02*
X148579224Y-105567000D01*
X150528356Y-107000000D02*
X151162500Y-107000000D01*
X146408803Y-110208803D02*
X146163000Y-109963000D01*
X146163000Y-106188658D02*
X146609659Y-105741999D01*
X147800000Y-110500000D02*
X147618736Y-110500000D01*
X149328356Y-105800000D02*
X150528356Y-107000000D01*
X127770001Y-113429999D02*
X126700000Y-114500000D01*
X149020776Y-105567000D02*
X149253776Y-105800000D01*
X126700000Y-114500000D02*
X125500000Y-114500000D01*
X142570001Y-113429999D02*
X127770001Y-113429999D01*
X148579224Y-105567000D02*
X149020776Y-105567000D01*
X146609659Y-105741999D02*
X146809659Y-105741999D01*
X147327539Y-110208803D02*
X146408803Y-110208803D01*
X146809659Y-105741999D02*
X146863658Y-105688000D01*
D52*
%TO.N,Net-(J5-Pin_1)*%
X129600000Y-90150000D02*
X129600000Y-91087500D01*
D56*
X125330000Y-92475000D02*
X126117500Y-91687500D01*
D52*
X130600000Y-91790000D02*
X129102500Y-91790000D01*
X129600000Y-91087500D02*
X129000000Y-91687500D01*
D56*
X126117500Y-91687500D02*
X129000000Y-91687500D01*
D52*
X129102500Y-91790000D02*
X129000000Y-91687500D01*
%TO.N,/Driver0/OUTP*%
X136168592Y-81331408D02*
X135631408Y-81331408D01*
D56*
X135500000Y-80100000D02*
X135500000Y-78014688D01*
D52*
X136950000Y-80550000D02*
X136168592Y-81331408D01*
X135500000Y-81200000D02*
X135500000Y-80587500D01*
X137150000Y-80550000D02*
X136950000Y-80550000D01*
D56*
X136029000Y-77485688D02*
X136029000Y-76500000D01*
X135500000Y-78014688D02*
X136029000Y-77485688D01*
D52*
X135631408Y-81331408D02*
X135500000Y-81200000D01*
%TO.N,POT0*%
X142750000Y-80600000D02*
X139000000Y-76850000D01*
X142750000Y-89350000D02*
X142750000Y-80600000D01*
X144374000Y-90974000D02*
X142750000Y-89350000D01*
X145115000Y-97865000D02*
X144374000Y-97124000D01*
X144374000Y-97124000D02*
X144374000Y-90974000D01*
X145115000Y-98975000D02*
X145115000Y-97865000D01*
X139000000Y-76850000D02*
X139000000Y-76500000D01*
D57*
%TO.N,/Driver0/OUTN*%
X134675000Y-83204000D02*
X133971000Y-82500000D01*
X135550000Y-83850000D02*
X135550000Y-83550000D01*
X135204000Y-83204000D02*
X134675000Y-83204000D01*
D56*
X133971000Y-77029000D02*
X133971000Y-82500000D01*
D57*
X135550000Y-83550000D02*
X135204000Y-83204000D01*
D56*
X134500000Y-76500000D02*
X133971000Y-77029000D01*
D52*
%TO.N,/Driver1/OUTP*%
X146168592Y-81331408D02*
X145631408Y-81331408D01*
X147150000Y-80550000D02*
X146950000Y-80550000D01*
X145500000Y-81200000D02*
X145500000Y-80587500D01*
X145631408Y-81331408D02*
X145500000Y-81200000D01*
D56*
X146029000Y-77485688D02*
X146029000Y-76500000D01*
D52*
X146950000Y-80550000D02*
X146168592Y-81331408D01*
D56*
X145500000Y-78014688D02*
X146029000Y-77485688D01*
X145500000Y-80100000D02*
X145500000Y-78014688D01*
D52*
%TO.N,POT1*%
X152500000Y-90400000D02*
X152500000Y-85250000D01*
X152116000Y-79966000D02*
X149000000Y-76850000D01*
X151000000Y-95500000D02*
X151000000Y-91900000D01*
X148850000Y-96400000D02*
X150100000Y-96400000D01*
X152500000Y-85250000D02*
X152116000Y-84866000D01*
X150100000Y-96400000D02*
X151000000Y-95500000D01*
X147655000Y-98975000D02*
X147655000Y-97595000D01*
X147655000Y-97595000D02*
X148850000Y-96400000D01*
X149000000Y-76850000D02*
X149000000Y-76500000D01*
X152116000Y-84866000D02*
X152116000Y-79966000D01*
X151000000Y-91900000D02*
X152500000Y-90400000D01*
D57*
%TO.N,/Driver1/OUTN*%
X145550000Y-83850000D02*
X145550000Y-83550000D01*
D56*
X143971000Y-77029000D02*
X144500000Y-76500000D01*
X143971000Y-77029000D02*
X143971000Y-82500000D01*
D57*
X144675000Y-83204000D02*
X143971000Y-82500000D01*
X145204000Y-83204000D02*
X144675000Y-83204000D01*
X145550000Y-83550000D02*
X145204000Y-83204000D01*
D52*
%TO.N,/Driver2/OUTP*%
X139368592Y-131668592D02*
X139500000Y-131800000D01*
X138050000Y-132450000D02*
X138831408Y-131668592D01*
D56*
X139500000Y-132900000D02*
X139500000Y-134985312D01*
D52*
X139500000Y-131800000D02*
X139500000Y-132412500D01*
X138831408Y-131668592D02*
X139368592Y-131668592D01*
D56*
X139000000Y-135485312D02*
X139000000Y-136500000D01*
D52*
X137850000Y-132450000D02*
X138050000Y-132450000D01*
D56*
X139500000Y-134985312D02*
X139000000Y-135485312D01*
D52*
%TO.N,POT2*%
X135283000Y-123200066D02*
X135227222Y-123255844D01*
X132500000Y-132500000D02*
X136000000Y-136000000D01*
X148925000Y-98975000D02*
X148925000Y-99575000D01*
X136000000Y-136000000D02*
X136000000Y-136500000D01*
X148925000Y-99575000D02*
X148200000Y-100300000D01*
X135158000Y-124131132D02*
X134831132Y-124458000D01*
X148200000Y-100300000D02*
X147589132Y-100300000D01*
X135227222Y-122744156D02*
X135283000Y-122799934D01*
X146568868Y-100858000D02*
X146310868Y-100600000D01*
X147031132Y-100858000D02*
X146568868Y-100858000D01*
X135158000Y-123442000D02*
X135158000Y-124131132D01*
X132500000Y-126200000D02*
X132500000Y-132500000D01*
X143465276Y-100600000D02*
X142465276Y-101600000D01*
X142465276Y-101600000D02*
X134400000Y-101600000D01*
X135227222Y-123255844D02*
X135227222Y-123372778D01*
X134242000Y-124458000D02*
X132500000Y-126200000D01*
X147589132Y-100300000D02*
X147031132Y-100858000D01*
X134400000Y-101600000D02*
X134250000Y-101750000D01*
X135283000Y-122799934D02*
X135283000Y-123200066D01*
X135227224Y-116522780D02*
X135227222Y-116522782D01*
X135227222Y-123372778D02*
X135158000Y-123442000D01*
X135227222Y-116522782D02*
X135227222Y-122744156D01*
X146310868Y-100600000D02*
X143465276Y-100600000D01*
X134831132Y-124458000D02*
X134242000Y-124458000D01*
D57*
%TO.N,/Driver2/OUTN*%
X139450000Y-129150000D02*
X139450000Y-129450000D01*
X140325000Y-129796000D02*
X141029000Y-130500000D01*
X139796000Y-129796000D02*
X140325000Y-129796000D01*
D56*
X140529000Y-136471000D02*
X140529000Y-136500000D01*
X141029000Y-135971000D02*
X140529000Y-136471000D01*
D57*
X139450000Y-129450000D02*
X139796000Y-129796000D01*
D56*
X141029000Y-135971000D02*
X141029000Y-130500000D01*
D57*
%TO.N,/Driver3/OUTN*%
X149450000Y-129450000D02*
X149796000Y-129796000D01*
D56*
X151029000Y-135971000D02*
X151029000Y-130500000D01*
X151029000Y-135971000D02*
X150500000Y-136500000D01*
D57*
X149796000Y-129796000D02*
X150325000Y-129796000D01*
X150325000Y-129796000D02*
X151029000Y-130500000D01*
X149450000Y-129150000D02*
X149450000Y-129450000D01*
D56*
%TO.N,/Driver3/OUTP*%
X148971000Y-135514312D02*
X148971000Y-136500000D01*
D52*
X149500000Y-131800000D02*
X149500000Y-132412500D01*
D56*
X149500000Y-132900000D02*
X149500000Y-134985312D01*
D52*
X147850000Y-132450000D02*
X148050000Y-132450000D01*
D56*
X149500000Y-134985312D02*
X148971000Y-135514312D01*
D52*
X148050000Y-132450000D02*
X148831408Y-131668592D01*
X149368592Y-131668592D02*
X149500000Y-131800000D01*
X148831408Y-131668592D02*
X149368592Y-131668592D01*
%TO.N,POT3*%
X135450000Y-101200000D02*
X142400000Y-101200000D01*
X137136184Y-117236184D02*
X141421000Y-121521000D01*
X135250000Y-101000000D02*
X135450000Y-101200000D01*
X143845000Y-99755000D02*
X143845000Y-98975000D01*
X142500000Y-132635000D02*
X146000000Y-136135000D01*
X141421000Y-121521000D02*
X141421000Y-123171000D01*
X142500000Y-124250000D02*
X142500000Y-132635000D01*
X146000000Y-136135000D02*
X146000000Y-136500000D01*
X141421000Y-123171000D02*
X142500000Y-124250000D01*
X136328041Y-117236184D02*
X137136184Y-117236184D01*
X142400000Y-101200000D02*
X143845000Y-99755000D01*
%TO.N,nRST*%
X147250000Y-112412500D02*
X147250000Y-113404274D01*
X146908000Y-114658000D02*
X147500000Y-115250000D01*
X148650000Y-115250000D02*
X149750000Y-116350000D01*
X149750000Y-116350000D02*
X149750000Y-118790000D01*
X146908000Y-113746274D02*
X146908000Y-114658000D01*
X147250000Y-113404274D02*
X146908000Y-113746274D01*
X147500000Y-115250000D02*
X148650000Y-115250000D01*
X149750000Y-118790000D02*
X151500000Y-120540000D01*
D54*
%TO.N,SWDIO*%
X145250000Y-104087500D02*
X145250000Y-103080370D01*
X145800000Y-102530370D02*
X145800000Y-102200000D01*
X150600000Y-117100000D02*
X150600000Y-112500000D01*
X145250000Y-103080370D02*
X145800000Y-102530370D01*
X145800000Y-102200000D02*
X145800000Y-101700000D01*
X150600000Y-112500000D02*
X150400000Y-112300000D01*
X151500000Y-118000000D02*
X150600000Y-117100000D01*
%TO.N,SWCLK*%
X144043000Y-105500000D02*
X144100000Y-105557000D01*
X142946000Y-119206370D02*
X146839630Y-123100000D01*
X151700000Y-123100000D02*
X152300000Y-122500000D01*
X143700000Y-114500000D02*
X142946000Y-115254000D01*
X152300000Y-117530000D02*
X151500000Y-116730000D01*
X152300000Y-122500000D02*
X152300000Y-117530000D01*
X142946000Y-115254000D02*
X142946000Y-119206370D01*
X142837500Y-105500000D02*
X144043000Y-105500000D01*
X146839630Y-123100000D02*
X151700000Y-123100000D01*
%TO.N,BOOT0*%
X142837500Y-109000000D02*
X143500000Y-109000000D01*
X150200000Y-117970000D02*
X151500000Y-119270000D01*
X143942000Y-110642000D02*
X144500000Y-111200000D01*
X144500000Y-111200000D02*
X147600000Y-111200000D01*
X143500000Y-109000000D02*
X143942000Y-109442000D01*
X143942000Y-109442000D02*
X143942000Y-110642000D01*
X150200000Y-115900000D02*
X150200000Y-117970000D01*
X149600000Y-115300000D02*
X150200000Y-115900000D01*
D52*
%TO.N,AI0*%
X141815000Y-84750000D02*
X140950000Y-84750000D01*
X141500000Y-84700000D02*
X141000000Y-84700000D01*
X143750000Y-91751999D02*
X142200000Y-90201999D01*
X142200000Y-90201999D02*
X142200000Y-85135000D01*
X142200000Y-85135000D02*
X141815000Y-84750000D01*
X150250000Y-92500000D02*
X150250000Y-92995001D01*
X150195000Y-93050001D02*
X150195000Y-94025000D01*
X141000000Y-84700000D02*
X140950000Y-84750000D01*
X150250000Y-92995001D02*
X150195000Y-93050001D01*
X143750000Y-92500000D02*
X143750000Y-91751999D01*
X141500000Y-81510000D02*
X141500000Y-84700000D01*
%TO.N,AI1*%
X152100000Y-90000000D02*
X150500000Y-91600000D01*
X150950000Y-84750000D02*
X151171000Y-84750000D01*
X150946002Y-84750000D02*
X150950000Y-84750000D01*
X145115000Y-93385000D02*
X145115000Y-94025000D01*
X150500000Y-91600000D02*
X148565276Y-91600000D01*
X146150000Y-92750000D02*
X146079000Y-92821000D01*
X152100000Y-85679000D02*
X152100000Y-90000000D01*
X146079000Y-92821000D02*
X145679000Y-92821000D01*
X151500000Y-84800000D02*
X151000000Y-84800000D01*
X145679000Y-92821000D02*
X145115000Y-93385000D01*
X151500000Y-81510000D02*
X151500000Y-84800000D01*
X151171000Y-84750000D02*
X152100000Y-85679000D01*
X147415276Y-92750000D02*
X146150000Y-92750000D01*
X151000000Y-84800000D02*
X150950000Y-84750000D01*
X148565276Y-91600000D02*
X147415276Y-92750000D01*
%TO.N,AI2*%
X135800000Y-99000000D02*
X137300000Y-97500000D01*
X137026852Y-116526852D02*
X142000000Y-121500000D01*
X137300000Y-97500000D02*
X143750000Y-97500000D01*
X148925000Y-94825000D02*
X148925000Y-94025000D01*
X142000000Y-121500000D02*
X142000000Y-123000000D01*
X142000000Y-123000000D02*
X142829000Y-123829000D01*
X145750000Y-97500000D02*
X146250000Y-97500000D01*
X142829000Y-127032998D02*
X144046002Y-128250000D01*
X143750000Y-128250000D02*
X144050000Y-128250000D01*
X144046002Y-128250000D02*
X144050000Y-128250000D01*
X143500000Y-131490000D02*
X143500000Y-128500000D01*
X136905000Y-116526852D02*
X137026852Y-116526852D01*
X143500000Y-128500000D02*
X143750000Y-128250000D01*
X142829000Y-123829000D02*
X142829000Y-127032998D01*
X146250000Y-97500000D02*
X148925000Y-94825000D01*
X135750000Y-99000000D02*
X135800000Y-99000000D01*
%TO.N,AI3*%
X145500000Y-96500000D02*
X146385000Y-95615000D01*
X134967408Y-124787000D02*
X134378276Y-124787000D01*
X132834000Y-126331276D02*
X132834000Y-127999000D01*
X135487000Y-124267408D02*
X134967408Y-124787000D01*
X134378276Y-124787000D02*
X132834000Y-126331276D01*
X145000000Y-96500000D02*
X145500000Y-96500000D01*
X143750000Y-96500000D02*
X141700000Y-96500000D01*
X133500000Y-131490000D02*
X133500000Y-128400000D01*
X146385000Y-95615000D02*
X146385000Y-94025000D01*
X134700000Y-98500000D02*
X134692000Y-98500000D01*
X136300000Y-96900000D02*
X134700000Y-98500000D01*
X135815100Y-116765470D02*
X135777627Y-116802943D01*
X141300000Y-96900000D02*
X136300000Y-96900000D01*
X133135000Y-128300000D02*
X134000000Y-128300000D01*
X135777627Y-116802943D02*
X135777627Y-123287649D01*
X134000000Y-128300000D02*
X134003998Y-128300000D01*
X135777627Y-123287649D02*
X135487000Y-123578276D01*
X135487000Y-123578276D02*
X135487000Y-124267408D01*
X132834000Y-127999000D02*
X133135000Y-128300000D01*
X141700000Y-96500000D02*
X141300000Y-96900000D01*
X133600000Y-128300000D02*
X134000000Y-128300000D01*
X133500000Y-128400000D02*
X133600000Y-128300000D01*
D57*
%TO.N,Net-(U1-OUT1)*%
X136050000Y-82962500D02*
X135500000Y-82412500D01*
D52*
X136304868Y-81660408D02*
X135632316Y-81660408D01*
X135632316Y-81660408D02*
X135500000Y-81792724D01*
X135500000Y-81792724D02*
X135500000Y-82412500D01*
D57*
X136050000Y-83850000D02*
X136050000Y-82962500D01*
D52*
X136765276Y-81200000D02*
X136304868Y-81660408D01*
X137150000Y-81200000D02*
X136765276Y-81200000D01*
D57*
%TO.N,Net-(U6-OUT1)*%
X146050000Y-83850000D02*
X146050000Y-82962500D01*
D52*
X145632316Y-81660408D02*
X145500000Y-81792724D01*
X145500000Y-81792724D02*
X145500000Y-82412500D01*
X147150000Y-81200000D02*
X146765276Y-81200000D01*
X146765276Y-81200000D02*
X146304868Y-81660408D01*
D57*
X146050000Y-82962500D02*
X145500000Y-82412500D01*
D52*
X146304868Y-81660408D02*
X145632316Y-81660408D01*
D57*
%TO.N,Net-(U8-OUT1)*%
X138950000Y-129150000D02*
X138950000Y-130037500D01*
D52*
X139500000Y-131207276D02*
X139500000Y-130587500D01*
D57*
X138950000Y-130037500D02*
X139500000Y-130587500D01*
D52*
X138234724Y-131800000D02*
X138695132Y-131339592D01*
X139367684Y-131339592D02*
X139500000Y-131207276D01*
X137850000Y-131800000D02*
X138234724Y-131800000D01*
X138695132Y-131339592D02*
X139367684Y-131339592D01*
%TO.N,Net-(U10-OUT1)*%
X147850000Y-131800000D02*
X148234724Y-131800000D01*
X149367684Y-131339592D02*
X149500000Y-131207276D01*
D57*
X148950000Y-129150000D02*
X148950000Y-130037500D01*
D52*
X148234724Y-131800000D02*
X148695132Y-131339592D01*
X149500000Y-131207276D02*
X149500000Y-130587500D01*
D57*
X148950000Y-130037500D02*
X149500000Y-130587500D01*
D52*
X148695132Y-131339592D02*
X149367684Y-131339592D01*
%TO.N,VSNS-BAT*%
X130590000Y-93800000D02*
X130590000Y-92820000D01*
D54*
X149312000Y-108463658D02*
X149312000Y-108712000D01*
X150100000Y-109500000D02*
X151162500Y-109500000D01*
X147987999Y-107987999D02*
X148836342Y-107988000D01*
X147700000Y-107700000D02*
X147987999Y-107987999D01*
X137000000Y-96000000D02*
X134276000Y-93276000D01*
X134276000Y-93276000D02*
X131114000Y-93276000D01*
X149312000Y-108712000D02*
X150100000Y-109500000D01*
X131114000Y-93276000D02*
X130590000Y-93800000D01*
D52*
X130590000Y-92820000D02*
X130600000Y-92810000D01*
D54*
X148836342Y-107988000D02*
X149312000Y-108463658D01*
X140900000Y-96000000D02*
X137000000Y-96000000D01*
%TO.N,D0-INN*%
X142533000Y-104833000D02*
X142800000Y-105100000D01*
X148096317Y-102974713D02*
X147750000Y-103321030D01*
D52*
X135221000Y-88590990D02*
X134963997Y-88847993D01*
X134963997Y-88847993D02*
X134963997Y-92000000D01*
X135221000Y-88590990D02*
X135221000Y-86170999D01*
D54*
X138200000Y-103857000D02*
X138436000Y-104093000D01*
D52*
X135050000Y-85999999D02*
X135050000Y-85750000D01*
D54*
X147750000Y-103321030D02*
X147750000Y-104087500D01*
X142119888Y-104093000D02*
X142533000Y-104506112D01*
X138436000Y-104093000D02*
X142119888Y-104093000D01*
D52*
X135221000Y-86170999D02*
X135050000Y-85999999D01*
D54*
X142533000Y-104506112D02*
X142533000Y-104833000D01*
X145602231Y-105100000D02*
X145709231Y-105207000D01*
X142800000Y-105100000D02*
X145602231Y-105100000D01*
%TO.N,D0-INP*%
X146385000Y-102405290D02*
X146056000Y-102734290D01*
D52*
X135550000Y-85750000D02*
X135550000Y-91950000D01*
D54*
X142900000Y-102500000D02*
X143200000Y-102500000D01*
X146385000Y-102010000D02*
X146385000Y-102405290D01*
X145970999Y-103072435D02*
X145970999Y-103092923D01*
D52*
X135550000Y-91950000D02*
X135600000Y-92000000D01*
D54*
X146056000Y-102987434D02*
X145970999Y-103072435D01*
X145755073Y-104082427D02*
X145750000Y-104087500D01*
X146056000Y-102734290D02*
X146056000Y-102987434D01*
X145755073Y-103308849D02*
X145755073Y-104082427D01*
X145970999Y-103092923D02*
X145755073Y-103308849D01*
X142808998Y-102591002D02*
X142900000Y-102500000D01*
X138500000Y-102900000D02*
X138808998Y-102591002D01*
X138808998Y-102591002D02*
X142808998Y-102591002D01*
D52*
%TO.N,D0-MODE*%
X136300000Y-88900000D02*
X136300000Y-92000000D01*
D54*
X140600000Y-102870002D02*
X142600000Y-102870002D01*
D52*
X135904000Y-88504000D02*
X135904000Y-85896000D01*
D54*
X149750000Y-104087500D02*
X149750000Y-102750000D01*
X142600000Y-102870002D02*
X142866001Y-103136003D01*
D52*
X135904000Y-88504000D02*
X136300000Y-88900000D01*
D54*
X142866001Y-103136003D02*
X143200000Y-103136003D01*
X139045367Y-103227220D02*
X139402585Y-102870002D01*
X139402585Y-102870002D02*
X140600000Y-102870002D01*
X149750000Y-102750000D02*
X149600000Y-102600000D01*
D52*
X135904000Y-85896000D02*
X136050000Y-85750000D01*
D54*
%TO.N,Net-(D1-K)*%
X123500000Y-88115000D02*
X123500000Y-86875000D01*
%TO.N,AI-SEL-B*%
X141305000Y-98975000D02*
X141400000Y-99070000D01*
X142196000Y-110000000D02*
X142837500Y-110000000D01*
X141372651Y-104695442D02*
X141100000Y-104968093D01*
X141100000Y-104968093D02*
X141100000Y-108904000D01*
X141100000Y-108904000D02*
X142196000Y-110000000D01*
X141400000Y-99070000D02*
X141400000Y-100700000D01*
%TO.N,D1-INP*%
X142937500Y-106100000D02*
X142837500Y-106000000D01*
X144900000Y-105557000D02*
X144900000Y-105557589D01*
X144900000Y-105557589D02*
X144357589Y-106100000D01*
X144357589Y-106100000D02*
X142937500Y-106100000D01*
D52*
X146023151Y-89123151D02*
X149594597Y-89123151D01*
X145550000Y-85750000D02*
X145550000Y-88650000D01*
X149594597Y-89123151D02*
X149882000Y-88835748D01*
X145550000Y-88650000D02*
X146023151Y-89123151D01*
D54*
%TO.N,D2-INN*%
X142688000Y-102312000D02*
X143817000Y-101183000D01*
X146593717Y-101441000D02*
X146842000Y-101689283D01*
D52*
X139950000Y-127000001D02*
X139950000Y-127250000D01*
X139779000Y-126829001D02*
X139950000Y-127000001D01*
X139779000Y-124421000D02*
X139779000Y-126829001D01*
D54*
X146971000Y-103232356D02*
X146750000Y-103453356D01*
X146069382Y-101183000D02*
X146327382Y-101441000D01*
X146327382Y-101441000D02*
X146593717Y-101441000D01*
X146750000Y-103453356D02*
X146750000Y-104087500D01*
X136968977Y-102312000D02*
X142688000Y-102312000D01*
X146842000Y-102389710D02*
X146971000Y-102518710D01*
X136598922Y-102682055D02*
X136968977Y-102312000D01*
D52*
X139779000Y-124421000D02*
X140100000Y-124100000D01*
D54*
X146842000Y-101689283D02*
X146842000Y-102389710D01*
D52*
X140100000Y-124100000D02*
X140100000Y-121000000D01*
D54*
X143817000Y-101183000D02*
X146069382Y-101183000D01*
X146971000Y-102518710D02*
X146971000Y-103232356D01*
%TO.N,D1-INN*%
X149000000Y-100500000D02*
X148600000Y-100900000D01*
X149700000Y-100500000D02*
X149000000Y-100500000D01*
D52*
X145221000Y-88786276D02*
X146034724Y-89600000D01*
D54*
X147250000Y-102250000D02*
X147250000Y-104087500D01*
D52*
X145050000Y-85750000D02*
X145050000Y-85999999D01*
D54*
X148100000Y-101957000D02*
X147543000Y-101957000D01*
D52*
X150109151Y-89600000D02*
X150257000Y-89452151D01*
X146034724Y-89600000D02*
X150109151Y-89600000D01*
X145221000Y-86170999D02*
X145221000Y-88786276D01*
X145050000Y-85999999D02*
X145221000Y-86170999D01*
D54*
X147543000Y-101957000D02*
X147250000Y-102250000D01*
X148600000Y-100900000D02*
X147900000Y-100900000D01*
%TO.N,Net-(D2-K)*%
X125000000Y-88115000D02*
X125000000Y-86875000D01*
%TO.N,D2-INP*%
X149793776Y-106693776D02*
X149200000Y-106100000D01*
X138700000Y-103700000D02*
X142300000Y-103700000D01*
X151162500Y-107500000D02*
X150528356Y-107500000D01*
X149793776Y-106765420D02*
X149793776Y-106693776D01*
X137735495Y-103400000D02*
X138400000Y-103400000D01*
X136227000Y-103197972D02*
X137533467Y-103197972D01*
X142300000Y-103700000D02*
X143100000Y-104500000D01*
D52*
X139450000Y-127250000D02*
X139450000Y-121013997D01*
X139450000Y-121013997D02*
X139436003Y-121000000D01*
D54*
X150528356Y-107500000D02*
X149793776Y-106765420D01*
X137533467Y-103197972D02*
X137735495Y-103400000D01*
X138400000Y-103400000D02*
X138700000Y-103700000D01*
X149200000Y-106100000D02*
X148800000Y-106100000D01*
%TO.N,Net-(U13-Y)*%
X147655000Y-94025000D02*
X147655000Y-95245000D01*
X152200000Y-110000000D02*
X151162500Y-110000000D01*
X147655000Y-95245000D02*
X147100000Y-95800000D01*
D52*
%TO.N,ISNS0*%
X139471000Y-82750000D02*
X139471000Y-91350000D01*
X139000000Y-82279000D02*
X139471000Y-82750000D01*
X139471000Y-92334000D02*
X139213000Y-92592000D01*
X138139132Y-81850000D02*
X138568132Y-82279000D01*
X139471000Y-91450000D02*
X139471000Y-92334000D01*
X137150000Y-81850000D02*
X138139132Y-81850000D01*
D54*
X139213000Y-92592000D02*
X139208000Y-92592000D01*
X148700000Y-109000000D02*
X148700000Y-112362500D01*
D52*
X139471000Y-91350000D02*
X139421000Y-91400000D01*
X139421000Y-91400000D02*
X139471000Y-91450000D01*
D54*
X148500000Y-108800000D02*
X148700000Y-109000000D01*
D52*
X138568132Y-82279000D02*
X139000000Y-82279000D01*
D54*
X148700000Y-112362500D02*
X148750000Y-112412500D01*
D52*
X139421000Y-91400000D02*
X139421000Y-91421000D01*
D54*
X139208000Y-92592000D02*
X139100000Y-92700000D01*
%TO.N,Net-(U13-X)*%
X146385000Y-99885000D02*
X146385000Y-98975000D01*
X146800000Y-100300000D02*
X146385000Y-99885000D01*
X152000000Y-110500000D02*
X152300000Y-110800000D01*
X151162500Y-110500000D02*
X152000000Y-110500000D01*
D52*
%TO.N,ISNS2*%
X138600000Y-119500000D02*
X138329000Y-119500000D01*
X135638842Y-125046118D02*
X135638842Y-129927974D01*
X138329000Y-119536276D02*
X137029000Y-120836276D01*
D54*
X149400000Y-111428356D02*
X149604000Y-111632356D01*
D52*
X135638842Y-129927974D02*
X136860868Y-131150000D01*
X136147914Y-124537046D02*
X135638842Y-125046118D01*
X136860868Y-131150000D02*
X137850000Y-131150000D01*
D54*
X149604000Y-112266500D02*
X149750000Y-112412500D01*
D52*
X136147914Y-123847914D02*
X136147914Y-124537046D01*
X137029000Y-122966828D02*
X136147914Y-123847914D01*
D54*
X149400000Y-110100000D02*
X149400000Y-111428356D01*
X149600000Y-109900000D02*
X149400000Y-110100000D01*
D52*
X138329000Y-119500000D02*
X138329000Y-119536276D01*
D54*
X149604000Y-111632356D02*
X149604000Y-112266500D01*
D52*
X137029000Y-120836276D02*
X137029000Y-122966828D01*
D54*
%TO.N,ISNS1*%
X147467000Y-108267000D02*
X148720776Y-108267000D01*
D52*
X145679000Y-91921000D02*
X146913724Y-91921000D01*
D54*
X149029001Y-109024775D02*
X149029000Y-111557356D01*
X149033000Y-109020776D02*
X149029001Y-109024775D01*
D52*
X148568132Y-82279000D02*
X148139132Y-81850000D01*
X148534724Y-90300000D02*
X150092217Y-90300000D01*
X145600000Y-92000000D02*
X145679000Y-91921000D01*
X150740000Y-88340000D02*
X149421000Y-87021000D01*
D54*
X149104000Y-111632356D02*
X149104000Y-112266500D01*
X148720776Y-108267000D02*
X149033000Y-108579224D01*
D52*
X146913724Y-91921000D02*
X148534724Y-90300000D01*
X150092217Y-90300000D02*
X150740000Y-89652217D01*
D54*
X149033000Y-108579224D02*
X149033000Y-109020776D01*
D52*
X149421000Y-87021000D02*
X149421000Y-82686276D01*
X150740000Y-89652217D02*
X150740000Y-88340000D01*
D54*
X149104000Y-112266500D02*
X149250000Y-112412500D01*
D52*
X149013724Y-82279000D02*
X148568132Y-82279000D01*
X149421000Y-82686276D02*
X149013724Y-82279000D01*
D54*
X146900000Y-107700000D02*
X147467000Y-108267000D01*
X146900000Y-107600000D02*
X146900000Y-107700000D01*
X149029000Y-111557356D02*
X149104000Y-111632356D01*
D52*
X148139132Y-81850000D02*
X147150000Y-81850000D01*
%TO.N,D3-MODE*%
X149121000Y-124310132D02*
X149121000Y-126915024D01*
D54*
X146432526Y-105130000D02*
X147875474Y-105130000D01*
X145342999Y-106402000D02*
X145521000Y-106223999D01*
D52*
X149121000Y-126915024D02*
X149096000Y-126940024D01*
X148842000Y-124031132D02*
X149121000Y-124310132D01*
X149096000Y-126940024D02*
X149096000Y-127104000D01*
D54*
X145521000Y-106041526D02*
X146432526Y-105130000D01*
X148250000Y-104755474D02*
X148250000Y-104087500D01*
D52*
X149096000Y-127104000D02*
X148950000Y-127250000D01*
X148763997Y-123800000D02*
X148842000Y-123878003D01*
D54*
X145521000Y-106223999D02*
X145521000Y-106041526D01*
D52*
X148842000Y-123878003D02*
X148842000Y-124031132D01*
D54*
X147875474Y-105130000D02*
X148250000Y-104755474D01*
%TO.N,D2-MODE*%
X143701435Y-100903999D02*
X146184948Y-100904000D01*
X135948000Y-102250000D02*
X136165000Y-102033000D01*
X142572434Y-102033000D02*
X143701435Y-100903999D01*
X147200000Y-101400000D02*
X148300000Y-101400000D01*
X146962000Y-101162000D02*
X147200000Y-101400000D01*
D52*
X139121000Y-124510132D02*
X138800000Y-124189132D01*
X139121000Y-126915024D02*
X139121000Y-124510132D01*
D54*
X148750000Y-101850000D02*
X148750000Y-104087500D01*
X136165000Y-102033000D02*
X142572434Y-102033000D01*
D52*
X139096000Y-127104000D02*
X139096000Y-126940024D01*
D54*
X146442948Y-101162000D02*
X146962000Y-101162000D01*
D52*
X139096000Y-126940024D02*
X139121000Y-126915024D01*
D54*
X148300000Y-101400000D02*
X148750000Y-101850000D01*
D52*
X138950000Y-127250000D02*
X139096000Y-127104000D01*
X138800000Y-124189132D02*
X138800000Y-121000000D01*
D54*
X146184948Y-100904000D02*
X146442948Y-101162000D01*
%TO.N,Net-(D3-K)*%
X126500000Y-88115000D02*
X126500000Y-86875000D01*
%TO.N,AI-SEL-A*%
X142000000Y-104800000D02*
X142000000Y-105000000D01*
X142000000Y-105000000D02*
X141379000Y-105621000D01*
X142575000Y-100225000D02*
X142575000Y-98975000D01*
X142100000Y-100700000D02*
X142575000Y-100225000D01*
X142090566Y-109500000D02*
X142837500Y-109500000D01*
X141379000Y-105621000D02*
X141379000Y-108788434D01*
X141379000Y-108788434D02*
X142090566Y-109500000D01*
D52*
%TO.N,ISNS3*%
X139646297Y-117750000D02*
X139507647Y-117611350D01*
X140121000Y-117921000D02*
X139950000Y-117750000D01*
D54*
X149900000Y-111000000D02*
X151162500Y-111000000D01*
D52*
X146860868Y-131150000D02*
X145545000Y-129834132D01*
X139950000Y-117750000D02*
X139646297Y-117750000D01*
X140386276Y-117921000D02*
X140121000Y-117921000D01*
X145545000Y-123079724D02*
X140386276Y-117921000D01*
X147850000Y-131150000D02*
X146860868Y-131150000D01*
X145545000Y-129834132D02*
X145545000Y-123079724D01*
D54*
%TO.N,D3-INN*%
X146250000Y-103188000D02*
X146250000Y-104087500D01*
D52*
X150036003Y-123963997D02*
X149779000Y-124221000D01*
X150036003Y-123800000D02*
X150036003Y-123963997D01*
X149779000Y-124221000D02*
X149779000Y-126829001D01*
X149950000Y-127000001D02*
X149950000Y-127250000D01*
X149779000Y-126829001D02*
X149950000Y-127000001D01*
D54*
X146514000Y-102924000D02*
X146250000Y-103188000D01*
D52*
%TO.N,D1-MODE*%
X145879000Y-86084976D02*
X145879000Y-88513724D01*
X145879000Y-88513724D02*
X146065276Y-88700000D01*
X148800000Y-88700000D02*
X149300000Y-88200000D01*
D54*
X149067000Y-101433000D02*
X149542000Y-100958000D01*
D52*
X146065276Y-88700000D02*
X148800000Y-88700000D01*
D54*
X149250000Y-104087500D02*
X149250000Y-103003776D01*
D52*
X145904000Y-86059976D02*
X145879000Y-86084976D01*
D54*
X150142000Y-100958000D02*
X150200000Y-100900000D01*
X149067000Y-102820776D02*
X149067000Y-101433000D01*
D52*
X145904000Y-85896000D02*
X145904000Y-86059976D01*
D54*
X149250000Y-103003776D02*
X149067000Y-102820776D01*
X149542000Y-100958000D02*
X150142000Y-100958000D01*
D52*
X146050000Y-85750000D02*
X145904000Y-85896000D01*
X149300000Y-88200000D02*
X149900000Y-88200000D01*
D54*
%TO.N,ISNS-BAT*%
X130250000Y-90636840D02*
X130250000Y-90150000D01*
X132513160Y-92900000D02*
X130250000Y-90636840D01*
X137363997Y-95363997D02*
X134900000Y-92900000D01*
X147200000Y-106500000D02*
X147294566Y-106500000D01*
X148503565Y-107708999D02*
X148958999Y-107708999D01*
X148958999Y-107708999D02*
X150250000Y-109000000D01*
X134900000Y-92900000D02*
X132513160Y-92900000D01*
X140900000Y-95363997D02*
X140796997Y-95467000D01*
X140693994Y-95363997D02*
X137363997Y-95363997D01*
X147294566Y-106500000D02*
X148503565Y-107708999D01*
X150250000Y-109000000D02*
X151162500Y-109000000D01*
X140796997Y-95467000D02*
X140693994Y-95363997D01*
%TO.N,D3-INP*%
X144707007Y-106398292D02*
X144605299Y-106500000D01*
D52*
X149400000Y-123800000D02*
X149450000Y-123850000D01*
X149450000Y-123850000D02*
X149450000Y-127250000D01*
D54*
X144605299Y-106500000D02*
X142837500Y-106500000D01*
%TO.N,LED3*%
X145750000Y-112412500D02*
X145750000Y-114500000D01*
X133000000Y-90500000D02*
X131700000Y-89200000D01*
X141467762Y-117282238D02*
X139826245Y-117282238D01*
X141500000Y-117250000D02*
X141467762Y-117282238D01*
X138794007Y-116250000D02*
X138500000Y-116250000D01*
X129925000Y-85125000D02*
X126500000Y-85125000D01*
X134099743Y-92065801D02*
X133991973Y-92173571D01*
X133991973Y-92173571D02*
X133173571Y-92173571D01*
X133173571Y-92173571D02*
X133000000Y-92000000D01*
X145750000Y-114500000D02*
X145500000Y-114750000D01*
X138500000Y-116250000D02*
X138377001Y-116250000D01*
X131700000Y-86900000D02*
X129925000Y-85125000D01*
X133000000Y-92000000D02*
X133000000Y-90500000D01*
X131700000Y-89200000D02*
X131700000Y-86900000D01*
X139826245Y-117282238D02*
X138794007Y-116250000D01*
%TO.N,LED1*%
X134318442Y-115500000D02*
X139250000Y-115500000D01*
X144750000Y-112412500D02*
X144750000Y-113887872D01*
X131250000Y-87102290D02*
X129897710Y-85750000D01*
X129897710Y-85750000D02*
X127550000Y-85750000D01*
X132452011Y-91797989D02*
X132452011Y-91452011D01*
X124375000Y-86000000D02*
X123500000Y-85125000D01*
X144750000Y-113887872D02*
X144311768Y-114326104D01*
X139250000Y-115500000D02*
X140007000Y-116257000D01*
X127300000Y-86000000D02*
X124375000Y-86000000D01*
X131250000Y-90250000D02*
X131250000Y-87102290D01*
X140007000Y-116257000D02*
X140500000Y-116257000D01*
X132452011Y-91452011D02*
X131250000Y-90250000D01*
X127550000Y-85750000D02*
X127300000Y-86000000D01*
X134261442Y-115557000D02*
X134318442Y-115500000D01*
%TO.N,LED2*%
X145250000Y-112412500D02*
X145250000Y-114034169D01*
X133568858Y-91715571D02*
X133568858Y-89818858D01*
X133568858Y-89818858D02*
X132250000Y-88500000D01*
X132250000Y-86750000D02*
X129896000Y-84396000D01*
X138566711Y-115792000D02*
X138187291Y-115792000D01*
X139077717Y-115900000D02*
X138674711Y-115900000D01*
X129896000Y-84396000D02*
X125729000Y-84396000D01*
X138079291Y-115900000D02*
X134850000Y-115900000D01*
X145250000Y-114034169D02*
X145014924Y-114269245D01*
X138187291Y-115792000D02*
X138079291Y-115900000D01*
X140787646Y-116824238D02*
X140001955Y-116824238D01*
X134850000Y-115900000D02*
X134750000Y-116000000D01*
X138674711Y-115900000D02*
X138566711Y-115792000D01*
X140001955Y-116824238D02*
X139077717Y-115900000D01*
X125729000Y-84396000D02*
X125000000Y-85125000D01*
X132250000Y-88500000D02*
X132250000Y-86750000D01*
%TD*%
%TA.AperFunction,Conductor*%
%TO.N,+5V*%
G36*
X125767421Y-103019685D02*
G01*
X125813176Y-103072489D01*
X125823120Y-103141647D01*
X125822000Y-103148190D01*
X125801198Y-103252772D01*
X125801197Y-103252771D01*
X125799500Y-103261303D01*
X125799500Y-103465149D01*
X125790061Y-103512601D01*
X125764314Y-103574760D01*
X125764313Y-103574764D01*
X125749500Y-103687272D01*
X125749500Y-105012727D01*
X125759779Y-105090797D01*
X125764313Y-105125236D01*
X125822302Y-105265233D01*
X125914549Y-105385451D01*
X126034767Y-105477698D01*
X126174764Y-105535687D01*
X126287280Y-105550500D01*
X126287287Y-105550500D01*
X127112713Y-105550500D01*
X127112720Y-105550500D01*
X127225236Y-105535687D01*
X127365233Y-105477698D01*
X127485451Y-105385451D01*
X127577698Y-105265233D01*
X127635687Y-105125236D01*
X127650500Y-105012720D01*
X127650500Y-103724361D01*
X127670185Y-103657322D01*
X127686819Y-103636680D01*
X128287180Y-103036319D01*
X128348503Y-103002834D01*
X128374861Y-103000000D01*
X130559185Y-103000000D01*
X130626224Y-103019685D01*
X130671979Y-103072489D01*
X130681923Y-103141647D01*
X130652898Y-103205203D01*
X130634678Y-103222370D01*
X130514549Y-103314549D01*
X130473650Y-103367850D01*
X130422300Y-103434770D01*
X130364313Y-103574763D01*
X130364313Y-103574764D01*
X130349500Y-103687272D01*
X130349500Y-105012727D01*
X130359779Y-105090797D01*
X130364313Y-105125236D01*
X130422302Y-105265233D01*
X130514549Y-105385451D01*
X130634767Y-105477698D01*
X130774764Y-105535687D01*
X130887280Y-105550500D01*
X130887287Y-105550500D01*
X131712713Y-105550500D01*
X131712720Y-105550500D01*
X131825236Y-105535687D01*
X131965233Y-105477698D01*
X132085451Y-105385451D01*
X132177698Y-105265233D01*
X132235687Y-105125236D01*
X132235687Y-105125235D01*
X132235972Y-105124548D01*
X132248514Y-105108983D01*
X132256820Y-105090797D01*
X132269990Y-105082332D01*
X132279813Y-105070144D01*
X132298780Y-105063831D01*
X132315598Y-105053023D01*
X132343158Y-105049060D01*
X132346107Y-105048079D01*
X132350533Y-105048000D01*
X132376000Y-105048000D01*
X132443039Y-105067685D01*
X132488794Y-105120489D01*
X132500000Y-105172000D01*
X132500000Y-105500000D01*
X136755500Y-105500000D01*
X136822539Y-105519685D01*
X136868294Y-105572489D01*
X136879500Y-105624000D01*
X136879500Y-105694316D01*
X136885931Y-105743171D01*
X136935935Y-105850404D01*
X137002850Y-105917319D01*
X137036335Y-105978642D01*
X137031351Y-106048334D01*
X137002850Y-106092681D01*
X136935935Y-106159595D01*
X136885931Y-106266828D01*
X136879500Y-106315683D01*
X136879500Y-106664316D01*
X136885931Y-106713171D01*
X136935935Y-106820404D01*
X137027267Y-106911736D01*
X137024443Y-106914559D01*
X137055183Y-106953042D01*
X137062352Y-107022542D01*
X137030808Y-107084886D01*
X137027101Y-107088098D01*
X137027267Y-107088264D01*
X136935935Y-107179595D01*
X136885931Y-107286828D01*
X136879500Y-107335683D01*
X136879500Y-107670500D01*
X136859815Y-107737539D01*
X136807011Y-107783294D01*
X136755500Y-107794500D01*
X136123992Y-107794500D01*
X136080313Y-107799197D01*
X136028825Y-107810397D01*
X136018627Y-107812890D01*
X136018624Y-107812891D01*
X135937916Y-107855899D01*
X135937913Y-107855901D01*
X135885104Y-107901660D01*
X135867160Y-107919242D01*
X135867154Y-107919249D01*
X135822511Y-107999059D01*
X135822509Y-107999064D01*
X135802826Y-108066096D01*
X135794500Y-108124003D01*
X135794500Y-109304007D01*
X135799197Y-109347686D01*
X135810397Y-109399174D01*
X135812890Y-109409372D01*
X135812891Y-109409375D01*
X135855899Y-109490083D01*
X135855901Y-109490086D01*
X135901660Y-109542895D01*
X135919245Y-109560842D01*
X135919247Y-109560844D01*
X135919251Y-109560846D01*
X135999060Y-109605489D01*
X135999065Y-109605491D01*
X136034767Y-109615974D01*
X136052394Y-109627302D01*
X136072172Y-109634238D01*
X136085125Y-109648014D01*
X136090722Y-109651144D01*
X136091362Y-109652345D01*
X136093545Y-109653748D01*
X136097616Y-109658698D01*
X136099943Y-109661682D01*
X136101370Y-109665290D01*
X136104803Y-109668941D01*
X136106604Y-109671805D01*
X136104476Y-109673142D01*
X136110321Y-109687915D01*
X136123586Y-109712802D01*
X136125449Y-109724678D01*
X136129697Y-109764187D01*
X136140897Y-109815674D01*
X136143390Y-109825872D01*
X136143391Y-109825875D01*
X136186399Y-109906583D01*
X136186401Y-109906586D01*
X136232160Y-109959395D01*
X136249742Y-109977339D01*
X136249746Y-109977343D01*
X136249747Y-109977344D01*
X136249749Y-109977345D01*
X136329559Y-110021988D01*
X136329563Y-110021990D01*
X136396602Y-110041675D01*
X136454500Y-110050000D01*
X137540582Y-110050000D01*
X137607621Y-110069685D01*
X137633459Y-110091842D01*
X137655243Y-110116469D01*
X137655250Y-110116476D01*
X137671450Y-110132843D01*
X137705223Y-110151734D01*
X137751268Y-110177490D01*
X137818307Y-110197175D01*
X137876205Y-110205500D01*
X137876210Y-110205500D01*
X137880624Y-110205816D01*
X137880551Y-110206836D01*
X137943039Y-110225185D01*
X137988794Y-110277989D01*
X138000000Y-110329500D01*
X138000000Y-110670500D01*
X137980315Y-110737539D01*
X137927511Y-110783294D01*
X137878594Y-110793935D01*
X137878598Y-110794043D01*
X137878619Y-110794293D01*
X137878608Y-110794293D01*
X137878613Y-110794397D01*
X137876092Y-110794499D01*
X137842721Y-110797229D01*
X137842690Y-110797233D01*
X137802952Y-110803776D01*
X137802948Y-110803777D01*
X137718278Y-110838344D01*
X137661097Y-110878478D01*
X137661087Y-110878486D01*
X137620859Y-110916324D01*
X137558539Y-110947916D01*
X137535903Y-110950000D01*
X136454492Y-110950000D01*
X136410813Y-110954697D01*
X136359325Y-110965897D01*
X136349127Y-110968390D01*
X136349124Y-110968391D01*
X136268416Y-111011399D01*
X136268413Y-111011401D01*
X136215604Y-111057160D01*
X136197660Y-111074742D01*
X136197654Y-111074749D01*
X136153011Y-111154559D01*
X136153009Y-111154564D01*
X136133324Y-111221602D01*
X136125084Y-111278907D01*
X136096058Y-111342462D01*
X136037279Y-111380235D01*
X136030335Y-111382009D01*
X136030340Y-111382027D01*
X136018630Y-111384888D01*
X136018625Y-111384890D01*
X135937916Y-111427899D01*
X135937913Y-111427901D01*
X135885104Y-111473660D01*
X135867160Y-111491242D01*
X135867154Y-111491249D01*
X135822511Y-111571059D01*
X135822509Y-111571064D01*
X135802826Y-111638096D01*
X135794500Y-111696003D01*
X135794500Y-111876000D01*
X135774815Y-111943039D01*
X135722011Y-111988794D01*
X135670500Y-112000000D01*
X123124000Y-112000000D01*
X123056961Y-111980315D01*
X123011206Y-111927511D01*
X123000000Y-111876000D01*
X123000000Y-103124000D01*
X123019685Y-103056961D01*
X123072489Y-103011206D01*
X123124000Y-103000000D01*
X125700382Y-103000000D01*
X125767421Y-103019685D01*
G37*
%TD.AperFunction*%
%TD*%
%TA.AperFunction,Conductor*%
%TO.N,GND*%
G36*
X140443039Y-111019685D02*
G01*
X140488794Y-111072489D01*
X140500000Y-111124000D01*
X140500000Y-112876000D01*
X140480315Y-112943039D01*
X140427511Y-112988794D01*
X140376000Y-113000000D01*
X136124000Y-113000000D01*
X136056961Y-112980315D01*
X136011206Y-112927511D01*
X136000000Y-112876000D01*
X136000000Y-111696000D01*
X136019685Y-111628961D01*
X136072489Y-111583206D01*
X136121547Y-111572533D01*
X136121529Y-111572195D01*
X136123651Y-111572075D01*
X136124000Y-111572000D01*
X136125003Y-111572000D01*
X136125003Y-111571999D01*
X136170728Y-111566848D01*
X136253127Y-111527166D01*
X136310149Y-111455663D01*
X136330500Y-111366500D01*
X136330500Y-111279500D01*
X136350185Y-111212461D01*
X136402989Y-111166706D01*
X136454500Y-111155500D01*
X137600003Y-111155500D01*
X137600003Y-111155499D01*
X137645728Y-111150348D01*
X137728127Y-111110666D01*
X137779149Y-111046687D01*
X137836338Y-111006547D01*
X137876096Y-111000000D01*
X140376000Y-111000000D01*
X140443039Y-111019685D01*
G37*
%TD.AperFunction*%
%TD*%
%TA.AperFunction,Conductor*%
%TO.N,+3V3*%
G36*
X139112592Y-108016612D02*
G01*
X139124569Y-108023527D01*
X139240164Y-108054500D01*
X139240166Y-108054500D01*
X139359834Y-108054500D01*
X139359836Y-108054500D01*
X139475431Y-108023527D01*
X139487407Y-108016612D01*
X139549406Y-108000000D01*
X140376000Y-108000000D01*
X140443039Y-108019685D01*
X140488794Y-108072489D01*
X140500000Y-108124000D01*
X140500000Y-109876000D01*
X140480315Y-109943039D01*
X140427511Y-109988794D01*
X140376000Y-110000000D01*
X137876205Y-110000000D01*
X137809166Y-109980315D01*
X137764486Y-109929804D01*
X137760666Y-109921873D01*
X137689163Y-109864851D01*
X137600004Y-109844500D01*
X137600000Y-109844500D01*
X136454500Y-109844500D01*
X136387461Y-109824815D01*
X136341706Y-109772011D01*
X136330500Y-109720500D01*
X136330500Y-109633497D01*
X136330499Y-109633495D01*
X136325348Y-109587771D01*
X136285666Y-109505373D01*
X136214163Y-109448351D01*
X136125004Y-109428000D01*
X136125000Y-109428000D01*
X136124000Y-109428000D01*
X136123377Y-109427817D01*
X136118084Y-109427221D01*
X136118188Y-109426293D01*
X136056961Y-109408315D01*
X136011206Y-109355511D01*
X136000000Y-109304000D01*
X136000000Y-108124000D01*
X136019685Y-108056961D01*
X136072489Y-108011206D01*
X136124000Y-108000000D01*
X139050594Y-108000000D01*
X139112592Y-108016612D01*
G37*
%TD.AperFunction*%
%TD*%
%TA.AperFunction,Conductor*%
%TO.N,+BATT*%
G36*
X148384490Y-82519962D02*
G01*
X148452144Y-82559022D01*
X148528570Y-82579500D01*
X148827535Y-82579500D01*
X148846483Y-82584577D01*
X148866099Y-82584577D01*
X148883086Y-82594384D01*
X148902035Y-82599462D01*
X148932894Y-82623141D01*
X148956359Y-82646606D01*
X148994923Y-82713401D01*
X149000000Y-82751965D01*
X149000000Y-88013311D01*
X148980038Y-88087811D01*
X148956359Y-88118670D01*
X148719170Y-88355859D01*
X148652375Y-88394423D01*
X148613811Y-88399500D01*
X146328500Y-88399500D01*
X146254000Y-88379538D01*
X146199462Y-88325000D01*
X146179500Y-88250500D01*
X146179500Y-86323161D01*
X146199462Y-86248661D01*
X146254000Y-86194123D01*
X146328500Y-86174161D01*
X146370463Y-86182509D01*
X146370490Y-86182377D01*
X146384882Y-86185239D01*
X146384883Y-86185240D01*
X146461599Y-86200500D01*
X146638400Y-86200499D01*
X146715117Y-86185240D01*
X146730428Y-86175009D01*
X146803460Y-86150216D01*
X146879107Y-86165262D01*
X146884119Y-86167853D01*
X146903215Y-86178186D01*
X146945489Y-86220460D01*
X147014011Y-86260021D01*
X147090438Y-86280500D01*
X147092290Y-86280500D01*
X147109521Y-86289824D01*
X147125234Y-86304693D01*
X147143968Y-86315509D01*
X147143969Y-86315509D01*
X147231685Y-86403225D01*
X147300608Y-86435364D01*
X147345519Y-86467628D01*
X147356366Y-86479014D01*
X147359252Y-86484012D01*
X147359540Y-86484511D01*
X147403151Y-86528122D01*
X147404380Y-86529412D01*
X147422014Y-86561739D01*
X147440423Y-86593624D01*
X147440746Y-86596078D01*
X147441315Y-86597121D01*
X147441247Y-86599889D01*
X147445500Y-86632188D01*
X147445500Y-86659841D01*
X147476470Y-86775426D01*
X147476472Y-86775429D01*
X147536306Y-86879066D01*
X147536307Y-86879067D01*
X147536309Y-86879070D01*
X147620930Y-86963691D01*
X147724569Y-87023527D01*
X147724570Y-87023527D01*
X147724573Y-87023529D01*
X147840158Y-87054499D01*
X147840162Y-87054499D01*
X147840164Y-87054500D01*
X147840166Y-87054500D01*
X147959834Y-87054500D01*
X147959836Y-87054500D01*
X147959838Y-87054499D01*
X147959841Y-87054499D01*
X148075426Y-87023529D01*
X148075427Y-87023527D01*
X148075431Y-87023527D01*
X148179070Y-86963691D01*
X148263691Y-86879070D01*
X148323527Y-86775431D01*
X148323527Y-86775427D01*
X148323529Y-86775426D01*
X148354499Y-86659841D01*
X148354500Y-86659834D01*
X148354500Y-86540165D01*
X148354499Y-86540158D01*
X148323529Y-86424573D01*
X148323527Y-86424570D01*
X148323527Y-86424569D01*
X148263691Y-86320930D01*
X148179070Y-86236309D01*
X148179067Y-86236307D01*
X148171316Y-86230359D01*
X148173188Y-86227919D01*
X148130464Y-86185199D01*
X148110499Y-86110702D01*
X148110499Y-85800100D01*
X148103972Y-85750513D01*
X148053224Y-85641684D01*
X148016899Y-85605359D01*
X147978335Y-85538564D01*
X147978335Y-85461436D01*
X148016899Y-85394641D01*
X148016988Y-85394552D01*
X148053224Y-85358316D01*
X148103972Y-85249487D01*
X148110500Y-85199901D01*
X148110499Y-84840100D01*
X148103972Y-84790513D01*
X148087391Y-84754955D01*
X148064460Y-84705778D01*
X148050500Y-84642808D01*
X148050500Y-84457190D01*
X148064460Y-84394220D01*
X148103972Y-84309487D01*
X148110500Y-84259901D01*
X148110499Y-83900100D01*
X148103972Y-83850513D01*
X148053224Y-83741684D01*
X147968316Y-83656776D01*
X147968315Y-83656775D01*
X147859489Y-83606029D01*
X147859487Y-83606028D01*
X147859484Y-83606027D01*
X147859482Y-83606027D01*
X147809902Y-83599500D01*
X147390102Y-83599500D01*
X147390101Y-83599500D01*
X147390100Y-83599501D01*
X147365306Y-83602764D01*
X147340512Y-83606028D01*
X147231684Y-83656775D01*
X147146775Y-83741684D01*
X147096029Y-83850510D01*
X147096027Y-83850517D01*
X147089500Y-83900096D01*
X147089500Y-83900099D01*
X147089500Y-84075000D01*
X147089501Y-84200500D01*
X147069539Y-84275000D01*
X147015001Y-84329538D01*
X146940501Y-84349500D01*
X146920448Y-84349500D01*
X146845948Y-84329538D01*
X146796560Y-84283282D01*
X146780936Y-84259900D01*
X146744552Y-84205448D01*
X146678231Y-84161133D01*
X146678230Y-84161132D01*
X146619748Y-84149500D01*
X146526794Y-84149500D01*
X146452294Y-84129538D01*
X146397756Y-84075000D01*
X146377794Y-84000500D01*
X146382871Y-83961935D01*
X146399439Y-83900102D01*
X146400500Y-83896144D01*
X146400500Y-83161218D01*
X146420462Y-83086718D01*
X146444141Y-83055859D01*
X146956359Y-82543641D01*
X147023154Y-82505077D01*
X147061718Y-82500000D01*
X148309990Y-82500000D01*
X148384490Y-82519962D01*
G37*
%TD.AperFunction*%
%TD*%
%TA.AperFunction,Conductor*%
%TO.N,+BATT*%
G36*
X138384490Y-82519962D02*
G01*
X138452144Y-82559022D01*
X138528570Y-82579500D01*
X138813811Y-82579500D01*
X138832759Y-82584577D01*
X138852375Y-82584577D01*
X138869362Y-82594384D01*
X138888311Y-82599462D01*
X138919170Y-82623141D01*
X138956359Y-82660330D01*
X138994923Y-82727125D01*
X139000000Y-82765689D01*
X139000000Y-88351000D01*
X138980038Y-88425500D01*
X138925500Y-88480038D01*
X138851000Y-88500000D01*
X136386689Y-88500000D01*
X136312189Y-88480038D01*
X136281330Y-88456359D01*
X136248141Y-88423170D01*
X136209577Y-88356375D01*
X136204500Y-88317811D01*
X136204500Y-86330916D01*
X136224462Y-86256416D01*
X136279000Y-86201878D01*
X136353500Y-86181916D01*
X136382570Y-86184779D01*
X136384881Y-86185238D01*
X136384883Y-86185240D01*
X136461599Y-86200500D01*
X136638400Y-86200499D01*
X136715117Y-86185240D01*
X136730428Y-86175009D01*
X136803460Y-86150216D01*
X136879107Y-86165262D01*
X136884119Y-86167853D01*
X136903215Y-86178186D01*
X136945489Y-86220460D01*
X137014011Y-86260021D01*
X137090438Y-86280500D01*
X137092290Y-86280500D01*
X137109521Y-86289824D01*
X137125234Y-86304693D01*
X137143968Y-86315509D01*
X137143969Y-86315509D01*
X137231685Y-86403225D01*
X137300608Y-86435364D01*
X137345519Y-86467628D01*
X137356366Y-86479014D01*
X137359252Y-86484012D01*
X137359540Y-86484511D01*
X137403151Y-86528122D01*
X137404380Y-86529412D01*
X137422014Y-86561739D01*
X137440423Y-86593624D01*
X137440746Y-86596078D01*
X137441315Y-86597121D01*
X137441247Y-86599889D01*
X137445500Y-86632188D01*
X137445500Y-86659841D01*
X137476470Y-86775426D01*
X137476472Y-86775429D01*
X137536306Y-86879066D01*
X137536307Y-86879067D01*
X137536309Y-86879070D01*
X137620930Y-86963691D01*
X137724569Y-87023527D01*
X137724570Y-87023527D01*
X137724573Y-87023529D01*
X137840158Y-87054499D01*
X137840162Y-87054499D01*
X137840164Y-87054500D01*
X137840166Y-87054500D01*
X137959834Y-87054500D01*
X137959836Y-87054500D01*
X137959838Y-87054499D01*
X137959841Y-87054499D01*
X138075426Y-87023529D01*
X138075427Y-87023527D01*
X138075431Y-87023527D01*
X138179070Y-86963691D01*
X138263691Y-86879070D01*
X138323527Y-86775431D01*
X138323527Y-86775427D01*
X138323529Y-86775426D01*
X138354499Y-86659841D01*
X138354500Y-86659834D01*
X138354500Y-86540165D01*
X138354499Y-86540158D01*
X138323529Y-86424573D01*
X138323527Y-86424570D01*
X138323527Y-86424569D01*
X138282659Y-86353784D01*
X138263693Y-86320933D01*
X138263692Y-86320932D01*
X138263691Y-86320930D01*
X138179070Y-86236309D01*
X138179067Y-86236307D01*
X138171316Y-86230359D01*
X138173188Y-86227919D01*
X138130464Y-86185199D01*
X138110499Y-86110702D01*
X138110499Y-85800100D01*
X138103972Y-85750513D01*
X138053224Y-85641684D01*
X138016899Y-85605359D01*
X137978335Y-85538564D01*
X137978335Y-85461436D01*
X138016899Y-85394641D01*
X138016988Y-85394552D01*
X138053224Y-85358316D01*
X138103972Y-85249487D01*
X138110500Y-85199901D01*
X138110499Y-84840100D01*
X138103972Y-84790513D01*
X138087391Y-84754955D01*
X138064460Y-84705778D01*
X138050500Y-84642808D01*
X138050500Y-84457190D01*
X138064460Y-84394220D01*
X138103972Y-84309487D01*
X138110500Y-84259901D01*
X138110499Y-83900100D01*
X138103972Y-83850513D01*
X138053224Y-83741684D01*
X137968316Y-83656776D01*
X137968315Y-83656775D01*
X137859489Y-83606029D01*
X137859487Y-83606028D01*
X137859484Y-83606027D01*
X137859482Y-83606027D01*
X137809902Y-83599500D01*
X137390102Y-83599500D01*
X137390101Y-83599500D01*
X137390100Y-83599501D01*
X137365306Y-83602764D01*
X137340512Y-83606028D01*
X137231684Y-83656775D01*
X137146775Y-83741684D01*
X137096029Y-83850510D01*
X137096027Y-83850517D01*
X137089500Y-83900096D01*
X137089500Y-83900099D01*
X137089500Y-84075000D01*
X137089501Y-84200500D01*
X137069539Y-84275000D01*
X137015001Y-84329538D01*
X136940501Y-84349500D01*
X136920448Y-84349500D01*
X136845948Y-84329538D01*
X136796560Y-84283282D01*
X136780936Y-84259900D01*
X136744552Y-84205448D01*
X136678231Y-84161133D01*
X136678230Y-84161132D01*
X136619748Y-84149500D01*
X136526794Y-84149500D01*
X136452294Y-84129538D01*
X136397756Y-84075000D01*
X136377794Y-84000500D01*
X136382871Y-83961935D01*
X136399439Y-83900102D01*
X136400500Y-83896144D01*
X136400500Y-83161218D01*
X136420462Y-83086718D01*
X136444141Y-83055859D01*
X136956359Y-82543641D01*
X137023154Y-82505077D01*
X137061718Y-82500000D01*
X138309990Y-82500000D01*
X138384490Y-82519962D01*
G37*
%TD.AperFunction*%
%TD*%
%TA.AperFunction,Conductor*%
%TO.N,GND*%
G36*
X133205203Y-83072711D02*
G01*
X133227103Y-83097535D01*
X133232696Y-83105906D01*
X133232700Y-83105911D01*
X133365088Y-83238299D01*
X133365092Y-83238302D01*
X133520762Y-83342318D01*
X133520771Y-83342323D01*
X133538202Y-83349543D01*
X133693749Y-83413973D01*
X133870703Y-83449171D01*
X133877379Y-83450499D01*
X133877383Y-83450500D01*
X133877384Y-83450500D01*
X134064617Y-83450500D01*
X134064617Y-83450499D01*
X134241906Y-83415235D01*
X134311497Y-83421462D01*
X134353778Y-83449171D01*
X134354519Y-83449912D01*
X134354520Y-83449913D01*
X134429087Y-83524480D01*
X134520413Y-83577207D01*
X134622273Y-83604500D01*
X134986745Y-83604500D01*
X135016185Y-83613144D01*
X135046172Y-83619668D01*
X135051187Y-83623422D01*
X135053784Y-83624185D01*
X135074426Y-83640819D01*
X135113181Y-83679574D01*
X135146666Y-83740897D01*
X135149500Y-83767255D01*
X135149500Y-83902728D01*
X135170275Y-83980264D01*
X135174500Y-84012354D01*
X135174500Y-84074179D01*
X135180500Y-84119756D01*
X135180501Y-84119760D01*
X135227150Y-84219799D01*
X135305201Y-84297850D01*
X135405240Y-84344499D01*
X135405244Y-84344499D01*
X135410700Y-84346090D01*
X135469552Y-84383748D01*
X135498703Y-84447246D01*
X135500000Y-84465136D01*
X135500000Y-85134864D01*
X135494635Y-85153132D01*
X135494256Y-85172166D01*
X135484995Y-85185961D01*
X135480315Y-85201903D01*
X135465928Y-85214369D01*
X135455317Y-85230178D01*
X135435551Y-85240690D01*
X135427511Y-85247658D01*
X135425251Y-85248664D01*
X135411294Y-85254703D01*
X135405240Y-85255501D01*
X135350848Y-85280864D01*
X135349250Y-85281556D01*
X135316231Y-85285632D01*
X135283325Y-85290630D01*
X135281083Y-85289971D01*
X135279907Y-85290117D01*
X135277288Y-85288857D01*
X135247595Y-85280138D01*
X135194759Y-85255500D01*
X135149188Y-85249501D01*
X135149185Y-85249500D01*
X135149179Y-85249500D01*
X135149172Y-85249500D01*
X134950819Y-85249500D01*
X134905243Y-85255500D01*
X134905236Y-85255502D01*
X134805200Y-85302150D01*
X134727150Y-85380200D01*
X134680500Y-85480241D01*
X134674501Y-85525811D01*
X134674500Y-85525827D01*
X134674500Y-85974180D01*
X134680500Y-86019756D01*
X134680501Y-86019760D01*
X134703962Y-86070074D01*
X134711352Y-86090375D01*
X134723387Y-86135290D01*
X134769527Y-86215207D01*
X134769531Y-86215212D01*
X134834181Y-86279862D01*
X134867666Y-86341185D01*
X134870500Y-86367543D01*
X134870500Y-88376000D01*
X134850815Y-88443039D01*
X134798011Y-88488794D01*
X134746500Y-88500000D01*
X133124000Y-88500000D01*
X133056961Y-88480315D01*
X133011206Y-88427511D01*
X133000000Y-88376000D01*
X133000000Y-83166424D01*
X133019685Y-83099385D01*
X133072489Y-83053630D01*
X133141647Y-83043686D01*
X133205203Y-83072711D01*
G37*
%TD.AperFunction*%
%TA.AperFunction,Conductor*%
G36*
X138943039Y-78019685D02*
G01*
X138988794Y-78072489D01*
X139000000Y-78124000D01*
X139000000Y-79975500D01*
X138980315Y-80042539D01*
X138927511Y-80088294D01*
X138876000Y-80099500D01*
X138791739Y-80099500D01*
X138723608Y-80109426D01*
X138618514Y-80160803D01*
X138535803Y-80243514D01*
X138484426Y-80348608D01*
X138474500Y-80416739D01*
X138474500Y-80683260D01*
X138484426Y-80751391D01*
X138535803Y-80856485D01*
X138618514Y-80939196D01*
X138618515Y-80939196D01*
X138618517Y-80939198D01*
X138723607Y-80990573D01*
X138757673Y-80995536D01*
X138791739Y-81000500D01*
X138876000Y-81000500D01*
X138884685Y-81003050D01*
X138893647Y-81001762D01*
X138917687Y-81012740D01*
X138943039Y-81020185D01*
X138948966Y-81027025D01*
X138957203Y-81030787D01*
X138971492Y-81053021D01*
X138988794Y-81072989D01*
X138991081Y-81083503D01*
X138994977Y-81089565D01*
X139000000Y-81124500D01*
X139000000Y-81275500D01*
X138980315Y-81342539D01*
X138927511Y-81388294D01*
X138876000Y-81399500D01*
X138791739Y-81399500D01*
X138723608Y-81409426D01*
X138618514Y-81460803D01*
X138535801Y-81543516D01*
X138534154Y-81545824D01*
X138531093Y-81548224D01*
X138528536Y-81550782D01*
X138528226Y-81550472D01*
X138479179Y-81588945D01*
X138409617Y-81595498D01*
X138357750Y-81572144D01*
X138354340Y-81569527D01*
X138274422Y-81523387D01*
X138274421Y-81523386D01*
X138274420Y-81523386D01*
X138185276Y-81499500D01*
X138185275Y-81499500D01*
X137844655Y-81499500D01*
X137777616Y-81479815D01*
X137731861Y-81427011D01*
X137721917Y-81357853D01*
X137721950Y-81357624D01*
X137725064Y-81336252D01*
X137725500Y-81333260D01*
X137725500Y-81066740D01*
X137715573Y-80998607D01*
X137681768Y-80929458D01*
X137670010Y-80860587D01*
X137681769Y-80820540D01*
X137708817Y-80765212D01*
X137715573Y-80751393D01*
X137725500Y-80683260D01*
X137725500Y-80416740D01*
X137715573Y-80348607D01*
X137664198Y-80243517D01*
X137664196Y-80243515D01*
X137664196Y-80243514D01*
X137581485Y-80160803D01*
X137476391Y-80109426D01*
X137408261Y-80099500D01*
X137408260Y-80099500D01*
X136891740Y-80099500D01*
X136891739Y-80099500D01*
X136823608Y-80109426D01*
X136718514Y-80160803D01*
X136662181Y-80217137D01*
X136600858Y-80250622D01*
X136531166Y-80245638D01*
X136475233Y-80203766D01*
X136450816Y-80138302D01*
X136450500Y-80129456D01*
X136450500Y-78459760D01*
X136470185Y-78392721D01*
X136486819Y-78372079D01*
X136767299Y-78091599D01*
X136767302Y-78091596D01*
X136780069Y-78072489D01*
X136791682Y-78055110D01*
X136845294Y-78010304D01*
X136894784Y-78000000D01*
X138876000Y-78000000D01*
X138943039Y-78019685D01*
G37*
%TD.AperFunction*%
%TD*%
%TA.AperFunction,Conductor*%
%TO.N,GND*%
G36*
X143305703Y-83179360D02*
G01*
X143312181Y-83185392D01*
X143365088Y-83238299D01*
X143365092Y-83238302D01*
X143520762Y-83342318D01*
X143520771Y-83342323D01*
X143538202Y-83349543D01*
X143693749Y-83413973D01*
X143870703Y-83449171D01*
X143877379Y-83450499D01*
X143877383Y-83450500D01*
X143877384Y-83450500D01*
X144064617Y-83450500D01*
X144064617Y-83450499D01*
X144241906Y-83415235D01*
X144311497Y-83421462D01*
X144353778Y-83449171D01*
X144354519Y-83449912D01*
X144354520Y-83449913D01*
X144429087Y-83524480D01*
X144520413Y-83577207D01*
X144622273Y-83604500D01*
X144986745Y-83604500D01*
X145016185Y-83613144D01*
X145046172Y-83619668D01*
X145051187Y-83623422D01*
X145053784Y-83624185D01*
X145074426Y-83640819D01*
X145113181Y-83679574D01*
X145146666Y-83740897D01*
X145149500Y-83767255D01*
X145149500Y-83902728D01*
X145170275Y-83980264D01*
X145174500Y-84012354D01*
X145174500Y-84074179D01*
X145180500Y-84119756D01*
X145180501Y-84119760D01*
X145227150Y-84219799D01*
X145305201Y-84297850D01*
X145405240Y-84344499D01*
X145405244Y-84344499D01*
X145410700Y-84346090D01*
X145469552Y-84383748D01*
X145498703Y-84447246D01*
X145500000Y-84465136D01*
X145500000Y-85134864D01*
X145494635Y-85153132D01*
X145494256Y-85172166D01*
X145484995Y-85185961D01*
X145480315Y-85201903D01*
X145465928Y-85214369D01*
X145455317Y-85230178D01*
X145435551Y-85240690D01*
X145427511Y-85247658D01*
X145425251Y-85248664D01*
X145411294Y-85254703D01*
X145405240Y-85255501D01*
X145350848Y-85280864D01*
X145349250Y-85281556D01*
X145316231Y-85285632D01*
X145283325Y-85290630D01*
X145281083Y-85289971D01*
X145279907Y-85290117D01*
X145277288Y-85288857D01*
X145247595Y-85280138D01*
X145194759Y-85255500D01*
X145149188Y-85249501D01*
X145149185Y-85249500D01*
X145149179Y-85249500D01*
X145149172Y-85249500D01*
X144950819Y-85249500D01*
X144905243Y-85255500D01*
X144905236Y-85255502D01*
X144805200Y-85302150D01*
X144727150Y-85380200D01*
X144680500Y-85480241D01*
X144674501Y-85525811D01*
X144674500Y-85525827D01*
X144674500Y-85974180D01*
X144680500Y-86019756D01*
X144680501Y-86019760D01*
X144703962Y-86070074D01*
X144711352Y-86090375D01*
X144723387Y-86135290D01*
X144769527Y-86215207D01*
X144769531Y-86215212D01*
X144834181Y-86279862D01*
X144867666Y-86341185D01*
X144870500Y-86367543D01*
X144870500Y-88376000D01*
X144850815Y-88443039D01*
X144798011Y-88488794D01*
X144746500Y-88500000D01*
X143224500Y-88500000D01*
X143157461Y-88480315D01*
X143111706Y-88427511D01*
X143100500Y-88376000D01*
X143100500Y-83273073D01*
X143120185Y-83206034D01*
X143172989Y-83160279D01*
X143242147Y-83150335D01*
X143305703Y-83179360D01*
G37*
%TD.AperFunction*%
%TA.AperFunction,Conductor*%
G36*
X148943039Y-78019685D02*
G01*
X148988794Y-78072489D01*
X149000000Y-78124000D01*
X149000000Y-79975500D01*
X148980315Y-80042539D01*
X148927511Y-80088294D01*
X148876000Y-80099500D01*
X148791739Y-80099500D01*
X148723608Y-80109426D01*
X148618514Y-80160803D01*
X148535803Y-80243514D01*
X148484426Y-80348608D01*
X148474500Y-80416739D01*
X148474500Y-80683260D01*
X148484426Y-80751391D01*
X148535803Y-80856485D01*
X148618514Y-80939196D01*
X148618515Y-80939196D01*
X148618517Y-80939198D01*
X148723607Y-80990573D01*
X148757673Y-80995536D01*
X148791739Y-81000500D01*
X148876000Y-81000500D01*
X148884685Y-81003050D01*
X148893647Y-81001762D01*
X148917687Y-81012740D01*
X148943039Y-81020185D01*
X148948966Y-81027025D01*
X148957203Y-81030787D01*
X148971492Y-81053021D01*
X148988794Y-81072989D01*
X148991081Y-81083503D01*
X148994977Y-81089565D01*
X149000000Y-81124500D01*
X149000000Y-81275500D01*
X148980315Y-81342539D01*
X148927511Y-81388294D01*
X148876000Y-81399500D01*
X148791739Y-81399500D01*
X148723608Y-81409426D01*
X148618514Y-81460803D01*
X148535801Y-81543516D01*
X148534154Y-81545824D01*
X148531093Y-81548224D01*
X148528536Y-81550782D01*
X148528226Y-81550472D01*
X148479179Y-81588945D01*
X148409617Y-81595498D01*
X148357750Y-81572144D01*
X148354340Y-81569527D01*
X148274422Y-81523387D01*
X148274421Y-81523386D01*
X148274420Y-81523386D01*
X148185276Y-81499500D01*
X148185275Y-81499500D01*
X147844655Y-81499500D01*
X147777616Y-81479815D01*
X147731861Y-81427011D01*
X147721917Y-81357853D01*
X147721950Y-81357624D01*
X147725064Y-81336252D01*
X147725500Y-81333260D01*
X147725500Y-81066740D01*
X147715573Y-80998607D01*
X147681768Y-80929458D01*
X147670010Y-80860587D01*
X147681769Y-80820540D01*
X147708817Y-80765212D01*
X147715573Y-80751393D01*
X147725500Y-80683260D01*
X147725500Y-80416740D01*
X147715573Y-80348607D01*
X147664198Y-80243517D01*
X147664196Y-80243515D01*
X147664196Y-80243514D01*
X147581485Y-80160803D01*
X147476391Y-80109426D01*
X147408261Y-80099500D01*
X147408260Y-80099500D01*
X146891740Y-80099500D01*
X146891739Y-80099500D01*
X146823608Y-80109426D01*
X146718514Y-80160803D01*
X146662181Y-80217137D01*
X146600858Y-80250622D01*
X146531166Y-80245638D01*
X146475233Y-80203766D01*
X146450816Y-80138302D01*
X146450500Y-80129456D01*
X146450500Y-78459760D01*
X146470185Y-78392721D01*
X146486819Y-78372079D01*
X146767299Y-78091599D01*
X146767302Y-78091596D01*
X146780069Y-78072489D01*
X146791682Y-78055110D01*
X146845294Y-78010304D01*
X146894784Y-78000000D01*
X148876000Y-78000000D01*
X148943039Y-78019685D01*
G37*
%TD.AperFunction*%
%TD*%
%TA.AperFunction,Conductor*%
%TO.N,+BATT*%
G36*
X138698679Y-124519962D02*
G01*
X138729538Y-124543641D01*
X138776859Y-124590962D01*
X138815423Y-124657757D01*
X138820500Y-124696321D01*
X138820500Y-126676838D01*
X138800538Y-126751338D01*
X138746000Y-126805876D01*
X138671500Y-126825838D01*
X138629536Y-126817490D01*
X138629510Y-126817623D01*
X138615117Y-126814760D01*
X138538401Y-126799500D01*
X138538400Y-126799500D01*
X138361599Y-126799500D01*
X138284883Y-126814760D01*
X138269568Y-126824993D01*
X138196533Y-126849783D01*
X138120887Y-126834734D01*
X138115880Y-126832146D01*
X138096783Y-126821812D01*
X138054511Y-126779540D01*
X138050978Y-126777500D01*
X137985989Y-126739979D01*
X137909562Y-126719500D01*
X137907711Y-126719500D01*
X137890478Y-126710175D01*
X137874766Y-126695307D01*
X137856030Y-126684490D01*
X137768315Y-126596775D01*
X137699392Y-126564636D01*
X137654482Y-126532372D01*
X137643631Y-126520983D01*
X137640460Y-126515489D01*
X137596868Y-126471897D01*
X137595620Y-126470587D01*
X137577985Y-126438259D01*
X137559577Y-126406375D01*
X137559253Y-126403920D01*
X137558685Y-126402878D01*
X137558752Y-126400109D01*
X137554500Y-126367811D01*
X137554500Y-126340165D01*
X137554499Y-126340158D01*
X137523529Y-126224573D01*
X137523527Y-126224570D01*
X137523527Y-126224569D01*
X137463691Y-126120930D01*
X137379070Y-126036309D01*
X137379067Y-126036307D01*
X137379066Y-126036306D01*
X137275429Y-125976472D01*
X137275426Y-125976470D01*
X137159841Y-125945500D01*
X137159836Y-125945500D01*
X137040164Y-125945500D01*
X137040158Y-125945500D01*
X136924573Y-125976470D01*
X136924570Y-125976472D01*
X136820933Y-126036306D01*
X136736306Y-126120933D01*
X136676472Y-126224570D01*
X136676470Y-126224573D01*
X136645500Y-126340158D01*
X136645500Y-126459841D01*
X136676470Y-126575426D01*
X136676472Y-126575429D01*
X136736306Y-126679066D01*
X136736311Y-126679072D01*
X136820928Y-126763690D01*
X136828676Y-126769635D01*
X136826805Y-126772072D01*
X136869539Y-126814806D01*
X136889500Y-126889305D01*
X136889500Y-127199897D01*
X136889501Y-127199898D01*
X136896028Y-127249487D01*
X136946775Y-127358315D01*
X136983101Y-127394641D01*
X137021665Y-127461436D01*
X137021665Y-127538564D01*
X136983101Y-127605359D01*
X136946775Y-127641684D01*
X136896029Y-127750510D01*
X136896027Y-127750517D01*
X136889500Y-127800096D01*
X136889500Y-128159897D01*
X136889501Y-128159898D01*
X136896028Y-128209487D01*
X136935540Y-128294221D01*
X136949500Y-128357191D01*
X136949500Y-128542809D01*
X136935540Y-128605778D01*
X136896030Y-128690507D01*
X136896027Y-128690517D01*
X136889500Y-128740096D01*
X136889500Y-129099897D01*
X136889501Y-129099900D01*
X136890022Y-129103856D01*
X136896028Y-129149487D01*
X136946775Y-129258315D01*
X136946776Y-129258316D01*
X137031684Y-129343224D01*
X137140513Y-129393972D01*
X137190099Y-129400500D01*
X137609900Y-129400499D01*
X137659487Y-129393972D01*
X137768316Y-129343224D01*
X137853224Y-129258316D01*
X137903972Y-129149487D01*
X137910500Y-129099901D01*
X137910499Y-128799499D01*
X137930461Y-128725000D01*
X137984999Y-128670462D01*
X138059499Y-128650500D01*
X138079552Y-128650500D01*
X138154052Y-128670462D01*
X138203440Y-128716718D01*
X138211133Y-128728231D01*
X138255448Y-128794552D01*
X138321769Y-128838867D01*
X138380252Y-128850500D01*
X138473206Y-128850500D01*
X138547706Y-128870462D01*
X138602244Y-128925000D01*
X138622206Y-128999500D01*
X138617129Y-129038065D01*
X138599500Y-129103854D01*
X138599500Y-129838782D01*
X138579538Y-129913282D01*
X138555859Y-129944141D01*
X138043641Y-130456359D01*
X137976846Y-130494923D01*
X137938282Y-130500000D01*
X136697557Y-130500000D01*
X136623057Y-130480038D01*
X136592198Y-130456359D01*
X136043641Y-129907802D01*
X136005077Y-129841007D01*
X136000000Y-129802443D01*
X136000000Y-125171648D01*
X136019962Y-125097148D01*
X136043637Y-125066293D01*
X136388374Y-124721557D01*
X136427936Y-124653034D01*
X136439350Y-124610434D01*
X136477915Y-124543640D01*
X136544710Y-124505077D01*
X136583273Y-124500000D01*
X138624179Y-124500000D01*
X138698679Y-124519962D01*
G37*
%TD.AperFunction*%
%TD*%
%TA.AperFunction,Conductor*%
%TO.N,GND*%
G36*
X146642255Y-131427858D02*
G01*
X146645663Y-131430474D01*
X146725574Y-131476611D01*
X146725575Y-131476611D01*
X146725580Y-131476614D01*
X146814724Y-131500500D01*
X147155345Y-131500500D01*
X147222384Y-131520185D01*
X147268139Y-131572989D01*
X147278083Y-131642147D01*
X147278050Y-131642376D01*
X147274500Y-131666743D01*
X147274500Y-131933260D01*
X147284426Y-132001392D01*
X147284426Y-132001393D01*
X147318230Y-132070541D01*
X147329988Y-132139414D01*
X147318230Y-132179459D01*
X147284426Y-132248606D01*
X147284426Y-132248607D01*
X147274500Y-132316739D01*
X147274500Y-132583260D01*
X147284426Y-132651391D01*
X147335803Y-132756485D01*
X147418514Y-132839196D01*
X147418515Y-132839196D01*
X147418517Y-132839198D01*
X147523607Y-132890573D01*
X147557673Y-132895536D01*
X147591739Y-132900500D01*
X147591740Y-132900500D01*
X148108261Y-132900500D01*
X148130971Y-132897191D01*
X148176393Y-132890573D01*
X148281483Y-132839198D01*
X148281485Y-132839196D01*
X148337819Y-132782863D01*
X148399142Y-132749378D01*
X148468834Y-132754362D01*
X148524767Y-132796234D01*
X148549184Y-132861698D01*
X148549500Y-132870544D01*
X148549500Y-134540239D01*
X148529815Y-134607278D01*
X148513181Y-134627920D01*
X148232700Y-134908400D01*
X148232694Y-134908408D01*
X148208318Y-134944890D01*
X148154706Y-134989696D01*
X148105216Y-135000000D01*
X146124000Y-135000000D01*
X146056961Y-134980315D01*
X146011206Y-134927511D01*
X146000000Y-134876000D01*
X146000000Y-133024500D01*
X146019685Y-132957461D01*
X146072489Y-132911706D01*
X146124000Y-132900500D01*
X146208261Y-132900500D01*
X146230971Y-132897191D01*
X146276393Y-132890573D01*
X146381483Y-132839198D01*
X146464198Y-132756483D01*
X146515573Y-132651393D01*
X146525500Y-132583260D01*
X146525500Y-132316740D01*
X146515573Y-132248607D01*
X146464198Y-132143517D01*
X146464196Y-132143515D01*
X146464196Y-132143514D01*
X146381485Y-132060803D01*
X146276391Y-132009426D01*
X146208261Y-131999500D01*
X146208260Y-131999500D01*
X146124000Y-131999500D01*
X146115314Y-131996949D01*
X146106353Y-131998238D01*
X146082312Y-131987259D01*
X146056961Y-131979815D01*
X146051033Y-131972974D01*
X146042797Y-131969213D01*
X146028507Y-131946978D01*
X146011206Y-131927011D01*
X146008918Y-131916496D01*
X146005023Y-131910435D01*
X146000000Y-131875500D01*
X146000000Y-131724500D01*
X146019685Y-131657461D01*
X146072489Y-131611706D01*
X146124000Y-131600500D01*
X146208261Y-131600500D01*
X146230971Y-131597191D01*
X146276393Y-131590573D01*
X146381483Y-131539198D01*
X146464198Y-131456483D01*
X146464201Y-131456475D01*
X146465839Y-131454183D01*
X146468901Y-131451780D01*
X146471464Y-131449218D01*
X146471773Y-131449527D01*
X146520811Y-131411057D01*
X146590372Y-131404498D01*
X146642255Y-131427858D01*
G37*
%TD.AperFunction*%
%TA.AperFunction,Conductor*%
G36*
X151943039Y-124519685D02*
G01*
X151988794Y-124572489D01*
X152000000Y-124624000D01*
X152000000Y-129833575D01*
X151980315Y-129900614D01*
X151927511Y-129946369D01*
X151858353Y-129956313D01*
X151794797Y-129927288D01*
X151772899Y-129902468D01*
X151767301Y-129894090D01*
X151634911Y-129761700D01*
X151634907Y-129761697D01*
X151479237Y-129657681D01*
X151479228Y-129657676D01*
X151306251Y-129586027D01*
X151306243Y-129586025D01*
X151122620Y-129549500D01*
X151122616Y-129549500D01*
X150935384Y-129549500D01*
X150935379Y-129549500D01*
X150758093Y-129584764D01*
X150688501Y-129578537D01*
X150646221Y-129550828D01*
X150570915Y-129475522D01*
X150570913Y-129475520D01*
X150525250Y-129449156D01*
X150479589Y-129422793D01*
X150408330Y-129403700D01*
X150377727Y-129395500D01*
X150377726Y-129395500D01*
X150013255Y-129395500D01*
X149983814Y-129386855D01*
X149953828Y-129380332D01*
X149948812Y-129376577D01*
X149946216Y-129375815D01*
X149925574Y-129359181D01*
X149886819Y-129320426D01*
X149853334Y-129259103D01*
X149850500Y-129232745D01*
X149850500Y-129097275D01*
X149850500Y-129097273D01*
X149829724Y-129019735D01*
X149825499Y-128987642D01*
X149825499Y-128925819D01*
X149819499Y-128880243D01*
X149819499Y-128880240D01*
X149772850Y-128780201D01*
X149694799Y-128702150D01*
X149594760Y-128655501D01*
X149594758Y-128655500D01*
X149594757Y-128655500D01*
X149589293Y-128653907D01*
X149530443Y-128616245D01*
X149501296Y-128552745D01*
X149500000Y-128534863D01*
X149500000Y-127865135D01*
X149505363Y-127846869D01*
X149505743Y-127827834D01*
X149515004Y-127814036D01*
X149519685Y-127798096D01*
X149534071Y-127785629D01*
X149544683Y-127769821D01*
X149564446Y-127759310D01*
X149572489Y-127752341D01*
X149574749Y-127751336D01*
X149588704Y-127745296D01*
X149594760Y-127744499D01*
X149649164Y-127719129D01*
X149650749Y-127718444D01*
X149683752Y-127714369D01*
X149716671Y-127709369D01*
X149718913Y-127710027D01*
X149720092Y-127709882D01*
X149722714Y-127711143D01*
X149752401Y-127719859D01*
X149805240Y-127744499D01*
X149850821Y-127750500D01*
X150049178Y-127750499D01*
X150049180Y-127750499D01*
X150064372Y-127748499D01*
X150094760Y-127744499D01*
X150194799Y-127697850D01*
X150272850Y-127619799D01*
X150319499Y-127519760D01*
X150325500Y-127474179D01*
X150325499Y-127025822D01*
X150319499Y-126980240D01*
X150296039Y-126929930D01*
X150292102Y-126920489D01*
X150290123Y-126915132D01*
X150276614Y-126864713D01*
X150267695Y-126849265D01*
X150230470Y-126784789D01*
X150165819Y-126720138D01*
X150132334Y-126658815D01*
X150129500Y-126632457D01*
X150129500Y-124624000D01*
X150149185Y-124556961D01*
X150201989Y-124511206D01*
X150253500Y-124500000D01*
X151876000Y-124500000D01*
X151943039Y-124519685D01*
G37*
%TD.AperFunction*%
%TD*%
%TA.AperFunction,Conductor*%
%TO.N,+BATT*%
G36*
X148746000Y-124519962D02*
G01*
X148800538Y-124574500D01*
X148820500Y-124649000D01*
X148820500Y-126676838D01*
X148800538Y-126751338D01*
X148746000Y-126805876D01*
X148671500Y-126825838D01*
X148629536Y-126817490D01*
X148629510Y-126817623D01*
X148615117Y-126814760D01*
X148538401Y-126799500D01*
X148538400Y-126799500D01*
X148361599Y-126799500D01*
X148284883Y-126814760D01*
X148269568Y-126824993D01*
X148196533Y-126849783D01*
X148120887Y-126834734D01*
X148115880Y-126832146D01*
X148096783Y-126821812D01*
X148054511Y-126779540D01*
X148050978Y-126777500D01*
X147985989Y-126739979D01*
X147909562Y-126719500D01*
X147907711Y-126719500D01*
X147890478Y-126710175D01*
X147874766Y-126695307D01*
X147856030Y-126684490D01*
X147768315Y-126596775D01*
X147699392Y-126564636D01*
X147654482Y-126532372D01*
X147643631Y-126520983D01*
X147640460Y-126515489D01*
X147596868Y-126471897D01*
X147595620Y-126470587D01*
X147577985Y-126438259D01*
X147559577Y-126406375D01*
X147559253Y-126403920D01*
X147558685Y-126402878D01*
X147558752Y-126400109D01*
X147554500Y-126367811D01*
X147554500Y-126340165D01*
X147554499Y-126340158D01*
X147523529Y-126224573D01*
X147523527Y-126224570D01*
X147523527Y-126224569D01*
X147463691Y-126120930D01*
X147379070Y-126036309D01*
X147379067Y-126036307D01*
X147379066Y-126036306D01*
X147275429Y-125976472D01*
X147275426Y-125976470D01*
X147159841Y-125945500D01*
X147159836Y-125945500D01*
X147040164Y-125945500D01*
X147040158Y-125945500D01*
X146924573Y-125976470D01*
X146924570Y-125976472D01*
X146820933Y-126036306D01*
X146736306Y-126120933D01*
X146676472Y-126224570D01*
X146676470Y-126224573D01*
X146645500Y-126340158D01*
X146645500Y-126459841D01*
X146676470Y-126575426D01*
X146676472Y-126575429D01*
X146736306Y-126679066D01*
X146736311Y-126679072D01*
X146820928Y-126763690D01*
X146828676Y-126769635D01*
X146826805Y-126772072D01*
X146869539Y-126814806D01*
X146889500Y-126889305D01*
X146889500Y-127199897D01*
X146889501Y-127199898D01*
X146896028Y-127249487D01*
X146946775Y-127358315D01*
X146983101Y-127394641D01*
X147021665Y-127461436D01*
X147021665Y-127538564D01*
X146983101Y-127605359D01*
X146946775Y-127641684D01*
X146896029Y-127750510D01*
X146896027Y-127750517D01*
X146889500Y-127800096D01*
X146889500Y-128159897D01*
X146889501Y-128159898D01*
X146896028Y-128209487D01*
X146935540Y-128294221D01*
X146949500Y-128357191D01*
X146949500Y-128542809D01*
X146935540Y-128605778D01*
X146896030Y-128690507D01*
X146896027Y-128690517D01*
X146889500Y-128740096D01*
X146889500Y-129099897D01*
X146889501Y-129099900D01*
X146890022Y-129103856D01*
X146896028Y-129149487D01*
X146946775Y-129258315D01*
X146946776Y-129258316D01*
X147031684Y-129343224D01*
X147140513Y-129393972D01*
X147190099Y-129400500D01*
X147609900Y-129400499D01*
X147659487Y-129393972D01*
X147768316Y-129343224D01*
X147853224Y-129258316D01*
X147903972Y-129149487D01*
X147910500Y-129099901D01*
X147910499Y-128799499D01*
X147930461Y-128725000D01*
X147984999Y-128670462D01*
X148059499Y-128650500D01*
X148079552Y-128650500D01*
X148154052Y-128670462D01*
X148203440Y-128716718D01*
X148211133Y-128728231D01*
X148255448Y-128794552D01*
X148321769Y-128838867D01*
X148380252Y-128850500D01*
X148473206Y-128850500D01*
X148547706Y-128870462D01*
X148602244Y-128925000D01*
X148622206Y-128999500D01*
X148617129Y-129038065D01*
X148599500Y-129103854D01*
X148599500Y-129838782D01*
X148579538Y-129913282D01*
X148555859Y-129944141D01*
X148043641Y-130456359D01*
X147976846Y-130494923D01*
X147938282Y-130500000D01*
X146697557Y-130500000D01*
X146623057Y-130480038D01*
X146592198Y-130456359D01*
X146043641Y-129907802D01*
X146005077Y-129841007D01*
X146000000Y-129802443D01*
X146000000Y-124649000D01*
X146019962Y-124574500D01*
X146074500Y-124519962D01*
X146149000Y-124500000D01*
X148671500Y-124500000D01*
X148746000Y-124519962D01*
G37*
%TD.AperFunction*%
%TD*%
%TA.AperFunction,Conductor*%
%TO.N,GND*%
G36*
X136594365Y-131406297D02*
G01*
X136597830Y-131406185D01*
X136630392Y-131419801D01*
X136641818Y-131426632D01*
X136645656Y-131430470D01*
X136719989Y-131473386D01*
X136725580Y-131476614D01*
X136814724Y-131500500D01*
X136814725Y-131500500D01*
X136907012Y-131500500D01*
X137155345Y-131500500D01*
X137222384Y-131520185D01*
X137268139Y-131572989D01*
X137278083Y-131642147D01*
X137278050Y-131642376D01*
X137274500Y-131666743D01*
X137274500Y-131933260D01*
X137284426Y-132001392D01*
X137284426Y-132001393D01*
X137318230Y-132070541D01*
X137329988Y-132139414D01*
X137318230Y-132179459D01*
X137284426Y-132248606D01*
X137284426Y-132248607D01*
X137274500Y-132316739D01*
X137274500Y-132583260D01*
X137284426Y-132651391D01*
X137335803Y-132756485D01*
X137418514Y-132839196D01*
X137418515Y-132839196D01*
X137418517Y-132839198D01*
X137523607Y-132890573D01*
X137557673Y-132895536D01*
X137591739Y-132900500D01*
X137591740Y-132900500D01*
X138108261Y-132900500D01*
X138130971Y-132897191D01*
X138176393Y-132890573D01*
X138281483Y-132839198D01*
X138281485Y-132839196D01*
X138337819Y-132782863D01*
X138399142Y-132749378D01*
X138468834Y-132754362D01*
X138524767Y-132796234D01*
X138549184Y-132861698D01*
X138549500Y-132870544D01*
X138549500Y-134540239D01*
X138529815Y-134607278D01*
X138513181Y-134627920D01*
X138261700Y-134879400D01*
X138261694Y-134879408D01*
X138217941Y-134944890D01*
X138164329Y-134989696D01*
X138114839Y-135000000D01*
X136124000Y-135000000D01*
X136056961Y-134980315D01*
X136011206Y-134927511D01*
X136000000Y-134876000D01*
X136000000Y-133024500D01*
X136019685Y-132957461D01*
X136072489Y-132911706D01*
X136124000Y-132900500D01*
X136208261Y-132900500D01*
X136230971Y-132897191D01*
X136276393Y-132890573D01*
X136381483Y-132839198D01*
X136464198Y-132756483D01*
X136515573Y-132651393D01*
X136525500Y-132583260D01*
X136525500Y-132316740D01*
X136515573Y-132248607D01*
X136464198Y-132143517D01*
X136464196Y-132143515D01*
X136464196Y-132143514D01*
X136381485Y-132060803D01*
X136276391Y-132009426D01*
X136208261Y-131999500D01*
X136208260Y-131999500D01*
X136124000Y-131999500D01*
X136115314Y-131996949D01*
X136106353Y-131998238D01*
X136082312Y-131987259D01*
X136056961Y-131979815D01*
X136051033Y-131972974D01*
X136042797Y-131969213D01*
X136028507Y-131946978D01*
X136011206Y-131927011D01*
X136008918Y-131916496D01*
X136005023Y-131910435D01*
X136000000Y-131875500D01*
X136000000Y-131724500D01*
X136019685Y-131657461D01*
X136072489Y-131611706D01*
X136124000Y-131600500D01*
X136208261Y-131600500D01*
X136230971Y-131597191D01*
X136276393Y-131590573D01*
X136381483Y-131539198D01*
X136464198Y-131456483D01*
X136464201Y-131456476D01*
X136465837Y-131454186D01*
X136468895Y-131451786D01*
X136468953Y-131451728D01*
X136470471Y-131448100D01*
X136496210Y-131430356D01*
X136520808Y-131411059D01*
X136524743Y-131410687D01*
X136527997Y-131408445D01*
X136559243Y-131407433D01*
X136590369Y-131404498D01*
X136594365Y-131406297D01*
G37*
%TD.AperFunction*%
%TA.AperFunction,Conductor*%
G36*
X141943039Y-124519685D02*
G01*
X141988794Y-124572489D01*
X142000000Y-124624000D01*
X142000000Y-129833575D01*
X141980315Y-129900614D01*
X141927511Y-129946369D01*
X141858353Y-129956313D01*
X141794797Y-129927288D01*
X141772899Y-129902468D01*
X141767301Y-129894090D01*
X141634911Y-129761700D01*
X141634907Y-129761697D01*
X141479237Y-129657681D01*
X141479228Y-129657676D01*
X141306251Y-129586027D01*
X141306243Y-129586025D01*
X141122620Y-129549500D01*
X141122616Y-129549500D01*
X140935384Y-129549500D01*
X140935379Y-129549500D01*
X140758093Y-129584764D01*
X140688501Y-129578537D01*
X140646221Y-129550828D01*
X140570915Y-129475522D01*
X140570913Y-129475520D01*
X140525250Y-129449156D01*
X140479589Y-129422793D01*
X140408330Y-129403700D01*
X140377727Y-129395500D01*
X140377726Y-129395500D01*
X140013255Y-129395500D01*
X139983814Y-129386855D01*
X139953828Y-129380332D01*
X139948812Y-129376577D01*
X139946216Y-129375815D01*
X139925574Y-129359181D01*
X139886819Y-129320426D01*
X139853334Y-129259103D01*
X139850500Y-129232745D01*
X139850500Y-129097275D01*
X139850500Y-129097273D01*
X139829724Y-129019735D01*
X139825499Y-128987642D01*
X139825499Y-128925819D01*
X139819499Y-128880243D01*
X139819499Y-128880240D01*
X139772850Y-128780201D01*
X139694799Y-128702150D01*
X139594760Y-128655501D01*
X139594758Y-128655500D01*
X139594757Y-128655500D01*
X139589293Y-128653907D01*
X139530443Y-128616245D01*
X139501296Y-128552745D01*
X139500000Y-128534863D01*
X139500000Y-127865135D01*
X139505363Y-127846869D01*
X139505743Y-127827834D01*
X139515004Y-127814036D01*
X139519685Y-127798096D01*
X139534071Y-127785629D01*
X139544683Y-127769821D01*
X139564446Y-127759310D01*
X139572489Y-127752341D01*
X139574749Y-127751336D01*
X139588704Y-127745296D01*
X139594760Y-127744499D01*
X139649164Y-127719129D01*
X139650749Y-127718444D01*
X139683752Y-127714369D01*
X139716671Y-127709369D01*
X139718913Y-127710027D01*
X139720092Y-127709882D01*
X139722714Y-127711143D01*
X139752401Y-127719859D01*
X139805240Y-127744499D01*
X139850821Y-127750500D01*
X140049178Y-127750499D01*
X140049180Y-127750499D01*
X140064372Y-127748499D01*
X140094760Y-127744499D01*
X140194799Y-127697850D01*
X140272850Y-127619799D01*
X140319499Y-127519760D01*
X140325500Y-127474179D01*
X140325499Y-127025822D01*
X140319499Y-126980240D01*
X140296039Y-126929930D01*
X140292102Y-126920489D01*
X140290123Y-126915132D01*
X140276614Y-126864713D01*
X140267695Y-126849265D01*
X140230470Y-126784789D01*
X140165819Y-126720138D01*
X140132334Y-126658815D01*
X140129500Y-126632457D01*
X140129500Y-124624000D01*
X140149185Y-124556961D01*
X140201989Y-124511206D01*
X140253500Y-124500000D01*
X141876000Y-124500000D01*
X141943039Y-124519685D01*
G37*
%TD.AperFunction*%
%TD*%
M02*
